<?xml version="1.0" encoding="UTF-8" standalone="no"?>
<!-- Created with Inkscape (http://www.inkscape.org/) -->

<svg
   width="135.46666mm"
   height="135.46666mm"
   viewBox="0 0 135.46666 135.46666"
   version="1.1"
   id="svg1"
   inkscape:version="1.3.2 (091e20e, 2023-11-25, custom)"
   xml:space="preserve"
   sodipodi:docname="Antenna.svg"
   inkscape:export-filename="Output\Rodian_Antenna_Left_south.png"
   inkscape:export-xdpi="96"
   inkscape:export-ydpi="96"
   xmlns:inkscape="http://www.inkscape.org/namespaces/inkscape"
   xmlns:sodipodi="http://sodipodi.sourceforge.net/DTD/sodipodi-0.dtd"
   xmlns:xlink="http://www.w3.org/1999/xlink"
   xmlns="http://www.w3.org/2000/svg"
   xmlns:svg="http://www.w3.org/2000/svg"><sodipodi:namedview
     id="namedview1"
     pagecolor="#ffffff"
     bordercolor="#000000"
     borderopacity="0.25"
     inkscape:showpageshadow="2"
     inkscape:pageopacity="0.0"
     inkscape:pagecheckerboard="0"
     inkscape:deskcolor="#d1d1d1"
     inkscape:document-units="px"
     inkscape:zoom="3.2623036"
     inkscape:cx="190.96935"
     inkscape:cy="223.30846"
     inkscape:window-width="3840"
     inkscape:window-height="2066"
     inkscape:window-x="-11"
     inkscape:window-y="-11"
     inkscape:window-maximized="1"
     inkscape:current-layer="layer1" /><defs
     id="defs1"><inkscape:path-effect
       effect="mirror_symmetry"
       start_point="67.73333,0"
       end_point="67.73333,135.46666"
       center_point="67.73333,67.73333"
       id="path-effect5"
       is_visible="true"
       lpeversion="1.2"
       lpesatellites=""
       mode="vertical"
       discard_orig_path="true"
       fuse_paths="false"
       oposite_fuse="false"
       split_items="false"
       split_open="false"
       link_styles="false" /><inkscape:path-effect
       effect="mirror_symmetry"
       start_point="67.73333,0"
       end_point="67.73333,135.46666"
       center_point="67.73333,67.73333"
       id="path-effect4"
       is_visible="true"
       lpeversion="1.2"
       lpesatellites=""
       mode="vertical"
       discard_orig_path="true"
       fuse_paths="false"
       oposite_fuse="false"
       split_items="false"
       split_open="false"
       link_styles="false" /><inkscape:path-effect
       effect="bspline"
       id="path-effect10"
       is_visible="true"
       lpeversion="1.3"
       weight="33.333333"
       steps="2"
       helper_size="0"
       apply_no_weight="true"
       apply_with_weight="true"
       only_selected="false"
       uniform="false" /><inkscape:path-effect
       effect="bspline"
       id="path-effect9"
       is_visible="true"
       lpeversion="1.3"
       weight="33.333333"
       steps="2"
       helper_size="0"
       apply_no_weight="true"
       apply_with_weight="true"
       only_selected="false"
       uniform="false" /><inkscape:path-effect
       effect="bspline"
       id="path-effect8"
       is_visible="true"
       lpeversion="1.3"
       weight="33.333333"
       steps="2"
       helper_size="0"
       apply_no_weight="true"
       apply_with_weight="true"
       only_selected="false"
       uniform="false" /><inkscape:path-effect
       effect="bspline"
       id="path-effect7"
       is_visible="true"
       lpeversion="1.3"
       weight="33.333333"
       steps="2"
       helper_size="0"
       apply_no_weight="true"
       apply_with_weight="true"
       only_selected="false"
       uniform="false" /><linearGradient
       id="linearGradient5"
       inkscape:collect="always"><stop
         style="stop-color:#ffffff;stop-opacity:1;"
         offset="0.22744362"
         id="stop7" /><stop
         style="stop-color:#656565;stop-opacity:0.99607801;"
         offset="1"
         id="stop6" /></linearGradient><linearGradient
       id="linearGradient4"
       inkscape:collect="always"><stop
         style="stop-color:#ffffff;stop-opacity:0.99607801;"
         offset="0.03383459"
         id="stop4" /><stop
         style="stop-color:#000000;stop-opacity:1;"
         offset="0.43233082"
         id="stop5" /></linearGradient><inkscape:path-effect
       effect="bspline"
       id="path-effect3"
       is_visible="true"
       lpeversion="1.3"
       weight="33.333333"
       steps="2"
       helper_size="0"
       apply_no_weight="true"
       apply_with_weight="true"
       only_selected="false"
       uniform="false" /><inkscape:path-effect
       effect="bspline"
       id="path-effect2"
       is_visible="true"
       lpeversion="1.3"
       weight="33.333333"
       steps="2"
       helper_size="0"
       apply_no_weight="true"
       apply_with_weight="true"
       only_selected="false"
       uniform="false" /><inkscape:path-effect
       effect="bspline"
       id="path-effect1"
       is_visible="true"
       lpeversion="1.3"
       weight="33.333333"
       steps="2"
       helper_size="0"
       apply_no_weight="true"
       apply_with_weight="true"
       only_selected="false"
       uniform="false" /><radialGradient
       inkscape:collect="always"
       xlink:href="#linearGradient4"
       id="radialGradient5"
       cx="62.077389"
       cy="45.19928"
       fx="62.077389"
       fy="45.19928"
       r="4.5176559"
       gradientTransform="matrix(2.6957983,-3.7518009,15.168347,10.898982,-790.86911,-214.52484)"
       gradientUnits="userSpaceOnUse" /><radialGradient
       inkscape:collect="always"
       xlink:href="#linearGradient5"
       id="radialGradient7"
       cx="51.522144"
       cy="42.524414"
       fx="51.522144"
       fy="42.524414"
       r="2.6796221"
       gradientTransform="matrix(1.8166909,0.04301224,-0.09080004,3.8350851,-38.216445,-122.77642)"
       gradientUnits="userSpaceOnUse" /><filter
       inkscape:collect="always"
       style="color-interpolation-filters:sRGB"
       id="filter11"
       x="-0.22285949"
       y="-0.21691536"
       width="1.445719"
       height="1.4338307"><feGaussianBlur
         inkscape:collect="always"
         stdDeviation="0.54977203"
         id="feGaussianBlur11" /></filter></defs><g
     inkscape:label="Layer 1"
     inkscape:groupmode="layer"
     id="layer1"><rect
       style="fill:#000000;fill-opacity:0;fill-rule:evenodd;stroke-width:3.73045;stroke-linejoin:bevel"
       id="rect1"
       width="135.46667"
       height="135.46667"
       x="-6.9255066e-06"
       y="-6.9255066e-06" /><image
       width="135.46667"
       height="135.46667"
       preserveAspectRatio="none"
       xlink:href="file:///E:/rimworld_modding/rimworld_mods/StarWarsRaces/1.5/Textures/StarWarsRaces/Rodian/Antenna/Left_Antenna_west.png"
       id="image1"
       x="-6.9255066e-06"
       y="-6.9255066e-06"
       style="display:none" /><g
       id="g3"
       inkscape:label="west"
       style="display:none"><path
         style="fill:#000000;fill-opacity:0.996078;fill-rule:evenodd;stroke:none;stroke-width:1.32292;stroke-linejoin:bevel"
         d="m 64.220236,41.592436 c -1.662616,-1.230065 -3.744223,-2.716928 -5.09597,-3.149487 -1.351747,-0.432559 -1.973514,0.189208 -2.865668,-0.175764 -0.892153,-0.364972 -2.054586,-1.716638 -3.500957,-2.149198 -1.44637,-0.432559 -3.176537,0.05405 -4.2444,1.162479 -1.067863,1.108428 -1.473371,2.838594 -1.527437,4.609367 -0.05407,1.770773 0.243307,3.582042 0.79752,4.771562 0.554214,1.18952 1.36521,1.757217 2.379024,2.014049 1.013813,0.256832 2.230334,0.202764 3.176538,-0.459579 0.946204,-0.662343 1.622064,-1.932959 2.054615,-2.284406 0.43255,-0.351447 0.621788,0.216265 1.297662,1.013796 0.675874,0.797531 1.838308,1.824797 3.284677,2.919711 1.44637,1.094914 3.176536,2.257369 4.393092,2.622329 1.216555,0.364961 1.919422,-0.06757 2.500673,-0.824551 0.581252,-0.756979 1.040826,-1.838333 1.270618,-3.041378 0.229792,-1.203045 0.229792,-2.527705 -0.391999,-3.676665 -0.62179,-1.148961 -1.865373,-2.122199 -3.527988,-3.352265 z"
         id="path1"
         inkscape:path-effect="#path-effect1"
         inkscape:original-d="m 64.639269,41.849264 c -2.081649,-1.486893 -4.163256,-2.973756 -6.244946,-4.460678 -0.621804,0.621804 -1.243571,1.243571 -1.865375,1.865375 -1.162503,-1.351748 -2.324936,-2.703414 -3.48744,-4.055163 -1.730237,0.48663 -3.460404,0.97324 -5.190606,1.459859 -0.405524,1.730237 -0.811032,3.460403 -1.216548,5.190606 0.297383,1.811343 0.594756,3.622612 0.892135,5.433918 0.811049,0.567734 1.622045,1.135431 2.433096,1.703166 1.216576,-0.05407 2.433097,-0.108139 3.649645,-0.162208 0.67586,-1.270617 1.35172,-2.541233 2.02758,-3.81185 0.189241,0.567723 0.378479,1.135435 0.567724,1.70317 1.162503,1.027327 2.324937,2.054593 3.48744,3.08192 1.730236,1.162501 3.460402,2.324956 5.190605,3.487435 0.702908,-0.432559 1.405775,-0.865091 2.108684,-1.29765 0.459594,-1.081399 0.919168,-2.162753 1.378752,-3.244129 0,-1.324714 0,-2.649374 0,-3.974058 -1.243581,-0.973237 -2.487164,-1.946475 -3.730746,-2.919713 z"
         sodipodi:nodetypes="scccccccaccccccss" /><path
         style="fill:url(#radialGradient7);fill-rule:evenodd;stroke:none;stroke-width:1.32292;stroke-linejoin:bevel"
         d="m 49.063897,44.355032 c 0.450472,1.485342 1.787801,2.792952 2.882716,2.360392 1.094915,-0.432559 2.068115,-2.487094 2.230325,-4.257882 0.162209,-1.770788 -0.486591,-3.257623 -1.473366,-3.879426 -0.986775,-0.621803 -2.576347,-0.329841 -3.192746,0.610979 -0.616399,0.940819 -0.897402,3.680595 -0.446929,5.165937 z"
         id="path2"
         inkscape:path-effect="#path-effect2"
         inkscape:original-d="m 48.418625,44.76898 c 0.578967,1.599916 2.433073,2.379004 3.649646,3.568541 0.973258,-2.054656 1.946458,-4.109191 2.919714,-6.163846 -0.648838,-1.486921 -1.297638,-2.973756 -1.946476,-4.460677 -1.324712,0.243315 -2.914284,0.535277 -3.974057,0.72993 -1.438183,1.557226 -0.454028,4.426762 -0.648827,6.326052 z"
         sodipodi:nodetypes="acccaa" /><path
         style="fill:url(#radialGradient5);fill-rule:evenodd;stroke:none;stroke-width:1.32292;stroke-linejoin:bevel"
         d="m 61.2059,47.729247 c 1.324688,1.067861 2.460107,2.095145 3.284673,2.203285 0.824566,0.108141 1.3382,-0.702859 1.716689,-1.473355 0.378489,-0.770496 0.62179,-1.500395 0.04054,-2.338479 -0.581252,-0.838084 -1.987013,-1.784269 -3.595578,-2.933244 -1.608566,-1.148976 -3.419833,-2.500669 -4.203828,-2.703418 -0.783996,-0.202748 -0.540696,0.743418 -0.635319,1.595019 -0.09462,0.8516 -0.527164,1.60855 0.01354,2.541246 0.540703,0.932697 2.054599,2.041084 3.379287,3.108946 z"
         id="path3"
         inkscape:path-effect="#path-effect3"
         inkscape:original-d="m 61.395142,47.769798 c 1.135446,1.02731 2.270865,2.054594 3.406333,3.081924 0.513665,-0.811049 1.027298,-1.622049 1.540961,-2.433097 0.243315,-0.729944 0.486616,-1.459843 0.729931,-2.189787 -1.405819,-0.946224 -2.81158,-1.892409 -4.217369,-2.838612 -1.811341,-1.351749 -3.622609,-2.703441 -5.433915,-4.055163 0.243315,0.946225 0.486615,1.892391 0.729929,2.838614 -0.432559,0.756978 -0.865101,1.513928 -1.297651,2.27089 1.513955,1.108431 3.027851,2.216818 4.541781,3.325231 z"
         sodipodi:nodetypes="ccccccccc" /></g><g
       id="g8"
       inkscape:label="north"
       style="display:inline"
       inkscape:path-effect="#path-effect5"><path
         style="fill:#000000;fill-opacity:0.996078;fill-rule:evenodd;stroke:none;stroke-width:1.32292;stroke-linejoin:bevel"
         d="m 79.11292,48.157429 c -1.093206,0.271683 -2.635302,0.153061 -3.865393,-0.563365 -1.23009,-0.716426 -2.039375,-2.210491 -1.913195,-3.357588 0.126181,-1.147096 1.277876,-2.765694 2.27815,-4.171483 0.0811,-0.865101 0.162204,-1.730203 0.28386,-2.771039 0.121656,-1.040835 0.283857,-2.257337 0.716416,-3.20356 0.432559,-0.946223 1.135424,-1.622055 2.108682,-1.973509 0.973259,-0.351454 2.216818,-0.378487 3.244133,-0.270346 1.027316,0.108141 1.83833,0.351446 2.541231,0.729933 0.702901,0.378486 1.297646,0.892129 1.757234,1.703172 0.459588,0.811043 0.783996,1.919433 0.581231,3.108959 -0.202766,1.189527 -0.654132,1.975238 -1.896233,3.086052 -1.242102,1.110814 -2.079289,1.375252 -2.721709,2.154716 -0.642419,0.779463 -1.003839,1.952993 -1.418088,3.298064 -0.41425,1.345071 -0.603113,1.95831 -1.696319,2.229994 z"
         id="path7"
         inkscape:path-effect="#path-effect7"
         inkscape:original-d="m 55.474604,48.58083 c 1.972343,-0.151718 3.514439,-0.27034 5.271711,-0.405514 0.702909,-1.297678 2.198657,-2.419909 2.108685,-3.892956 -0.848852,-1.19298 -3.000821,-4.217367 -3.000821,-4.217367 0,0 -0.162204,-1.730203 -0.243306,-2.595304 -0.16221,-1.21657 -0.324411,-2.433072 -0.486621,-3.649645 -0.702908,-0.675873 -1.405773,-1.351705 -2.108681,-2.027579 -1.243609,-0.02704 -2.487168,-0.05407 -3.730751,-0.0811 -0.811048,0.243314 -1.622062,0.486619 -2.433095,0.72993 -0.59477,0.513662 -1.189514,1.027306 -1.784271,1.54096 -0.324419,1.108432 -0.648827,2.216822 -0.97324,3.325233 0.729943,1.270642 1.18131,2.056353 2.189788,3.811851 1.475725,0.46613 2.312912,0.730568 3.204358,1.012145 0.393394,1.27735 0.754813,2.45088 1.414076,4.591511 0.169236,0.549511 0.358099,1.16275 0.572168,1.857835 z"
         sodipodi:nodetypes="scaccccccccsccs" /><path
         style="fill:#ffffff;fill-opacity:0.996078;fill-rule:evenodd;stroke:none;stroke-width:1.32292;stroke-linejoin:bevel"
         d="m 84.222941,35.955762 c -0.229793,-0.702896 -0.689377,-1.297652 -1.365247,-1.635583 -0.67587,-0.33793 -1.567986,-0.419031 -2.406062,-0.270338 -0.838075,0.148693 -1.622056,0.527166 -2.04109,1.203037 -0.419033,0.67587 -0.473101,1.64909 -0.446066,2.2844 0.02703,0.63531 0.135171,0.932685 -5e-6,1.419311 -0.135176,0.486626 -0.513649,1.162472 -0.865099,1.865374 -0.351451,0.702903 -0.675857,1.432818 -0.527162,1.838334 0.148696,0.405517 0.770473,0.486618 1.284131,0.756967 0.513659,0.270348 0.919167,0.729924 1.311169,0.594744 0.392003,-0.135179 0.770476,-0.865093 1.108409,-1.662617 0.337933,-0.797523 0.635305,-1.662606 1.067862,-2.054605 0.432556,-0.391999 1.000268,-0.310897 1.540961,-0.567729 0.540693,-0.256833 1.054337,-0.851578 1.311165,-1.554481 0.256827,-0.702903 0.256827,-1.513919 0.02703,-2.216814 z"
         id="path8"
         inkscape:path-effect="#path-effect8"
         inkscape:original-d="m 51.013927,35.847624 c 0.459587,-0.594757 0.919171,-1.189514 1.378755,-1.784271 0.892154,-0.08111 1.784271,-0.162205 2.676409,-0.243308 0.784013,0.378489 1.567994,0.756963 2.351992,1.135444 0.05407,0.973259 0.108138,1.946479 0.162205,2.919717 -0.108137,0.297383 -0.216275,0.594757 -0.324411,0.892135 0.37849,0.675873 0.756963,1.351719 1.135444,2.027582 0.324419,0.729943 0.648827,1.459857 0.973238,2.189786 -0.621803,0.08111 -1.243581,0.162206 -1.865373,0.243309 -0.405525,0.459594 -0.811033,0.91917 -1.216549,1.378754 -0.378489,-0.729943 -0.756963,-1.459857 -1.135444,-2.189787 -0.297386,-0.865116 -0.594757,-1.7302 -0.892135,-2.595303 -0.567735,0.0811 -1.135446,0.162208 -1.703168,0.243311 -0.513665,-0.594768 -1.027308,-1.189514 -1.540963,-1.784271 0,-0.811049 0,-1.622065 0,-2.433098 z" /></g><g
       id="g1"
       inkscape:label="south"
       inkscape:path-effect="#path-effect4"
       style="display:none"><path
         style="fill:#000000;fill-opacity:0.996078;fill-rule:evenodd;stroke:none;stroke-width:1.32292;stroke-linejoin:bevel"
         d="m 55.187913,52.33615 c -0.392074,-1.110874 -1.738389,-4.925431 -2.724958,-6.032581 -0.98657,-1.10715 -2.970382,-1.070414 -3.957839,-1.945661 -0.987457,-0.875246 -2.133645,-3.538449 -2.320766,-5.110275 -0.187122,-1.571825 0.391719,-3.003694 1.239433,-3.97985 0.847715,-0.976156 2.181599,-1.79919 3.587388,-2.191189 1.405789,-0.391999 3.089191,-0.391998 4.549051,0.503546 1.45986,0.895544 3.634824,3.456389 3.881933,4.853088 0.247108,1.3967 -1.244614,3.576909 -0.913437,5.040497 0.331177,1.463588 3.076416,4.601005 3.414984,5.8732 0.338568,1.272195 -0.988736,2.850609 -2.125437,3.41896 -1.136701,0.56835 -3.040277,0.637572 -3.639278,0.659354 -0.599001,0.02178 -0.599001,0.02179 -0.991074,-1.089089 z"
         id="path9"
         inkscape:path-effect="#path-effect9"
         inkscape:original-d="m 79.886675,53.447025 c 0.784147,-2.221749 2.130462,-6.036306 2.919717,-8.272529 1.199701,-0.832247 3.152623,0.872624 4.379575,0.0811 0.763035,-1.772934 1.909223,-4.436137 2.757509,-6.407156 -0.474043,-1.172632 -1.052884,-2.604501 -1.540962,-3.811852 -0.963045,-1.140905 -2.541235,-1.567995 -3.811852,-2.351993 -1.540961,0 -3.224363,-0.64707 -4.622884,10e-7 -1.521199,1.791088 -3.696163,4.351933 -5.0284,5.920534 0.83802,1.224798 2.329743,3.405007 3.163026,4.622883 -0.170574,2.868731 -4.240876,4.846717 -5.677226,6.488259 -0.01526,1.55411 1.604058,2.886966 3.00082,3.568541 1.359099,0.04942 3.262675,0.118644 4.460677,0.162208 z"
         sodipodi:nodetypes="aaaaaaaaaaaa" /><path
         style="fill:#ffffff;fill-opacity:0.996078;fill-rule:evenodd;stroke:none;stroke-width:1.32292;stroke-linejoin:bevel"
         d="m 59.756802,49.743311 c -0.01352,0.324414 -0.229793,0.67586 -0.621799,0.811031 -0.392006,0.135171 -0.959716,0.05407 -1.757241,-0.838083 -0.797524,-0.892152 -1.824811,-2.595286 -2.41957,-3.649633 C 54.363433,45.01228 54.20123,44.606772 53.863294,44.255322 53.525359,43.903872 53.011717,43.6065 52.254743,43.322636 51.49777,43.038771 50.497515,42.768433 49.83517,42.160149 49.172825,41.551865 48.848418,40.605682 48.821386,39.59188 c -0.02703,-1.013801 0.243307,-2.095156 0.770486,-2.838606 0.527178,-0.743449 1.31116,-1.148957 2.122201,-1.338199 0.81104,-0.189241 1.649091,-0.162208 2.338474,0.135176 0.689383,0.297383 1.23006,0.865094 1.730201,1.44634 0.50014,0.581245 0.959717,1.175991 1.067852,1.892412 0.108135,0.71642 -0.135169,1.554469 -0.364964,2.189783 -0.229794,0.635313 -0.446065,1.067854 -0.337923,1.676137 0.108141,0.608282 0.540682,1.392263 1.135447,2.433101 0.594765,1.040838 1.351713,2.338464 1.824815,3.135979 0.473103,0.797515 0.662345,1.094895 0.648827,1.419308 z"
         id="path10"
         inkscape:path-effect="#path-effect10"
         inkscape:original-d="m 75.5071,49.716276 c 0.216276,0.351449 0.432552,0.702895 0.648828,1.054343 0.567735,-0.08111 1.135446,-0.162208 1.703168,-0.243311 1.027326,-1.703202 2.054614,-3.406335 3.081922,-5.109503 0.162211,-0.405525 0.324413,-0.811033 0.486619,-1.216547 0.513665,-0.297386 1.027308,-0.594757 1.540962,-0.892138 1.000292,-0.270348 2.000547,-0.540686 3.000817,-0.81103 0.324422,-0.946224 0.648827,-1.892408 0.973241,-2.838614 -0.270351,-1.081397 -0.540689,-2.162752 -0.811033,-3.244127 -0.784013,-0.405525 -1.567995,-0.811033 -2.351995,-1.216549 -0.838081,0.02703 -1.676132,0.05407 -2.514198,0.0811 -0.540699,0.567735 -1.081375,1.135447 -1.622065,1.703168 -0.459594,0.594768 -0.91917,1.189514 -1.378754,1.784271 0.243313,0.838084 0.486619,1.676133 0.729927,2.514201 0.216281,0.432559 0.432552,0.8651 0.648827,1.297651 -0.432559,0.784014 -0.8651,1.567995 -1.297651,2.351993 -0.756979,1.297678 -1.513928,2.595303 -2.27089,3.892955 -0.189243,0.297378 -0.378485,0.594758 -0.567725,0.892137 z"
         sodipodi:nodetypes="sccccccccccccccccs" /><path
         style="fill:#d1d1d1;fill-opacity:0.996078;fill-rule:evenodd;stroke:none;stroke-width:1.32292;stroke-linejoin:bevel;filter:url(#filter11)"
         id="path11"
         sodipodi:type="arc"
         sodipodi:cx="83.009148"
         sodipodi:cy="39.213409"
         sodipodi:rx="2.9602678"
         sodipodi:ry="3.0413709"
         sodipodi:start="0"
         sodipodi:end="6.2249755"
         sodipodi:open="true"
         sodipodi:arc-type="arc"
         d="m 49.497246,39.213409 c 0,1.662445 1.299248,3.016857 2.91719,3.041049 1.617941,0.02419 2.955003,-1.290802 3.002091,-2.952542 0.04709,-1.661741 -1.213247,-3.054425 -2.829817,-3.12698 -1.616571,-0.07255 -2.990314,1.201907 -3.084451,2.861536" /></g></g></svg>
