<?xml version="1.0" encoding="UTF-8" standalone="no"?>
<!-- Created with Inkscape (http://www.inkscape.org/) -->

<svg
   width="135.46666mm"
   height="135.46666mm"
   viewBox="0 0 135.46666 135.46666"
   version="1.1"
   id="svg1"
   inkscape:version="1.3.2 (091e20e, 2023-11-25, custom)"
   xml:space="preserve"
   sodipodi:docname="Ears.svg"
   inkscape:export-filename="Output\Rodian_Ear_Right_south.png"
   inkscape:export-xdpi="96"
   inkscape:export-ydpi="96"
   xmlns:inkscape="http://www.inkscape.org/namespaces/inkscape"
   xmlns:sodipodi="http://sodipodi.sourceforge.net/DTD/sodipodi-0.dtd"
   xmlns:xlink="http://www.w3.org/1999/xlink"
   xmlns="http://www.w3.org/2000/svg"
   xmlns:svg="http://www.w3.org/2000/svg"><sodipodi:namedview
     id="namedview1"
     pagecolor="#ffffff"
     bordercolor="#000000"
     borderopacity="0.25"
     inkscape:showpageshadow="2"
     inkscape:pageopacity="0.0"
     inkscape:pagecheckerboard="0"
     inkscape:deskcolor="#d1d1d1"
     inkscape:document-units="px"
     inkscape:zoom="3.2623036"
     inkscape:cx="11.648211"
     inkscape:cy="166.9066"
     inkscape:window-width="3840"
     inkscape:window-height="2066"
     inkscape:window-x="-11"
     inkscape:window-y="-11"
     inkscape:window-maximized="1"
     inkscape:current-layer="g5" /><defs
     id="defs1"><inkscape:path-effect
       effect="bspline"
       id="path-effect16"
       is_visible="true"
       lpeversion="1.3"
       weight="33.333333"
       steps="2"
       helper_size="0"
       apply_no_weight="true"
       apply_with_weight="true"
       only_selected="false"
       uniform="false" /><inkscape:path-effect
       effect="bspline"
       id="path-effect14"
       is_visible="true"
       lpeversion="1.3"
       weight="33.333333"
       steps="2"
       helper_size="0"
       apply_no_weight="true"
       apply_with_weight="true"
       only_selected="false"
       uniform="false" /><inkscape:path-effect
       effect="bspline"
       id="path-effect12"
       is_visible="true"
       lpeversion="1.3"
       weight="33.333333"
       steps="2"
       helper_size="0"
       apply_no_weight="true"
       apply_with_weight="true"
       only_selected="false"
       uniform="false" /><linearGradient
       id="linearGradient8"
       inkscape:collect="always"><stop
         style="stop-color:#131313;stop-opacity:0.99607843;"
         offset="0"
         id="stop8" /><stop
         style="stop-color:#656765;stop-opacity:0;"
         offset="0.69736844"
         id="stop9" /></linearGradient><inkscape:path-effect
       effect="bspline"
       id="path-effect8"
       is_visible="true"
       lpeversion="1.3"
       weight="33.333333"
       steps="2"
       helper_size="0"
       apply_no_weight="true"
       apply_with_weight="true"
       only_selected="false"
       uniform="false" /><inkscape:path-effect
       effect="bspline"
       id="path-effect7"
       is_visible="true"
       lpeversion="1.3"
       weight="33.333333"
       steps="2"
       helper_size="0"
       apply_no_weight="true"
       apply_with_weight="true"
       only_selected="false"
       uniform="false" /><inkscape:path-effect
       effect="bspline"
       id="path-effect6"
       is_visible="true"
       lpeversion="1.3"
       weight="33.333333"
       steps="2"
       helper_size="0"
       apply_no_weight="true"
       apply_with_weight="true"
       only_selected="false"
       uniform="false" /><inkscape:path-effect
       effect="bspline"
       id="path-effect5"
       is_visible="true"
       lpeversion="1.3"
       weight="33.333333"
       steps="2"
       helper_size="0"
       apply_no_weight="true"
       apply_with_weight="true"
       only_selected="false"
       uniform="false" /><inkscape:path-effect
       effect="bspline"
       id="path-effect4"
       is_visible="true"
       lpeversion="1.3"
       weight="33.333333"
       steps="2"
       helper_size="0"
       apply_no_weight="true"
       apply_with_weight="true"
       only_selected="false"
       uniform="false" /><inkscape:path-effect
       effect="bspline"
       id="path-effect3"
       is_visible="true"
       lpeversion="1.3"
       weight="33.333333"
       steps="2"
       helper_size="0"
       apply_no_weight="true"
       apply_with_weight="true"
       only_selected="false"
       uniform="false" /><inkscape:path-effect
       effect="bspline"
       id="path-effect2"
       is_visible="true"
       lpeversion="1.3"
       weight="33.333333"
       steps="2"
       helper_size="0"
       apply_no_weight="true"
       apply_with_weight="true"
       only_selected="false"
       uniform="false" /><inkscape:path-effect
       effect="bspline"
       id="path-effect1"
       is_visible="true"
       lpeversion="1.3"
       weight="33.333333"
       steps="2"
       helper_size="0"
       apply_no_weight="true"
       apply_with_weight="true"
       only_selected="false"
       uniform="false" /><filter
       inkscape:collect="always"
       style="color-interpolation-filters:sRGB"
       id="filter4"
       x="-0.060743529"
       y="-0.033165261"
       width="1.1214871"
       height="1.0663305"><feGaussianBlur
         inkscape:collect="always"
         stdDeviation="0.16886448"
         id="feGaussianBlur4" /></filter><filter
       inkscape:collect="always"
       style="color-interpolation-filters:sRGB"
       id="filter5"
       x="-0.095434245"
       y="-0.077496436"
       width="1.1908685"
       height="1.1549929"><feGaussianBlur
         inkscape:collect="always"
         stdDeviation="0.50657892"
         id="feGaussianBlur5" /></filter><filter
       inkscape:collect="always"
       style="color-interpolation-filters:sRGB"
       id="filter7"
       x="-0.13115131"
       y="-0.09158889"
       width="1.2623026"
       height="1.1831778"><feGaussianBlur
         inkscape:collect="always"
         stdDeviation="0.33464395"
         id="feGaussianBlur7" /></filter><linearGradient
       inkscape:collect="always"
       xlink:href="#linearGradient8"
       id="linearGradient9"
       x1="48.162743"
       y1="63.145035"
       x2="42.206745"
       y2="67.930122"
       gradientUnits="userSpaceOnUse" /></defs><g
     inkscape:label="Layer 1"
     inkscape:groupmode="layer"
     id="layer1"
     style="display:inline"><rect
       style="fill:#000000;fill-opacity:0;fill-rule:evenodd;stroke-width:3.73045;stroke-linejoin:bevel"
       id="rect1"
       width="135.46667"
       height="135.46667"
       x="-6.9255066e-06"
       y="-6.9255066e-06" /><g
       id="g5"
       inkscape:label="east"
       style="display:inline"><path
         style="fill:#000000;fill-opacity:1;fill-rule:evenodd;stroke-width:3.96875;stroke-linejoin:bevel"
         d="m 65.323145,66.658185 c -1.800341,-2.195503 -5.863573,-5.72846 -8.952398,-7.705291 -3.088825,-1.976831 -5.202952,-2.39737 -6.416013,-2.272035 -1.213061,0.125335 -1.524904,0.796528 -1.37989,1.686761 0.145015,0.890233 0.74687,1.999394 1.216022,2.932498 0.469153,0.933104 0.805553,1.690052 1.054861,2.744408 0.249308,1.054355 0.411511,2.406048 0.600754,4.136273 0.189243,1.730224 0.405514,3.838863 0.838071,5.271694 0.432557,1.432831 1.08137,2.189781 1.894334,3.034417 0.812964,0.844636 1.790004,1.776886 3.114717,2.209445 1.324712,0.432559 2.996969,0.365372 4.238638,-0.158411 1.241669,-0.523784 2.052669,-1.504105 2.758578,-2.908283 0.705908,-1.404179 1.306637,-3.23204 1.838341,-4.575026 0.531704,-1.342986 0.994326,-2.200947 -0.806015,-4.39645 z"
         id="path1"
         inkscape:path-effect="#path-effect1"
         inkscape:original-d="m 67.586117,67.995709 c -4.063313,-3.533027 -8.126545,-7.065984 -12.189939,-10.599081 -2.114256,-0.420565 -4.228383,-0.841104 -6.342642,-1.26167 -0.311863,0.671236 -0.623706,1.342429 -0.935569,2.013665 0.601892,1.10923 1.203747,2.218391 1.805638,3.32762 0.336413,0.756979 0.672814,1.513927 1.00922,2.27089 0.162211,1.351748 0.324413,2.703441 0.486619,4.055163 0.216281,2.108727 0.432551,4.217366 0.648827,6.32605 0.648838,0.756978 1.297652,1.513927 1.946476,2.27089 0.977103,0.93231 1.954143,1.86456 2.931244,2.796868 1.672324,-0.06719 3.344581,-0.134377 5.016871,-0.201565 0.811048,-0.980379 1.622048,-1.9607 2.433098,-2.941081 0.600767,-1.827976 1.201496,-3.655837 1.802263,-5.483813 0.462641,-0.857996 0.925263,-1.715957 1.387894,-2.573936 z"
         sodipodi:nodetypes="cccccccccccccc" /><path
         style="fill:#dcdddc;fill-opacity:1;fill-rule:evenodd;stroke-width:3.96875;stroke-linejoin:bevel"
         d="m 61.72883,67.534669 c -1.964235,-2.160036 -5.9467,-5.560874 -8.070182,-7.043437 -2.123483,-1.482563 -2.387819,-1.046749 -1.964537,0.140071 0.423282,1.186819 1.534156,3.124547 2.116638,5.012615 0.582481,1.888069 0.636549,3.726373 0.906897,5.294381 0.270349,1.568008 0.75696,2.865635 1.459863,3.811845 0.702903,0.94621 1.622056,1.540956 2.46013,1.676124 0.838074,0.135169 1.595023,-0.189238 2.406063,-1.081388 0.81104,-0.892149 1.676124,-2.351978 2.13571,-3.5415 0.459585,-1.189523 0.513653,-2.108675 -1.450582,-4.268711 z"
         id="path2"
         inkscape:path-effect="#path-effect2"
         inkscape:original-d="M 63.747133,68.775534 C 59.764595,65.374633 55.78213,61.973795 51.799517,58.57283 c -0.264352,0.435839 -0.528689,0.871653 -0.79304,1.307492 1.110915,1.9378 2.22179,3.875528 3.332684,5.81329 0.05407,1.838375 0.108137,3.676679 0.162205,5.51502 0.48663,1.297675 0.973238,2.595303 1.45986,3.892955 0.919186,0.594767 1.838338,1.189514 2.757509,1.78427 0.756978,-0.324421 1.513927,-0.648827 2.270889,-0.97324 0.865119,-1.459886 1.730203,-2.919714 2.595304,-4.379574 0.05407,-0.919186 0.108137,-1.838338 0.162205,-2.757509 z"
         sodipodi:nodetypes="cccccccccc" /><path
         style="mix-blend-mode:multiply;fill:#858585;fill-opacity:1;fill-rule:evenodd;stroke-width:3.96875;stroke-linejoin:bevel;filter:url(#filter4)"
         d="m 57.312945,66.47761 c -0.108138,0.297378 -0.324413,0.892135 0.313394,1.816916 0.637807,0.924781 2.129612,2.179515 2.17096,2.798435 0.04135,0.61892 -1.367765,0.601958 -1.748739,1.59665 -0.380973,0.994692 0.266249,3.000962 1.144083,3.868942 0.877835,0.86798 1.986222,0.597642 2.878364,-0.05119 0.892143,-0.648836 1.567991,-1.676124 1.743711,-3.257658 0.17572,-1.581534 -0.148687,-3.717211 -1.054355,-5.352803 -0.905668,-1.635593 -2.39253,-2.771015 -3.379291,-2.973766 -0.986761,-0.20275 -1.47337,0.527163 -1.716679,0.892128 -0.24331,0.364965 -0.24331,0.36497 -0.351448,0.662349 z"
         id="path4"
         inkscape:path-effect="#path-effect4"
         inkscape:original-d="m 57.421083,66.180231 c -0.216276,0.594757 -0.432551,1.189514 -0.648827,1.784271 1.49189,1.254805 2.983695,2.509539 4.475584,3.764343 -1.409193,-0.01696 -2.818306,-0.03392 -4.2275,-0.05089 0.647247,2.006348 1.294469,4.012618 1.941703,6.018927 1.108435,-0.270348 2.216822,-0.540686 3.325233,-0.81103 0.675873,-1.027329 1.351722,-2.054616 2.027581,-3.081922 -0.324418,-2.135762 -0.648827,-4.271439 -0.973238,-6.407155 -1.486924,-1.135468 -2.973787,-2.27089 -4.460679,-3.406336 -0.48663,0.729943 -0.973238,1.459857 -1.459857,2.189787 z"
         sodipodi:nodetypes="cccccccccc" /><path
         style="mix-blend-mode:color-dodge;fill:#ffffff;fill-opacity:1;fill-rule:evenodd;stroke-width:3.96875;stroke-linejoin:bevel;filter:url(#filter5)"
         d="m 61.369067,73.220491 c 0.08206,-1.313372 0.138052,-2.966843 -1.605702,-5.224261 -1.743754,-2.257419 -5.287112,-5.118603 -6.869581,-6.657363 -1.582469,-1.538761 -1.203997,-1.755031 -0.460539,-1.619855 0.743458,0.135177 1.851846,0.621787 3.703729,1.97353 1.851883,1.351743 4.447133,3.568519 6.055688,5.082454 1.608554,1.513936 2.230332,2.324952 2.324948,3.190062 0.09462,0.865109 -0.337926,1.784261 -1.000278,2.879167 -0.662352,1.094906 -1.554469,2.365498 -1.946467,2.514177 -0.391998,0.14868 -0.283862,-0.82454 -0.201798,-2.137911 z"
         id="path3"
         inkscape:path-effect="#path-effect3"
         inkscape:original-d="m 61.395141,73.560624 c 0.05599,-1.653505 0.111978,-3.306976 0.167969,-4.960514 -3.543499,-2.861299 -7.086857,-5.722483 -10.630285,-8.583724 0.378489,-0.216281 0.756962,-0.432551 1.135446,-0.648827 1.108432,0.48663 2.216819,0.973241 3.32523,1.45986 2.595357,2.216864 5.190607,4.433641 7.78591,6.650463 0.621806,0.811049 1.243584,1.622066 1.865374,2.433098 -0.43256,0.919187 -0.865101,1.838339 -1.297652,2.757509 -0.892151,1.270643 -1.784271,2.541233 -2.676406,3.811852 0.108141,-0.973259 0.216276,-1.946479 0.324414,-2.919717 z"
         sodipodi:nodetypes="cccccccccc" /></g><g
       id="g7"
       inkscape:label="north"
       style="display:none"><path
         style="fill:#000000;fill-opacity:1;fill-rule:evenodd;stroke-width:3.96875;stroke-linejoin:bevel"
         d="m 48.067178,76.534409 c -0.973238,0.135172 -2.379027,-0.24331 -3.67669,-0.919179 -1.297664,-0.67587 -2.487154,-1.649089 -3.78482,-3.676701 -1.297666,-2.027612 -2.703427,-5.109471 -3.460392,-8.083285 -0.756965,-2.973813 -0.8651,-5.839404 -0.64882,-9.083569 0.216281,-3.244165 0.756959,-6.866705 2.054631,-7.866961 1.297672,-1.000256 3.352246,0.621776 5.001357,2.406066 1.649112,1.78429 2.89267,3.730728 3.974055,5.352805 1.081386,1.622077 2.000537,2.919702 2.406052,6.272024 0.405515,3.352322 0.297379,8.759096 -0.02704,11.786956 -0.324418,3.027861 -0.865095,3.676671 -1.838333,3.811844 z"
         id="path5"
         inkscape:path-effect="#path-effect5"
         inkscape:original-d="M 48.499727,77.048063 C 47.09394,76.669582 45.688151,76.291101 44.282361,75.912617 43.092824,74.93936 41.903334,73.966141 40.71382,72.992903 c -1.405819,-3.081986 -2.811579,-6.163845 -4.217369,-9.24577 -0.10814,-2.865702 -0.216275,-5.731293 -0.324413,-8.59694 0.5407,-3.622683 1.081376,-7.245223 1.622065,-10.867832 2.054656,1.622097 4.109231,3.244128 6.163845,4.866193 1.243607,1.946516 2.487165,3.892955 3.730749,5.839431 0.919186,1.297678 1.838338,2.595303 2.757509,3.892955 -0.108141,5.406991 -0.216276,10.813765 -0.324414,16.220647 -0.5407,0.648838 -1.081376,1.297649 -1.622065,1.946476 z" /><path
         style="fill:#bebebe;fill-opacity:0.992157;fill-rule:evenodd;stroke-width:3.96875;stroke-linejoin:bevel"
         d="m 44.572054,71.534168 c -1.054344,-0.648827 -2.131877,-2.433659 -2.942633,-4.163596 -0.810756,-1.729938 -1.354701,-3.404877 -1.758867,-6.01799 -0.404166,-2.613114 -0.668502,-6.164079 -0.273895,-7.939674 0.394608,-1.775596 1.44811,-1.775596 2.927114,-0.422209 1.479004,1.353388 3.383332,4.060003 4.351388,6.269229 0.968056,2.209226 0.999728,3.92081 0.979253,5.829373 -0.02047,1.908563 -0.09309,4.013925 -0.644992,5.310224 -0.551897,1.296299 -1.583025,1.78347 -2.637368,1.134643 z"
         id="path6"
         inkscape:path-effect="#path-effect6"
         inkscape:original-d="M 44.595245,72.670178 C 43.51771,70.885341 42.440177,69.100509 41.362644,67.315677 40.818665,65.640634 40.27472,63.965695 39.730741,62.290654 39.466388,58.739468 39.202052,55.188503 38.937698,51.637312 c 1.053569,0 2.107071,0 3.160638,0 1.904441,2.706775 3.808769,5.41339 5.713207,8.120161 0.03167,1.711681 0.06335,3.423265 0.09502,5.134947 -0.07262,2.105444 -0.145244,4.210806 -0.217866,6.316212 -1.031172,0.487192 -2.0623,0.974363 -3.093452,1.461546 z"
         sodipodi:nodetypes="ccccccccc" /><path
         style="mix-blend-mode:color-dodge;fill:#ffffff;fill-opacity:0.992157;fill-rule:evenodd;stroke-width:3.96875;stroke-linejoin:bevel;filter:url(#filter7)"
         d="m 41.549089,53.420259 c 0.391884,0.869787 1.443275,2.16969 2.456444,3.651213 1.013169,1.481522 1.988076,3.144601 2.666706,3.698965 0.67863,0.554364 1.060947,5e-6 0.640378,-1.357267 -0.420569,-1.357272 -1.643983,-3.517363 -2.7145,-4.941528 -1.070517,-1.424164 -1.988079,-2.112336 -2.580683,-2.236586 -0.592605,-0.124251 -0.860228,0.315415 -0.468345,1.185203 z"
         id="path7"
         inkscape:path-effect="#path-effect7"
         inkscape:original-d="m 40.88958,52.990143 c 1.051393,1.299903 2.102784,2.599806 3.154175,3.899707 0.974947,1.663144 1.949854,3.326223 2.924781,4.989333 0.382333,-0.554382 0.764648,-1.108742 1.146974,-1.66311 -1.223463,-2.160175 -2.446878,-4.320265 -3.670314,-6.480398 -0.917596,-0.688197 -1.835158,-1.376368 -2.752735,-2.064552 -0.267632,0.439682 -0.535255,0.879348 -0.802881,1.31902 z" /></g><g
       id="g11"
       inkscape:label="south"
       style="display:none"><path
         style="fill:#000000;fill-opacity:1;fill-rule:evenodd;stroke-width:3.96875;stroke-linejoin:bevel"
         d="m 48.067178,76.534409 c -0.973238,0.135172 -2.379027,-0.24331 -3.67669,-0.919179 -1.297664,-0.67587 -2.487154,-1.649089 -3.78482,-3.676701 -1.297666,-2.027612 -2.703427,-5.109471 -3.460392,-8.083285 -0.756965,-2.973813 -0.8651,-5.839404 -0.64882,-9.083569 0.216281,-3.244165 0.756959,-6.866705 2.054631,-7.866961 1.297672,-1.000256 3.352246,0.621776 5.001357,2.406066 1.649112,1.78429 2.89267,3.730728 3.974055,5.352805 1.081386,1.622077 2.000537,2.919702 2.406052,6.272024 0.405515,3.352322 0.297379,8.759096 -0.02704,11.786956 -0.324418,3.027861 -0.865095,3.676671 -1.838333,3.811844 z"
         id="path9"
         inkscape:path-effect="#path-effect12"
         inkscape:original-d="M 48.499727,77.048063 C 47.09394,76.669582 45.688151,76.291101 44.282361,75.912617 43.092824,74.93936 41.903334,73.966141 40.71382,72.992903 c -1.405819,-3.081986 -2.811579,-6.163845 -4.217369,-9.24577 -0.10814,-2.865702 -0.216275,-5.731293 -0.324413,-8.59694 0.5407,-3.622683 1.081376,-7.245223 1.622065,-10.867832 2.054656,1.622097 4.109231,3.244128 6.163845,4.866193 1.243607,1.946516 2.487165,3.892955 3.730749,5.839431 0.919186,1.297678 1.838338,2.595303 2.757509,3.892955 -0.108141,5.406991 -0.216276,10.813765 -0.324414,16.220647 -0.5407,0.648838 -1.081376,1.297649 -1.622065,1.946476 z" /><path
         style="fill:#bebebe;fill-opacity:0.992157;fill-rule:evenodd;stroke-width:3.96875;stroke-linejoin:bevel"
         d="m 44.572053,71.534168 c -1.054343,-0.648827 -2.131876,-2.433659 -2.942632,-4.163596 -0.810756,-1.729938 -1.354701,-3.404877 -1.758867,-6.01799 -0.404166,-2.613114 -0.668503,-6.164079 -0.273895,-7.939674 0.394608,-1.775596 1.44811,-1.775596 2.927114,-0.422208 1.479004,1.353387 3.383332,4.060002 4.351388,6.269228 0.968056,2.209226 0.999728,3.92081 0.979253,5.829373 -0.02047,1.908563 -0.09309,4.013925 -0.644992,5.310224 -0.551897,1.296299 -1.583025,1.78347 -2.637369,1.134643 z"
         id="path10"
         inkscape:path-effect="#path-effect14"
         inkscape:original-d="M 44.595245,72.670178 C 43.51771,70.885341 42.440177,69.100509 41.362644,67.315677 40.818665,65.640634 40.27472,63.965695 39.730741,62.290654 39.466388,58.739468 39.202052,55.188503 38.937698,51.637312 c 1.053569,0 2.107071,0 3.160638,0 1.904441,2.706775 3.808769,5.41339 5.713207,8.120161 0.03167,1.711681 0.06335,3.423265 0.09502,5.134947 -0.07262,2.105444 -0.145244,4.210806 -0.217866,6.316212 -1.031172,0.487192 -2.0623,0.974363 -3.093452,1.461546 z"
         sodipodi:nodetypes="ccccccccc" /><path
         style="mix-blend-mode:color-dodge;fill:#ffffff;fill-opacity:0.992157;fill-rule:evenodd;stroke-width:3.96875;stroke-linejoin:bevel;filter:url(#filter7)"
         d="m 41.549089,53.420259 c 0.391884,0.869787 1.443275,2.16969 2.456444,3.651213 1.013169,1.481522 1.988076,3.144601 2.666706,3.698965 0.67863,0.554364 1.060947,5e-6 0.640378,-1.357267 -0.420569,-1.357272 -1.643983,-3.517363 -2.7145,-4.941528 -1.070517,-1.424164 -1.988079,-2.112336 -2.580683,-2.236586 -0.592605,-0.124251 -0.860228,0.315415 -0.468345,1.185203 z"
         id="path11"
         inkscape:path-effect="#path-effect16"
         inkscape:original-d="m 40.88958,52.990143 c 1.051393,1.299903 2.102784,2.599806 3.154175,3.899707 0.974947,1.663144 1.949854,3.326223 2.924781,4.989333 0.382333,-0.554382 0.764648,-1.108742 1.146974,-1.66311 -1.223463,-2.160175 -2.446878,-4.320265 -3.670314,-6.480398 -0.917596,-0.688197 -1.835158,-1.376368 -2.752735,-2.064552 -0.267632,0.439682 -0.535255,0.879348 -0.802881,1.31902 z" /><path
         style="mix-blend-mode:multiply;fill:url(#linearGradient9);fill-opacity:0.996078;fill-rule:evenodd;stroke-width:3.96875;stroke-linejoin:bevel"
         d="m 48.080695,65.950439 c -0.58124,-1.230066 -1.743719,-2.527717 -3.041386,-4.325529 -1.297666,-1.797812 -2.73046,-4.095688 -3.325215,-4.325464 -0.594754,-0.229775 -0.351449,1.608529 -0.04055,3.500957 0.3109,1.892429 0.689373,3.838865 1.270621,5.150041 0.581247,1.311176 1.365229,1.987023 2.257374,2.66289 0.892146,0.675867 1.8924,1.351715 2.487159,1.500399 0.594759,0.148685 0.783996,-0.229788 0.878616,-1.00028 0.09462,-0.770491 0.09462,-1.932949 -0.486619,-3.163014 z"
         id="path8"
         inkscape:path-effect="#path-effect8"
         inkscape:original-d="m 48.661935,66.018025 c -1.162481,-1.297651 -2.32496,-2.595303 -3.487439,-3.892955 -1.432853,-2.297972 -2.865646,-4.595849 -4.298471,-6.893774 0.243314,1.838375 0.486619,3.676679 0.72993,5.51502 0.378489,1.946516 0.756962,3.892952 1.135444,5.839431 0.784013,0.675873 1.567995,1.351719 2.351995,2.027582 1.000291,0.675872 2.000546,1.351719 3.000817,2.027579 0.189246,-0.37849 0.378483,-0.756963 0.567724,-1.135444 0,-1.162502 0,-2.32496 0,-3.487439 z"
         inkscape:label="south" /></g></g></svg>
