<?xml version="1.0" encoding="UTF-8" standalone="no"?>
<!-- Created with Inkscape (http://www.inkscape.org/) -->

<svg
   width="135.46666mm"
   height="135.46666mm"
   viewBox="0 0 135.46666 135.46666"
   version="1.1"
   id="svg1"
   inkscape:version="1.3.2 (091e20e, 2023-11-25, custom)"
   xml:space="preserve"
   sodipodi:docname="Eyes.svg"
   xmlns:inkscape="http://www.inkscape.org/namespaces/inkscape"
   xmlns:sodipodi="http://sodipodi.sourceforge.net/DTD/sodipodi-0.dtd"
   xmlns:xlink="http://www.w3.org/1999/xlink"
   xmlns="http://www.w3.org/2000/svg"
   xmlns:svg="http://www.w3.org/2000/svg"><sodipodi:namedview
     id="namedview1"
     pagecolor="#ffffff"
     bordercolor="#000000"
     borderopacity="0.25"
     inkscape:showpageshadow="2"
     inkscape:pageopacity="0.0"
     inkscape:pagecheckerboard="0"
     inkscape:deskcolor="#d1d1d1"
     inkscape:document-units="px"
     inkscape:zoom="2.306797"
     inkscape:cx="128.74995"
     inkscape:cy="271.1552"
     inkscape:window-width="3840"
     inkscape:window-height="2066"
     inkscape:window-x="-11"
     inkscape:window-y="-11"
     inkscape:window-maximized="1"
     inkscape:current-layer="layer1" /><defs
     id="defs1"><linearGradient
       id="linearGradient10"
       inkscape:collect="always"><stop
         style="stop-color:#00ff00;stop-opacity:1;"
         offset="0.87687969"
         id="stop10" /><stop
         style="stop-color:#00ff00;stop-opacity:0;"
         offset="1"
         id="stop11" /></linearGradient><inkscape:path-effect
       effect="bspline"
       id="path-effect10"
       is_visible="true"
       lpeversion="1.3"
       weight="33.333333"
       steps="2"
       helper_size="0"
       apply_no_weight="true"
       apply_with_weight="true"
       only_selected="false"
       uniform="false" /><inkscape:path-effect
       effect="bspline"
       id="path-effect9"
       is_visible="true"
       lpeversion="1.3"
       weight="33.333333"
       steps="2"
       helper_size="0"
       apply_no_weight="true"
       apply_with_weight="true"
       only_selected="false"
       uniform="false" /><inkscape:path-effect
       effect="bspline"
       id="path-effect8"
       is_visible="true"
       lpeversion="1.3"
       weight="33.333333"
       steps="2"
       helper_size="0"
       apply_no_weight="true"
       apply_with_weight="true"
       only_selected="false"
       uniform="false" /><inkscape:path-effect
       effect="bspline"
       id="path-effect7"
       is_visible="true"
       lpeversion="1.3"
       weight="33.333333"
       steps="2"
       helper_size="0"
       apply_no_weight="true"
       apply_with_weight="true"
       only_selected="false"
       uniform="false" /><inkscape:path-effect
       effect="bspline"
       id="path-effect6"
       is_visible="true"
       lpeversion="1.3"
       weight="33.333333"
       steps="2"
       helper_size="0"
       apply_no_weight="true"
       apply_with_weight="true"
       only_selected="false"
       uniform="false" /><inkscape:path-effect
       effect="bspline"
       id="path-effect5"
       is_visible="true"
       lpeversion="1.3"
       weight="33.333333"
       steps="2"
       helper_size="0"
       apply_no_weight="true"
       apply_with_weight="true"
       only_selected="false"
       uniform="false" /><inkscape:path-effect
       effect="bspline"
       id="path-effect4"
       is_visible="true"
       lpeversion="1.3"
       weight="33.333333"
       steps="2"
       helper_size="0"
       apply_no_weight="true"
       apply_with_weight="true"
       only_selected="false"
       uniform="false" /><inkscape:path-effect
       effect="bspline"
       id="path-effect3"
       is_visible="true"
       lpeversion="1.3"
       weight="33.333333"
       steps="2"
       helper_size="0"
       apply_no_weight="true"
       apply_with_weight="true"
       only_selected="false"
       uniform="false" /><inkscape:path-effect
       effect="bspline"
       id="path-effect2"
       is_visible="true"
       lpeversion="1.3"
       weight="33.333333"
       steps="2"
       helper_size="0"
       apply_no_weight="true"
       apply_with_weight="true"
       only_selected="false"
       uniform="false" /><inkscape:path-effect
       effect="bspline"
       id="path-effect1"
       is_visible="true"
       lpeversion="1.3"
       weight="33.333333"
       steps="2"
       helper_size="0"
       apply_no_weight="true"
       apply_with_weight="true"
       only_selected="false"
       uniform="false" /><radialGradient
       inkscape:collect="always"
       xlink:href="#linearGradient10"
       id="radialGradient11"
       cx="78.65817"
       cy="73.032121"
       fx="78.65817"
       fy="73.032121"
       r="6.2826629"
       gradientTransform="matrix(1,0,0,1.1511282,0,-11.037215)"
       gradientUnits="userSpaceOnUse" /></defs><g
     inkscape:label="Layer 1"
     inkscape:groupmode="layer"
     id="layer1"><rect
       style="fill:#000000;fill-opacity:0;fill-rule:evenodd;stroke-width:3.73045;stroke-linejoin:bevel"
       id="rect1"
       width="135.46667"
       height="135.46667"
       x="-6.9255066e-06"
       y="-6.9255066e-06" /><g
       id="g10"><rect
         style="fill:#ff0000;fill-opacity:1;fill-rule:evenodd;stroke-width:3.73045;stroke-linejoin:bevel"
         id="rect10"
         width="135.46667"
         height="135.46667"
         x="-6.9255066e-06"
         y="-6.9255066e-06" /><path
         style="fill:#000000;fill-opacity:0.99607801;fill-rule:evenodd;stroke-width:1.32292;stroke-linejoin:bevel"
         d="m 87.179491,64.574567 c -0.774207,-0.86023 -1.76825,-2.293945 -2.657162,-3.326226 -0.888912,-1.032281 -1.67266,-1.663104 -3.43138,-1.93073 -1.75872,-0.267626 -4.492283,-0.172048 -6.423031,0.296308 -1.930748,0.468356 -3.058583,1.309453 -4.358501,2.924797 -1.299917,1.615344 -2.771837,4.004822 -3.450461,5.51501 -0.678624,1.510187 -0.563929,2.141009 -0.296297,2.418193 0.267632,0.277185 0.688179,0.200721 1.156532,-0.286752 0.468353,-0.487472 0.98448,-1.385916 2.074121,-2.848326 1.08964,-1.462409 2.752716,-3.488688 4.673919,-4.501847 1.921202,-1.01316 4.100406,-1.01316 5.648828,-0.659503 1.548422,0.353656 2.465982,1.060942 3.144612,1.787365 0.67863,0.726423 1.118295,1.471943 1.605763,2.160132 0.487468,0.68819 1.022712,1.319013 1.615321,1.586639 0.592609,0.267625 1.242547,0.172047 1.682223,-0.172052 0.439675,-0.344098 0.669065,-0.936688 0.506572,-1.376365 -0.162493,-0.439676 -0.716853,-0.726413 -1.491059,-1.586643 z"
         id="path1"
         inkscape:path-effect="#path-effect1"
         inkscape:original-d="m 87.399328,65.148054 c -0.994045,-1.433716 -1.988087,-2.867432 -2.98213,-4.301146 -0.78378,-0.630849 -1.567529,-1.261671 -2.351293,-1.892506 -2.733676,0.09558 -5.467239,0.191161 -8.200856,0.286742 -1.127879,0.841131 -2.255714,1.682229 -3.383571,2.523342 -1.471978,2.389574 -2.943898,4.779052 -4.415846,7.168578 0.114699,0.630849 0.229396,1.261671 0.344093,1.892507 0.420566,-0.07647 0.841113,-0.152929 1.261671,-0.229397 0.516147,-0.89848 1.032275,-1.796923 1.548413,-2.695384 1.663142,-2.026359 3.32622,-4.052636 4.98933,-6.078956 2.179294,0 4.358498,0 6.537746,0 0.917596,0.707313 1.835155,1.4146 2.752736,2.1219 0.439679,0.745546 0.879345,1.491065 1.319017,2.236597 0.535265,0.630846 1.070509,1.261669 1.605761,1.892504 0.649965,-0.09558 1.299903,-0.191161 1.949855,-0.286742 0.229399,-0.592616 0.45879,-1.185206 0.688184,-1.77781 -0.554382,-0.286747 -1.108742,-0.573484 -1.66311,-0.860229 z" /><path
         style="fill:url(#radialGradient11);fill-opacity:1;fill-rule:evenodd;stroke-width:1.32292;stroke-linejoin:bevel"
         d="m 79.568806,65.805156 c 1.782593,0.07558 3.419384,0.9803 4.327404,2.433132 0.90802,1.452832 1.087271,3.453773 1.036898,5.291422 -0.05037,1.837649 -0.33037,3.512003 -1.314855,4.735441 -0.984485,1.223437 -2.673459,1.995957 -4.42523,1.999111 -1.75177,0.0032 -3.566336,-0.763057 -4.837564,-2.053402 -1.271229,-1.290344 -1.999118,-3.104822 -1.979568,-5.021201 0.01955,-1.916379 0.786539,-3.934659 2.134232,-5.320584 1.347693,-1.385925 3.276089,-2.139495 5.058683,-2.063919 z"
         id="path2"
         inkscape:path-effect="#path-effect2"
         inkscape:original-d="m 79.714609,64.97601 c 1.63679,0.904723 3.273581,1.809446 4.910371,2.714169 0.179251,2.000941 0.358501,4.001882 0.537751,6.002824 -0.279997,1.674356 -0.559993,3.34871 -0.839989,5.023065 -1.688974,0.77252 -3.377948,1.54504 -5.066922,2.31756 -1.814567,-0.766212 -3.629133,-1.532423 -5.4437,-2.298635 -0.72789,-1.814477 -1.455779,-3.628955 -2.183669,-5.443432 0.76699,-2.018281 1.533979,-4.036561 2.300968,-6.054841 1.928397,-0.75357 3.856793,-1.50714 5.78519,-2.26071 z"
         sodipodi:nodetypes="ccccccccc" /><path
         style="fill:#000000;fill-opacity:0.996078;fill-rule:evenodd;stroke-width:1.32292;stroke-linejoin:bevel"
         d="m 71.714474,55.905366 c 0.315417,0.334532 0.946252,1.0036 1.835168,1.366809 0.888915,0.363208 2.035865,0.420556 2.829192,0.124249 0.793327,-0.296307 1.232991,-0.946246 1.395478,-1.67267 0.162487,-0.726424 0.04779,-1.529289 -0.258073,-2.160129 -0.305864,-0.63084 -0.802875,-1.089619 -1.252111,-1.385922 -0.449235,-0.296303 -0.850666,-0.430114 -1.395485,-0.487462 -0.54482,-0.05735 -1.232991,-0.03823 -1.825598,0.162492 -0.592607,0.200726 -1.089618,0.583042 -1.156521,0.90802 -0.0669,0.324978 0.296298,0.592601 0.745534,0.659506 0.449237,0.0669 0.984478,-0.06691 1.500622,-0.105138 0.516144,-0.03823 1.013153,0.01912 1.376364,0.267632 0.363211,0.248515 0.592601,0.688179 0.535249,1.127856 -0.05735,0.439676 -0.401437,0.879342 -0.783766,1.080061 -0.382328,0.20072 -0.802875,0.162488 -1.166087,-3e-6 -0.363212,-0.162491 -0.669065,-0.449228 -1.108743,-0.506574 -0.439677,-0.05735 -1.013154,0.114696 -1.299897,0.200719 -0.286742,0.08602 -0.286742,0.08602 0.02867,0.420554 z"
         id="path3"
         inkscape:path-effect="#path-effect3"
         inkscape:original-d="m 71.399058,55.570833 c 0.630833,0.669065 1.261668,1.338133 1.892504,2.007201 1.146995,0.05735 2.293945,0.114697 3.440919,0.172045 0.439679,-0.649962 0.879346,-1.2999 1.319017,-1.949852 -0.1147,-0.802897 -0.229394,-1.605762 -0.344091,-2.408642 -0.497033,-0.458799 -0.994042,-0.917581 -1.491064,-1.376368 -0.40145,-0.133816 -0.802881,-0.267629 -1.204323,-0.401442 -0.688197,0.0191 -1.376368,0.03823 -2.064549,0.05735 -0.497033,0.382334 -0.994045,0.764649 -1.491065,1.146974 0.363215,0.267632 0.726416,0.535255 1.089623,0.802881 0.535266,-0.133815 1.070507,-0.267626 1.605762,-0.401441 0.497033,0.05735 0.994042,0.114699 1.491065,0.172048 0.229399,0.439681 0.45879,0.879345 0.688183,1.319016 -0.344098,0.439682 -0.688183,0.879348 -1.032274,1.31902 -0.420566,-0.03823 -0.841113,-0.07646 -1.261671,-0.114697 -0.305866,-0.28675 -0.611719,-0.573487 -0.917578,-0.860229 -0.573497,0.172047 -1.146974,0.34409 -1.720458,0.516138 z" /><path
         style="fill:#000000;fill-opacity:0.996078;fill-rule:evenodd;stroke-width:1.32292;stroke-linejoin:bevel"
         d="m 66.696468,59.250703 c -0.210278,-0.277186 -0.821998,-0.372766 -1.376373,-0.229391 -0.554374,0.143375 -1.051387,0.525692 -1.433714,0.946253 -0.382327,0.420561 -0.649949,0.879342 -0.659504,1.443277 -0.0096,0.563935 0.23895,1.232989 0.62128,1.701339 0.382329,0.46835 0.898458,0.735973 1.376367,0.908019 0.47791,0.172046 0.917575,0.248509 1.280785,0.143367 0.36321,-0.105143 0.649948,-0.391881 1.060952,-0.879351 0.411003,-0.48747 0.946247,-1.175641 1.01315,-1.730014 0.0669,-0.554373 -0.334531,-0.974923 -0.630834,-1.013151 -0.296302,-0.03823 -0.487461,0.305857 -0.697741,0.65951 -0.210281,0.353652 -0.439672,0.716854 -0.688185,0.917574 -0.248513,0.200721 -0.516136,0.238953 -0.841114,0.181603 -0.324978,-0.05735 -0.707296,-0.210277 -0.764642,-0.477908 -0.05734,-0.26763 0.210276,-0.649946 0.525697,-0.898459 0.315422,-0.248513 0.678623,-0.363208 0.95581,-0.649956 0.277186,-0.286747 0.468344,-0.745527 0.258066,-1.022712 z"
         id="path4"
         inkscape:path-effect="#path-effect4"
         inkscape:original-d="m 67.097909,59.069098 c -0.611719,-0.09558 -1.223439,-0.191161 -1.835158,-0.286742 -0.49703,0.382331 -0.994042,0.764649 -1.491065,1.146972 -0.267631,0.458798 -0.535252,0.91758 -0.80288,1.376368 0.248517,0.669081 0.497022,1.338135 0.745532,2.007203 0.516149,0.267631 1.032277,0.535255 1.548413,0.802881 0.439682,0.07647 0.879348,0.152929 1.319019,0.229393 0.286751,-0.286747 0.573487,-0.573487 0.86023,-0.860229 0.535265,-0.688197 1.070509,-1.376368 1.605761,-2.064552 -0.401447,-0.420563 -0.802881,-0.841113 -1.20432,-1.261668 -0.191166,0.344099 -0.382325,0.688184 -0.573487,1.032275 -0.229399,0.363214 -0.45879,0.726416 -0.688184,1.089623 -0.267631,0.03824 -0.535254,0.07647 -0.80288,0.114699 -0.382331,-0.152934 -0.764649,-0.305861 -1.146972,-0.45879 0.267632,-0.382331 0.535252,-0.764648 0.802881,-1.146974 0.363215,-0.1147 0.726416,-0.229394 1.089623,-0.344091 0.191167,-0.458798 0.382326,-0.917577 0.573487,-1.376368 z" /><path
         style="fill:#000000;fill-opacity:0.996078;fill-rule:evenodd;stroke-width:1.32292;stroke-linejoin:bevel"
         d="m 62.510018,52.932794 c 0,0 0,0 0,0 1.127856,0.172046 2.255713,0.344093 3.096832,0.1816 0.841119,-0.162493 1.395478,-0.659506 1.586638,-1.242556 0.19116,-0.583051 0.01912,-1.252105 -0.363213,-1.624872 -0.382331,-0.372767 -0.974921,-0.44923 -1.213873,-0.353647 -0.238951,0.09558 -0.124255,0.363207 -0.05735,0.602161 0.06691,0.238953 0.08602,0.449227 -0.09558,0.621275 -0.181607,0.172048 -0.563925,0.305859 -0.946253,0.382324 -0.382329,0.07646 -0.764646,0.09558 -0.955807,-0.114701 -0.191162,-0.210283 -0.191162,-0.649946 -0.05735,-0.927132 0.133816,-0.277186 0.401439,-0.391882 0.659509,-0.468347 0.258071,-0.07647 0.506578,-0.114697 0.688183,-0.315421 0.181604,-0.200723 0.296299,-0.563924 -0.05736,-0.716853 -0.353658,-0.152929 -1.175639,-0.09558 -1.787361,0.105142 -0.611723,0.200723 -1.013156,0.544809 -1.204317,1.022721 -0.191161,0.477911 -0.172045,1.089618 -0.01911,1.586643 0.152932,0.497024 0.43967,0.879341 0.583041,1.070503 0.143372,0.191162 0.14337,0.19116 0.14337,0.19116 z"
         id="path5"
         inkscape:path-effect="#path-effect5"
         inkscape:original-d="m 62.510018,52.932794 c 0,0 0,0 0,0 0,0 2.255713,0.344094 3.383569,0.516139 0.554381,-0.497033 1.108741,-0.994045 1.66311,-1.491065 -0.172048,-0.669081 -0.344091,-1.338135 -0.516136,-2.007203 -0.592617,-0.07647 -1.185207,-0.152929 -1.77781,-0.229394 0.1147,0.267632 0.229396,0.535255 0.344093,0.802881 0.0191,0.210283 0.03823,0.420555 0.05735,0.630835 -0.382331,0.133816 -0.764649,0.267627 -1.146974,0.40144 -0.382331,0.01913 -0.764649,0.03823 -1.146972,0.05735 0,-0.439682 0,-0.879345 0,-1.319017 0.267632,-0.114699 0.535255,-0.229396 0.802881,-0.344093 0.248515,-0.03823 0.497023,-0.07646 0.745532,-0.114697 0.1147,-0.363215 0.229394,-0.726416 0.344091,-1.089623 -0.822013,0.05735 -1.643994,0.114697 -2.465991,0.172045 -0.401447,0.344099 -0.802881,0.688184 -1.20432,1.032275 0.0191,0.611733 0.03823,1.223439 0.05735,1.835158 0.286747,0.382331 0.573484,0.764648 0.860229,1.146971 z" /><path
         style="fill:#000000;fill-opacity:0.996078;fill-rule:evenodd;stroke-width:1.32292;stroke-linejoin:bevel"
         d="m 57.186152,58.35224 c -0.563928,0.04779 -1.290344,-0.04779 -1.538853,-0.334538 -0.248509,-0.286747 -0.01912,-0.764644 0.430119,-1.108738 0.449238,-0.344093 1.118293,-0.554368 1.777808,-0.630832 0.659515,-0.07646 1.309453,-0.01912 1.816036,0.33454 0.506584,0.353656 0.869785,1.003594 0.860223,1.768252 -0.0096,0.764658 -0.391877,1.643984 -1.03228,2.198358 -0.640403,0.554373 -1.538846,0.783763 -2.141009,0.802878 -0.602164,0.01911 -0.908017,-0.172044 -1.080064,-0.477908 -0.172047,-0.305864 -0.210279,-0.726412 4e-6,-0.917574 0.210283,-0.191163 0.669062,-0.152931 1.137414,-0.267631 0.468352,-0.1147 0.946247,-0.382321 1.13741,-0.7073 0.191163,-0.324978 0.09558,-0.707297 -0.152931,-0.802876 -0.248515,-0.09558 -0.64995,0.09558 -1.213877,0.143369 z"
         id="path6"
         inkscape:path-effect="#path-effect6"
         inkscape:original-d="m 57.34864,58.495611 c -0.726416,-0.09558 -1.452832,-0.191161 -2.179249,-0.286742 0.229399,-0.477914 0.458791,-0.95581 0.688184,-1.433716 0.669081,-0.210283 1.338136,-0.420555 2.007204,-0.630835 0.649962,0.05735 1.2999,0.114696 1.949852,0.172047 0.363215,0.649963 0.726416,1.299901 1.089625,1.949853 -0.382333,0.879364 -0.764648,1.75869 -1.146974,2.638038 -0.89848,0.2294 -1.796923,0.458788 -2.695384,0.688184 -0.305866,-0.191166 -0.611719,-0.382325 -0.91758,-0.573487 -0.03823,-0.420565 -0.07646,-0.841113 -0.114697,-1.261671 0.458798,0.03823 0.917577,0.07647 1.376367,0.114697 0.477915,-0.267631 0.95581,-0.535252 1.433717,-0.802881 -0.09558,-0.38233 -0.191162,-0.764648 -0.286742,-1.146971 -0.40145,0.191164 -0.802884,0.382323 -1.204323,0.573484 z" /><path
         style="fill:#000000;fill-opacity:0.996078;fill-rule:evenodd;stroke-width:1.32292;stroke-linejoin:bevel"
         d="m 55.704644,66.88763 c 0.191163,-0.07647 0.286744,-0.07647 0.640401,0.01912 0.353657,0.09558 0.965363,0.286742 1.405039,0.764655 0.439676,0.477913 0.707297,1.242545 0.649944,1.940295 -0.05735,0.697749 -0.439669,1.328571 -0.946255,1.796921 -0.506585,0.46835 -1.137408,0.774204 -1.672667,0.755084 -0.535258,-0.01912 -0.974922,-0.363204 -1.481508,-0.822 -0.506586,-0.458795 -1.08006,-1.032271 -1.118287,-1.653554 -0.03823,-0.621283 0.458784,-1.290335 0.888902,-1.548403 0.430119,-0.258068 0.79332,-0.105142 0.860224,0.238955 0.0669,0.344097 -0.162487,0.879342 -0.09558,1.242551 0.06691,0.363209 0.430112,0.554367 0.898466,0.544807 0.468353,-0.0096 1.041827,-0.219834 1.185196,-0.544815 0.143368,-0.32498 -0.143368,-0.764643 -0.458789,-1.070504 -0.315421,-0.30586 -0.659507,-0.477903 -0.917577,-0.669067 -0.258071,-0.191165 -0.430113,-0.40144 -0.372762,-0.583045 0.05735,-0.181605 0.344088,-0.334532 0.53525,-0.410997 z"
         id="path7"
         inkscape:path-effect="#path-effect7"
         inkscape:original-d="m 55.800227,66.811164 c 0.09558,0 0.191161,0 0.286742,0 0.611733,0.191167 1.223439,0.382326 1.835158,0.573487 0.267631,0.764665 0.535252,1.529297 0.802881,2.293946 -0.382334,0.630848 -0.764649,1.261671 -1.146974,1.892506 -0.630846,0.305864 -1.261669,0.611719 -1.892504,0.917578 -0.439682,-0.344099 -0.879345,-0.688184 -1.319019,-1.032275 -0.573498,-0.5735 -1.146974,-1.146974 -1.720459,-1.720461 0.497031,-0.669081 0.994042,-1.338133 1.491065,-2.0072 0.363215,0.152931 0.726416,0.305858 1.089623,0.458787 -0.229399,0.535265 -0.45879,1.07051 -0.688184,1.605762 0.363215,0.191166 0.726416,0.382325 1.089626,0.573487 0.573497,-0.210283 1.146971,-0.420556 1.720458,-0.630836 -0.28675,-0.439682 -0.573487,-0.879345 -0.860229,-1.319017 -0.344099,-0.17205 -0.688184,-0.344093 -1.032277,-0.516138 -0.172048,-0.210283 -0.344091,-0.420558 -0.516136,-0.630836 0.286747,-0.152931 0.573484,-0.305858 0.860229,-0.45879 z" /><path
         style="fill:#000000;fill-opacity:0.996078;fill-rule:evenodd;stroke-width:1.32292;stroke-linejoin:bevel"
         d="m 54.108441,72.756306 c 0.124256,0.01912 0.219837,0.01912 0.497027,0.08603 0.277189,0.06691 0.735969,0.20072 1.032272,0.678633 0.296303,0.477914 0.430113,1.299895 0.248504,1.940292 -0.181609,0.640397 -0.67862,1.099177 -1.252113,1.232989 -0.573492,0.133812 -1.22343,-0.05735 -1.643989,-0.449234 -0.420559,-0.391888 -0.611717,-0.984479 -0.516133,-1.319013 0.09558,-0.334535 0.477902,-0.410998 0.735972,-0.277181 0.258071,0.133817 0.39188,0.4779 0.735978,0.583038 0.344098,0.105139 0.898458,-0.02867 1.060942,-0.277187 0.162485,-0.248514 -0.0669,-0.611714 -0.439676,-0.831551 -0.372771,-0.219837 -0.888898,-0.2963 -1.060942,-0.516142 -0.172044,-0.219841 -3e-6,-0.583039 0.162487,-0.745528 0.162491,-0.162488 0.315414,-0.124257 0.439671,-0.105141 z"
         id="path8"
         inkscape:path-effect="#path-effect8"
         inkscape:original-d="m 54.137117,72.775423 c 0.09558,0 0.191161,0 0.286742,0 0.458798,0.133818 0.917578,0.267629 1.376368,0.401442 0.133816,0.822013 0.267626,1.643994 0.401439,2.465991 -0.49703,0.458798 -0.994042,0.917577 -1.491065,1.376367 -0.649962,-0.191166 -1.2999,-0.382325 -1.949852,-0.573487 -0.191167,-0.592613 -0.382326,-1.185203 -0.573487,-1.777807 0.382331,-0.07647 0.764649,-0.152929 1.146974,-0.229393 0.133816,0.344098 0.267626,0.688181 0.401439,1.032274 0.554382,-0.133815 1.108742,-0.267626 1.66311,-0.401441 -0.229399,-0.363215 -0.458787,-0.726417 -0.688184,-1.089623 -0.516146,-0.07647 -1.032274,-0.15293 -1.548413,-0.229394 0.172051,-0.363218 0.344093,-0.726416 0.516139,-1.089626 0.152932,0.03824 0.305858,0.07646 0.45879,0.114697 z" /><path
         style="fill:#000000;fill-opacity:0.996078;fill-rule:evenodd;stroke-width:1.32292;stroke-linejoin:bevel"
         d="m 47.981696,67.642722 c 0.382324,-0.08602 1.146972,-0.25807 1.787371,-0.563934 0.640399,-0.305864 1.156524,-0.745527 1.366802,-1.366812 0.210278,-0.621286 0.114699,-1.424151 -0.27719,-1.988082 -0.391889,-0.563932 -1.080059,-0.888901 -1.5962,-1.003597 -0.516141,-0.114696 -0.860227,-0.01912 -1.175647,0.105139 -0.315421,0.124257 -0.602159,0.277184 -0.745531,0.468348 -0.143372,0.191165 -0.143372,0.420554 0.01912,0.640393 0.162491,0.219839 0.487461,0.430112 0.783764,0.449227 0.296304,0.01911 0.563925,-0.152927 0.888905,-0.210275 0.32498,-0.05735 0.707297,-10e-7 0.908017,0.258073 0.20072,0.258074 0.219836,0.716852 0.02867,1.04183 -0.191166,0.324978 -0.592598,0.516137 -0.917576,0.611718 -0.324977,0.09558 -0.573485,0.09558 -0.764648,-0.03824 -0.191164,-0.133816 -0.324975,-0.401437 -0.573489,-0.544809 -0.248515,-0.143371 -0.611715,-0.162487 -0.78376,0.229404 -0.172045,0.391891 -0.152929,1.194756 -0.0096,1.596196 0.143374,0.401441 0.410997,0.401441 0.54481,0.401441 0.133813,0 0.13381,-10e-7 0.516135,-0.08602 z"
         id="path9"
         inkscape:path-effect="#path-effect9"
         inkscape:original-d="m 47.599371,67.728745 c 0.764649,-0.172048 1.529297,-0.344094 2.293946,-0.516139 0.516149,-0.439682 1.032274,-0.879345 1.548413,-1.319019 -0.09558,-0.802897 -0.191162,-1.605762 -0.286743,-2.408643 -0.688197,-0.324982 -1.376367,-0.649951 -2.064551,-0.974926 -0.344099,0.09558 -0.688184,0.191162 -1.032275,0.286742 -0.28675,0.152932 -0.573487,0.305861 -0.860232,0.45879 0,0.229399 0,0.458788 0,0.688184 0.324983,0.210283 0.649952,0.420556 0.974929,0.630833 0.267631,-0.172048 0.535252,-0.34409 0.802881,-0.516136 0.382331,0.05735 0.764648,0.114697 1.146971,0.172046 0.01913,0.458798 0.03823,0.917577 0.05735,1.376367 -0.401447,0.191167 -0.802881,0.382323 -1.20432,0.573487 -0.248515,0 -0.497023,0 -0.745533,0 -0.133815,-0.267634 -0.267628,-0.535254 -0.401441,-0.80288 -0.363215,-0.01913 -0.726416,-0.03824 -1.089623,-0.05735 0.0191,0.802899 0.03823,1.605764 0.05735,2.408645 0.267632,0 0.535255,0 0.802881,0 z" /><path
         style="fill:#000000;fill-opacity:0.996078;fill-rule:evenodd;stroke-width:1.32292;stroke-linejoin:bevel"
         d="m 50.361663,55.465693 c 0.449231,0.334534 1.252112,0.50658 1.930743,0.49702 0.678631,-0.0096 1.232992,-0.200719 1.672668,-0.506582 0.439676,-0.305863 0.764645,-0.726412 1.003599,-1.376372 0.238954,-0.649961 0.39188,-1.529288 0.0669,-2.227036 -0.324983,-0.697748 -1.127848,-1.213875 -1.777805,-1.338128 -0.649956,-0.124253 -1.146967,0.143369 -1.261662,0.420558 -0.114694,0.277189 0.152927,0.563926 0.40144,0.86023 0.248512,0.296304 0.477903,0.602158 0.497018,0.955811 0.01911,0.353654 -0.172044,0.755087 -0.525699,0.99404 -0.353655,0.238953 -0.869783,0.315417 -1.338134,0.35365 -0.468351,0.03823 -0.888901,0.03823 -1.051387,0.286748 -0.162487,0.248515 -0.06691,0.745527 0.382323,1.080061 z"
         id="path10"
         inkscape:path-effect="#path-effect10"
         inkscape:original-d="m 50.008013,55.628182 c 0.802881,0.172045 1.605762,0.34409 2.408643,0.516136 0.554381,-0.191165 1.108742,-0.382323 1.663112,-0.573485 0.32498,-0.420566 0.649949,-0.841116 0.974927,-1.261671 0.152931,-0.879364 0.305858,-1.758691 0.458787,-2.638039 -0.802897,-0.516146 -1.605762,-1.032274 -2.408642,-1.548413 -0.497031,0.267634 -0.994043,0.535255 -1.491065,0.802881 0.267634,0.28675 0.535255,0.573487 0.802881,0.860232 0.229399,0.305864 0.45879,0.611717 0.688184,0.917578 -0.191164,0.401447 -0.382323,0.80288 -0.573485,1.204319 -0.516149,0.07647 -1.032277,0.152932 -1.548416,0.229397 -0.420563,0 -0.841113,0 -1.261668,0 0.09558,0.49703 0.191162,0.994042 0.286742,1.491065 z" /></g></g></svg>
