<?xml version="1.0" encoding="UTF-8" standalone="no"?>
<!-- Created with Inkscape (http://www.inkscape.org/) -->

<svg
   width="135.46666mm"
   height="135.46666mm"
   viewBox="0 0 135.46666 135.46666"
   version="1.1"
   id="svg1"
   inkscape:version="1.3.2 (091e20e, 2023-11-25, custom)"
   xml:space="preserve"
   sodipodi:docname="Spines.svg"
   inkscape:export-filename="Output\Rodian_Spines_north.png"
   inkscape:export-xdpi="96"
   inkscape:export-ydpi="96"
   xmlns:inkscape="http://www.inkscape.org/namespaces/inkscape"
   xmlns:sodipodi="http://sodipodi.sourceforge.net/DTD/sodipodi-0.dtd"
   xmlns:xlink="http://www.w3.org/1999/xlink"
   xmlns="http://www.w3.org/2000/svg"
   xmlns:svg="http://www.w3.org/2000/svg"><sodipodi:namedview
     id="namedview1"
     pagecolor="#ffffff"
     bordercolor="#000000"
     borderopacity="0.25"
     inkscape:showpageshadow="2"
     inkscape:pageopacity="0.0"
     inkscape:pagecheckerboard="0"
     inkscape:deskcolor="#d1d1d1"
     inkscape:document-units="px"
     inkscape:zoom="2.306797"
     inkscape:cx="68.059738"
     inkscape:cy="120.29667"
     inkscape:window-width="3840"
     inkscape:window-height="2066"
     inkscape:window-x="-11"
     inkscape:window-y="-11"
     inkscape:window-maximized="1"
     inkscape:current-layer="layer1" /><defs
     id="defs1"><linearGradient
       id="linearGradient17"
       inkscape:collect="always"><stop
         style="stop-color:#ffffff;stop-opacity:1;"
         offset="0.05451128"
         id="stop19" /><stop
         style="stop-color:#000000;stop-opacity:1;"
         offset="1"
         id="stop18" /></linearGradient><linearGradient
       id="linearGradient16"
       inkscape:collect="always"><stop
         style="stop-color:#ffffff;stop-opacity:1;"
         offset="0"
         id="stop17" /><stop
         style="stop-color:#000000;stop-opacity:1;"
         offset="1"
         id="stop16" /></linearGradient><inkscape:path-effect
       effect="mirror_symmetry"
       start_point="67.650338,-55.702602"
       end_point="67.650338,215.60251"
       center_point="67.650338,79.949955"
       id="path-effect16"
       is_visible="true"
       lpeversion="1.2"
       lpesatellites=""
       mode="vertical"
       discard_orig_path="false"
       fuse_paths="false"
       oposite_fuse="false"
       split_items="false"
       split_open="false"
       link_styles="false" /><inkscape:path-effect
       effect="bspline"
       id="path-effect14"
       is_visible="true"
       lpeversion="1.3"
       weight="33.333333"
       steps="2"
       helper_size="0"
       apply_no_weight="true"
       apply_with_weight="true"
       only_selected="false"
       uniform="false" /><inkscape:path-effect
       effect="mirror_symmetry"
       start_point="67.483201,-21.300944"
       end_point="67.483201,168.99928"
       center_point="67.483201,73.849166"
       id="path-effect12"
       is_visible="true"
       lpeversion="1.2"
       lpesatellites=""
       mode="vertical"
       discard_orig_path="false"
       fuse_paths="false"
       oposite_fuse="false"
       split_items="false"
       split_open="false"
       link_styles="false" /><inkscape:path-effect
       effect="bspline"
       id="path-effect10"
       is_visible="true"
       lpeversion="1.3"
       weight="33.333333"
       steps="2"
       helper_size="0"
       apply_no_weight="true"
       apply_with_weight="true"
       only_selected="false"
       uniform="false" /><inkscape:path-effect
       effect="mirror_symmetry"
       start_point="67.73333,0"
       end_point="67.73333,135.46666"
       center_point="67.73333,67.73333"
       id="path-effect8"
       is_visible="true"
       lpeversion="1.2"
       lpesatellites=""
       mode="vertical"
       discard_orig_path="false"
       fuse_paths="false"
       oposite_fuse="false"
       split_items="false"
       split_open="false"
       link_styles="false" /><inkscape:path-effect
       effect="bspline"
       id="path-effect6"
       is_visible="true"
       lpeversion="1.3"
       weight="33.333333"
       steps="2"
       helper_size="0"
       apply_no_weight="true"
       apply_with_weight="true"
       only_selected="false"
       uniform="false" /><inkscape:path-effect
       effect="mirror_symmetry"
       start_point="67.73333,0"
       end_point="67.73333,135.46666"
       center_point="67.73333,67.73333"
       id="path-effect3"
       is_visible="true"
       lpeversion="1.2"
       lpesatellites=""
       mode="vertical"
       discard_orig_path="false"
       fuse_paths="false"
       oposite_fuse="false"
       split_items="false"
       split_open="false"
       link_styles="false" /><inkscape:path-effect
       effect="bspline"
       id="path-effect2"
       is_visible="true"
       lpeversion="1.3"
       weight="33.333333"
       steps="2"
       helper_size="0"
       apply_no_weight="true"
       apply_with_weight="true"
       only_selected="false"
       uniform="false" /><linearGradient
       id="linearGradient1"
       inkscape:collect="always"><stop
         style="stop-color:#ffffff;stop-opacity:0.99607801;"
         offset="0"
         id="stop1" /><stop
         style="stop-color:#747474;stop-opacity:1;"
         offset="1"
         id="stop2" /></linearGradient><inkscape:path-effect
       effect="bspline"
       id="path-effect1"
       is_visible="true"
       lpeversion="1.3"
       weight="33.333333"
       steps="2"
       helper_size="0"
       apply_no_weight="true"
       apply_with_weight="true"
       only_selected="false"
       uniform="false" /><radialGradient
       inkscape:collect="always"
       xlink:href="#linearGradient1"
       id="radialGradient2"
       cx="71.652786"
       cy="40.25816"
       fx="71.652786"
       fy="40.25816"
       r="21.299639"
       gradientTransform="matrix(12.147997,0.860717,-0.1153105,1.6274687,-792.24605,-86.933221)"
       gradientUnits="userSpaceOnUse" /><inkscape:path-effect
       effect="bspline"
       id="path-effect2-3"
       is_visible="true"
       lpeversion="1.3"
       weight="33.333333"
       steps="2"
       helper_size="0"
       apply_no_weight="true"
       apply_with_weight="true"
       only_selected="false"
       uniform="false" /><inkscape:path-effect
       effect="mirror_symmetry"
       start_point="67.4832,-18.721868"
       end_point="67.4832,160.70623"
       center_point="67.4832,70.992182"
       id="path-effect3-3"
       is_visible="true"
       lpeversion="1.2"
       lpesatellites=""
       mode="vertical"
       discard_orig_path="false"
       fuse_paths="false"
       oposite_fuse="false"
       split_items="false"
       split_open="false"
       link_styles="false" /><inkscape:path-effect
       effect="bspline"
       id="path-effect2-3-9"
       is_visible="true"
       lpeversion="1.3"
       weight="33.333333"
       steps="2"
       helper_size="0"
       apply_no_weight="true"
       apply_with_weight="true"
       only_selected="false"
       uniform="false" /><inkscape:path-effect
       effect="mirror_symmetry"
       start_point="67.650338,-55.702602"
       end_point="67.650338,215.60251"
       center_point="67.650338,79.949955"
       id="path-effect3-3-3"
       is_visible="true"
       lpeversion="1.2"
       lpesatellites=""
       mode="vertical"
       discard_orig_path="false"
       fuse_paths="false"
       oposite_fuse="false"
       split_items="false"
       split_open="false"
       link_styles="false" /><inkscape:path-effect
       effect="bspline"
       id="path-effect2-3-2"
       is_visible="true"
       lpeversion="1.3"
       weight="33.333333"
       steps="2"
       helper_size="0"
       apply_no_weight="true"
       apply_with_weight="true"
       only_selected="false"
       uniform="false" /><inkscape:path-effect
       effect="mirror_symmetry"
       start_point="23.283803,84.766872"
       end_point="23.283803,264.19497"
       center_point="23.283803,174.48092"
       id="path-effect3-3-4"
       is_visible="true"
       lpeversion="1.2"
       lpesatellites=""
       mode="vertical"
       discard_orig_path="false"
       fuse_paths="false"
       oposite_fuse="false"
       split_items="false"
       split_open="false"
       link_styles="false" /><radialGradient
       inkscape:collect="always"
       xlink:href="#linearGradient16"
       id="radialGradient17"
       cx="67.764107"
       cy="39.722805"
       fx="67.764107"
       fy="39.722805"
       r="5.0126052"
       gradientTransform="matrix(3.6084288,-0.02519557,0.28447425,40.741511,-187.97405,-1580.9648)"
       gradientUnits="userSpaceOnUse" /><radialGradient
       inkscape:collect="always"
       xlink:href="#linearGradient17"
       id="radialGradient19"
       cx="67.735809"
       cy="39.742767"
       fx="67.735809"
       fy="39.742767"
       r="5.1435161"
       gradientTransform="matrix(4.4786785,-0.00735154,0.04224783,25.738346,-237.31264,-989.1766)"
       gradientUnits="userSpaceOnUse" /></defs><g
     inkscape:label="Layer 1"
     inkscape:groupmode="layer"
     id="layer1"><rect
       style="display:inline;fill:#000000;fill-opacity:0;fill-rule:evenodd;stroke-width:3.73045;stroke-linejoin:bevel"
       id="rect1"
       width="135.46667"
       height="135.46667"
       x="-6.9255066e-06"
       y="-6.9255066e-06" /><path
       style="display:none;fill:url(#radialGradient2);fill-rule:evenodd;stroke:#000000;stroke-width:1.32292;stroke-linejoin:bevel;stroke-dasharray:none;stroke-opacity:1"
       d="m 83.009149,50.831447 c 0,-0.547447 0,-1.64234 1.44637,-3.724021 1.44637,-2.081681 4.338994,-5.150025 5.947545,-7.664244 1.60855,-2.514219 1.932957,-4.474176 1.581499,-5.278446 -0.351457,-0.80427 -1.378744,-0.45283 -2.31144,0.135177 -0.932696,0.588007 -1.770746,1.41254 -2.595303,2.237097 -0.824556,0.824557 -1.635573,1.649092 -2.000537,1.635566 -0.364964,-0.01353 -0.283863,-0.865092 0.182489,-1.932965 0.466353,-1.067873 1.31792,-2.351981 1.608537,-3.08867 0.290617,-0.736689 0.02028,-0.925926 -0.500141,-0.858337 -0.52042,0.06759 -1.290886,0.391996 -1.980269,0.93945 -0.689383,0.547454 -1.297646,1.31792 -2.122206,2.277653 -0.82456,0.959733 -1.865364,2.108673 -2.412811,2.575014 -0.547447,0.466342 -0.601516,0.250069 -0.452822,-0.202765 0.148693,-0.452833 0.500133,-1.142196 0.790756,-2.223587 0.290622,-1.08139 0.52041,-2.554736 0.317646,-3.237354 -0.202764,-0.682618 -0.838061,-0.574483 -1.446341,-0.135166 -0.608281,0.439318 -1.189508,1.209783 -1.973516,2.41283 -0.784007,1.203047 -1.770744,2.838596 -2.250606,2.912927 -0.479861,0.07433 -0.452828,-1.412533 -0.493381,-3.054892 -0.04055,-1.642359 -0.148688,-3.44011 -0.533934,-3.805064 -0.385247,-0.364954 -1.047577,0.702884 -1.682891,1.784271 -0.635315,1.081388 -1.243578,2.17626 -1.750477,3.1833 -0.506899,1.007039 -0.912407,1.926191 -1.155718,2.798059 -0.24331,0.871869 -0.324411,1.696403 -0.506897,2.142471 -0.182487,0.446068 -0.466342,0.513652 -0.608272,-0.148704 -0.14193,-0.662357 -0.14193,-2.054602 -0.128413,-3.791583 0.01352,-1.736982 0.04055,-3.818589 -0.05407,-5.210867 -0.09462,-1.392279 -0.310893,-2.095161 -0.63531,-1.865357 -0.324417,0.229804 -0.756959,1.39226 -1.203031,2.493922 -0.446072,1.101662 -0.905648,2.142467 -1.223304,3.135991 -0.317656,0.993524 -0.493377,1.939711 -0.68262,2.96027 -0.189243,1.020558 -0.391997,2.115431 -0.655585,2.710188 -0.263588,0.594758 -0.587995,0.689376 -0.824548,-0.270365 -0.236553,-0.959742 -0.38524,-2.973763 -0.682623,-4.643152 -0.297383,-1.669389 -0.743441,-2.994047 -1.162478,-3.034586 -0.419037,-0.04054 -0.811027,1.203018 -1.121926,2.338474 -0.310898,1.135455 -0.540687,2.162742 -0.56772,3.467169 -0.02703,1.304426 0.148687,2.885907 0.155445,3.473901 0.0068,0.587994 -0.155446,0.182486 -0.540693,-0.452831 -0.385246,-0.635317 -0.993509,-1.500402 -1.770757,-2.696689 -0.777248,-1.196287 -1.723433,-2.723702 -2.135707,-2.91969 -0.412273,-0.195989 -0.290621,0.939434 -0.101378,2.500691 0.189243,1.561257 0.446064,3.548247 0.425785,4.582314 -0.02028,1.034067 -0.317651,1.115169 -0.973245,0.03377 -0.655594,-1.081399 -1.669364,-3.32521 -2.210053,-4.163271 -0.540689,-0.838061 -0.608273,-0.27035 -0.723171,0.601521 -0.114898,0.871871 -0.277101,2.047846 -0.371721,3.440134 -0.09462,1.392288 -0.121653,3.000801 0.101386,4.176806 0.22304,1.176005 0.696131,1.919435 1.453106,2.304675 0.756974,0.385241 1.797778,0.412274 2.79806,-0.08111 1.000282,-0.493389 1.959986,-1.507159 3.129237,-2.426337 1.169252,-0.919178 2.54798,-1.743712 4.494482,-2.149228 1.946501,-0.405517 4.460651,-0.392001 6.596388,-0.06758 2.135736,0.324419 3.892937,0.959714 5.427152,1.784274 1.534216,0.824559 2.84536,1.838329 3.832122,2.63585 0.986763,0.79752 1.649092,1.378749 2.304683,1.676127 0.65559,0.297379 1.304404,0.310895 1.628816,0.317654 0.324412,0.0068 0.324414,0.0068 0.324414,-0.54068 z"
       id="path1"
       inkscape:path-effect="#path-effect1"
       inkscape:original-d="m 83.009149,51.378894 c 0,-1.094894 0,-2.189787 0,-3.284683 2.89274,-3.068466 5.785364,-6.13681 8.678046,-9.205215 0.324418,-1.960033 0.648827,-3.91999 0.973238,-5.879983 -1.027327,0.351454 -2.054614,0.702894 -3.081923,1.05434 -0.838083,0.824567 -1.676132,1.649101 -2.514198,2.473648 -0.811048,0.824566 -1.622065,1.649101 -2.433097,2.473651 0.08111,-0.851601 0.162205,-1.703168 0.243308,-2.554753 0.851601,-1.284161 1.703168,-2.568269 2.554753,-3.852403 -0.270349,-0.189245 -0.540689,-0.378481 -0.811033,-0.567721 -0.770495,0.324418 -1.540962,0.648824 -2.311442,0.973238 -0.608285,0.770495 -1.216549,1.54096 -1.824823,2.311442 -1.040845,1.148985 -2.081649,2.297925 -3.122473,3.446886 -0.05407,-0.216278 -0.108138,-0.432551 -0.162208,-0.648824 0.351457,-0.689394 0.702895,-1.378758 1.054344,-2.068135 0.229796,-1.473403 0.459584,-2.946749 0.689377,-4.420124 -0.63532,0.108138 -1.270617,0.216273 -1.905926,0.324411 -0.58125,0.770499 -1.162479,1.540963 -1.743718,2.311443 -0.986777,1.635614 -1.973514,3.271163 -2.96027,4.906745 0.02703,-1.486921 0.05407,-2.973784 0.0811,-4.460676 -0.108138,-1.797826 -0.216273,-3.595577 -0.324411,-5.393365 -0.662358,1.067879 -1.324687,2.135717 -1.987029,3.203578 -0.608287,1.094914 -1.216549,2.189787 -1.824823,3.28468 -0.405524,0.919186 -0.811033,1.838338 -1.216549,2.757509 -0.0811,0.824566 -0.162205,1.6491 -0.243308,2.473648 -0.283869,0.06759 -0.567725,0.135173 -0.851585,0.202758 0,-1.392299 0,-2.784544 0,-4.176816 0.02703,-2.081691 0.05407,-4.163298 0.0811,-6.244947 -0.216278,-0.702908 -0.432549,-1.40579 -0.648824,-2.108685 -0.43256,1.162503 -0.8651,2.32496 -1.297652,3.487439 -0.459594,1.040844 -0.91917,2.081649 -1.378754,3.122475 -0.175729,0.946222 -0.351449,1.892409 -0.527172,2.838612 -0.202763,1.094914 -0.405516,2.189787 -0.608274,3.28468 -0.324419,0.09462 -0.648825,0.189241 -0.973239,0.283861 -0.148693,-2.014104 -0.297378,-4.028125 -0.446068,-6.042189 -0.446077,-1.324714 -0.892136,-2.649371 -1.338202,-3.974058 -0.392007,1.243608 -0.783998,2.487165 -1.175996,3.730747 -0.229799,1.027329 -0.459587,2.054616 -0.68938,3.081925 0.175728,1.581544 0.351448,3.163025 0.527171,4.744537 -0.162208,-0.405524 -0.324413,-0.811032 -0.486619,-1.216549 -0.608285,-0.865118 -1.216548,-1.730203 -1.824823,-2.595303 -0.946221,-1.527474 -1.892408,-3.054887 -2.838611,-4.582332 0.121658,1.135467 0.243308,2.27089 0.364963,3.406336 0.256834,1.987068 0.513654,3.974058 0.77048,5.961086 -0.297384,0.08111 -0.594757,0.162209 -0.892135,0.243311 -1.013809,-2.243902 -2.027579,-4.487712 -3.04137,-6.731569 -0.06759,0.567735 -0.135173,1.135446 -0.202758,1.703168 -0.162211,1.17602 -0.324414,2.351995 -0.486619,3.527991 -0.02704,1.60858 -0.05407,3.217093 -0.0811,4.825641 0.47311,0.743463 0.946203,1.486892 1.419305,2.230339 1.040847,0.02704 2.081651,0.05407 3.122475,0.0811 0.959741,-1.013809 1.919443,-2.027581 2.879164,-3.041369 1.378783,-0.824567 2.757511,-1.649101 4.136266,-2.473651 2.514248,0.01352 5.028398,0.02703 7.542599,0.04055 1.757272,0.635323 3.514473,1.270616 5.271709,1.905926 1.311196,1.013809 2.622338,2.027581 3.933507,3.041369 0.662356,0.581253 1.324685,1.162482 1.987029,1.743721 0.648838,0.01352 1.297652,0.02703 1.946476,0.04055 z"
       inkscape:label="east" /><g
       id="g3"
       inkscape:label="north"
       style="fill:url(#radialGradient19)"><path
         style="fill:url(#radialGradient19);fill-opacity:0.996078;fill-rule:evenodd;stroke:#000000;stroke-width:1.32292;stroke-linejoin:bevel;stroke-dasharray:none;stroke-opacity:1"
         d="m 67.733334,55.547948 c -0.407156,0 -0.819177,0 -1.382656,-0.220153 -0.563479,-0.220153 -1.452256,-0.760173 -1.984521,-1.605257 -0.532264,-0.845083 -1.248581,-2.844887 -0.884405,-7.863436 0.364176,-5.018549 1.689468,-13.388388 2.558282,-17.573561 0.868814,-4.185174 1.281053,-4.185174 1.6933,-4.185174 m -7e-6,31.447581 c 0.407156,0 0.819177,0 1.382656,-0.220153 0.563479,-0.220153 1.452256,-0.760173 1.984521,-1.605257 0.532264,-0.845083 1.248581,-2.844887 0.884405,-7.863436 -0.364176,-5.018549 -1.689468,-13.388388 -2.558282,-17.573561 -0.868814,-4.185174 -1.281053,-4.185174 -1.6933,-4.185174"
         id="path2"
         inkscape:path-effect="#path-effect2;#path-effect3"
         inkscape:original-d="m 67.733334,55.547948 c 0,0 -0.819177,0 -1.221469,0 -0.724666,-0.440306 -1.613443,-0.980326 -2.200285,-1.336891 -0.477687,-1.333602 -1.194004,-3.333406 -1.791024,-5.00016 1.325372,-8.370344 2.650664,-16.740183 3.976037,-25.11053 0.412255,0 1.236741,0 1.236741,0"
         sodipodi:nodetypes="cccccc"
         inkscape:label="north" /><path
         style="fill:url(#radialGradient19);fill-opacity:0.996078;fill-rule:evenodd;stroke:#000000;stroke-width:1.32292;stroke-linejoin:bevel;stroke-dasharray:none;stroke-opacity:1"
         d="m 67.733334,55.547948 c -0.407156,0 -0.819177,0 -1.382656,-0.220153 -0.563479,-0.220153 -1.452256,-0.760173 -1.984521,-1.605257 -0.532264,-0.845083 -1.248581,-2.844887 -0.884405,-7.863436 0.364176,-5.018549 1.689468,-13.388388 2.516593,-17.573544 0.827125,-4.185156 1.155989,-4.18512 1.484859,-4.185085 m -0.250138,31.447475 c 0.407157,0 0.819177,0 1.382656,-0.220153 0.563479,-0.220153 1.452256,-0.760173 1.984521,-1.605257 0.532265,-0.845083 1.248581,-2.844887 0.884405,-7.863436 C 71.120472,40.840553 69.79518,32.470714 68.968055,28.285558 68.14093,24.100402 67.812067,24.100438 67.483196,24.100473"
         id="path2-1"
         inkscape:path-effect="#path-effect2-3;#path-effect3-3"
         inkscape:original-d="m 67.733334,55.547948 c 0,0 -0.819177,0 -1.221469,0 -0.724666,-0.440306 -1.613443,-0.980326 -2.200285,-1.336891 -0.477687,-1.333602 -1.194004,-3.333406 -1.791024,-5.00016 1.325372,-8.370344 2.650664,-16.740183 3.976037,-25.11053 0.328877,3.5e-5 0.986611,1.06e-4 0.986611,1.06e-4"
         sodipodi:nodetypes="cccccc"
         inkscape:label="north"
         transform="matrix(1.019772,0,0,0.75499134,-1.0841475,14.134848)" /><path
         style="fill:url(#radialGradient19);fill-opacity:0.996078;fill-rule:evenodd;stroke:#000000;stroke-width:1.32292;stroke-linejoin:bevel;stroke-dasharray:none;stroke-opacity:1"
         d="m 67.650341,55.547866 c -0.379492,2.7e-5 -0.763518,5.5e-5 -1.31333,-0.220085 -0.549812,-0.220139 -1.438589,-0.760159 -1.970854,-1.605243 -0.532264,-0.845083 -1.248581,-2.844887 -0.884405,-7.863436 0.364176,-5.018549 1.689468,-13.388388 2.54445,-17.57357 0.854981,-4.185182 1.239556,-4.185199 1.624139,-4.185216 m -6e-6,31.44755 c 0.379492,2.7e-5 0.763518,5.5e-5 1.31333,-0.220085 0.549812,-0.220139 1.438589,-0.760159 1.970853,-1.605243 0.532265,-0.845083 1.248582,-2.844887 0.884406,-7.863436 -0.364176,-5.018549 -1.689469,-13.388388 -2.54445,-17.57357 -0.854981,-4.185182 -1.239557,-4.185199 -1.624139,-4.185216"
         id="path2-1-3"
         inkscape:path-effect="#path-effect2-3-9;#path-effect3-3-3"
         inkscape:original-d="m 67.650341,55.547866 c 0,0 -0.763518,5.5e-5 -1.138476,8.2e-5 -0.724666,-0.440306 -1.613443,-0.980326 -2.200285,-1.336891 -0.477687,-1.333602 -1.194004,-3.333406 -1.791024,-5.00016 1.325372,-8.370344 2.650664,-16.740183 3.976037,-25.11053 0.38459,-1.7e-5 1.153748,-5.1e-5 1.153748,-5.1e-5"
         sodipodi:nodetypes="cccccc"
         inkscape:label="north"
         transform="matrix(1.0433915,0,0,0.49931481,-2.852457,27.813134)" /></g><g
       id="g5"
       inkscape:label="south"
       style="display:none;fill:url(#radialGradient17)"><path
         style="fill:url(#radialGradient17);fill-opacity:1;fill-rule:evenodd;stroke:#000000;stroke-width:1.32292;stroke-linejoin:bevel;stroke-dasharray:none;stroke-opacity:1"
         d="m 67.733334,55.547948 c -0.407156,0 -0.819177,0 -1.382656,-0.220153 -0.563479,-0.220153 -1.452256,-0.760173 -1.984521,-1.605257 -0.532264,-0.845083 -1.248581,-2.844887 -0.884405,-7.863436 0.364176,-5.018549 1.689468,-13.388388 2.558282,-17.573561 0.868814,-4.185174 1.281053,-4.185174 1.6933,-4.185174 m -7e-6,31.447581 c 0.407156,0 0.819177,0 1.382656,-0.220153 0.563479,-0.220153 1.452256,-0.760173 1.984521,-1.605257 0.532264,-0.845083 1.248581,-2.844887 0.884405,-7.863436 -0.364176,-5.018549 -1.689468,-13.388388 -2.558282,-17.573561 -0.868814,-4.185174 -1.281053,-4.185174 -1.6933,-4.185174"
         id="path3"
         sodipodi:nodetypes="cccccc"
         inkscape:label="north"
         inkscape:original-d="m 67.733334,55.547948 c 0,0 -0.819177,0 -1.221469,0 -0.724666,-0.440306 -1.613443,-0.980326 -2.200285,-1.336891 -0.477687,-1.333602 -1.194004,-3.333406 -1.791024,-5.00016 1.325372,-8.370344 2.650664,-16.740183 3.976037,-25.11053 0.412255,0 1.236741,0 1.236741,0"
         inkscape:path-effect="#path-effect6;#path-effect8" /><path
         style="fill:url(#radialGradient17);fill-opacity:1;fill-rule:evenodd;stroke:#000000;stroke-width:1.32292;stroke-linejoin:bevel;stroke-dasharray:none;stroke-opacity:1"
         d="m 67.483204,55.548052 c -0.32378,-3.5e-5 -0.651428,-7e-5 -1.173716,-0.22024 -0.522289,-0.22017 -1.411066,-0.76019 -1.943331,-1.605274 -0.532264,-0.845083 -1.248581,-2.844887 -0.884405,-7.863436 0.364176,-5.018549 1.689468,-13.388388 2.516593,-17.573544 0.827125,-4.185156 1.155989,-4.18512 1.484859,-4.185085 m -7e-6,31.447579 c 0.32378,-3.5e-5 0.651428,-7e-5 1.173717,-0.22024 0.522288,-0.22017 1.411065,-0.76019 1.94333,-1.605274 0.532265,-0.845083 1.248581,-2.844887 0.884405,-7.863436 -0.364176,-5.018549 -1.689468,-13.388388 -2.516593,-17.573544 -0.827125,-4.185156 -1.155988,-4.18512 -1.484859,-4.185085"
         id="path4"
         sodipodi:nodetypes="cccccc"
         inkscape:label="north"
         transform="matrix(1.0235371,0,0,0.71185762,-1.3382291,15.163239)"
         inkscape:original-d="m 67.483204,55.548052 c 0,0 -0.651428,-7e-5 -0.971339,-1.04e-4 -0.724666,-0.440306 -1.613443,-0.980326 -2.200285,-1.336891 -0.477687,-1.333602 -1.194004,-3.333406 -1.791024,-5.00016 1.325372,-8.370344 2.650664,-16.740183 3.976037,-25.11053 0.328877,3.5e-5 0.986611,1.06e-4 0.986611,1.06e-4"
         inkscape:path-effect="#path-effect10;#path-effect12" /></g></g></svg>
