<?xml version="1.0" encoding="UTF-8" standalone="no"?>
<!-- Created with Inkscape (http://www.inkscape.org/) -->

<svg
   width="511.99997"
   height="511.99997"
   viewBox="0 0 135.46666 135.46666"
   version="1.1"
   id="svg1"
   xml:space="preserve"
   inkscape:version="1.3.2 (091e20e, 2023-11-25, custom)"
   sodipodi:docname="Montral0_south.svg"
   inkscape:export-filename="Output\Togruta_Montral_southm.png"
   inkscape:export-xdpi="96"
   inkscape:export-ydpi="96"
   xmlns:inkscape="http://www.inkscape.org/namespaces/inkscape"
   xmlns:sodipodi="http://sodipodi.sourceforge.net/DTD/sodipodi-0.dtd"
   xmlns="http://www.w3.org/2000/svg"
   xmlns:svg="http://www.w3.org/2000/svg"><sodipodi:namedview
     id="namedview1"
     pagecolor="#ffffff"
     bordercolor="#000000"
     borderopacity="0.25"
     inkscape:showpageshadow="2"
     inkscape:pageopacity="0.0"
     inkscape:pagecheckerboard="0"
     inkscape:deskcolor="#d1d1d1"
     inkscape:document-units="px"
     showguides="false"
     inkscape:zoom="1.1533985"
     inkscape:cx="-247.96287"
     inkscape:cy="180.77013"
     inkscape:window-width="3840"
     inkscape:window-height="2066"
     inkscape:window-x="-11"
     inkscape:window-y="-11"
     inkscape:window-maximized="1"
     inkscape:current-layer="layer1" /><defs
     id="defs1"><inkscape:path-effect
       effect="mirror_symmetry"
       start_point="67.73333,0"
       end_point="67.73333,135.46666"
       center_point="67.73333,67.73333"
       id="path-effect13"
       is_visible="true"
       lpeversion="1.2"
       lpesatellites=""
       mode="vertical"
       discard_orig_path="false"
       fuse_paths="false"
       oposite_fuse="false"
       split_items="false"
       split_open="false"
       link_styles="false" /><inkscape:path-effect
       effect="bspline"
       id="path-effect12"
       is_visible="true"
       lpeversion="1.3"
       weight="33.333333"
       steps="2"
       helper_size="0"
       apply_no_weight="true"
       apply_with_weight="true"
       only_selected="false"
       uniform="false" /><inkscape:path-effect
       effect="bspline"
       id="path-effect11"
       is_visible="true"
       lpeversion="1.3"
       weight="33.333333"
       steps="2"
       helper_size="0"
       apply_no_weight="true"
       apply_with_weight="true"
       only_selected="false"
       uniform="false" /><inkscape:path-effect
       effect="bspline"
       id="path-effect10"
       is_visible="true"
       lpeversion="1.3"
       weight="33.333333"
       steps="2"
       helper_size="0"
       apply_no_weight="true"
       apply_with_weight="true"
       only_selected="false"
       uniform="false" /><inkscape:path-effect
       effect="bspline"
       id="path-effect9"
       is_visible="true"
       lpeversion="1.3"
       weight="33.333333"
       steps="2"
       helper_size="0"
       apply_no_weight="true"
       apply_with_weight="true"
       only_selected="false"
       uniform="false" /><inkscape:path-effect
       effect="mirror_symmetry"
       start_point="67.73333,0"
       end_point="67.73333,135.46666"
       center_point="67.73333,67.73333"
       id="path-effect8"
       is_visible="true"
       lpeversion="1.2"
       lpesatellites=""
       mode="vertical"
       discard_orig_path="false"
       fuse_paths="false"
       oposite_fuse="false"
       split_items="false"
       split_open="false"
       link_styles="false" /><inkscape:path-effect
       effect="bspline"
       id="path-effect7"
       is_visible="true"
       lpeversion="1.3"
       weight="33.333333"
       steps="2"
       helper_size="0"
       apply_no_weight="true"
       apply_with_weight="true"
       only_selected="false"
       uniform="false" /><inkscape:path-effect
       effect="bspline"
       id="path-effect6"
       is_visible="true"
       lpeversion="1.3"
       weight="33.333333"
       steps="2"
       helper_size="0"
       apply_no_weight="true"
       apply_with_weight="true"
       only_selected="false"
       uniform="false" /><inkscape:path-effect
       effect="bspline"
       id="path-effect5"
       is_visible="true"
       lpeversion="1.3"
       weight="33.333333"
       steps="2"
       helper_size="0"
       apply_no_weight="true"
       apply_with_weight="true"
       only_selected="false"
       uniform="false" /><inkscape:path-effect
       effect="bspline"
       id="path-effect4"
       is_visible="true"
       lpeversion="1.3"
       weight="33.333333"
       steps="2"
       helper_size="0"
       apply_no_weight="true"
       apply_with_weight="true"
       only_selected="false"
       uniform="false" /><inkscape:path-effect
       effect="bspline"
       id="path-effect3"
       is_visible="true"
       lpeversion="1.3"
       weight="33.333333"
       steps="2"
       helper_size="0"
       apply_no_weight="true"
       apply_with_weight="true"
       only_selected="false"
       uniform="false" /><inkscape:path-effect
       effect="bspline"
       id="path-effect2"
       is_visible="true"
       lpeversion="1.3"
       weight="33.333333"
       steps="2"
       helper_size="0"
       apply_no_weight="true"
       apply_with_weight="true"
       only_selected="false"
       uniform="false" /><inkscape:path-effect
       effect="bspline"
       id="path-effect1"
       is_visible="true"
       lpeversion="1.3"
       weight="33.333333"
       steps="2"
       helper_size="0"
       apply_no_weight="true"
       apply_with_weight="true"
       only_selected="false"
       uniform="false" /><filter
       inkscape:collect="always"
       style="color-interpolation-filters:sRGB"
       id="filter7"
       x="-0.032858877"
       y="-0.031359647"
       width="1.0657178"
       height="1.0627193"><feGaussianBlur
         inkscape:collect="always"
         stdDeviation="0.83920852"
         id="feGaussianBlur7" /></filter><filter
       inkscape:collect="always"
       style="color-interpolation-filters:sRGB"
       id="filter8"
       x="-0.043871628"
       y="-0.18560048"
       width="1.0877433"
       height="1.371201"><feGaussianBlur
         inkscape:collect="always"
         stdDeviation="1.1785169"
         id="feGaussianBlur8" /></filter></defs><g
     inkscape:label="Layer 1"
     inkscape:groupmode="layer"
     id="layer1"><g
       id="g8"
       inkscape:path-effect="#path-effect8"><path
         style="fill:#000000;fill-opacity:1;fill-rule:evenodd;stroke-width:3.96875;stroke-linejoin:bevel"
         d="m 66.504642,36.777083 c -0.189242,-0.566647 -0.37848,-1.133284 -0.608277,-1.517993 -0.229796,-0.384708 -0.50013,-0.587459 -2.054639,-0.972707 -1.554509,-0.385248 -4.393009,-0.952948 -7.251954,-1.811307 -2.858945,-0.858359 -5.737993,-2.007275 -6.927531,-4.129519 -1.189538,-2.122245 -0.689412,-5.217622 0.08784,-8.123848 0.77725,-2.906226 1.831549,-5.623075 2.379006,-7.346553 0.547457,-1.723478 0.588008,-2.453378 -0.148694,-2.879178 -0.736702,-0.4258001 -2.250569,-0.5474501 -4.420123,0.20277 -2.169555,0.750219 -4.994537,2.372219 -7.251956,4.778329 -2.257419,2.406111 -3.947001,5.596042 -4.764808,10.570474 -0.817808,4.974432 -0.763741,11.73275 -0.851605,15.612271 -0.08786,3.879522 -0.317647,4.879755 -0.736688,5.33259 -0.419041,0.452834 -1.027291,0.358217 -1.1895,5.21099 -0.16221,4.852774 0.121645,14.65255 0.506891,20.154065 0.385245,5.501515 0.871845,6.704496 1.493649,7.637201 0.621803,0.932706 1.378752,1.595036 2.561523,2.737256 1.182771,1.14222 2.791255,2.764221 5.319021,3.595545 2.527766,0.831324 5.974517,0.871874 7.988621,0.689388 2.014103,-0.182486 2.59532,-0.587986 2.804841,-4.237704 0.209521,-3.649718 0.04732,-10.54324 0.148701,-14.470053 0.101381,-3.926812 0.466333,-4.886499 1.49366,-6.177418 1.027328,-1.290918 2.716912,-2.912919 3.886172,-3.825348 1.169261,-0.912429 1.818062,-1.115179 2.838631,-1.238584 1.020568,-0.123405 2.412786,-0.167451 3.462414,-0.189476 1.049628,-0.02202 1.756557,-0.02202 2.463499,-0.02202 V 36.777087 Z m 2.457375,0 c 0.189242,-0.566647 0.37848,-1.133284 0.608277,-1.517993 0.229796,-0.384708 0.50013,-0.587459 2.054639,-0.972707 1.554509,-0.385248 4.393009,-0.952948 7.251954,-1.811307 2.858945,-0.858359 5.737993,-2.007275 6.927531,-4.129519 1.189538,-2.122245 0.689412,-5.217622 -0.08784,-8.123848 -0.77725,-2.906226 -1.831549,-5.623075 -2.379006,-7.346553 -0.547457,-1.723478 -0.588008,-2.453378 0.148694,-2.879178 0.736702,-0.4258001 2.250569,-0.5474501 4.420123,0.20277 2.169555,0.750219 4.994537,2.372219 7.251956,4.778329 2.257419,2.406111 3.947001,5.596042 4.764808,10.570474 0.817807,4.974432 0.763737,11.73275 0.851607,15.612271 0.0879,3.879522 0.31765,4.879755 0.73669,5.33259 0.41904,0.452834 1.02729,0.358217 1.1895,5.21099 0.16221,4.852774 -0.12165,14.65255 -0.50689,20.154065 -0.38525,5.501515 -0.87185,6.704496 -1.49365,7.637201 -0.62181,0.932706 -1.378756,1.595036 -2.561527,2.737256 -1.182771,1.14222 -2.791255,2.764221 -5.319021,3.595545 -2.527766,0.831324 -5.974517,0.871874 -7.988621,0.689388 C 82.817138,86.334371 82.235921,85.928871 82.0264,82.279153 81.816879,78.629435 81.97908,71.735913 81.877699,67.8091 81.776318,63.882288 81.411366,62.922601 80.384039,61.631682 79.356711,60.340764 77.667127,58.718763 76.497867,57.806334 75.328606,56.893905 74.679805,56.691155 73.659236,56.56775 72.638668,56.444345 71.24645,56.400299 70.196822,56.378274 c -1.049628,-0.02202 -1.756557,-0.02202 -2.463499,-0.02202 V 36.777087 Z"
         id="path2"
         inkscape:path-effect="#path-effect2"
         inkscape:original-d="m 66.504642,36.777083 c 0,0 -0.37848,-1.133284 -0.567725,-1.69994 -0.270348,-0.202761 -0.540682,-0.405512 -0.811031,-0.608274 -2.838669,-0.567734 -5.677169,-1.135434 -8.515838,-1.703168 -2.879221,-1.148984 -5.758269,-2.2979 -8.637492,-3.446885 0.500147,-3.095504 1.000273,-6.190881 1.50041,-9.28632 1.054363,-2.717013 2.108662,-5.433862 3.163024,-8.150875 0.04055,-0.729943 0.0811,-1.459843 0.121655,-2.1897859 -1.513956,-0.1216572 -3.027823,-0.2433073 -4.54178,-0.3649645 -2.825152,1.6220964 -5.650134,3.2440964 -8.475287,4.8661934 -1.689685,3.190124 -3.379267,6.380055 -5.068952,9.57018 0.05407,6.758739 0.108137,13.517057 0.162207,20.275805 -0.229797,1.000295 -0.459581,2.000528 -0.689378,3.00082 -0.608285,-0.09462 -1.216535,-0.18924 -1.82482,-0.283863 0.283866,9.80017 0.567721,19.599946 0.851582,29.399919 0.48663,1.203057 0.97323,2.406038 1.459859,3.609092 0.756978,0.662357 1.513927,1.324687 2.27089,1.98703 1.608579,1.622097 3.217063,3.244098 4.825642,4.866194 3.446953,0.04055 6.893704,0.0811 10.34066,0.121654 0.581251,-0.405524 1.162468,-0.811024 1.74372,-1.216548 -0.16221,-6.893912 -0.324411,-13.787434 -0.48662,-20.681322 0.364971,-0.959737 0.729923,-1.919424 1.094895,-2.879165 1.689683,-1.622096 3.379267,-3.244097 5.068949,-4.866193 0.648839,-0.202762 1.29764,-0.405512 1.946479,-0.608274 1.392298,-0.04405 2.784516,-0.08809 4.176816,-0.132143 0.706956,0 2.120827,0 2.120827,0 0,-6.526389 0,-19.579167 0,-19.579167 z"
         sodipodi:nodetypes="cccccccccccccccccccccccccccc" /><path
         style="fill:#e0e0e0;fill-opacity:1;fill-rule:evenodd;stroke-width:3.96875;stroke-linejoin:bevel"
         d="m 67.733333,53.077533 v -12.85531 c -0.389288,0 -0.778575,0 -1.425321,-0.101958 -0.646745,-0.101959 -1.550943,-0.305874 -2.355926,-0.83367 -0.804984,-0.527795 -1.510734,-1.379457 -3.925849,-2.230132 -2.415115,-0.850674 -6.539536,-1.700341 -9.421394,-4.057659 -2.881858,-2.357317 -4.521055,-6.222201 -4.178182,-10.418814 0.342873,-4.196613 2.667822,-8.724857 1.410674,-8.995161 -1.257149,-0.270304 -6.096114,3.717112 -8.28672,10.042887 -2.190606,6.325776 -1.732579,14.989337 -1.637959,19.578422 0.09462,4.589085 -0.174174,5.103542 -0.613919,5.72604 -0.439746,0.622498 -1.050435,1.35303 -1.259546,5.171086 -0.209111,3.818056 -0.01664,10.723506 0.148181,14.611149 0.164819,3.887643 0.301978,4.75738 0.786188,6.01682 0.48421,1.259439 1.315464,2.908568 2.416758,4.18851 1.101293,1.279942 2.47262,2.190689 3.873656,2.864793 1.401035,0.674104 2.831772,1.111563 4.175693,1.303259 1.343922,0.191696 2.600996,0.137628 2.878104,-3.234982 0.277109,-3.37261 -0.425758,-10.063361 0.04735,-14.470055 0.473111,-4.406694 2.122155,-6.528825 3.891986,-8.18168 1.769831,-1.652854 3.660316,-2.836298 5.431424,-3.445326 1.771107,-0.609029 3.422799,-0.643624 4.743702,-0.660921 1.320903,-0.0173 2.310998,-0.0173 3.301097,-0.0173 z m -7e-6,0 v -12.85531 c 0.389288,0 0.778575,0 1.425321,-0.101958 0.646745,-0.101959 1.550943,-0.305874 2.355926,-0.83367 0.804984,-0.527795 1.510734,-1.379457 3.925849,-2.230132 2.415115,-0.850674 6.539536,-1.700341 9.421394,-4.057659 2.881858,-2.357317 4.521055,-6.222201 4.178182,-10.418814 -0.342873,-4.196613 -2.667822,-8.724857 -1.410674,-8.995161 1.257149,-0.270304 6.096114,3.717112 8.28672,10.042887 2.190606,6.325776 1.732579,14.989337 1.637959,19.578422 -0.09462,4.589085 0.174174,5.103542 0.613919,5.72604 0.439746,0.622498 1.050435,1.35303 1.259546,5.171086 0.209111,3.818056 0.01664,10.723506 -0.148181,14.611149 -0.164819,3.887643 -0.301978,4.75738 -0.786188,6.01682 -0.48421,1.259439 -1.315464,2.908568 -2.416758,4.18851 -1.101293,1.279942 -2.47262,2.190689 -3.873656,2.864793 -1.401035,0.674104 -2.831772,1.111563 -4.175693,1.303259 -1.343922,0.191696 -2.600996,0.137628 -2.878104,-3.234982 -0.277109,-3.37261 0.425758,-10.063361 -0.04735,-14.470055 -0.473111,-4.406694 -2.122155,-6.528825 -3.891986,-8.18168 -1.769831,-1.652854 -3.660316,-2.836298 -5.431424,-3.445326 -1.771107,-0.609029 -3.422799,-0.643624 -4.743702,-0.660921 -1.320903,-0.0173 -2.310998,-0.0173 -3.301097,-0.0173 z"
         id="path1"
         inkscape:path-effect="#path-effect1"
         inkscape:original-d="m 67.733333,53.077533 c 0,0 0,-8.570207 0,-12.85531 0,0 -0.778575,0 -1.167863,0 -0.904203,-0.203917 -1.808401,-0.407832 -2.712608,-0.61175 -0.70576,-0.851673 -1.41151,-1.703335 -2.117268,-2.555007 -4.124472,-0.849677 -8.248893,-1.699344 -12.373382,-2.549025 -1.639227,-3.864954 -3.278424,-7.729838 -4.917646,-11.594782 2.324968,-4.528282 4.649917,-9.056526 6.974876,-13.5847886 -4.839256,3.9876546 -9.678221,7.9750706 -14.517477,11.9627246 0.458045,8.663897 0.916071,17.327458 1.374106,25.991171 -0.268794,0.514457 -0.537589,1.028914 -0.806384,1.543372 -0.610695,0.730539 -1.221385,1.46107 -1.832084,2.191612 0.192477,6.90557 0.384951,13.81102 0.577427,20.716563 0.137161,0.869743 0.27432,1.73948 0.411481,2.609222 0.831259,1.649137 1.662513,3.298266 2.493771,4.947402 1.371329,0.910748 2.742656,1.821495 4.113983,2.732241 1.430744,0.437462 2.861481,0.874921 4.292222,1.312382 1.257102,-0.05407 2.514176,-0.108137 3.771302,-0.162207 -0.702909,-6.69115 -1.405776,-13.381901 -2.108685,-20.073047 1.649131,-2.122242 3.298175,-4.244373 4.947297,-6.366604 1.89054,-1.183478 3.781025,-2.366922 5.67154,-3.550384 1.6517,-0.03459 3.303392,-0.06919 4.955096,-0.103785 0.990102,0 2.970296,0 2.970296,0 z"
         sodipodi:nodetypes="ccccccccccccccccccccccc" /><path
         style="mix-blend-mode:multiply;fill:#cccccc;fill-opacity:1;fill-rule:evenodd;stroke-width:3.96875;stroke-linejoin:bevel;filter:url(#filter8)"
         d="m 37.563357,47.331743 c 1.127857,0.05735 2.657153,1.338134 3.851926,2.485117 1.194772,1.146983 2.054985,2.160123 2.93434,2.857868 0.879355,0.697746 1.777797,1.080062 2.829201,1.491065 1.051404,0.411003 2.2557,0.850666 3.335777,1.041828 1.080077,0.191161 2.035868,0.133814 2.963013,0.238956 0.927145,0.105142 1.825588,0.372763 1.997629,1.213891 0.17204,0.841127 -0.382319,2.255699 -1.204326,3.326214 -0.822007,1.070515 -1.911612,1.796918 -2.982129,2.207917 -1.070517,0.410999 -2.12189,0.506578 -3.641648,0.172037 C 46.127381,62.032094 44.139334,61.26746 42.14167,60.101356 40.144006,58.935251 38.136845,57.367754 36.942077,55.551694 35.74731,53.735633 35.364992,51.671121 35.537046,50.05579 35.7091,48.440458 36.4355,47.274395 37.563357,47.331743 Z m 60.339945,0 c -1.127857,0.05735 -2.657153,1.338134 -3.851926,2.485117 -1.194772,1.146983 -2.054985,2.160123 -2.93434,2.857868 -0.879355,0.697746 -1.777797,1.080062 -2.829201,1.491065 -1.051404,0.411003 -2.2557,0.850666 -3.335777,1.041828 -1.080077,0.191161 -2.035868,0.133814 -2.963013,0.238956 -0.927145,0.105142 -1.825588,0.372763 -1.997629,1.213891 -0.17204,0.841127 0.382319,2.255699 1.204326,3.326214 0.822007,1.070515 1.911612,1.796918 2.982129,2.207917 1.070517,0.410999 2.12189,0.506578 3.641648,0.172037 1.519759,-0.334542 3.507806,-1.099176 5.50547,-2.26528 1.997664,-1.166105 4.004825,-2.733602 5.199593,-4.549662 1.194767,-1.816061 1.577088,-3.880573 1.405031,-5.495904 -0.172054,-1.615332 -0.898454,-2.781395 -2.026311,-2.724047 z"
         id="path7"
         inkscape:path-effect="#path-effect7"
         inkscape:original-d="m 37.161917,46.108305 c 1.529297,1.280787 3.058594,2.561571 4.58789,3.842358 0.860248,1.01318 1.720462,2.026319 2.580691,3.039478 0.89848,0.382333 1.796923,0.764648 2.695384,1.146974 1.204346,0.439682 2.408642,0.879345 3.612965,1.319017 0.955831,-0.05735 1.911622,-0.114697 2.867432,-0.172046 0.89848,0.267634 1.796923,0.535255 2.695385,0.802881 -0.554379,1.414629 -1.108739,2.8292 -1.66311,4.2438 -1.089644,0.72643 -2.179249,1.452833 -3.268872,2.179249 -1.051411,0.09558 -2.102784,0.191161 -3.154174,0.286742 -1.988127,-0.764664 -3.976174,-1.529297 -5.964259,-2.293946 -2.007243,-1.567561 -4.014404,-3.135058 -6.021607,-4.702587 -0.382333,-2.064592 -0.764648,-4.129104 -1.146974,-6.193653 0.726432,-1.166114 1.452832,-2.332177 2.179249,-3.498267 z" /><path
         id="path3"
         style="mix-blend-mode:color-dodge;fill:#ffffff;fill-opacity:1;fill-rule:evenodd;stroke-width:3.96875;stroke-linejoin:bevel;filter:url(#filter7)"
         d="m 47.499943,15.987655 c -0.114848,0.0021 -0.261454,0.08413 -0.445451,0.241845 -0.735987,0.630853 -2.073918,2.466196 -2.742985,3.383773 -0.669066,0.917577 -0.669271,0.917405 -0.956014,2.819466 -0.286743,1.902062 -0.86011,5.706128 -0.60203,9.596314 0.25808,3.890186 1.347471,7.866469 2.666504,10.456726 1.319033,2.590257 2.867529,3.794616 4.138765,3.813721 1.271237,0.0191 2.265133,-1.146968 3.010669,-2.466 0.745537,-1.319032 1.242667,-2.790987 1.768368,-3.75636 0.525701,-0.965372 1.080166,-1.423991 1.711006,-1.643827 0.630841,-0.219835 1.338277,-0.200761 1.90221,-0.191203 0.563932,0.0096 0.984507,0.0093 1.328601,-0.10542 0.344094,-0.114699 0.611366,-0.344028 -0.564307,-0.965315 -1.175672,-0.621287 -3.794528,-1.634081 -5.954675,-3.287655 -2.160147,-1.653574 -3.861417,-3.947643 -4.568713,-6.910689 -0.707297,-2.963047 -0.420629,-6.59539 -0.344165,-8.698177 0.05735,-1.577091 -0.0032,-2.293483 -0.347783,-2.287199 z m 20.233391,24.758178 c -0.652136,0 -1.385904,1.78e-4 -2.436544,0.04031 -1.05064,0.04013 -3.111127,0.369417 -4.12955,0.519837 -1.018424,0.150421 -2.170345,1.861914 -2.709826,2.200927 -0.539481,0.339014 -0.854972,0.737308 -0.740523,1.173055 0.114449,0.435749 0.658696,0.909028 0.516247,1.305864 -0.142449,0.396836 -0.971301,0.717528 -1.597835,1.264522 -0.626533,0.546993 -1.050748,1.320338 -0.913123,1.433504 0.137626,0.113167 0.836917,-0.434101 1.55081,-0.687296 0.713893,-0.253197 1.442243,-0.212616 1.883606,-0.04341 0.441363,0.169212 0.5958,0.467219 0.272852,1.040246 -0.322948,0.573028 -1.123343,1.421269 -1.42472,2.425692 -0.301376,1.004422 -0.103508,2.164854 0.0615,2.639632 0.165004,0.474778 0.297509,0.263781 0.353984,-0.248564 0.05647,-0.512343 0.03695,-1.326081 0.572058,-2.03295 0.535104,-0.706869 1.624535,-1.306752 2.400887,-1.557528 0.776351,-0.250775 1.239597,-0.152167 1.12603,0.126607 -0.113569,0.278773 -0.803831,0.737472 -1.17874,1.394747 -0.37491,0.657274 -0.434713,1.51311 -0.205155,1.612305 0.229557,0.09919 0.748483,-0.558238 1.290877,-1.102775 0.542392,-0.544539 1.108475,-0.976543 1.535307,-0.890902 0.42683,0.08564 0.714319,0.688994 1.319816,0.990637 0.605497,0.301643 1.528828,0.301791 2.452047,0.301791 z M 39.188306,56.067896 c -0.573486,0.01912 -1.185017,0.936785 -1.567346,2.886645 -0.38233,1.949861 -0.535367,4.931728 -0.535368,7.42642 -2e-6,2.494693 0.152762,4.502081 0.429948,5.945374 0.277186,1.443292 0.67841,2.322306 1.433504,3.421496 0.755094,1.099191 1.864191,2.418125 2.953825,3.335714 1.089633,0.91759 2.160199,1.43391 2.791044,0.936894 0.630845,-0.497016 0.821678,-2.007339 0.936377,-4.349089 0.114699,-2.341749 0.153231,-5.514941 0.201021,-8.229472 0.04779,-2.71453 0.105127,-4.970209 -0.05736,-6.145878 -0.162487,-1.175668 -0.54485,-1.271325 -1.405082,-1.672766 -0.860232,-0.40144 -2.198502,-1.108363 -3.135209,-1.901692 -0.936707,-0.79333 -1.471868,-1.672762 -2.045354,-1.653646 z m 10.545093,0.624768 c -0.312645,-6.03e-4 -0.585525,0.07589 -0.719336,0.264066 -0.305855,0.430125 0.114836,1.443395 0.68833,1.768368 0.573493,0.324972 1.299728,-0.03807 1.605587,-0.468189 0.305858,-0.430119 0.191079,-0.927144 -0.382406,-1.25212 -0.322586,-0.182798 -0.790204,-0.31135 -1.192175,-0.312125 z M 87.966716,15.987655 c 0.114848,0.0021 0.261454,0.08413 0.445451,0.241845 0.735987,0.630853 2.073918,2.466196 2.742985,3.383773 0.669066,0.917577 0.669271,0.917405 0.956014,2.819466 0.286743,1.902062 0.86011,5.706128 0.60203,9.596314 -0.25808,3.890186 -1.347471,7.866469 -2.666504,10.456726 -1.319033,2.590257 -2.867529,3.794616 -4.138765,3.813721 -1.271237,0.0191 -2.265133,-1.146968 -3.010669,-2.466 -0.745537,-1.319032 -1.242667,-2.790987 -1.768368,-3.75636 -0.525701,-0.965372 -1.080166,-1.423991 -1.711006,-1.643827 -0.630841,-0.219835 -1.338277,-0.200761 -1.90221,-0.191203 -0.563932,0.0096 -0.984507,0.0093 -1.328601,-0.10542 -0.344094,-0.114699 -0.611366,-0.344028 0.564307,-0.965315 1.175672,-0.621287 3.794528,-1.634081 5.954675,-3.287655 2.160147,-1.653574 3.861417,-3.947643 4.568713,-6.910689 0.707297,-2.963047 0.420629,-6.59539 0.344165,-8.698177 -0.05735,-1.577091 0.0032,-2.293483 0.347783,-2.287199 z M 67.733325,40.745833 c 0.652136,0 1.385904,1.78e-4 2.436544,0.04031 1.05064,0.04013 3.111127,0.369417 4.12955,0.519837 1.018424,0.150421 2.170345,1.861914 2.709826,2.200927 0.539481,0.339014 0.854972,0.737308 0.740523,1.173055 -0.114449,0.435749 -0.658696,0.909028 -0.516247,1.305864 0.142449,0.396836 0.971301,0.717528 1.597835,1.264522 0.626533,0.546993 1.050748,1.320338 0.913123,1.433504 -0.137626,0.113167 -0.836917,-0.434101 -1.55081,-0.687296 -0.713893,-0.253197 -1.442243,-0.212616 -1.883606,-0.04341 -0.441363,0.169212 -0.5958,0.467219 -0.272852,1.040246 0.322948,0.573028 1.123343,1.421269 1.42472,2.425692 0.301376,1.004422 0.103508,2.164854 -0.0615,2.639632 -0.165004,0.474778 -0.297509,0.263781 -0.353984,-0.248564 -0.05647,-0.512343 -0.03695,-1.326081 -0.572058,-2.03295 -0.535104,-0.706869 -1.624535,-1.306752 -2.400887,-1.557528 -0.776351,-0.250775 -1.239597,-0.152167 -1.12603,0.126607 0.113569,0.278773 0.803831,0.737472 1.17874,1.394747 0.37491,0.657274 0.434713,1.51311 0.205155,1.612305 -0.229557,0.09919 -0.748483,-0.558238 -1.290877,-1.102775 -0.542392,-0.544539 -1.108475,-0.976543 -1.535307,-0.890902 -0.42683,0.08564 -0.714319,0.688994 -1.319816,0.990637 -0.605497,0.301643 -1.528828,0.301791 -2.452047,0.301791 z m 28.545028,15.322063 c 0.573486,0.01912 1.185017,0.936785 1.567346,2.886645 0.38233,1.949861 0.535367,4.931728 0.535368,7.42642 2e-6,2.494693 -0.152762,4.502081 -0.429948,5.945374 -0.277186,1.443292 -0.67841,2.322306 -1.433504,3.421496 -0.755094,1.099191 -1.864191,2.418125 -2.953825,3.335714 -1.089633,0.91759 -2.160199,1.43391 -2.791044,0.936894 -0.630845,-0.497016 -0.821678,-2.007339 -0.936377,-4.349089 -0.114699,-2.341749 -0.153231,-5.514941 -0.201021,-8.229472 -0.04779,-2.71453 -0.105127,-4.970209 0.05736,-6.145878 0.162487,-1.175668 0.54485,-1.271325 1.405082,-1.672766 0.860232,-0.40144 2.198502,-1.108363 3.135209,-1.901692 0.936707,-0.79333 1.471868,-1.672762 2.045354,-1.653646 z M 85.73326,56.692664 c 0.312645,-6.03e-4 0.585525,0.07589 0.719336,0.264066 0.305855,0.430125 -0.114836,1.443395 -0.68833,1.768368 -0.573493,0.324972 -1.299728,-0.03807 -1.605587,-0.468189 -0.305858,-0.430119 -0.191079,-0.927144 0.382406,-1.25212 0.322586,-0.182798 0.790204,-0.31135 1.192175,-0.312125 z"
         inkscape:original-d="m 47.499943,15.987655 c -0.114848,0.0021 -0.261454,0.08413 -0.445451,0.241845 -0.735987,0.630853 -2.073918,2.466196 -2.742985,3.383773 -0.669066,0.917577 -0.669271,0.917405 -0.956014,2.819466 -0.286743,1.902062 -0.86011,5.706128 -0.60203,9.596314 0.25808,3.890186 1.347471,7.866469 2.666504,10.456726 1.319033,2.590257 2.867529,3.794616 4.138765,3.813721 1.271237,0.0191 2.265133,-1.146968 3.010669,-2.466 0.745537,-1.319032 1.242667,-2.790987 1.768368,-3.75636 0.525701,-0.965372 1.080166,-1.423991 1.711006,-1.643827 0.630841,-0.219835 1.338277,-0.200761 1.90221,-0.191203 0.563932,0.0096 0.984507,0.0093 1.328601,-0.10542 0.344094,-0.114699 0.611366,-0.344028 -0.564307,-0.965315 -1.175672,-0.621287 -3.794528,-1.634081 -5.954675,-3.287655 -2.160147,-1.653574 -3.861417,-3.947643 -4.568713,-6.910689 -0.707297,-2.963047 -0.420629,-6.59539 -0.344165,-8.698177 0.05735,-1.577091 -0.0032,-2.293483 -0.347783,-2.287199 z m 20.233391,24.758178 c -0.652136,0 -1.385904,1.78e-4 -2.436544,0.04031 -1.05064,0.04013 -3.111127,0.369417 -4.12955,0.519837 -1.018424,0.150421 -2.170345,1.861914 -2.709826,2.200927 -0.539481,0.339014 -0.854972,0.737308 -0.740523,1.173055 0.114449,0.435749 0.658696,0.909028 0.516247,1.305864 -0.142449,0.396836 -0.971301,0.717528 -1.597835,1.264522 -0.626533,0.546993 -1.050748,1.320338 -0.913123,1.433504 0.137626,0.113167 0.836917,-0.434101 1.55081,-0.687296 0.713893,-0.253197 1.442243,-0.212616 1.883606,-0.04341 0.441363,0.169212 0.5958,0.467219 0.272852,1.040246 -0.322948,0.573028 -1.123343,1.421269 -1.42472,2.425692 -0.301376,1.004422 -0.103508,2.164854 0.0615,2.639632 0.165004,0.474778 0.297509,0.263781 0.353984,-0.248564 0.05647,-0.512343 0.03695,-1.326081 0.572058,-2.03295 0.535104,-0.706869 1.624535,-1.306752 2.400887,-1.557528 0.776351,-0.250775 1.239597,-0.152167 1.12603,0.126607 -0.113569,0.278773 -0.803831,0.737472 -1.17874,1.394747 -0.37491,0.657274 -0.434713,1.51311 -0.205155,1.612305 0.229557,0.09919 0.748483,-0.558238 1.290877,-1.102775 0.542392,-0.544539 1.108475,-0.976543 1.535307,-0.890902 0.42683,0.08564 0.714319,0.688994 1.319816,0.990637 0.605497,0.301643 1.528828,0.301791 2.452047,0.301791 z M 39.188306,56.067896 c -0.573486,0.01912 -1.185017,0.936785 -1.567346,2.886645 -0.38233,1.949861 -0.535367,4.931728 -0.535368,7.42642 -2e-6,2.494693 0.152762,4.502081 0.429948,5.945374 0.277186,1.443292 0.67841,2.322306 1.433504,3.421496 0.755094,1.099191 1.864191,2.418125 2.953825,3.335714 1.089633,0.91759 2.160199,1.43391 2.791044,0.936894 0.630845,-0.497016 0.821678,-2.007339 0.936377,-4.349089 0.114699,-2.341749 0.153231,-5.514941 0.201021,-8.229472 0.04779,-2.71453 0.105127,-4.970209 -0.05736,-6.145878 -0.162487,-1.175668 -0.54485,-1.271325 -1.405082,-1.672766 -0.860232,-0.40144 -2.198502,-1.108363 -3.135209,-1.901692 -0.936707,-0.79333 -1.471868,-1.672762 -2.045354,-1.653646 z m 10.545093,0.624768 c -0.312645,-6.03e-4 -0.585525,0.07589 -0.719336,0.264066 -0.305855,0.430125 0.114836,1.443395 0.68833,1.768368 0.573493,0.324972 1.299728,-0.03807 1.605587,-0.468189 0.305858,-0.430119 0.191079,-0.927144 -0.382406,-1.25212 -0.322586,-0.182798 -0.790204,-0.31135 -1.192175,-0.312125 z"
         sodipodi:nodetypes="ssssssssssccssssscsssssssssssssssssssssccsssssssssssssssssss" /></g><g
       id="g12"><rect
         style="fill:#000000;fill-opacity:1;fill-rule:evenodd;stroke-width:5.17696;stroke-linejoin:bevel"
         id="rect12"
         width="135.46666"
         height="135.46666"
         x="-2.4978638e-07"
         y="-2.4978641e-07" /><path
         id="path8"
         style="fill:#00ff00;fill-opacity:1;fill-rule:evenodd;stroke-width:3.96875;stroke-linejoin:bevel"
         d="m 47.41106,13.06897 c -1.099622,0.02122 -2.904621,1.501661 -4.412651,3.516581 -1.608565,2.149248 -2.879303,4.906993 -3.58221,7.083289 -0.702907,2.176295 -0.878575,3.93351 -0.648784,5.312279 0.229791,1.378769 0.783966,1.28395 1.081345,1.86519 0.297378,0.58124 0.378381,1.676114 0.52707,1.527426 0.148689,-0.148689 0.446046,-0.44623 0.432532,-1.432988 -0.01351,-0.986758 -0.418872,-0.918799 -0.364807,-2.351638 0.05406,-1.432839 -0.666739,-2.697897 0.01354,-3.74433 0.522157,-0.803205 2.284513,-2.297863 2.622449,-1.175939 0.337937,1.121924 0.16217,2.514028 0.662306,3.825219 0.500135,1.311191 2.485032,2.620135 2.148892,1.878825 -1.261862,-2.782863 -1.175956,-3.379224 -1.027268,-4.96075 0.148688,-1.581526 2.095235,-2.027521 2.554823,-3.473877 0.459588,-1.446356 1.054524,-2.635953 1.257288,-4.190442 0.202764,-1.554489 0.01314,-3.474082 -1.054716,-3.663342 -0.06674,-0.01183 -0.136498,-0.01692 -0.209806,-0.0155 z m -9.63022,22.914005 c 0.117565,1.330174 0.09451,2.757277 1.527355,3.703492 3.015962,2.787434 4.651221,0.849724 6.988378,1.203172 0.894139,0.13522 1.878884,-0.0487 2.690134,0.35085 0.617432,0.304093 1.094376,1.710485 1.459726,1.460292 0.317414,-0.217366 -0.106919,-1.662409 -0.648956,-2.202994 -1.75469,-1.749989 -4.704055,-0.973248 -7.137174,-2.081671 -2.43312,-1.108423 -2.784116,-4.273083 -4.622846,-3.609096 -0.37736,0.136269 -0.291939,0.776303 -0.256617,1.175955 z M 38.615214,45.421 c -0.1649,-0.0052 -0.326035,0.01009 -0.483174,0.05064 -1.257114,0.3244 -1.16331,2.014843 -1.635718,3.609413 -0.562712,1.899379 -0.992912,4.864036 0.554574,2.162875 0.808369,-1.411021 6.76923,0.02116 9.65083,1.540646 2.630451,1.387053 3.28274,5.640368 6.136937,6.475084 0.521263,0.152445 1.301163,0.07294 1.581357,-0.392297 0.790394,-1.312374 0.203218,-2.973574 -1.107957,-4.460478 -1.311175,-1.486904 -2.554967,-3.920245 -4.379808,-4.8935 -1.82484,-0.973254 -6.177474,-1.662626 -7.813072,-2.419591 -1.431148,-0.662344 -1.34967,-1.636569 -2.503969,-1.672795 z m -2.537973,18.217866 c -0.269265,0.02393 -0.734558,4.938878 0.540635,7.583058 0.919171,1.905947 1.716811,3.501299 2.216963,4.569172 0.500152,1.067872 -0.148583,1.364846 -0.445968,2.14885 -0.297384,0.784003 1.500224,1.933102 1.946291,2.406212 0.446067,0.47311 0.432751,-0.824685 1.433031,-1.270751 1.00028,-0.446067 1.095716,-0.342048 1.662634,-0.405431 0.971779,-0.108649 2.153789,-0.270293 2.933101,0.0484 1.373934,0.561853 1.54324,2.548925 2.190114,2.695549 1.013789,0.229791 0.383893,-2.464639 -0.216667,-3.44676 -1.339516,-2.190567 -4.508873,-1.957569 -6.623022,-3.933395 -2.00433,-2.470213 -2.633572,-3.719658 -3.690375,-5.731091 -0.783524,-1.491298 -1.338454,-4.717875 -1.946737,-4.66381 z M 88.0556,13.06897 c 1.099622,0.02122 2.904621,1.501661 4.412651,3.516581 1.608565,2.149248 2.879303,4.906993 3.58221,7.083289 0.702907,2.176295 0.878575,3.93351 0.648784,5.312279 -0.229791,1.378769 -0.783966,1.28395 -1.081345,1.86519 -0.297378,0.58124 -0.378381,1.676114 -0.52707,1.527426 -0.148689,-0.148689 -0.446046,-0.44623 -0.432532,-1.432988 0.01351,-0.986758 0.418872,-0.918799 0.364807,-2.351638 -0.05406,-1.432839 0.666739,-2.697897 -0.01354,-3.74433 -0.522157,-0.803205 -2.284513,-2.297863 -2.622449,-1.175939 -0.337937,1.121924 -0.16217,2.514028 -0.662306,3.825219 -0.500135,1.311191 -2.485032,2.620135 -2.148892,1.878825 1.261862,-2.782863 1.175956,-3.379224 1.027268,-4.96075 -0.148688,-1.581526 -2.095235,-2.027521 -2.554823,-3.473877 -0.459588,-1.446356 -1.054524,-2.635953 -1.257288,-4.190442 -0.202764,-1.554489 -0.01314,-3.474082 1.054716,-3.663342 0.06674,-0.01183 0.136498,-0.01692 0.209806,-0.0155 z m 9.63022,22.914005 c -0.117565,1.330174 -0.09451,2.757277 -1.527355,3.703492 -3.015962,2.787434 -4.651221,0.849724 -6.988378,1.203172 -0.894139,0.13522 -1.878884,-0.0487 -2.690134,0.35085 -0.617432,0.304093 -1.094376,1.710485 -1.459726,1.460292 -0.317414,-0.217366 0.106919,-1.662409 0.648956,-2.202994 1.75469,-1.749989 4.704055,-0.973248 7.137174,-2.081671 2.43312,-1.108423 2.784116,-4.273083 4.622846,-3.609096 0.37736,0.136269 0.291939,0.776303 0.256617,1.175955 z M 96.851446,45.421 c 0.1649,-0.0052 0.326035,0.01009 0.483174,0.05064 1.257114,0.3244 1.16331,2.014843 1.635718,3.609413 0.562712,1.899379 0.992912,4.864036 -0.554574,2.162875 -0.808369,-1.411021 -6.76923,0.02116 -9.65083,1.540646 -2.630451,1.387053 -3.28274,5.640368 -6.136937,6.475084 -0.521263,0.152445 -1.301163,0.07294 -1.581357,-0.392297 -0.790394,-1.312374 -0.203218,-2.973574 1.107957,-4.460478 1.311175,-1.486904 2.554967,-3.920245 4.379808,-4.8935 1.82484,-0.973254 6.177474,-1.662626 7.813072,-2.419591 1.431148,-0.662344 1.34967,-1.636569 2.503969,-1.672795 z m 2.537973,18.217866 c 0.269265,0.02393 0.734561,4.938878 -0.540635,7.583058 -0.919171,1.905947 -1.716811,3.501299 -2.216963,4.569172 -0.500152,1.067872 0.148583,1.364846 0.445968,2.14885 0.297384,0.784003 -1.500224,1.933102 -1.946291,2.406212 -0.446067,0.47311 -0.432751,-0.824685 -1.433031,-1.270751 -1.00028,-0.446067 -1.095716,-0.342048 -1.662634,-0.405431 -0.971779,-0.108649 -2.153789,-0.270293 -2.933101,0.0484 -1.373934,0.561853 -1.54324,2.548925 -2.190114,2.695549 -1.013789,0.229791 -0.383893,-2.464639 0.216667,-3.44676 1.339516,-2.190567 4.508873,-1.957569 6.623022,-3.933395 2.00433,-2.470213 2.633572,-3.719658 3.690375,-5.731091 0.783524,-1.491298 1.338454,-4.717875 1.946737,-4.66381 z"
         sodipodi:nodetypes="asssssssassssssssasaasasaassssaaassssssssssassasassss"
         inkscape:path-effect="#path-effect13"
         inkscape:original-d="m 47.41106,13.06897 c -1.099622,0.02122 -2.904621,1.501661 -4.412651,3.516581 -1.608565,2.149248 -2.879303,4.906993 -3.58221,7.083289 -0.702907,2.176295 -0.878575,3.93351 -0.648784,5.312279 0.229791,1.378769 0.783966,1.28395 1.081345,1.86519 0.297378,0.58124 0.378381,1.676114 0.52707,1.527426 0.148689,-0.148689 0.446046,-0.44623 0.432532,-1.432988 -0.01351,-0.986758 -0.418872,-0.918799 -0.364807,-2.351638 0.05406,-1.432839 -0.666739,-2.697897 0.01354,-3.74433 0.522157,-0.803205 2.284513,-2.297863 2.622449,-1.175939 0.337937,1.121924 0.16217,2.514028 0.662306,3.825219 0.500135,1.311191 2.485032,2.620135 2.148892,1.878825 -1.261862,-2.782863 -1.175956,-3.379224 -1.027268,-4.96075 0.148688,-1.581526 2.095235,-2.027521 2.554823,-3.473877 0.459588,-1.446356 1.054524,-2.635953 1.257288,-4.190442 0.202764,-1.554489 0.01314,-3.474082 -1.054716,-3.663342 -0.06674,-0.01183 -0.136498,-0.01692 -0.209806,-0.0155 z m -9.63022,22.914005 c 0.117565,1.330174 0.09451,2.757277 1.527355,3.703492 3.015962,2.787434 4.651221,0.849724 6.988378,1.203172 0.894139,0.13522 1.878884,-0.0487 2.690134,0.35085 0.617432,0.304093 1.094376,1.710485 1.459726,1.460292 0.317414,-0.217366 -0.106919,-1.662409 -0.648956,-2.202994 -1.75469,-1.749989 -4.704055,-0.973248 -7.137174,-2.081671 -2.43312,-1.108423 -2.784116,-4.273083 -4.622846,-3.609096 -0.37736,0.136269 -0.291939,0.776303 -0.256617,1.175955 z M 38.615214,45.421 c -0.1649,-0.0052 -0.326035,0.01009 -0.483174,0.05064 -1.257114,0.3244 -1.16331,2.014843 -1.635718,3.609413 -0.562712,1.899379 -0.992912,4.864036 0.554574,2.162875 0.808369,-1.411021 6.76923,0.02116 9.65083,1.540646 2.630451,1.387053 3.28274,5.640368 6.136937,6.475084 0.521263,0.152445 1.301163,0.07294 1.581357,-0.392297 0.790394,-1.312374 0.203218,-2.973574 -1.107957,-4.460478 -1.311175,-1.486904 -2.554967,-3.920245 -4.379808,-4.8935 -1.82484,-0.973254 -6.177474,-1.662626 -7.813072,-2.419591 -1.431148,-0.662344 -1.34967,-1.636569 -2.503969,-1.672795 z m -2.537973,18.217866 c -0.269265,0.02393 -0.734558,4.938878 0.540635,7.583058 0.919171,1.905947 1.716811,3.501299 2.216963,4.569172 0.500152,1.067872 -0.148583,1.364846 -0.445968,2.14885 -0.297384,0.784003 1.500224,1.933102 1.946291,2.406212 0.446067,0.47311 0.432751,-0.824685 1.433031,-1.270751 1.00028,-0.446067 1.095716,-0.342048 1.662634,-0.405431 0.971779,-0.108649 2.153789,-0.270293 2.933101,0.0484 1.373934,0.561853 1.54324,2.548925 2.190114,2.695549 1.013789,0.229791 0.383893,-2.464639 -0.216667,-3.44676 -1.339516,-2.190567 -4.508873,-1.957569 -6.623022,-3.933395 -2.00433,-2.470213 -2.633572,-3.719658 -3.690375,-5.731091 -0.783524,-1.491298 -1.338454,-4.717875 -1.946737,-4.66381 z" /></g></g></svg>
