<?xml version="1.0" encoding="UTF-8" standalone="no"?>
<!-- Created with Inkscape (http://www.inkscape.org/) -->

<svg
   width="135.46666mm"
   height="135.46666mm"
   viewBox="0 0 135.46666 135.46666"
   version="1.1"
   id="svg1"
   inkscape:version="1.3.2 (091e20e, 2023-11-25, custom)"
   xml:space="preserve"
   inkscape:export-filename="Output\Togruta_Montral1_northm.png"
   inkscape:export-xdpi="96"
   inkscape:export-ydpi="96"
   sodipodi:docname="Togruta_Montral1_north.svg"
   xmlns:inkscape="http://www.inkscape.org/namespaces/inkscape"
   xmlns:sodipodi="http://sodipodi.sourceforge.net/DTD/sodipodi-0.dtd"
   xmlns:xlink="http://www.w3.org/1999/xlink"
   xmlns="http://www.w3.org/2000/svg"
   xmlns:svg="http://www.w3.org/2000/svg"><sodipodi:namedview
     id="namedview1"
     pagecolor="#ffffff"
     bordercolor="#000000"
     borderopacity="0.25"
     inkscape:showpageshadow="2"
     inkscape:pageopacity="0.0"
     inkscape:pagecheckerboard="0"
     inkscape:deskcolor="#d1d1d1"
     inkscape:document-units="px"
     inkscape:zoom="1.6311518"
     inkscape:cx="0"
     inkscape:cy="255.34104"
     inkscape:window-width="3840"
     inkscape:window-height="2066"
     inkscape:window-x="-11"
     inkscape:window-y="-11"
     inkscape:window-maximized="1"
     inkscape:current-layer="layer1"
     inkscape:lockguides="true" /><defs
     id="defs1"><inkscape:path-effect
       effect="mirror_symmetry"
       start_point="67.73333,0"
       end_point="67.73333,135.46666"
       center_point="67.73333,67.73333"
       id="path-effect20"
       is_visible="true"
       lpeversion="1.2"
       lpesatellites=""
       mode="vertical"
       discard_orig_path="false"
       fuse_paths="false"
       oposite_fuse="false"
       split_items="false"
       split_open="false"
       link_styles="false" /><inkscape:path-effect
       effect="bspline"
       id="path-effect19"
       is_visible="true"
       lpeversion="1.3"
       weight="33.333333"
       steps="2"
       helper_size="0"
       apply_no_weight="true"
       apply_with_weight="true"
       only_selected="false"
       uniform="false" /><inkscape:path-effect
       effect="bspline"
       id="path-effect18"
       is_visible="true"
       lpeversion="1.3"
       weight="33.333333"
       steps="2"
       helper_size="0"
       apply_no_weight="true"
       apply_with_weight="true"
       only_selected="false"
       uniform="false" /><inkscape:path-effect
       effect="bspline"
       id="path-effect17"
       is_visible="true"
       lpeversion="1.3"
       weight="33.333333"
       steps="2"
       helper_size="0"
       apply_no_weight="true"
       apply_with_weight="true"
       only_selected="false"
       uniform="false" /><inkscape:path-effect
       effect="bspline"
       id="path-effect16"
       is_visible="true"
       lpeversion="1.3"
       weight="33.333333"
       steps="2"
       helper_size="0"
       apply_no_weight="true"
       apply_with_weight="true"
       only_selected="false"
       uniform="false" /><inkscape:path-effect
       effect="bspline"
       id="path-effect15"
       is_visible="true"
       lpeversion="1.3"
       weight="33.333333"
       steps="2"
       helper_size="0"
       apply_no_weight="true"
       apply_with_weight="true"
       only_selected="false"
       uniform="false" /><inkscape:path-effect
       effect="mirror_symmetry"
       start_point="67.73333,0"
       end_point="67.73333,135.46666"
       center_point="67.73333,67.73333"
       id="path-effect14"
       is_visible="true"
       lpeversion="1.2"
       lpesatellites=""
       mode="vertical"
       discard_orig_path="false"
       fuse_paths="false"
       oposite_fuse="false"
       split_items="false"
       split_open="false"
       link_styles="false" /><linearGradient
       id="linearGradient14"
       inkscape:collect="always"><stop
         style="stop-color:#ffffff;stop-opacity:1;"
         offset="0.2387218"
         id="stop13" /><stop
         style="stop-color:#ffffff;stop-opacity:0;"
         offset="0.88533837"
         id="stop14" /></linearGradient><linearGradient
       id="linearGradient9"
       inkscape:collect="always"><stop
         style="stop-color:#ffffff;stop-opacity:1;"
         offset="0.2387218"
         id="stop9" /><stop
         style="stop-color:#ffffff;stop-opacity:0;"
         offset="1"
         id="stop10" /></linearGradient><inkscape:path-effect
       effect="mirror_symmetry"
       start_point="67.73333,0"
       end_point="67.73333,135.46666"
       center_point="67.73333,67.73333"
       id="path-effect9"
       is_visible="true"
       lpeversion="1.2"
       lpesatellites=""
       mode="vertical"
       discard_orig_path="false"
       fuse_paths="false"
       oposite_fuse="false"
       split_items="false"
       split_open="false"
       link_styles="false" /><inkscape:path-effect
       effect="bspline"
       id="path-effect8"
       is_visible="true"
       lpeversion="1.3"
       weight="33.333333"
       steps="2"
       helper_size="0"
       apply_no_weight="true"
       apply_with_weight="true"
       only_selected="false"
       uniform="false" /><inkscape:path-effect
       effect="bspline"
       id="path-effect7"
       is_visible="true"
       lpeversion="1.3"
       weight="33.333333"
       steps="2"
       helper_size="0"
       apply_no_weight="true"
       apply_with_weight="true"
       only_selected="false"
       uniform="false" /><inkscape:path-effect
       effect="bspline"
       id="path-effect6"
       is_visible="true"
       lpeversion="1.3"
       weight="33.333333"
       steps="2"
       helper_size="0"
       apply_no_weight="true"
       apply_with_weight="true"
       only_selected="false"
       uniform="false" /><inkscape:path-effect
       effect="bspline"
       id="path-effect5"
       is_visible="true"
       lpeversion="1.3"
       weight="33.333333"
       steps="2"
       helper_size="0"
       apply_no_weight="true"
       apply_with_weight="true"
       only_selected="false"
       uniform="false" /><inkscape:path-effect
       effect="bspline"
       id="path-effect4"
       is_visible="true"
       lpeversion="1.3"
       weight="33.333333"
       steps="2"
       helper_size="0"
       apply_no_weight="true"
       apply_with_weight="true"
       only_selected="false"
       uniform="false" /><inkscape:path-effect
       effect="bspline"
       id="path-effect3"
       is_visible="true"
       lpeversion="1.3"
       weight="33.333333"
       steps="2"
       helper_size="0"
       apply_no_weight="true"
       apply_with_weight="true"
       only_selected="false"
       uniform="false" /><inkscape:path-effect
       effect="bspline"
       id="path-effect2"
       is_visible="true"
       lpeversion="1.3"
       weight="33.333333"
       steps="2"
       helper_size="0"
       apply_no_weight="true"
       apply_with_weight="true"
       only_selected="false"
       uniform="false" /><inkscape:path-effect
       effect="bspline"
       id="path-effect1"
       is_visible="true"
       lpeversion="1.3"
       weight="33.333333"
       steps="2"
       helper_size="0"
       apply_no_weight="true"
       apply_with_weight="true"
       only_selected="false"
       uniform="false" /><radialGradient
       inkscape:collect="always"
       xlink:href="#linearGradient14"
       id="radialGradient10"
       cx="67.926346"
       cy="43.003868"
       fx="67.926346"
       fy="43.003868"
       r="36.856457"
       gradientTransform="matrix(2.1504293,0.00356194,-0.00478996,2.8917929,-78.131504,-96.856057)"
       gradientUnits="userSpaceOnUse" /><radialGradient
       inkscape:collect="always"
       xlink:href="#linearGradient9"
       id="radialGradient11"
       gradientUnits="userSpaceOnUse"
       gradientTransform="matrix(1.7490515,-6.330465e-4,9.970068e-4,2.7547006,-51.165634,-92.753898)"
       cx="67.73333"
       cy="53.321667"
       fx="67.73333"
       fy="53.321667"
       r="36.856457" /><filter
       inkscape:collect="always"
       style="color-interpolation-filters:sRGB"
       id="filter11"
       x="-0.021715759"
       y="-0.27548533"
       width="1.0434315"
       height="1.5509707"><feGaussianBlur
         inkscape:collect="always"
         stdDeviation="0.43049867"
         id="feGaussianBlur11" /></filter><radialGradient
       inkscape:collect="always"
       xlink:href="#linearGradient9"
       id="radialGradient12"
       gradientUnits="userSpaceOnUse"
       gradientTransform="matrix(1.7490515,-6.330465e-4,9.970068e-4,2.7547006,-50.512531,-92.892191)"
       cx="67.73333"
       cy="53.321667"
       fx="67.73333"
       fy="53.321667"
       r="36.856457" /><filter
       inkscape:collect="always"
       style="color-interpolation-filters:sRGB"
       id="filter12"
       x="-0.014234045"
       y="-0.067102339"
       width="1.0284681"
       height="1.1342047"><feGaussianBlur
         inkscape:collect="always"
         stdDeviation="0.20575462"
         id="feGaussianBlur12" /></filter></defs><g
     inkscape:label="Layer 1"
     inkscape:groupmode="layer"
     id="layer1"><rect
       style="fill:#000000;fill-opacity:0;fill-rule:evenodd;stroke-width:3.73045;stroke-linejoin:bevel"
       id="rect1"
       width="135.46667"
       height="135.46667"
       x="-6.9255066e-06"
       y="-6.9255066e-06" /><rect
       style="display:inline;fill:#000000;fill-opacity:1;fill-rule:evenodd;stroke-width:3.73045;stroke-linejoin:bevel"
       id="rect1-5"
       width="135.46667"
       height="135.46667"
       x="-6.9255066e-06"
       y="-6.9255066e-06" /><image
       width="135.46667"
       height="135.46667"
       preserveAspectRatio="none"
       xlink:href="file:///E:/rimworld_modding/rimworld_mods/StarWarsRaces/1.3/Textures/StarWarsRaces/Togruta/Montral/Montral1_north.png"
       id="image1"
       x="-6.9255066e-06"
       y="-6.9255066e-06"
       style="display:none" /><g
       id="g8"
       inkscape:path-effect="#path-effect14"
       style="display:none"><path
         style="display:inline;fill:#000000;fill-opacity:1;fill-rule:evenodd;stroke-width:3.96875;stroke-linejoin:bevel"
         d="m 67.733334,29.683869 v 64.762857 c -2.684296,-0.0044 -5.368538,-0.0087 -8.141925,-0.656434 -2.773388,-0.647734 -5.635659,-1.938783 -7.246942,-2.882122 -1.611284,-0.94334 -1.971435,-1.538894 -2.32752,-2.442508 -0.356085,-0.903613 -0.708093,-2.115256 -2.498007,-2.480506 -1.789914,-0.36525 -5.017515,0.115916 -6.865164,0.127396 -1.847649,0.01148 -2.315135,-0.446729 -2.669869,-1.312409 -0.354734,-0.865681 -0.596675,-2.138732 -1.840001,-3.744711 -1.243327,-1.605979 -3.487887,-3.544693 -5.041436,-5.908214 -1.553549,-2.363521 -2.415899,-5.151562 -2.800948,-8.475783 -0.385049,-3.324222 -0.292751,-7.184225 1.320864,-11.177712 1.613616,-3.993487 4.748356,-8.11998 6.561338,-12.792106 1.812982,-4.672127 2.303988,-9.889325 1.892466,-14.528982 -0.411521,-4.639658 -1.725547,-8.701298 -1.862629,-11.08633 -0.137083,-2.385032 0.902738,-3.093332 2.876571,-3.42075 1.973833,-0.327418 4.881438,-0.273914 8.373071,0.671232 3.491633,0.945146 7.566872,2.781821 10.607625,5.465966 3.040753,2.684146 5.046652,6.215438 6.484643,8.003554 1.437991,1.788116 2.307918,1.832841 3.177863,1.877566 z m -7e-6,0 v 64.762857 c 2.684296,-0.0044 5.368538,-0.0087 8.141925,-0.656434 2.773388,-0.647734 5.635659,-1.938783 7.246942,-2.882122 1.611284,-0.94334 1.971435,-1.538894 2.32752,-2.442508 0.356085,-0.903613 0.708093,-2.115256 2.498007,-2.480506 1.789914,-0.36525 5.017515,0.115916 6.865164,0.127396 1.847649,0.01148 2.315135,-0.446729 2.669869,-1.312409 0.354734,-0.865681 0.596675,-2.138732 1.840001,-3.744711 1.243325,-1.605979 3.487885,-3.544693 5.041435,-5.908214 1.55355,-2.363521 2.4159,-5.151562 2.80095,-8.475783 0.38505,-3.324222 0.29275,-7.184225 -1.32087,-11.177712 -1.61361,-3.993487 -4.74835,-8.11998 -6.561333,-12.792106 -1.812982,-4.672127 -2.303988,-9.889325 -1.892466,-14.528982 0.411521,-4.639658 1.725547,-8.701298 1.862629,-11.08633 0.137083,-2.385032 -0.902738,-3.093332 -2.876571,-3.42075 -1.973833,-0.327418 -4.881438,-0.273914 -8.373071,0.671232 -3.491633,0.945146 -7.566872,2.781821 -10.607625,5.465966 -3.040753,2.684146 -5.046652,6.215438 -6.484643,8.003554 -1.437991,1.788116 -2.307918,1.832841 -3.177863,1.877566 z"
         id="path1"
         inkscape:path-effect="#path-effect1"
         inkscape:original-d="m 67.733334,29.683869 v 64.762857 c 0,0 -5.368538,-0.0087 -8.052888,-0.01305 -2.862425,-1.291118 -5.724696,-2.582167 -8.587102,-3.873276 -0.36016,-0.59557 -0.720312,-1.191124 -1.080467,-1.786685 -0.352015,-1.211666 -0.704023,-2.423309 -1.056047,-3.635006 -3.227804,0.481197 -6.455405,0.962363 -9.683192,1.443557 -0.467511,-0.458234 -0.934997,-0.916443 -1.402509,-1.374678 -0.241955,-1.273126 -0.483897,-2.546177 -0.725853,-3.819304 -2.244697,-1.938831 -4.489257,-3.877545 -6.733954,-5.816377 -0.862401,-2.78821 -1.72475,-5.576251 -2.587152,-8.36446 0.0923,-3.860234 0.184601,-7.720237 0.276904,-11.580471 3.134928,-4.12674 6.269668,-8.253233 9.404597,-12.379974 0.491035,-5.217512 0.98204,-10.43471 1.473076,-15.652222 -1.314078,-4.061803 -2.628104,-8.123443 -3.942155,-12.185163 1.039886,-0.708344 2.079707,-1.416644 3.119592,-2.124987 2.907781,0.05351 5.815386,0.107011 8.723167,0.160518 4.075485,1.836785 8.150724,3.67346 12.226209,5.510245 2.006021,3.531506 4.01192,7.062798 6.01794,10.594304 0.869962,0.04473 2.609834,0.134176 2.609834,0.134176 z"
         sodipodi:nodetypes="cccccccccccccccccccc" /><path
         style="display:inline;fill:#c3c4c3;fill-opacity:1;fill-rule:evenodd;stroke-width:3.96875;stroke-linejoin:bevel"
         d="m 43.604095,17.156808 c 1.701376,0.296307 4.052577,0.888886 6.566409,2.341748 2.513833,1.452861 5.189996,3.765831 7.388404,6.260546 2.198408,2.494715 3.827058,5.02817 5.529351,6.399693 1.702293,1.371522 3.133364,1.303232 4.645075,1.231094 V 91.08255 c -2.467522,-0.233697 -4.934993,-0.467389 -6.962118,-0.899664 -2.027124,-0.432275 -3.613704,-1.063084 -5.028333,-2.286547 -1.41463,-1.223463 -2.657132,-3.039428 -3.536496,-5.276072 -0.879365,-2.236644 -1.395492,-4.893743 -1.82561,-4.941507 -0.430118,-0.04776 -0.774197,2.513706 -1.376369,3.918776 -0.602173,1.405069 -1.462368,1.653571 -2.982137,1.854295 -1.51977,0.200725 -3.698933,0.353649 -4.635646,-0.07647 C 40.449913,82.945237 40.75576,81.932117 39.570532,79.972667 38.385304,78.013216 35.709141,75.107668 34.19893,72.316644 32.688718,69.52562 32.344641,66.84946 32.344641,64.48856 c 0,-2.360901 0.344078,-4.406254 1.166091,-6.442171 0.822013,-2.035917 2.121863,-4.062155 3.249742,-6.069398 1.127879,-2.007243 2.083651,-3.995251 3.144622,-6.614223 1.06097,-2.618973 2.227013,-5.8686 2.762278,-8.994163 0.535266,-3.125564 0.439689,-6.126688 0.05736,-8.774337 -0.382331,-2.64765 -1.051372,-4.941503 -1.586637,-6.671555 -0.535265,-1.730051 -0.936697,-2.896116 -0.611721,-3.479161 0.324976,-0.583046 1.376346,-0.583046 3.077722,-0.28674 z m 48.258471,0 c -1.701376,0.296307 -4.052577,0.888886 -6.566409,2.341748 -2.513833,1.452861 -5.189996,3.765831 -7.388404,6.260546 -2.198408,2.494715 -3.827058,5.02817 -5.529351,6.399693 -1.702293,1.371522 -3.133364,1.303232 -4.645075,1.231094 V 91.08255 c 2.467522,-0.233697 4.934993,-0.467389 6.962118,-0.899664 2.027124,-0.432275 3.613704,-1.063084 5.028333,-2.286547 1.41463,-1.223463 2.657132,-3.039428 3.536496,-5.276072 0.879365,-2.236644 1.395492,-4.893743 1.82561,-4.941507 0.430118,-0.04776 0.774197,2.513706 1.376369,3.918776 0.602173,1.405069 1.462368,1.653571 2.982137,1.854295 1.51977,0.200725 3.698933,0.353649 4.635646,-0.07647 0.936712,-0.430124 0.630865,-1.443244 1.816093,-3.402694 1.185228,-1.959451 3.861391,-4.864999 5.371601,-7.656023 1.51021,-2.791024 1.85429,-5.467184 1.85429,-7.828084 0,-2.360901 -0.34408,-4.406254 -1.16609,-6.442171 -0.82201,-2.035917 -2.121864,-4.062155 -3.249743,-6.069398 -1.127879,-2.007243 -2.083651,-3.995251 -3.144622,-6.614223 -1.06097,-2.618973 -2.227013,-5.8686 -2.762278,-8.994163 -0.535266,-3.125564 -0.439689,-6.126688 -0.05736,-8.774337 0.382331,-2.64765 1.051372,-4.941503 1.586637,-6.671555 0.535265,-1.730051 0.936697,-2.896116 0.611721,-3.479161 -0.324976,-0.583046 -1.376346,-0.583046 -3.077722,-0.28674 z"
         id="path2"
         inkscape:path-effect="#path-effect2"
         inkscape:original-d="m 42.954131,16.860501 c 2.35134,0.592614 4.702541,1.185193 7.053883,1.777808 2.676323,2.313108 5.352486,4.626078 8.028809,6.939186 1.720493,2.676322 3.349143,5.209777 5.161377,8.028808 1.592352,-0.07599 4.535134,-0.216414 4.535134,-0.216414 0,0 0,38.461774 0,57.692661 0,0 -4.934993,-0.467389 -7.402565,-0.701091 -1.586677,-0.630848 -3.173257,-1.261657 -4.759936,-1.892505 -1.242579,-1.816078 -2.485082,-3.632043 -3.727662,-5.448121 -0.516148,-2.65721 -1.032275,-5.314309 -1.548413,-7.971462 -0.344099,2.561625 -0.688178,5.123095 -1.032277,7.684718 -0.860246,0.248516 -1.720441,0.497017 -2.580687,0.745534 -2.179293,0.152933 -4.358456,0.305857 -6.537747,0.45879 0.305865,-1.01318 0.611713,-2.0263 0.917579,-3.03948 -2.676322,-2.905721 -5.352484,-5.811269 -8.028809,-8.716992 -0.344099,-2.676325 -0.688176,-5.352485 -1.032275,-8.028809 0.344099,-2.045477 0.688177,-4.09083 1.032275,-6.136305 1.299928,-2.026359 2.599778,-4.052597 3.899706,-6.078957 0.95583,-1.988126 1.911602,-3.976134 2.867431,-5.964259 1.166112,-3.24982 2.332155,-6.499447 3.498268,-9.749269 -0.09558,-3.001305 -0.191159,-6.002429 -0.286741,-9.003735 -0.669081,-2.293993 -1.338122,-4.587846 -2.007203,-6.881837 -0.401449,-1.166112 -0.802881,-2.332177 -1.204322,-3.498267 1.051393,-1e-6 2.102763,-1e-6 3.154175,-2e-6 z"
         sodipodi:nodetypes="cccccccccccccccccccccccc" /><path
         id="path3"
         style="display:inline;opacity:1;mix-blend-mode:color-dodge;fill:url(#radialGradient10);fill-opacity:1;fill-rule:evenodd;stroke-width:3.96875;stroke-linejoin:bevel"
         d="m 43.184445,15.748393 c -1.578434,0.01836 -2.69867,0.349973 -3.049943,0.643888 -0.468366,0.391887 0.42991,0.716823 1.509985,1.060917 1.080074,0.344095 2.342026,0.707102 3.842659,1.509986 1.500634,0.802883 3.240231,2.045448 5.084961,3.75636 1.844731,1.710911 3.794449,3.890433 5.59139,6.289538 1.796942,2.399105 3.440732,5.017785 5.266346,6.365503 1.825613,1.347719 6.303491,1.179191 6.303491,1.179191 v -3.941234 c 0,0 -1.763123,-1.41465 -2.652034,-2.38958 -0.888912,-0.97493 -1.844736,-2.523791 -3.775481,-4.607471 -1.930744,-2.08368 -4.836493,-4.702148 -7.837764,-6.546887 -3.001272,-1.84474 -6.097799,-2.91564 -8.563819,-3.221509 -0.616505,-0.07647 -1.193647,-0.104823 -1.719791,-0.0987 z m 24.548889,23.908151 c -2.640615,-0.03167 -4.081505,1.150005 -5.44839,2.633411 -3.058189,3.318884 -3.881785,8.228251 -4.877192,12.630145 -0.804184,3.556265 -0.83851,6.091605 -0.833427,10.906374 0.0478,0.888899 0.583306,0.563894 1.261939,-0.210323 0.678632,-0.774218 2.861134,-2.73565 4.607043,-3.603239 1.633445,-0.811703 2.624542,-1.251842 5.290027,-1.399515 z m -8.944157,2.126436 5e-6,10e-7 z m -18.762679,2.886645 c -0.04099,-0.0048 -0.08141,-0.0032 -0.12144,0.0052 -0.640404,0.133816 -1.175801,1.988007 -1.95957,3.354834 -0.78377,1.366828 -1.815933,2.245993 -3.182752,4.128947 -1.366819,1.882955 -3.067879,4.769432 -3.65094,8.325073 -0.58306,3.555641 -0.04805,7.780291 1.242302,11.077877 1.290348,3.297587 3.335887,5.668135 4.263306,6.24458 0.927418,0.576445 0.736582,-0.641204 0.440283,-2.533695 -0.296299,-1.892492 -0.69833,-4.460104 -0.354501,-7.26364 0.343831,-2.803536 1.433653,-5.842656 3.526917,-7.782987 2.093264,-1.940332 5.190222,-2.781373 5.658569,-4.683435 0.468347,-1.902061 -1.692174,-4.865275 -3.145027,-7.140133 -1.36205,-2.132679 -2.102244,-3.660208 -2.717147,-3.732589 z m 11.18433,33.627922 c -0.16714,0.02377 -0.09166,0.857951 -0.07493,2.028817 0.01912,1.338133 -0.0382,3.115951 1.366842,4.970239 1.405039,1.854288 4.272134,3.785003 7.024894,4.912879 2.752761,1.127875 8.2057,0.525669 8.2057,0.525669 v -4.234392 c 0,0 -7.192037,-1.204042 -9.629385,-1.882667 -2.437349,-0.678626 -3.832788,-1.959328 -4.855518,-3.297473 -1.02273,-1.338146 -1.673077,-2.733722 -1.950269,-2.982247 -0.03465,-0.03107 -0.06346,-0.04422 -0.08733,-0.04083 z M 92.282216,15.748393 c 1.578434,0.01836 2.69867,0.349973 3.049943,0.643888 0.468366,0.391887 -0.42991,0.716823 -1.509985,1.060917 -1.080074,0.344095 -2.342026,0.707102 -3.842659,1.509986 -1.500634,0.802883 -3.240231,2.045448 -5.084961,3.75636 -1.844731,1.710911 -3.794449,3.890433 -5.59139,6.289538 -1.796942,2.399105 -3.440732,5.017785 -5.266346,6.365503 -1.825613,1.347719 -6.303491,1.179191 -6.303491,1.179191 v -3.941234 c 0,0 1.763123,-1.41465 2.652034,-2.38958 0.888912,-0.97493 1.844736,-2.523791 3.775481,-4.607471 1.930744,-2.08368 4.836493,-4.702148 7.837764,-6.546887 3.001272,-1.84474 6.097799,-2.91564 8.563819,-3.221509 0.616505,-0.07647 1.193647,-0.104823 1.719791,-0.0987 z M 67.733327,39.656544 c 2.640615,-0.03167 4.081505,1.150005 5.44839,2.633411 3.058189,3.318884 3.881785,8.228251 4.877192,12.630145 0.804184,3.556265 0.83851,6.091605 0.833427,10.906374 -0.0478,0.888899 -0.583306,0.563894 -1.261939,-0.210323 -0.678632,-0.774218 -2.861134,-2.73565 -4.607043,-3.603239 -1.633445,-0.811703 -2.624542,-1.251842 -5.290027,-1.399515 z m 8.944157,2.126436 -5e-6,10e-7 z m 18.762679,2.886645 c 0.04099,-0.0048 0.08141,-0.0032 0.12144,0.0052 0.640404,0.133816 1.175801,1.988007 1.95957,3.354834 0.78377,1.366828 1.815933,2.245993 3.182747,4.128947 1.36682,1.882955 3.06788,4.769432 3.65094,8.325073 0.58306,3.555641 0.0481,7.780291 -1.2423,11.077877 -1.29035,3.297587 -3.335884,5.668135 -4.263303,6.24458 -0.927418,0.576445 -0.736582,-0.641204 -0.440283,-2.533695 0.296299,-1.892492 0.69833,-4.460104 0.354501,-7.26364 -0.343831,-2.803536 -1.433653,-5.842656 -3.526917,-7.782987 -2.093264,-1.940332 -5.190222,-2.781373 -5.658569,-4.683435 -0.468347,-1.902061 1.692174,-4.865275 3.145027,-7.140133 1.36205,-2.132679 2.102244,-3.660208 2.717147,-3.732589 z m -11.18433,33.627922 c 0.16714,0.02377 0.09166,0.857951 0.07493,2.028817 -0.01912,1.338133 0.0382,3.115951 -1.366842,4.970239 -1.405039,1.854288 -4.272134,3.785003 -7.024894,4.912879 -2.752761,1.127875 -8.2057,0.525669 -8.2057,0.525669 v -4.234392 c 0,0 7.192037,-1.204042 9.629385,-1.882667 2.437349,-0.678626 3.832788,-1.959328 4.855518,-3.297473 1.02273,-1.338146 1.673077,-2.733722 1.950269,-2.982247 0.03465,-0.03107 0.06346,-0.04422 0.08733,-0.04083 z"
         sodipodi:nodetypes="sssssssccsssssscaassaccsssccssssssssssccssssccsssss"
         inkscape:original-d="m 43.184445,15.748393 c -1.578434,0.01836 -2.69867,0.349973 -3.049943,0.643888 -0.468366,0.391887 0.42991,0.716823 1.509985,1.060917 1.080074,0.344095 2.342026,0.707102 3.842659,1.509986 1.500634,0.802883 3.240231,2.045448 5.084961,3.75636 1.844731,1.710911 3.794449,3.890433 5.59139,6.289538 1.796942,2.399105 3.440732,5.017785 5.266346,6.365503 1.825613,1.347719 6.303491,1.179191 6.303491,1.179191 v -3.941234 c 0,0 -1.763123,-1.41465 -2.652034,-2.38958 -0.888912,-0.97493 -1.844736,-2.523791 -3.775481,-4.607471 -1.930744,-2.08368 -4.836493,-4.702148 -7.837764,-6.546887 -3.001272,-1.84474 -6.097799,-2.91564 -8.563819,-3.221509 -0.616505,-0.07647 -1.193647,-0.104823 -1.719791,-0.0987 z m 24.548889,23.908151 c -2.640615,-0.03167 -4.081505,1.150005 -5.44839,2.633411 -3.058189,3.318884 -3.881785,8.228251 -4.877192,12.630145 -0.804184,3.556265 -0.83851,6.091605 -0.833427,10.906374 0.0478,0.888899 0.583306,0.563894 1.261939,-0.210323 0.678632,-0.774218 2.861134,-2.73565 4.607043,-3.603239 1.633445,-0.811703 2.624542,-1.251842 5.290027,-1.399515 z m -8.944157,2.126436 5e-6,10e-7 z m -18.762679,2.886645 c -0.04099,-0.0048 -0.08141,-0.0032 -0.12144,0.0052 -0.640404,0.133816 -1.175801,1.988007 -1.95957,3.354834 -0.78377,1.366828 -1.815933,2.245993 -3.182752,4.128947 -1.366819,1.882955 -3.067879,4.769432 -3.65094,8.325073 -0.58306,3.555641 -0.04805,7.780291 1.242302,11.077877 1.290348,3.297587 3.335887,5.668135 4.263306,6.24458 0.927418,0.576445 0.736582,-0.641204 0.440283,-2.533695 -0.296299,-1.892492 -0.69833,-4.460104 -0.354501,-7.26364 0.343831,-2.803536 1.433653,-5.842656 3.526917,-7.782987 2.093264,-1.940332 5.190222,-2.781373 5.658569,-4.683435 0.468347,-1.902061 -1.692174,-4.865275 -3.145027,-7.140133 -1.36205,-2.132679 -2.102244,-3.660208 -2.717147,-3.732589 z m 11.18433,33.627922 c -0.16714,0.02377 -0.09166,0.857951 -0.07493,2.028817 0.01912,1.338133 -0.0382,3.115951 1.366842,4.970239 1.405039,1.854288 4.272134,3.785003 7.024894,4.912879 2.752761,1.127875 8.2057,0.525669 8.2057,0.525669 v -4.234392 c 0,0 -7.192037,-1.204042 -9.629385,-1.882667 -2.437349,-0.678626 -3.832788,-1.959328 -4.855518,-3.297473 -1.02273,-1.338146 -1.673077,-2.733722 -1.950269,-2.982247 -0.03465,-0.03107 -0.06346,-0.04422 -0.08733,-0.04083 z" /><path
         d="m 57.813012,42.631415 c -0.955824,0.210284 -2.504377,0.82175 -4.46381,1.280542 -1.959433,0.458791 -4.329564,0.764821 -6.116939,0.803051 -1.787376,0.03823 -2.991602,-0.191397 -3.240113,0.104903 -0.248511,0.296301 0.458491,1.118346 2.3797,1.424203 1.921209,0.305857 5.056517,0.09573 7.446057,-0.56379 2.38954,-0.659519 4.033228,-1.767988 4.673617,-2.41794 m 19.162125,-0.630969 c 0.955824,0.210284 2.504377,0.82175 4.46381,1.280542 1.959433,0.458791 4.329564,0.764821 6.116939,0.803051 1.787376,0.03823 2.991602,-0.191397 3.240113,0.104903 0.248511,0.296301 -0.458491,1.118346 -2.3797,1.424203 -1.921209,0.305857 -5.056517,0.09573 -7.446057,-0.56379 -2.38954,-0.659519 -4.033228,-1.767988 -4.673617,-2.41794"
         style="display:inline;mix-blend-mode:color-dodge;fill:url(#radialGradient11);fill-opacity:1;fill-rule:evenodd;stroke-width:3.96875;stroke-linejoin:bevel;filter:url(#filter11)"
         id="path1-1"
         inkscape:original-d="m 57.813012,42.631415 c -0.955824,0.210284 -2.504377,0.82175 -4.46381,1.280542 -1.959433,0.458791 -4.329564,0.764821 -6.116939,0.803051 -1.787376,0.03823 -2.991602,-0.191397 -3.240113,0.104903 -0.248511,0.296301 0.458491,1.118346 2.3797,1.424203 1.921209,0.305857 5.056517,0.09573 7.446057,-0.56379 2.38954,-0.659519 4.033228,-1.767988 4.673617,-2.41794" /><path
         d="m 54.74947,68.288143 c -0.707308,0.39189 -1.605752,1.271189 -2.408639,2.293916 -0.802887,1.022728 -1.510048,2.188706 -1.796789,3.201872 -0.286742,1.013167 -0.153149,1.873467 0.181384,1.577165 0.334533,-0.296302 0.869912,-1.749276 1.863969,-3.15433 0.994057,-1.405053 2.447242,-2.76226 2.915584,-3.488676 0.487402,-0.755976 -0.08544,-0.801217 -0.755509,-0.429947 z m 25.967721,0 c 0.707308,0.39189 1.605752,1.271189 2.408639,2.293916 0.802887,1.022728 1.510048,2.188706 1.796789,3.201872 0.286742,1.013167 0.153149,1.873467 -0.181384,1.577165 -0.334533,-0.296302 -0.869912,-1.749276 -1.863969,-3.15433 -0.994057,-1.405053 -2.447242,-2.76226 -2.915584,-3.488676 -0.487402,-0.755976 0.08544,-0.801217 0.755509,-0.429947 z"
         style="display:inline;mix-blend-mode:color-dodge;fill:url(#radialGradient12);fill-opacity:1;fill-rule:evenodd;stroke-width:3.96875;stroke-linejoin:bevel;filter:url(#filter12)"
         id="path1-8"
         inkscape:original-d="m 54.74947,68.288143 c -0.707308,0.39189 -1.605752,1.271189 -2.408639,2.293916 -0.802887,1.022728 -1.510048,2.188706 -1.796789,3.201872 -0.286742,1.013167 -0.153149,1.873467 0.181384,1.577165 0.334533,-0.296302 0.869912,-1.749276 1.863969,-3.15433 0.994057,-1.405053 2.447242,-2.76226 2.915584,-3.488676 0.487402,-0.755976 -0.08544,-0.801217 -0.755509,-0.429947 z" /></g><image
       width="135.46667"
       height="135.46667"
       preserveAspectRatio="none"
       xlink:href="file:///E:/rimworld_modding/rimworld_mods/StarWarsRaces/1.3/Textures/StarWarsRaces/Togruta/Montral/Montral1_northm.png"
       id="image1-4"
       x="-6.9255066e-06"
       y="-6.9255066e-06"
       style="display:none" /><g
       id="g19"
       inkscape:path-effect="#path-effect20"><path
         style="opacity:1;fill:#00ff00;fill-opacity:1;fill-rule:evenodd;stroke-width:3.96875;stroke-linejoin:bevel"
         d="m 67.733334,49.310661 v 11.149806 c -1.631313,0.389944 -3.262593,0.779881 -4.730384,1.598301 -1.467792,0.818419 -2.77195,2.065232 -3.296531,1.666548 -0.524581,-0.398684 -0.269522,-2.442814 0.105125,-4.651762 0.374646,-2.208947 0.924824,-4.851353 2.113242,-6.318532 1.188418,-1.46718 3.622302,-2.508759 5.808548,-3.444361 z m -7e-6,0 v 11.149806 c 1.631313,0.389944 3.262593,0.779881 4.730384,1.598301 1.467792,0.818419 2.77195,2.065232 3.296531,1.666548 0.524581,-0.398684 0.269522,-2.442814 -0.105125,-4.651762 -0.374646,-2.208947 -0.924824,-4.851353 -2.113242,-6.318532 -1.188418,-1.46718 -3.622302,-2.508759 -5.808548,-3.444361 z"
         id="path14"
         inkscape:path-effect="#path-effect15"
         inkscape:original-d="m 67.733334,49.310661 v 11.149806 c 0,0 -3.262593,0.779881 -4.893938,1.169833 -1.304238,1.246887 -2.608397,2.493699 -3.912634,3.740587 0.255075,-2.044255 0.510136,-4.088385 0.765211,-6.13264 0.494218,-2.37364 1.044395,-5.016046 1.482623,-7.120779 1.506088,-1.840306 6.558738,-2.806807 6.558738,-2.806807 z"
         sodipodi:nodetypes="cccccac" /><path
         style="opacity:1;fill:#00ff00;fill-opacity:1;fill-rule:evenodd;stroke-width:3.96875;stroke-linejoin:bevel"
         d="m 67.733334,44.487042 v -4.866216 c -1.559253,0.07159 -3.118484,0.14318 -4.538838,0.963368 -1.420354,0.820187 -2.70175,2.388924 -3.591192,3.86071 -0.889443,1.471785 -1.386914,2.846594 -1.868768,3.280356 -0.481854,0.433761 -0.948083,-0.07353 -1.403239,0.27719 -0.455156,0.350718 -0.899232,1.559438 -1.320071,1.292703 -0.42084,-0.266736 -0.818433,-2.008914 -1.07194,-3.199409 -0.253507,-1.190495 -0.362919,-1.829263 0.222228,-3.403798 0.585147,-1.574535 1.864834,-4.084782 3.82151,-5.111119 1.956676,-1.026336 4.590309,-0.568739 5.339928,-1.488509 0.749619,-0.919769 -0.384769,-3.216842 -2.027904,-5.312729 -1.643134,-2.095887 -3.794838,-3.990375 -5.255239,-4.896443 -1.460401,-0.906068 -2.229343,-0.823608 -3.104856,-1.415098 -0.875513,-0.59149 -1.857522,-1.856855 -1.019439,-2.776044 0.838083,-0.919188 3.496213,-1.492101 3.935305,-2.126736 0.439092,-0.634636 -1.3408,-1.330943 -4.162556,-2.22333 -2.821755,-0.892386 -6.685038,-1.980745 -8.977525,-1.987539 -2.292487,-0.0068 -3.013907,1.067982 -2.922681,3.474325 0.09123,2.406343 0.995105,6.144043 2.041822,7.715546 1.046717,1.571502 2.236206,0.976758 2.965294,-5.6e-5 0.729088,-0.976813 0.997734,-2.335603 1.889886,-2.551883 0.892152,-0.216279 2.40774,0.709997 2.477912,1.531952 0.07017,0.821956 -1.305016,1.539534 -1.87275,4.107853 -0.567733,2.568319 -0.327947,6.987065 0.543567,9.633428 0.871514,2.646363 2.374685,3.520026 3.181355,4.327773 0.806669,0.807747 0.916825,1.549567 0.597773,2.38336 -0.319051,0.833794 -1.067278,1.759496 -1.112852,2.609915 -0.04557,0.85042 0.611518,1.625496 0.665587,2.571702 0.05407,0.946206 -0.494893,2.063522 -0.281911,3.773719 0.212982,1.710197 1.187905,4.013249 1.187905,7.230347 0,3.217097 -0.974925,7.348216 -0.894666,8.656817 0.08026,1.308602 1.215703,-0.205322 2.134881,-1.881474 0.919177,-1.676153 1.622057,-3.514455 1.811295,-5.893513 0.189238,-2.379057 -0.135165,-5.298684 0.09276,-6.968933 0.227923,-1.670249 1.008169,-2.090992 1.335529,-2.842428 0.327361,-0.751435 0.201828,-1.833551 0.336732,-2.016269 0.134904,-0.182717 0.530243,0.533969 1.185679,0.03662 0.655435,-0.497349 1.570964,-2.20873 2.471358,-3.48222 0.900393,-1.273491 1.785618,-2.109053 2.981139,-2.583401 1.195521,-0.474349 2.701237,-0.587442 4.206984,-0.700538 z m -7e-6,0 v -4.866216 c 1.559253,0.07159 3.118484,0.14318 4.538838,0.963368 1.420354,0.820187 2.70175,2.388924 3.591192,3.86071 0.889443,1.471785 1.386914,2.846594 1.868768,3.280356 0.481854,0.433761 0.948083,-0.07353 1.403239,0.27719 0.455156,0.350718 0.899232,1.559438 1.320071,1.292703 0.42084,-0.266736 0.818433,-2.008914 1.07194,-3.199409 0.253507,-1.190495 0.362919,-1.829263 -0.222228,-3.403798 -0.585147,-1.574535 -1.864834,-4.084782 -3.82151,-5.111119 -1.956676,-1.026336 -4.590309,-0.568739 -5.339928,-1.488509 -0.749619,-0.919769 0.384769,-3.216842 2.027904,-5.312729 1.643134,-2.095887 3.794838,-3.990375 5.255239,-4.896443 1.460401,-0.906068 2.229343,-0.823608 3.104856,-1.415098 0.875513,-0.59149 1.857522,-1.856855 1.019439,-2.776044 -0.838083,-0.919188 -3.496213,-1.492101 -3.935305,-2.126736 -0.439092,-0.634636 1.3408,-1.330943 4.162556,-2.22333 2.821755,-0.892386 6.685038,-1.980745 8.977525,-1.987539 2.292487,-0.0068 3.013907,1.067982 2.922681,3.474325 -0.09123,2.406343 -0.995105,6.144043 -2.041822,7.715546 -1.046717,1.571502 -2.236206,0.976758 -2.965294,-5.6e-5 -0.729088,-0.976813 -0.997734,-2.335603 -1.889886,-2.551883 -0.892152,-0.216279 -2.40774,0.709997 -2.477912,1.531952 -0.07017,0.821956 1.305016,1.539534 1.87275,4.107853 0.567733,2.568319 0.327947,6.987065 -0.543567,9.633428 -0.871514,2.646363 -2.374685,3.520026 -3.181355,4.327773 -0.806669,0.807747 -0.916825,1.549567 -0.597773,2.38336 0.319051,0.833794 1.067278,1.759496 1.112852,2.609915 0.04557,0.85042 -0.611518,1.625496 -0.665587,2.571702 -0.05407,0.946206 0.494893,2.063522 0.281911,3.773719 -0.212982,1.710197 -1.187905,4.013249 -1.187905,7.230347 0,3.217097 0.974925,7.348216 0.894666,8.656817 -0.08026,1.308602 -1.215703,-0.205322 -2.134881,-1.881474 -0.919177,-1.676153 -1.622057,-3.514455 -1.811295,-5.893513 -0.189238,-2.379057 0.135165,-5.298684 -0.09276,-6.968933 -0.227923,-1.670249 -1.008169,-2.090992 -1.335529,-2.842428 -0.327361,-0.751435 -0.201828,-1.833551 -0.336732,-2.016269 -0.134904,-0.182717 -0.530243,0.533969 -1.185679,0.03662 -0.655435,-0.497349 -1.570964,-2.20873 -2.471358,-3.48222 -0.900393,-1.273491 -1.785618,-2.109053 -2.981139,-2.583401 -1.195521,-0.474349 -2.701237,-0.587442 -4.206984,-0.700538 z"
         id="path15"
         inkscape:path-effect="#path-effect16"
         inkscape:original-d="m 67.733334,44.487042 v -4.866216 c 0,0 -3.118484,0.14318 -4.677759,0.214772 -1.281433,1.568783 -2.562829,3.13752 -3.844242,4.706279 -0.497472,1.374812 -0.994943,2.749621 -1.492417,4.124439 -0.466234,-0.507295 -0.932463,-1.014584 -1.398696,-1.521878 -0.444079,1.20873 -0.888155,2.41745 -1.332235,3.626181 -0.397598,-1.742202 -0.795192,-3.48438 -1.192792,-5.226588 -0.109414,-0.638782 -0.218826,-1.27755 -0.32824,-1.916332 1.279708,-2.510288 2.559395,-5.020535 3.839095,-7.530808 2.633652,0.4576 5.267285,0.915196 7.900945,1.372798 -1.134421,-2.29714 -2.26881,-4.594213 -3.403249,-6.891387 -2.15183,-1.8946 -4.303534,-3.789088 -6.455364,-5.683688 -0.768972,0.08246 -1.537914,0.164924 -2.306871,0.247386 -0.982069,-1.265442 -1.964078,-2.530807 -2.946147,-3.796249 2.658235,-0.572935 5.316365,-1.145848 7.974545,-1.718771 -1.779996,-0.696348 -3.559888,-1.392656 -5.339886,-2.089004 -3.863513,-1.088424 -7.726796,-2.176783 -11.590308,-3.265207 -0.721462,1.074837 -1.442882,2.149612 -2.164344,3.22445 0.903914,3.737848 1.807793,7.475548 2.711689,11.213322 1.189537,-0.59477 2.379027,-1.189513 3.568541,-1.78427 0.268662,-1.35887 0.537308,-2.71766 0.805969,-4.076529 1.515643,0.92631 3.031231,1.852586 4.546843,2.778877 -1.375267,0.71762 -2.750456,1.435198 -4.125724,2.152818 0.239801,4.419018 0.479587,8.837764 0.719388,13.256794 1.503227,0.873696 3.006398,1.747359 4.509581,2.62103 0.110156,0.741823 0.220312,1.483643 0.330471,2.225484 -0.748262,0.925746 -1.496489,1.851448 -2.244748,2.77719 0.65711,0.775097 1.314203,1.550173 1.971306,2.325261 -0.548966,1.117324 -1.097927,2.23464 -1.646893,3.351965 0.97493,2.303069 1.949853,4.606121 2.924781,6.909185 -0.974928,4.131131 -1.949853,8.26225 -2.924781,12.393381 1.135447,-1.513928 2.27089,-3.027852 3.406336,-4.541779 0.702908,-1.838378 1.40579,-3.67668 2.108684,-5.51502 -0.324419,-2.919775 -0.648822,-5.839402 -0.973238,-8.759148 0.780262,-0.420752 1.560508,-0.841495 2.340762,-1.262243 -0.125533,-1.082123 -0.251066,-2.164239 -0.3766,-3.246367 0.395342,0.716693 0.790681,1.433379 1.186021,2.150068 0.915531,-1.711386 1.83106,-3.422767 2.746597,-5.134162 0.88525,-0.835586 1.770475,-1.671148 2.65574,-2.506747 1.505777,-0.113098 4.51724,-0.339287 4.51724,-0.339287 z"
         sodipodi:nodetypes="ccccccccccccccccccccccccccccccccccccccccc" /><path
         style="opacity:1;fill:#00ff00;fill-opacity:1;fill-rule:evenodd;stroke-width:3.96875;stroke-linejoin:bevel"
         d="m 38.311783,47.817026 c -0.813235,-1.588751 -0.104351,-2.542864 0.527935,-2.783306 0.632286,-0.240442 1.18795,0.232799 1.97415,0.902381 0.786201,0.669582 1.802928,1.535496 2.513376,2.682835 0.710449,1.147338 1.114597,2.576051 1.736401,3.414136 0.621805,0.838084 1.461213,1.085465 2.529765,1.236193 1.068552,0.150727 2.366177,0.204795 2.879827,0.412874 0.513651,0.208079 0.243319,0.570146 -0.756975,0.894565 -1.000294,0.324419 -2.73046,0.611157 -3.838876,0.484179 -1.108415,-0.126977 -1.595026,-0.667654 -3.006039,-2.049711 -1.411014,-1.382057 -3.746329,-3.605394 -4.559564,-5.194146 z m 58.843095,0 c 0.813235,-1.588751 0.104351,-2.542864 -0.527935,-2.783306 -0.632286,-0.240442 -1.18795,0.232799 -1.97415,0.902381 -0.786201,0.669582 -1.802928,1.535496 -2.513376,2.682835 -0.710449,1.147338 -1.114597,2.576051 -1.736401,3.414136 -0.621805,0.838084 -1.461213,1.085465 -2.529765,1.236193 -1.068552,0.150727 -2.366177,0.204795 -2.879827,0.412874 -0.513651,0.208079 -0.243319,0.570146 0.756975,0.894565 1.000294,0.324419 2.73046,0.611157 3.838876,0.484179 1.108415,-0.126977 1.595026,-0.667654 3.006039,-2.049711 1.411014,-1.382057 3.746329,-3.605394 4.559564,-5.194146 z"
         id="path16"
         inkscape:path-effect="#path-effect17"
         inkscape:original-d="m 36.789657,47.182397 c 0.708891,-0.954122 1.417775,-1.908235 2.126674,-2.862368 0.555673,0.473248 1.111337,0.94649 1.666998,1.419729 1.01674,0.865925 2.033467,1.731839 3.050205,2.597763 0.404159,1.428753 0.808307,2.857466 1.212473,4.286244 0.839443,0.247391 1.678851,0.494772 2.518276,0.742158 1.297679,0.05407 2.595304,0.108135 3.892955,0.162205 -0.27035,0.36209 -0.540682,0.724157 -0.811032,1.086246 -1.730238,0.28675 -3.460404,0.573487 -5.190607,0.86023 -0.486629,-0.540697 -0.973238,-1.081376 -1.459857,-1.622062 -2.335409,-2.223427 -4.670724,-4.446764 -7.006085,-6.670145 z"
         sodipodi:nodetypes="ccccccccccc" /><path
         style="opacity:1;fill:#00ff00;fill-opacity:1;fill-rule:evenodd;stroke-width:3.96875;stroke-linejoin:bevel"
         d="m 35.53935,55.213136 c -0.853408,-0.983245 -0.515877,-2.226259 0.05841,-2.442245 0.57429,-0.215985 1.385307,0.595031 2.682976,1.487175 1.297669,0.892145 3.081904,1.865364 4.568809,3.027858 1.486905,1.162494 2.676394,2.514187 3.81185,4.595865 1.135456,2.081678 2.216811,4.893199 2.37901,6.163814 0.162199,1.270614 -0.59475,1.000275 -1.453019,-0.213297 -0.85827,-1.213571 -1.817791,-3.370246 -3.019023,-5.225651 -1.201233,-1.855404 -2.644079,-3.409371 -4.387677,-4.548093 -1.743599,-1.138722 -3.787932,-1.86218 -4.64134,-2.845426 z m 64.387961,0 c 0.853409,-0.983245 0.515879,-2.226259 -0.05841,-2.442245 -0.57429,-0.215985 -1.385307,0.595031 -2.682976,1.487175 -1.297669,0.892145 -3.081904,1.865364 -4.568809,3.027858 -1.486905,1.162494 -2.676394,2.514187 -3.81185,4.595865 -1.135456,2.081678 -2.216811,4.893199 -2.37901,6.163814 -0.162199,1.270614 0.59475,1.000275 1.453019,-0.213297 0.85827,-1.213571 1.817791,-3.370246 3.019023,-5.225651 1.201233,-1.855404 2.644079,-3.409371 4.387677,-4.548093 1.743599,-1.138722 3.787932,-1.86218 4.64134,-2.845426 z"
         id="path17"
         inkscape:path-effect="#path-effect18"
         inkscape:original-d="m 34.348408,55.472918 c 0.337534,-1.243027 0.675065,-2.486041 1.012597,-3.729061 0.811049,0.811049 1.622065,1.622066 2.433098,2.433096 1.784305,0.973259 3.568541,1.946478 5.352812,2.919716 1.189538,1.351749 2.379028,2.703442 3.568541,4.055161 1.0814,2.811637 2.162755,5.623158 3.244131,8.434737 -0.756979,-0.270349 -1.513928,-0.54069 -2.27089,-0.811033 -0.959577,-2.156799 -1.919098,-4.313474 -2.878671,-6.470266 -1.442892,-1.554017 -2.885738,-3.107984 -4.328601,-4.66197 -2.044334,-0.723458 -4.088667,-1.446916 -6.133017,-2.17038 z"
         sodipodi:nodetypes="cccccccccc" /><path
         style="opacity:1;fill:#00ff00;fill-opacity:1;fill-rule:evenodd;stroke-width:3.96875;stroke-linejoin:bevel"
         d="m 31.470999,61.566947 c 1.138394,0.68546 3.090769,2.759274 4.910862,4.189723 1.820092,1.430449 3.507902,2.217533 4.97109,2.765816 1.463188,0.548283 2.701753,0.857766 3.88248,2.049654 1.180728,1.191889 2.303616,3.266184 2.594711,4.546645 0.291094,1.280462 -0.249572,1.767062 -0.988758,1.052091 -0.739185,-0.714971 -1.676824,-2.631477 -2.667813,-3.709847 -0.990988,-1.078369 -2.035318,-1.318592 -3.65937,-1.904015 -1.624051,-0.585424 -3.827667,-1.515988 -5.729392,-2.951839 -1.901724,-1.435852 -3.501361,-3.376857 -4.138986,-4.698832 -0.637624,-1.321975 -0.313218,-2.024856 0.825176,-1.339396 z m 72.524661,0 c -1.13839,0.68546 -3.09077,2.759274 -4.91086,4.189723 -1.820092,1.430449 -3.507902,2.217533 -4.97109,2.765816 -1.463188,0.548283 -2.701753,0.857766 -3.88248,2.049654 -1.180728,1.191889 -2.303616,3.266184 -2.594711,4.546645 -0.291094,1.280462 0.249572,1.767062 0.988758,1.052091 0.739185,-0.714971 1.676824,-2.631477 2.667813,-3.709847 0.990988,-1.078369 2.035318,-1.318592 3.65937,-1.904015 1.624051,-0.585424 3.827667,-1.515988 5.72939,-2.951839 1.90173,-1.435852 3.50136,-3.376857 4.13899,-4.698832 0.63762,-1.321975 0.31322,-2.024856 -0.82518,-1.339396 z"
         id="path18"
         inkscape:path-effect="#path-effect19"
         inkscape:original-d="m 30.657018,60.178592 c 1.952375,2.073815 3.90475,4.147629 5.857125,6.221443 1.68781,0.787084 3.37562,1.574168 5.06343,2.361252 1.238566,0.309482 2.477131,0.618965 3.715697,0.928447 1.122888,2.074295 2.245777,4.14859 3.368665,6.222883 -0.5407,0.486629 -1.081365,0.97323 -1.622065,1.45986 -0.937671,-1.916572 -1.875311,-3.833078 -2.812954,-5.749594 -1.044333,-0.240223 -2.088663,-0.480446 -3.133023,-0.720675 -2.203743,-0.930618 -4.407359,-1.861182 -6.611107,-2.791802 -1.599701,-1.941083 -3.199338,-3.882088 -4.799006,-5.82313 0.324418,-0.702908 0.648825,-1.405789 0.973238,-2.108684 z"
         sodipodi:nodetypes="ccccccccccc" /></g></g></svg>
