<?xml version="1.0" encoding="UTF-8" standalone="no"?>
<!-- Created with Inkscape (http://www.inkscape.org/) -->

<svg
   width="135.46666mm"
   height="135.46666mm"
   viewBox="0 0 135.46666 135.46666"
   version="1.1"
   id="svg1"
   inkscape:version="1.3.2 (091e20e, 2023-11-25, custom)"
   xml:space="preserve"
   sodipodi:docname="Togruta_Lekku_Rear_east.svg"
   inkscape:export-filename="Output\Togruta_Lekku_Rear_eastm.png"
   inkscape:export-xdpi="96"
   inkscape:export-ydpi="96"
   xmlns:inkscape="http://www.inkscape.org/namespaces/inkscape"
   xmlns:sodipodi="http://sodipodi.sourceforge.net/DTD/sodipodi-0.dtd"
   xmlns:xlink="http://www.w3.org/1999/xlink"
   xmlns="http://www.w3.org/2000/svg"
   xmlns:svg="http://www.w3.org/2000/svg"><sodipodi:namedview
     id="namedview1"
     pagecolor="#ffffff"
     bordercolor="#000000"
     borderopacity="0.25"
     inkscape:showpageshadow="2"
     inkscape:pageopacity="0.0"
     inkscape:pagecheckerboard="0"
     inkscape:deskcolor="#d1d1d1"
     inkscape:document-units="px"
     inkscape:zoom="3.2623036"
     inkscape:cx="175.64276"
     inkscape:cy="261.93148"
     inkscape:window-width="3840"
     inkscape:window-height="2066"
     inkscape:window-x="-11"
     inkscape:window-y="-11"
     inkscape:window-maximized="1"
     inkscape:current-layer="layer1" /><defs
     id="defs1"><linearGradient
       id="linearGradient2"
       inkscape:collect="always"><stop
         style="stop-color:#00ff00;stop-opacity:1;"
         offset="0.12406015"
         id="stop2" /><stop
         style="stop-color:#ff0000;stop-opacity:0;"
         offset="1"
         id="stop3" /></linearGradient><inkscape:path-effect
       effect="bspline"
       id="path-effect12"
       is_visible="true"
       lpeversion="1.3"
       weight="33.333333"
       steps="2"
       helper_size="0"
       apply_no_weight="true"
       apply_with_weight="true"
       only_selected="false"
       uniform="false" /><inkscape:path-effect
       effect="bspline"
       id="path-effect11"
       is_visible="true"
       lpeversion="1.3"
       weight="33.333333"
       steps="2"
       helper_size="0"
       apply_no_weight="true"
       apply_with_weight="true"
       only_selected="false"
       uniform="false" /><inkscape:path-effect
       effect="bspline"
       id="path-effect10"
       is_visible="true"
       lpeversion="1.3"
       weight="33.333333"
       steps="2"
       helper_size="0"
       apply_no_weight="true"
       apply_with_weight="true"
       only_selected="false"
       uniform="false" /><inkscape:path-effect
       effect="bspline"
       id="path-effect9"
       is_visible="true"
       lpeversion="1.3"
       weight="33.333333"
       steps="2"
       helper_size="0"
       apply_no_weight="true"
       apply_with_weight="true"
       only_selected="false"
       uniform="false" /><inkscape:path-effect
       effect="bspline"
       id="path-effect8"
       is_visible="true"
       lpeversion="1.3"
       weight="33.333333"
       steps="2"
       helper_size="0"
       apply_no_weight="true"
       apply_with_weight="true"
       only_selected="false"
       uniform="false" /><inkscape:path-effect
       effect="bspline"
       id="path-effect6"
       is_visible="true"
       lpeversion="1.3"
       weight="33.333333"
       steps="2"
       helper_size="0"
       apply_no_weight="true"
       apply_with_weight="true"
       only_selected="false"
       uniform="false" /><inkscape:path-effect
       effect="bspline"
       id="path-effect4"
       is_visible="true"
       lpeversion="1.3"
       weight="33.333333"
       steps="2"
       helper_size="0"
       apply_no_weight="true"
       apply_with_weight="true"
       only_selected="false"
       uniform="false" /><inkscape:path-effect
       effect="bspline"
       id="path-effect3"
       is_visible="true"
       lpeversion="1.3"
       weight="33.333333"
       steps="2"
       helper_size="0"
       apply_no_weight="true"
       apply_with_weight="true"
       only_selected="false"
       uniform="false" /><inkscape:path-effect
       effect="bspline"
       id="path-effect2"
       is_visible="true"
       lpeversion="1.3"
       weight="33.333333"
       steps="2"
       helper_size="0"
       apply_no_weight="true"
       apply_with_weight="true"
       only_selected="false"
       uniform="false" /><inkscape:path-effect
       effect="bspline"
       id="path-effect1"
       is_visible="true"
       lpeversion="1.3"
       weight="33.333333"
       steps="2"
       helper_size="0"
       apply_no_weight="true"
       apply_with_weight="true"
       only_selected="false"
       uniform="false" /><filter
       inkscape:collect="always"
       style="color-interpolation-filters:sRGB"
       id="filter8"
       x="-0.063301539"
       y="-0.053738474"
       width="1.1266031"
       height="1.1074769"><feGaussianBlur
         inkscape:collect="always"
         stdDeviation="0.33260534"
         id="feGaussianBlur8" /></filter><filter
       inkscape:collect="always"
       style="color-interpolation-filters:sRGB"
       id="filter9"
       x="-0.088157093"
       y="-0.059363399"
       width="1.1763142"
       height="1.1187268"><feGaussianBlur
         inkscape:collect="always"
         stdDeviation="1.1234441"
         id="feGaussianBlur9" /></filter><linearGradient
       inkscape:collect="always"
       xlink:href="#linearGradient2"
       id="linearGradient3"
       x1="22.128515"
       y1="64.513702"
       x2="47.000755"
       y2="95.98175"
       gradientUnits="userSpaceOnUse" /></defs><g
     inkscape:label="Layer 1"
     inkscape:groupmode="layer"
     id="layer1"><image
       width="135.46667"
       height="135.46667"
       preserveAspectRatio="none"
       xlink:href="file:///E:/rimworld_modding/rimworld_mods/StarWarsRaces/1.5/Textures/StarWarsRaces/Togruta/LekkuRear/Lekku_Rear_east.png"
       id="image1"
       x="-6.9255066e-06"
       y="-6.9255066e-06"
       style="display:none" /><rect
       style="fill:#000000;fill-opacity:0;fill-rule:evenodd;stroke-width:3.73045;stroke-linejoin:bevel"
       id="rect1"
       width="135.46667"
       height="135.46667"
       x="-6.9255066e-06"
       y="-6.9255066e-06" /><g
       id="g13"><path
         style="fill:#000000;fill-rule:evenodd;stroke-width:3.96875;stroke-linejoin:bevel;fill-opacity:1"
         d="m 41.592437,57.975289 c -1.811305,-1.459858 -3.311715,-1.392272 -5.663741,0.2501 -2.352026,1.642372 -5.555539,4.859402 -8.745631,8.813231 -3.190091,3.953829 -6.366571,8.644206 -8.705062,12.733195 -2.338491,4.088989 -3.838871,7.576358 -4.62287,12.057365 -0.783998,4.481008 -0.851583,9.95537 -0.59475,13.13192 0.256834,3.17655 0.838061,4.05515 1.304407,4.64991 0.466347,0.59476 0.817786,0.90565 1.466622,1.07462 0.648836,0.16896 1.595023,0.196 2.534477,0.20951 0.939455,0.0135 1.872124,0.0135 2.723715,-0.16897 0.85159,-0.18248 1.622056,-0.54744 2.798069,-1.36525 1.176014,-0.8178 2.757496,-2.08839 4.95407,-4.25793 2.196573,-2.16954 5.008095,-5.237885 7.116792,-7.583138 2.108698,-2.345252 3.514459,-3.967284 5.386615,-6.224685 1.872156,-2.257402 4.210585,-5.150026 5.481204,-7.481761 1.270619,-2.331736 1.473373,-4.102455 1.622064,-5.650188 0.14869,-1.547733 0.24331,-2.872391 0.06758,-4.960828 -0.175728,-2.088437 -0.621788,-4.94051 -1.905944,-7.860256 -1.284156,-2.919746 -3.406313,-5.906987 -5.217619,-7.366845 z"
         id="path1"
         inkscape:original-d="m 41.281542,56.447845 c -1.50041,0.06759 -3.00082,0.13517 -4.50123,0.202758 -3.203641,3.217159 -6.407155,6.434188 -9.610733,9.651283 -3.176605,4.690563 -6.353085,9.38094 -9.529628,14.07141 -1.500439,3.487508 -3.000819,6.974877 -4.501229,10.462316 -0.06759,5.474576 -0.135172,10.948938 -0.202758,16.423398 0.581252,0.87864 1.16248,1.75724 1.74372,2.63586 0.351454,0.3109 0.702894,0.62179 1.054341,0.93269 0.946224,0.027 1.892409,0.0541 2.838613,0.0811 0.932706,0 1.865375,0 2.798062,0 0.770496,-0.36497 1.540961,-0.72993 2.311441,-1.0949 1.581545,-1.27064 3.163027,-2.54123 4.74454,-3.81184 2.811634,-3.06847 5.623155,-6.136817 8.434734,-9.205222 1.405819,-1.622097 2.811579,-3.24413 4.217368,-4.866193 2.338523,-2.89274 4.676953,-5.785363 7.015428,-8.678045 0.202763,-1.77079 0.405516,-3.541509 0.608274,-5.312262 0.09462,-1.324713 0.189241,-2.649371 0.283864,-3.974057 -0.446077,-2.852188 -0.892138,-5.704261 -1.338205,-8.55639 -2.122244,-2.987363 -4.244401,-5.974604 -6.366602,-8.961906 z"
         inkscape:path-effect="#path-effect1" /><path
         style="display:inline;fill:#ffffff;fill-opacity:1;fill-rule:evenodd;stroke-width:3.96875;stroke-linejoin:bevel"
         d="m 39.537821,60.354316 c -2.095167,1.473376 -4.798606,4.420126 -7.448004,7.650774 -2.649398,3.230647 -5.244649,6.745048 -7.387143,10.131141 -2.142494,3.386092 -3.83211,6.643672 -4.906733,9.225478 -1.074622,2.581805 -1.534198,4.487694 -1.845096,6.413915 -0.310897,1.926221 -0.4731,3.872657 -0.500134,6.116541 -0.02703,2.243885 0.0811,4.785065 0.290621,6.157065 0.209519,1.37199 0.520411,1.57475 1.148971,1.42606 0.628559,-0.1487 1.574747,-0.64882 2.872414,-1.70994 1.297666,-1.06112 2.94673,-2.68315 4.960817,-4.79186 2.014088,-2.108712 4.393069,-4.703964 6.968125,-7.752128 2.575055,-3.048164 5.346027,-6.549049 7.75211,-9.603964 2.406083,-3.054914 4.447139,-5.663683 5.819142,-7.698036 1.372002,-2.034353 2.074884,-3.494184 2.081635,-5.690759 0.0068,-2.196575 -0.682611,-5.129748 -1.588275,-7.143823 -0.905665,-2.014075 -2.02757,-3.108946 -3.331995,-3.656393 -1.304425,-0.547447 -2.791288,-0.547447 -4.886455,0.925929 z"
         id="path2"
         inkscape:path-effect="#path-effect2"
         inkscape:original-d="m 40.146095,58.88094 c -2.703441,2.946752 -5.406882,5.893501 -8.11032,8.840253 -2.595357,3.514543 -5.190607,7.028945 -7.785911,10.543419 -1.689684,3.257711 -3.379301,6.515291 -5.068951,9.772939 -0.459595,1.905963 -0.91917,3.811852 -1.378755,5.717775 -0.16221,1.946519 -0.324413,3.892955 -0.48662,5.839434 0.10814,2.54129 0.216276,5.08247 0.324413,7.6237 0.310902,0.20276 0.621792,0.40552 0.932687,0.60828 0.946223,-0.50015 1.892409,-1.00028 2.838613,-1.50041 1.649132,-1.6221 3.298198,-3.24413 4.947297,-4.8662 2.379076,-2.59535 4.758056,-5.190603 7.137084,-7.785907 2.771082,-3.501025 5.542052,-7.001912 8.313081,-10.502865 2.041139,-2.608874 4.082196,-5.217642 6.123292,-7.826463 0.702908,-1.459886 1.40579,-2.919717 2.108684,-4.379574 -0.68939,-2.933293 -1.378754,-5.866466 -2.068131,-8.7997 -1.121953,-1.094915 -2.243857,-2.189787 -3.365786,-3.284681 -1.486921,0 -2.973784,0 -4.460677,0 z" /><path
         id="path3"
         style="mix-blend-mode:multiply;fill:#a4a4a4;fill-opacity:1;fill-rule:evenodd;stroke-width:3.96875;stroke-linejoin:bevel;filter:url(#filter9)"
         d="m 46.242139,64.155775 c -1.514942,1.393813 -3.171671,3.271873 -5.170227,5.700944 -3.859209,4.690532 -8.98192,11.39509 -12.665377,16.727661 -3.683457,5.332571 -5.927228,9.29334 -7.481714,13.091707 -1.554486,3.798363 -3.83928,8.326373 -2.048208,9.691603 0.969455,0.73896 1.872078,-0.65662 4.335696,-1.63091 0.969205,-0.77477 2.418428,-2.08508 3.558439,-3.20135 2.476956,-2.42538 4.795982,-5.008413 7.116879,-7.583523 1.83701,-2.038221 3.514597,-3.967028 5.386751,-6.224426 1.872154,-2.2574 4.210702,-5.149982 5.481319,-7.481714 1.270618,-2.331734 1.594571,-2.318299 1.743262,-3.866031 0.14869,-1.547731 2.473764,-8.752485 2.298038,-10.84092 -0.175728,-2.088435 -0.702775,-0.276807 -1.98693,-3.196551 -0.174069,-0.395774 -0.365921,-0.792208 -0.567924,-1.18649 z"
         sodipodi:nodetypes="csssscaassssscc" /><path
         id="path4"
         style="display:inline;mix-blend-mode:normal;fill:#f0f0f0;fill-opacity:1;fill-rule:evenodd;stroke-width:3.96875;stroke-linejoin:bevel;filter:url(#filter8)"
         d="m 44.707349,59.56484 c -1.684437,1.638963 -2.416059,4.196607 -3.871886,6.710185 -1.730216,2.987328 -3.662918,5.785059 -3.973803,7.143535 -0.310885,1.358476 -0.62204,1.115258 0.973012,0.547527 1.595051,-0.567732 4.268847,-2.302952 6.454213,-3.35248 1.620372,-0.778188 3.673763,-0.712218 4.931884,-2.181091 -0.236129,-1.836428 -0.789646,-3.847188 -1.46451,-5.347994 -0.838956,-1.865723 -1.865643,-2.935987 -3.04891,-3.519682 z"
         sodipodi:nodetypes="csssacsc" /></g><image
       width="135.46667"
       height="135.46667"
       preserveAspectRatio="none"
       xlink:href="file:///E:/rimworld_modding/rimworld_mods/StarWarsRaces/1.5/Textures/StarWarsRaces/Togruta/LekkuRear/Lekku_Rear_eastm.png"
       id="image1-2"
       x="-6.9255066e-06"
       y="-6.9255066e-06"
       style="display:none" /><g
       id="g12"
       style="display:inline"><rect
         style="fill:#000000;fill-opacity:1;fill-rule:evenodd;stroke-width:3.73045;stroke-linejoin:bevel"
         id="rect1-6"
         width="135.46667"
         height="135.46667"
         x="-6.9255066e-06"
         y="-6.9255066e-06" /><path
         id="path9"
         style="fill:url(#linearGradient3);fill-opacity:1;fill-rule:evenodd;stroke-width:3.96875;stroke-linejoin:bevel"
         d="M 35.459851 63.33567 C 34.163849 63.284129 31.519268 64.608469 29.79198 66.284327 C 27.817938 68.199593 27.041896 70.573378 26.537915 72.341322 C 26.033935 74.109265 25.802099 75.271718 25.871806 75.905445 C 25.941513 76.539173 26.312775 76.644201 26.988017 76.291985 C 27.663259 75.939769 28.64282 75.129854 29.375985 75.174224 C 30.10915 75.218593 30.596037 76.117495 31.240987 77.341533 C 31.885938 78.565571 32.688567 80.114993 33.357654 81.386764 C 34.026741 82.658536 34.56223 83.652534 35.401457 84.531275 C 36.240684 85.410017 37.383765 86.173223 38.229708 86.584897 C 39.075651 86.996571 39.624237 87.056536 40.314336 86.732175 C 41.004434 86.407813 41.835959 85.699415 42.213444 84.867172 C 42.59093 84.034929 42.514435 83.079299 41.656889 82.279733 C 40.799343 81.480167 39.160643 80.836781 37.758936 79.460784 C 36.357229 78.084787 35.192856 75.976213 34.692973 74.113823 C 34.19309 72.251433 34.357867 70.634933 35.038172 68.566358 C 35.718476 66.497783 36.914046 63.976893 35.925973 63.444707 C 35.802464 63.378184 35.644995 63.343033 35.459851 63.33567 z M 39.952601 63.562012 C 39.943307 63.560296 39.934384 63.560769 39.925212 63.563563 C 39.631704 63.652949 39.398482 66.098367 39.666313 68.111606 C 39.934144 70.124844 40.703024 71.705895 42.029993 73.237391 C 43.356962 74.768886 45.241906 76.250841 46.339291 76.956027 C 47.436675 77.661213 47.746181 77.589396 47.960897 77.278488 C 48.175613 76.96758 48.2952 76.417617 48.298344 76.078561 C 48.301489 75.739505 48.188193 75.611516 47.792949 75.335971 C 47.397705 75.060426 46.720692 74.637152 45.881438 73.890064 C 45.042183 73.142976 44.040469 72.07194 43.187545 71.037525 C 42.334621 70.00311 41.630471 69.005417 41.101368 67.373149 C 40.588799 65.79189 40.240693 63.615231 39.952601 63.562012 z M 23.339144 77.578211 C 23.013437 77.575385 22.429778 78.114345 21.845695 78.753333 C 21.178172 79.483606 20.510122 80.344791 20.432862 81.533009 C 20.355601 82.721226 20.86892 84.236241 21.657593 85.935841 C 22.446266 87.635441 23.510511 89.519026 24.899256 91.056458 C 26.288 92.593891 28.001387 93.785412 29.385287 94.429379 C 30.769187 95.073347 31.823404 95.16974 32.512744 95.196774 C 33.202085 95.223809 33.526717 95.181184 33.954 94.863978 C 34.381283 94.546773 34.911047 93.955151 35.214388 93.296115 C 35.51773 92.637079 35.594398 91.9105 35.235059 91.54325 C 34.87572 91.176001 34.080714 91.168216 32.734436 90.448744 C 31.388159 89.729271 29.490512 88.29868 28.127999 86.997791 C 26.765487 85.696903 25.938061 84.526068 25.262024 83.342201 C 24.585987 82.158333 24.061739 80.961131 23.851258 79.872645 C 23.640776 78.784159 23.744045 77.804238 23.462134 77.613868 C 23.426895 77.590072 23.385674 77.578615 23.339144 77.578211 z M 18.745626 85.925505 C 18.684222 85.92527 18.601534 86.21473 18.435567 86.793153 C 18.103635 87.949998 17.439773 90.263702 17.102832 92.144247 C 16.765891 94.024792 16.755734 95.471734 16.787606 96.574985 C 16.819478 97.678236 16.893375 98.437232 17.338994 99.406336 C 17.784612 100.37544 18.601853 101.55477 19.692855 102.34776 C 20.783857 103.14075 22.148714 103.54752 23.294186 103.8009 C 24.439657 104.05428 25.365882 104.15449 26.603028 103.19835 C 27.840173 102.24222 29.387789 100.22972 29.308806 99.339157 C 29.229822 98.448594 27.524102 98.679557 25.655282 97.741322 C 23.786462 96.803087 21.754812 94.696248 20.579623 92.483762 C 19.404433 90.271275 19.085784 87.953436 18.926494 86.794703 C 18.846848 86.215337 18.80703 85.925741 18.745626 85.925505 z " /></g></g></svg>
