<?xml version="1.0" encoding="UTF-8" standalone="no"?>
<!-- Created with Inkscape (http://www.inkscape.org/) -->

<svg
   width="135.46666mm"
   height="135.46666mm"
   viewBox="0 0 135.46666 135.46666"
   version="1.1"
   id="svg1"
   inkscape:version="1.3.2 (091e20e, 2023-11-25, custom)"
   xml:space="preserve"
   sodipodi:docname="Togruta_Lekku_Left_east.svg"
   inkscape:export-filename="Output\Togruta_Lekku_Left_east.png"
   inkscape:export-xdpi="96"
   inkscape:export-ydpi="96"
   xmlns:inkscape="http://www.inkscape.org/namespaces/inkscape"
   xmlns:sodipodi="http://sodipodi.sourceforge.net/DTD/sodipodi-0.dtd"
   xmlns="http://www.w3.org/2000/svg"
   xmlns:svg="http://www.w3.org/2000/svg"><sodipodi:namedview
     id="namedview1"
     pagecolor="#ffffff"
     bordercolor="#000000"
     borderopacity="0.25"
     inkscape:showpageshadow="2"
     inkscape:pageopacity="0.0"
     inkscape:pagecheckerboard="0"
     inkscape:deskcolor="#d1d1d1"
     inkscape:document-units="px"
     inkscape:zoom="3.2623036"
     inkscape:cx="73.414381"
     inkscape:cy="284.61483"
     inkscape:window-width="1649"
     inkscape:window-height="1266"
     inkscape:window-x="808"
     inkscape:window-y="313"
     inkscape:window-maximized="0"
     inkscape:current-layer="layer1" /><defs
     id="defs1"><inkscape:path-effect
       effect="bspline"
       id="path-effect14"
       is_visible="true"
       lpeversion="1.3"
       weight="33.333333"
       steps="2"
       helper_size="0"
       apply_no_weight="true"
       apply_with_weight="true"
       only_selected="false"
       uniform="false" /><inkscape:path-effect
       effect="bspline"
       id="path-effect13"
       is_visible="true"
       lpeversion="1.3"
       weight="33.333333"
       steps="2"
       helper_size="0"
       apply_no_weight="true"
       apply_with_weight="true"
       only_selected="false"
       uniform="false" /><inkscape:path-effect
       effect="bspline"
       id="path-effect12"
       is_visible="true"
       lpeversion="1.3"
       weight="33.333333"
       steps="2"
       helper_size="0"
       apply_no_weight="true"
       apply_with_weight="true"
       only_selected="false"
       uniform="false" /><inkscape:path-effect
       effect="bspline"
       id="path-effect11"
       is_visible="true"
       lpeversion="1.3"
       weight="33.333333"
       steps="2"
       helper_size="0"
       apply_no_weight="true"
       apply_with_weight="true"
       only_selected="false"
       uniform="false" /><inkscape:path-effect
       effect="bspline"
       id="path-effect10"
       is_visible="true"
       lpeversion="1.3"
       weight="33.333333"
       steps="2"
       helper_size="0"
       apply_no_weight="true"
       apply_with_weight="true"
       only_selected="false"
       uniform="false" /><inkscape:path-effect
       effect="bspline"
       id="path-effect9"
       is_visible="true"
       lpeversion="1.3"
       weight="33.333333"
       steps="2"
       helper_size="0"
       apply_no_weight="true"
       apply_with_weight="true"
       only_selected="false"
       uniform="false" /><inkscape:path-effect
       effect="bspline"
       id="path-effect8"
       is_visible="true"
       lpeversion="1.3"
       weight="33.333333"
       steps="2"
       helper_size="0"
       apply_no_weight="true"
       apply_with_weight="true"
       only_selected="false"
       uniform="false" /><inkscape:path-effect
       effect="bspline"
       id="path-effect7"
       is_visible="true"
       lpeversion="1.3"
       weight="33.333333"
       steps="2"
       helper_size="0"
       apply_no_weight="true"
       apply_with_weight="true"
       only_selected="false"
       uniform="false" /><inkscape:path-effect
       effect="bspline"
       id="path-effect6"
       is_visible="true"
       lpeversion="1.3"
       weight="33.333333"
       steps="2"
       helper_size="0"
       apply_no_weight="true"
       apply_with_weight="true"
       only_selected="false"
       uniform="false" /><inkscape:path-effect
       effect="bspline"
       id="path-effect5"
       is_visible="true"
       lpeversion="1.3"
       weight="33.333333"
       steps="2"
       helper_size="0"
       apply_no_weight="true"
       apply_with_weight="true"
       only_selected="false"
       uniform="false" /><inkscape:path-effect
       effect="bspline"
       id="path-effect4"
       is_visible="true"
       lpeversion="1.3"
       weight="33.333333"
       steps="2"
       helper_size="0"
       apply_no_weight="true"
       apply_with_weight="true"
       only_selected="false"
       uniform="false" /><inkscape:path-effect
       effect="bspline"
       id="path-effect3"
       is_visible="true"
       lpeversion="1.3"
       weight="33.333333"
       steps="2"
       helper_size="0"
       apply_no_weight="true"
       apply_with_weight="true"
       only_selected="false"
       uniform="false" /><inkscape:path-effect
       effect="bspline"
       id="path-effect2"
       is_visible="true"
       lpeversion="1.3"
       weight="33.333333"
       steps="2"
       helper_size="0"
       apply_no_weight="true"
       apply_with_weight="true"
       only_selected="false"
       uniform="false" /><inkscape:path-effect
       effect="bspline"
       id="path-effect1"
       is_visible="true"
       lpeversion="1.3"
       weight="33.333333"
       steps="2"
       helper_size="0"
       apply_no_weight="true"
       apply_with_weight="true"
       only_selected="false"
       uniform="false" /><filter
       inkscape:collect="always"
       style="color-interpolation-filters:sRGB"
       id="filter4"
       x="-0.20263679"
       y="-0.053738703"
       width="1.4052736"
       height="1.1074774"><feGaussianBlur
         inkscape:collect="always"
         stdDeviation="1.4137803"
         id="feGaussianBlur4" /></filter><filter
       inkscape:collect="always"
       style="color-interpolation-filters:sRGB"
       id="filter5"
       x="-0.088946914"
       y="-0.016774066"
       width="1.1778938"
       height="1.0335481"><feGaussianBlur
         inkscape:collect="always"
         stdDeviation="0.38823489"
         id="feGaussianBlur5" /></filter><filter
       inkscape:collect="always"
       style="color-interpolation-filters:sRGB"
       id="filter8"
       x="-0.43881544"
       y="-0.12319696"
       width="1.8776309"
       height="1.2463939"><feGaussianBlur
         inkscape:collect="always"
         stdDeviation="0.82427059"
         id="feGaussianBlur8" /></filter><filter
       inkscape:collect="always"
       style="color-interpolation-filters:sRGB"
       id="filter9"
       x="-0.13312214"
       y="-0.057035794"
       width="1.2662443"
       height="1.1140716"><feGaussianBlur
         inkscape:collect="always"
         stdDeviation="0.57465466"
         id="feGaussianBlur9" /></filter></defs><g
     inkscape:label="Layer 1"
     inkscape:groupmode="layer"
     id="layer1"><rect
       style="display:inline;fill:#000000;fill-opacity:0;fill-rule:evenodd;stroke-width:3.73045;stroke-linejoin:bevel"
       id="rect1"
       width="135.46667"
       height="135.46667"
       x="-6.9255066e-06"
       y="-6.9255066e-06" /><g
       id="g5"
       inkscape:label="0"
       style="display:inline"><path
         style="display:inline;fill:#000000;fill-rule:evenodd;stroke-width:3.96875;stroke-linejoin:bevel"
         d="m 78.967506,64.558166 c 0.783998,0.216276 3.487439,2.865648 5.298754,6.46127 1.811314,3.595622 2.730465,8.137311 2.892666,15.92333 0.1622,7.78602 -0.432545,18.815834 -1.135447,26.601794 -0.702903,7.78595 -1.513919,12.32764 -2.270888,15.16627 -0.75697,2.83862 -1.459855,3.97405 -2.541246,4.56881 -1.08139,0.59475 -2.541217,0.64882 -3.703706,0.51365 -1.162489,-0.13518 -2.027572,-0.45959 -2.811577,-3.70378 -0.784005,-3.24419 -1.486884,-9.40791 -3.271184,-18.19421 -1.784299,-8.7863 -4.649889,-20.194588 -6.109748,-26.304373 -1.459859,-6.109785 -1.513928,-6.920799 0.675904,-8.245504 2.189831,-1.324704 6.623385,-3.163007 9.407941,-4.676946 2.784555,-1.513939 3.919978,-2.703429 3.919967,-4.406619 -1.2e-5,-1.703191 -1.135434,-3.919967 -0.351436,-3.703692 z"
         id="path1"
         inkscape:path-effect="#path-effect1"
         inkscape:original-d="m 77.048063,62.12507 c 2.703441,2.649371 5.406882,5.298745 8.110323,7.948116 0.919187,4.541872 1.838339,9.083561 2.757509,13.625341 -0.59477,11.030259 -1.189514,22.060073 -1.784271,33.090113 -0.811048,4.54187 -1.622065,9.08356 -2.433097,13.62535 -0.702908,1.13546 -1.40579,2.27089 -2.108685,3.40633 -1.459886,0.0541 -2.919714,0.10814 -4.379574,0.16221 -0.865118,-0.32442 -1.7302,-0.64883 -2.595303,-0.97324 -0.702908,-6.16397 -1.405789,-12.32769 -2.108681,-18.49154 -2.865705,-11.40875 -5.731296,-22.817038 -8.596943,-34.225559 -0.05407,-0.811049 -0.108138,-1.622063 -0.162208,-2.433095 4.433732,-1.838378 8.867286,-3.67668 13.30093,-5.515021 1.135467,-1.189537 2.27089,-2.379027 3.406336,-3.568541 -1.135468,-2.216867 -2.27089,-4.433644 -3.406336,-6.650464 z" /><path
         style="fill:#ffffff;fill-opacity:1;fill-rule:evenodd;stroke-width:3.96875;stroke-linejoin:bevel"
         d="m 65.93692,78.31868 c 0.729929,1.811305 2.027581,4.082195 3.433386,8.59701 1.405805,4.514814 2.919702,11.27328 4.325504,18.57265 1.405802,7.29937 2.703426,15.13919 3.703708,19.30249 1.000281,4.16331 1.703157,4.64991 2.351988,4.51473 0.648831,-0.13517 1.243576,-0.89212 2.00055,-6.70463 0.756974,-5.8125 1.676127,-16.68012 1.784258,-25.736719 0.108131,-9.056599 -0.594749,-16.301674 -1.054337,-21.113824 -0.459587,-4.812149 -0.675859,-7.191129 -1.78429,-9.002447 -1.108431,-1.811317 -3.108935,-3.054875 -4.622872,-2.811548 -1.513938,0.243328 -2.541225,1.973496 -3.730753,2.811561 -1.189527,0.838065 -2.54122,0.783998 -3.64964,0.973243 -1.10842,0.189246 -1.973502,0.621787 -2.568263,1.676146 -0.594761,1.054359 -0.919167,2.730458 -1.000269,4.244398 -0.0811,1.513941 0.0811,2.865634 0.81103,4.67694 z"
         id="path2"
         inkscape:path-effect="#path-effect2"
         inkscape:original-d="m 65.369198,77.859096 c 1.297652,2.270889 2.595304,4.541779 3.892955,6.812669 1.513957,6.758739 3.027855,13.517205 4.541782,20.275805 1.297676,7.84014 2.595301,15.67996 3.892952,23.51994 0.702911,0.48663 1.40579,0.97323 2.108685,1.45985 0.59477,-0.75697 1.189513,-1.51392 1.78427,-2.27089 0.919189,-10.86804 1.838341,-21.73566 2.757512,-32.603492 -0.702911,-7.245366 -1.40579,-14.490441 -2.108684,-21.735664 -0.216281,-2.379076 -0.432552,-4.758056 -0.648828,-7.137083 -2.000586,-1.243608 -4.00109,-2.487166 -6.001636,-3.73075 -1.02733,1.730238 -2.054617,3.460407 -3.081922,5.190607 -1.351749,-0.05407 -2.703442,-0.108138 -4.055163,-0.162206 -0.865119,0.43256 -1.730201,0.865101 -2.595304,1.297652 -0.324419,1.676167 -0.648824,3.352266 -0.973238,5.028401 0.162211,1.351746 0.324414,2.703439 0.486619,4.055161 z" /><path
         style="mix-blend-mode:multiply;fill:#d7d7d7;fill-opacity:1;fill-rule:evenodd;stroke-width:3.96875;stroke-linejoin:bevel;filter:url(#filter4)"
         d="m 70.647936,68.701882 c -1.597749,0.477906 -2.148732,1.70947 -2.530735,2.806026 -0.382002,1.096555 -0.594989,2.057994 -1.119453,3.431974 -0.524465,1.37398 -1.360343,3.160333 -0.730902,8.310937 0.629441,5.150604 2.724126,13.664834 4.182772,20.138181 1.458646,6.47335 2.281073,10.90502 3.342395,15.32587 1.061322,4.42085 2.361417,8.83037 3.412561,11.07098 1.051143,2.2406 1.85326,2.31211 3.006186,1.18101 1.152926,-1.13109 2.656599,-3.46471 2.572144,-4.43713 -0.08446,-0.97242 -1.756995,-0.58355 -2.761534,-2.40322 -1.00454,-1.81967 -1.340931,-5.84761 -1.481821,-9.60151 -0.140891,-3.7539 -0.08626,-7.23335 -0.221154,-14.812661 -0.134894,-7.579311 -0.4593,-19.25794 -1.943782,-25.235264 -1.484482,-5.977325 -4.128929,-6.253098 -5.726677,-5.775193 z"
         id="path4"
         inkscape:path-effect="#path-effect4"
         inkscape:original-d="m 69.601182,67.948198 c -0.550995,1.23159 -1.101978,2.463154 -1.652984,3.694768 -0.212999,0.961497 -0.425986,1.922936 -0.638986,2.884433 -0.835929,1.786463 -1.671807,3.572816 -2.507736,5.359278 2.094811,8.514746 4.189496,17.028976 6.284308,25.543723 0.82248,4.43195 1.644908,8.86362 2.467389,13.29558 1.300162,4.40974 2.600257,8.81926 3.900407,13.22896 0.802137,0.0715 1.604254,0.14302 2.406386,0.21452 1.50372,-2.33369 3.007393,-4.66731 4.511141,-7.00104 -1.672659,0.38889 -3.345198,0.77776 -5.017862,1.16665 -0.336415,-4.02823 -0.672806,-8.05617 -1.009219,-12.08438 0.05463,-3.47959 0.109263,-6.95904 0.163894,-10.43856 -0.324419,-11.679102 -0.648824,-23.357731 -0.973238,-35.036596 -2.644551,-0.275784 -5.288998,-0.551557 -7.9335,-0.827336 z"
         sodipodi:nodetypes="cccccccccccccc" /><path
         style="mix-blend-mode:normal;fill:#f2f2f2;fill-opacity:1;fill-rule:evenodd;stroke-width:3.96875;stroke-linejoin:bevel;filter:url(#filter5)"
         d="m 74.87818,66.773113 c -1.11989,-0.04666 -2.633223,0.643754 -3.455703,1.245927 -0.822481,0.602172 -0.954039,1.116038 -0.198652,4.931201 0.755388,3.815162 2.39766,10.931292 3.597303,18.436534 1.199642,7.505242 1.956591,15.399135 2.619619,21.046465 0.663028,5.64732 1.232085,9.04771 1.836695,9.75058 0.60461,0.70287 1.244697,-1.29188 1.618629,-7.12623 C 81.270002,109.22324 81.37826,99.502934 80.76269,91.12533 80.14712,82.747726 78.795767,75.550238 77.760125,71.576888 76.724482,67.603538 75.99807,66.819778 74.87818,66.773113 Z"
         id="path3"
         inkscape:path-effect="#path-effect3"
         inkscape:original-d="m 75.271654,66.036015 c -1.513364,0.690433 -3.026697,1.380852 -4.540092,2.0713 -0.131566,0.513897 -0.263124,1.027763 -0.39469,1.541661 1.642341,7.116427 3.284613,14.232557 4.92692,21.348837 0.756979,7.894204 1.513928,15.788097 2.27089,23.682147 0.569093,3.4006 1.138151,6.80099 1.707244,10.2016 0.640124,-1.99487 1.280213,-3.98962 1.920335,-5.98447 0.107741,-9.67385 0.215999,-19.394156 0.323217,-29.021091 -1.338358,-7.128273 -2.689711,-14.325761 -4.034576,-21.488694 -0.72642,-0.783767 -1.452832,-1.567527 -2.179248,-2.35129 z"
         sodipodi:nodetypes="cccccccacc" /><path
         style="fill:#d8d8d8;fill-opacity:1;fill-rule:evenodd;stroke-width:3.96875;stroke-linejoin:bevel"
         d="m 69.530869,70.706632 c 0.100783,-1.877629 1.258135,-2.383122 0.78022,-2.688987 -0.477914,-0.305865 -2.591017,-0.412078 -3.819681,0.423734 -1.228664,0.835813 -1.572749,2.613586 -1.77347,4.075988 -0.200721,1.462402 -0.258068,2.60935 0.248523,4.109992 0.50659,1.500642 1.577077,3.354878 2.733621,3.823215 1.156543,0.468337 2.399072,-0.449222 2.542434,-2.532922 0.143362,-2.083699 -0.812429,-5.33339 -0.711647,-7.21102 z"
         id="path5"
         inkscape:path-effect="#path-effect5"
         inkscape:original-d="m 68.474277,69.334505 c 1.157375,-0.505502 2.314727,-1.010995 3.472123,-1.516507 -2.113225,-0.106218 -4.226328,-0.212431 -6.339557,-0.31865 -0.344099,1.777844 -0.688184,3.555617 -1.032276,5.333423 -0.05735,1.146998 -0.114697,2.293946 -0.172045,3.44092 1.07053,1.854309 2.141016,3.708546 3.211523,5.562817 1.242581,-0.917596 2.48511,-1.835155 3.727662,-2.752733 -0.955829,-3.249822 -1.91162,-6.499513 -2.86743,-9.74927 z"
         sodipodi:nodetypes="cccccccc"
         inkscape:label="path5" /></g><g
       id="g9"
       inkscape:label="1"
       style="display:none"><path
         style="fill:#000000;fill-opacity:1;fill-rule:evenodd;stroke-width:3.96875;stroke-linejoin:bevel"
         d="m 79.521712,67.815813 c 0.878618,-0.797515 2.933232,0.283861 4.447169,2.297954 1.513937,2.014094 2.487156,4.960785 2.879153,8.218466 0.391997,3.257681 0.202764,6.826079 -0.68939,9.799925 -0.892153,2.973845 -2.487118,5.352777 -4.487705,6.799148 -2.000587,1.44637 -4.406599,1.960013 -7.348079,0.637639 -2.94148,-1.322374 -6.547529,-4.598099 -8.264247,-8.558717 -1.716719,-3.960618 -1.608586,-8.664422 -1.10844,-10.32707 0.500146,-1.662648 1.392265,-0.283918 2.798073,0.729878 1.405809,1.013796 3.325213,1.662608 5.32578,1.02728 2.000568,-0.635328 4.082175,-2.554732 4.974307,-4.852684 0.892133,-2.297953 0.59476,-4.974304 1.473379,-5.771819 z"
         id="path6"
         inkscape:path-effect="#path-effect6"
         inkscape:original-d="m 78.345715,65.936921 c 2.054615,1.081377 4.109229,2.162753 6.163844,3.244129 0.973259,2.946811 1.946479,5.893502 2.919717,8.840251 -0.189245,3.568613 -0.378478,7.137011 -0.567723,10.705626 -1.595062,2.379076 -3.190027,4.758008 -4.785089,7.137085 -2.406112,0.513664 -4.812124,1.027307 -7.218188,1.540961 -3.476896,-3.158402 -7.082945,-6.434127 -10.624521,-9.651285 0.108139,-4.704078 0.216272,-9.407882 0.324412,-14.111959 0.892152,1.378781 1.784271,2.757511 2.676405,4.136264 1.919483,0.648838 3.838887,1.297651 5.758331,1.946476 2.081691,-1.919481 4.163298,-3.838885 6.244947,-5.758328 -0.297384,-2.676462 -0.594757,-5.352813 -0.892135,-8.02922 z"
         sodipodi:nodetypes="cccccccccccc" /><path
         style="fill:#d7d7d7;fill-opacity:1;fill-rule:evenodd;stroke-width:3.96875;stroke-linejoin:bevel"
         d="m 81.292465,69.126982 c -0.892136,-2.08165 -2.243856,-2.595303 -3.92001,-2.879165 -1.676154,-0.283862 -3.676658,-0.337931 -5.798882,0.121664 -2.122224,0.459595 -4.366034,1.432814 -5.339271,3.284698 -0.973236,1.851884 -0.675863,4.582305 -0.270342,6.907284 0.405522,2.324978 0.919165,4.244382 2.324978,6.718061 1.405813,2.473679 3.703691,5.501471 5.528526,7.055951 1.824836,1.554479 3.176531,1.63558 4.501229,0.838049 1.324699,-0.797531 2.622325,-2.473631 3.406326,-4.731032 0.784,-2.257402 1.054339,-5.095958 0.973231,-8.340124 -0.08111,-3.244166 -0.513649,-6.893736 -1.405785,-8.975386 z"
         id="path7"
         inkscape:path-effect="#path-effect7"
         inkscape:original-d="m 81.75205,67.558985 c -1.351721,-0.513654 -2.703441,-1.027305 -4.055163,-1.54096 -2.000586,-0.05407 -4.00109,-0.108137 -6.001636,-0.162208 -2.243902,0.973259 -4.487712,1.946479 -6.731569,2.919717 0.297384,2.730529 0.594757,5.46095 0.892135,8.191426 0.513665,1.919481 1.027309,3.838885 1.540963,5.758329 2.29797,3.027915 4.595849,6.055706 6.893774,9.083561 1.351746,0.0811 2.703441,0.162205 4.055161,0.243308 1.297678,-1.676164 2.595303,-3.352265 3.892955,-5.028398 0.270348,-2.83867 0.540686,-5.677226 0.811032,-8.51584 -0.432559,-3.649718 -0.865103,-7.299288 -1.297652,-10.948935 z" /><path
         style="fill:#ffffff;fill-opacity:1;fill-rule:evenodd;stroke-width:3.96875;stroke-linejoin:bevel;filter:url(#filter8)"
         d="m 77.440062,70.235392 c 0.391999,1.054343 1.175996,3.163027 1.567995,6.123332 0.391998,2.960305 0.391998,6.772081 0.784005,8.204895 0.392007,1.432814 1.17599,0.486628 1.567989,-1.595053 0.391999,-2.081682 0.391999,-5.298711 0.02703,-7.772377 -0.364972,-2.473667 -1.094885,-4.203834 -1.878892,-5.082452 -0.784006,-0.878618 -1.622055,-0.905651 -2.041089,-0.919167 -0.419034,-0.01352 -0.419034,-0.01352 -0.02703,1.040822 z"
         id="path8"
         inkscape:path-effect="#path-effect8"
         inkscape:original-d="m 77.048063,69.18105 c 0.783997,2.108685 1.567995,4.217369 2.351992,6.32605 0,3.811929 0,7.623705 0,11.435557 0.784014,-0.946224 1.567998,-1.892409 2.351995,-2.838614 0,-3.217159 0,-6.434188 0,-9.651283 -0.729943,-1.730238 -1.459859,-3.460404 -2.189786,-5.190607 -0.838084,-0.02703 -1.676133,-0.05407 -2.514201,-0.0811 z" /><path
         style="mix-blend-mode:multiply;fill:#d2d2d2;fill-opacity:1;fill-rule:evenodd;stroke-width:3.96875;stroke-linejoin:bevel;filter:url(#filter9)"
         d="m 69.81636,70.451667 c 0.256827,1.622065 1.311168,4.271436 2.352003,7.015457 1.040835,2.744022 2.068122,5.582578 2.216804,7.44796 0.148682,1.865383 -0.581232,2.7575 -1.094889,3.609092 -0.513657,0.851592 -0.81103,1.662609 -0.229775,2.568272 0.581254,0.905662 2.041084,1.905916 3.622614,1.811284 1.581529,-0.09463 3.284663,-1.284123 3.41982,-2.311439 0.135157,-1.027316 -1.297638,-1.8924 -2.176259,-3.176552 -0.878621,-1.284151 -1.203027,-2.987285 -1.838346,-5.109512 -0.635318,-2.122226 -1.581504,-4.663409 -2.541235,-7.177634 -0.959731,-2.514224 -1.932951,-5.001341 -2.689919,-5.94754 -0.756969,-0.946198 -1.297646,-0.351453 -1.040818,1.270612 z"
         id="path9"
         inkscape:path-effect="#path-effect9"
         inkscape:original-d="m 69.018845,69.424359 c 1.054341,2.649373 2.108682,5.298744 3.163025,7.948118 1.027327,2.838669 2.054614,5.677225 3.081922,8.515837 -0.729943,0.892153 -1.459857,1.78427 -2.189787,2.676406 -0.297383,0.811048 -0.594757,1.622065 -0.892135,2.433097 1.459886,1.000295 2.919717,2.000547 4.379574,3.00082 1.703202,-1.189538 3.406336,-2.379028 5.109504,-3.568541 -1.432854,-0.865119 -2.865649,-1.730203 -4.298471,-2.595304 -0.324419,-1.703202 -0.648828,-3.406336 -0.973239,-5.109503 -0.946224,-2.541286 -1.892411,-5.082469 -2.838614,-7.623702 -0.973259,-2.487216 -1.946476,-4.974334 -2.919716,-7.461499 -0.540698,0.59477 -1.081376,1.189514 -1.622063,1.784271 z" /></g><g
       id="g14"
       inkscape:label="m"
       style="display:none"><path
         id="path10"
         style="fill:#00ff00;fill-opacity:1;fill-rule:evenodd;stroke-width:3.96875;stroke-linejoin:bevel"
         d="m 77.316212,64.813616 c -0.216144,-0.0078 -0.440688,-0.0069 -0.673861,0.0016 -1.865385,0.06758 -4.298358,0.635339 -6.542236,1.797823 -2.243879,1.162484 -4.298365,2.919475 -5.339209,5.190381 -1.040844,2.270906 -1.067584,5.05529 -1.162203,6.461104 -0.09462,1.405815 -0.256861,1.432907 -0.337964,1.446424 -0.0811,0.01352 -0.0814,0.01356 0.391707,0.594795 0.473102,0.58124 1.4195,1.743581 2.027783,1.824695 0.608284,0.08111 0.878334,-0.919148 0.905371,-2.149223 0.02704,-1.230074 -0.18917,-2.689971 0.675928,-4.541841 0.865098,-1.851871 2.811685,-4.095682 4.960938,-5.068942 2.149253,-0.973259 4.501297,-0.675618 6.082833,-0.04031 1.581535,0.635311 2.392406,1.608258 3.027722,2.36523 0.635316,0.756973 1.09481,1.297777 1.473295,1.095024 0.378485,-0.202753 0.676164,-1.148599 0.378788,-2.635498 -0.297376,-1.4869 -1.189714,-3.514846 -2.284615,-4.74493 -0.958038,-1.076325 -2.071272,-1.541951 -3.584277,-1.596285 z m 6.729305,11.177095 c -0.03636,0.0099 -0.09376,0.111162 -0.185002,0.273369 -0.243309,0.43255 -0.729486,1.297414 -1.445906,2.270662 -0.71642,0.973248 -1.662712,2.055073 -2.730583,2.757971 -1.067871,0.702898 -2.257647,1.026978 -3.731039,2.027267 -1.473391,1.000289 -3.230257,2.676394 -4.352189,4.379577 -1.121931,1.703184 -1.608747,3.433456 -1.770951,4.879806 -0.162205,1.44635 -5.3e-5,2.608612 0.3514,3.554822 0.351452,0.94621 0.892186,1.676336 1.365291,2.027783 0.473105,0.351447 0.878559,0.324445 2.068091,-0.1757 1.189532,-0.500145 3.163271,-1.473524 4.852934,-2.892847 1.689663,-1.419323 3.095133,-3.284818 4.000789,-5.555733 0.905656,-2.270915 1.311443,-4.946768 1.500684,-7.298779 0.18924,-2.352011 0.161828,-4.37968 0.148311,-5.39347 -0.0084,-0.633618 -0.01124,-0.871228 -0.07183,-0.854728 z m -0.382406,21.02404 c -0.312583,-0.01521 -0.701379,0.146655 -1.194759,0.335897 -0.98676,0.378484 -2.392173,0.865184 -3.838525,1.703255 -1.446353,0.838071 -2.933485,2.027957 -3.906739,3.028237 -0.973253,1.00029 -1.432638,1.81089 -1.662431,2.2164 -0.229792,0.40552 -0.23004,0.40568 -0.216524,1.17616 0.01352,0.77048 0.04086,2.31156 0.63562,3.06855 0.594757,0.75698 1.757124,0.72988 3.108855,0.60823 1.35173,-0.12166 2.892774,-0.33772 4.190442,-0.63511 1.297667,-0.29738 2.351771,-0.67597 3.041158,-1.52755 0.689386,-0.85159 1.013997,-2.17639 1.081587,-4.01474 0.06759,-1.83836 -0.121744,-4.19036 -0.500228,-5.231208 -0.189241,-0.520424 -0.425873,-0.71291 -0.738456,-0.728121 z m -0.820105,14.217219 c -1.010144,0.0361 -2.518767,0.99286 -3.902604,1.71773 -1.703183,0.89214 -3.217008,1.43281 -3.87935,2.40605 -0.662342,0.97324 -0.473093,2.37905 0.513664,3.25768 0.986757,0.87864 2.771176,1.23001 4.352706,1.2976 1.58153,0.0676 2.959999,-0.14835 3.64939,-0.74311 0.68939,-0.59476 0.689201,-1.56818 0.716235,-3.23081 0.02703,-1.66263 0.08149,-4.01448 -0.837675,-4.56871 -0.172344,-0.10392 -0.379256,-0.14475 -0.612366,-0.13643 z m -7.095691,13.44104 c -0.157216,-0.003 -0.154175,0.15482 -0.145727,0.57723 0.01352,0.67586 0.04083,2.02769 0.554488,3.24424 0.513654,1.21656 1.513808,2.29789 2.59519,2.58176 1.081383,0.28387 2.243744,-0.22966 3.108854,-1.56786 0.865111,-1.33821 1.433084,-3.50097 0.98702,-4.20388 -0.446063,-0.70292 -1.906305,0.054 -3.28507,0.1757 -1.378766,0.12166 -2.676036,-0.39223 -3.324862,-0.64906 -0.24331,-0.0963 -0.395563,-0.15615 -0.489893,-0.15813 z" /></g></g></svg>
