<?xml version="1.0" encoding="UTF-8" standalone="no"?>
<!-- Created with Inkscape (http://www.inkscape.org/) -->

<svg
   width="135.46666mm"
   height="135.46666mm"
   viewBox="0 0 135.46666 135.46666"
   version="1.1"
   id="svg1"
   inkscape:version="1.3.2 (091e20e, 2023-11-25, custom)"
   xml:space="preserve"
   inkscape:export-filename="Togruta_Montral_north.png"
   inkscape:export-xdpi="96"
   inkscape:export-ydpi="96"
   sodipodi:docname="Togruta_Montral0_north.svg"
   xmlns:inkscape="http://www.inkscape.org/namespaces/inkscape"
   xmlns:sodipodi="http://sodipodi.sourceforge.net/DTD/sodipodi-0.dtd"
   xmlns="http://www.w3.org/2000/svg"
   xmlns:svg="http://www.w3.org/2000/svg"><sodipodi:namedview
     id="namedview1"
     pagecolor="#ffffff"
     bordercolor="#000000"
     borderopacity="0.25"
     inkscape:showpageshadow="2"
     inkscape:pageopacity="0.0"
     inkscape:pagecheckerboard="0"
     inkscape:deskcolor="#d1d1d1"
     inkscape:document-units="px"
     inkscape:zoom="1.1533985"
     inkscape:cx="-168.19859"
     inkscape:cy="13.872049"
     inkscape:window-width="3840"
     inkscape:window-height="2066"
     inkscape:window-x="-11"
     inkscape:window-y="-11"
     inkscape:window-maximized="1"
     inkscape:current-layer="layer1" /><defs
     id="defs1"><inkscape:path-effect
       effect="mirror_symmetry"
       start_point="67.73333,0"
       end_point="67.73333,135.46666"
       center_point="67.73333,67.73333"
       id="path-effect11"
       is_visible="true"
       lpeversion="1.2"
       lpesatellites=""
       mode="vertical"
       discard_orig_path="false"
       fuse_paths="false"
       oposite_fuse="false"
       split_items="false"
       split_open="false"
       link_styles="false" /><inkscape:path-effect
       effect="bspline"
       id="path-effect10"
       is_visible="true"
       lpeversion="1.3"
       weight="33.333333"
       steps="2"
       helper_size="0"
       apply_no_weight="true"
       apply_with_weight="true"
       only_selected="false"
       uniform="false" /><inkscape:path-effect
       effect="bspline"
       id="path-effect9"
       is_visible="true"
       lpeversion="1.3"
       weight="33.333333"
       steps="2"
       helper_size="0"
       apply_no_weight="true"
       apply_with_weight="true"
       only_selected="false"
       uniform="false" /><inkscape:path-effect
       effect="bspline"
       id="path-effect8"
       is_visible="true"
       lpeversion="1.3"
       weight="33.333333"
       steps="2"
       helper_size="0"
       apply_no_weight="true"
       apply_with_weight="true"
       only_selected="false"
       uniform="false" /><inkscape:path-effect
       effect="bspline"
       id="path-effect7"
       is_visible="true"
       lpeversion="1.3"
       weight="33.333333"
       steps="2"
       helper_size="0"
       apply_no_weight="true"
       apply_with_weight="true"
       only_selected="false"
       uniform="false" /><inkscape:path-effect
       effect="mirror_symmetry"
       start_point="67.73333,0"
       end_point="67.73333,135.46666"
       center_point="67.73333,67.73333"
       id="path-effect6"
       is_visible="true"
       lpeversion="1.2"
       lpesatellites=""
       mode="vertical"
       discard_orig_path="false"
       fuse_paths="false"
       oposite_fuse="false"
       split_items="false"
       split_open="false"
       link_styles="false" /><inkscape:path-effect
       effect="bspline"
       id="path-effect5"
       is_visible="true"
       lpeversion="1.3"
       weight="33.333333"
       steps="2"
       helper_size="0"
       apply_no_weight="true"
       apply_with_weight="true"
       only_selected="false"
       uniform="false" /><inkscape:path-effect
       effect="bspline"
       id="path-effect4"
       is_visible="true"
       lpeversion="1.3"
       weight="33.333333"
       steps="2"
       helper_size="0"
       apply_no_weight="true"
       apply_with_weight="true"
       only_selected="false"
       uniform="false" /><inkscape:path-effect
       effect="bspline"
       id="path-effect3"
       is_visible="true"
       lpeversion="1.3"
       weight="33.333333"
       steps="2"
       helper_size="0"
       apply_no_weight="true"
       apply_with_weight="true"
       only_selected="false"
       uniform="false" /><inkscape:path-effect
       effect="bspline"
       id="path-effect2"
       is_visible="true"
       lpeversion="1.3"
       weight="33.333333"
       steps="2"
       helper_size="0"
       apply_no_weight="true"
       apply_with_weight="true"
       only_selected="false"
       uniform="false" /><inkscape:path-effect
       effect="bspline"
       id="path-effect1"
       is_visible="true"
       lpeversion="1.3"
       weight="33.333333"
       steps="2"
       helper_size="0"
       apply_no_weight="true"
       apply_with_weight="true"
       only_selected="false"
       uniform="false" /><filter
       inkscape:collect="always"
       style="color-interpolation-filters:sRGB"
       id="filter5"
       x="-0.020256927"
       y="-0.020992926"
       width="1.0405139"
       height="1.0419859"><feGaussianBlur
         inkscape:collect="always"
         stdDeviation="0.50840424"
         id="feGaussianBlur5" /></filter><filter
       inkscape:collect="always"
       style="color-interpolation-filters:sRGB"
       id="filter6"
       x="-0.026144383"
       y="-0.028382419"
       width="1.0522888"
       height="1.0567648"><feGaussianBlur
         inkscape:collect="always"
         stdDeviation="0.50840424"
         id="feGaussianBlur6" /></filter></defs><g
     inkscape:label="Layer 1"
     inkscape:groupmode="layer"
     id="layer1"><rect
       style="fill:#000000;fill-opacity:0;fill-rule:evenodd;stroke-width:26.8067;stroke-linejoin:bevel"
       id="rect1"
       width="135.46667"
       height="135.46667"
       x="-6.9255066e-06"
       y="-6.9255066e-06"
       inkscape:label="bg" /><g
       id="g6"
       inkscape:path-effect="#path-effect6"
       style="display:inline"><path
         style="fill:#000000;fill-rule:evenodd;stroke-width:3.96875;stroke-linejoin:bevel"
         d="m 49.905517,85.266523 c 2.054616,1.027307 4.541782,3.460404 7.015057,5.182236 2.473275,1.721833 4.932512,2.732341 6.732359,3.237625 1.799848,0.505284 2.940113,0.505284 4.080401,0.505284 V 34.660417 c -0.353511,0 -0.707018,0 -3.669342,-0.856483 -2.962324,-0.856484 -8.53332,-2.569408 -11.264794,-5.507539 -2.731473,-2.93813 -2.623336,-7.101419 -1.596009,-10.102257 1.027327,-3.000837 2.973764,-4.83914 2.973745,-6.380114 -1.9e-5,-1.540974 -1.946458,-2.7845321 -4.920283,-2.3789948 -2.973826,0.4055373 -6.974836,2.4601098 -9.732361,4.9202698 -2.757525,2.460159 -4.271423,5.32575 -5.163561,9.759453 -0.892138,4.433703 -1.162476,10.435221 -1.378752,15.652906 -0.216277,5.217685 -0.37848,9.651239 -0.405513,15.571849 -0.02703,5.920609 0.0811,13.327889 0.865113,18.221141 0.784013,4.893253 2.243841,7.272233 4.217378,8.759131 1.973536,1.486898 4.460652,2.081642 6.515283,2.189776 2.054631,0.108135 3.676664,-0.270339 5.731279,0.756968 z m 35.655627,0 c -2.054616,1.027307 -4.541782,3.460404 -7.015057,5.182236 -2.473275,1.721833 -4.932512,2.732341 -6.732359,3.237625 -1.799848,0.505284 -2.940113,0.505284 -4.080401,0.505284 V 34.660417 c 0.353511,0 0.707018,0 3.669342,-0.856483 2.962324,-0.856484 8.53332,-2.569408 11.264794,-5.507539 2.731473,-2.93813 2.623336,-7.101419 1.596009,-10.102257 -1.027327,-3.000837 -2.973764,-4.83914 -2.973745,-6.380114 1.9e-5,-1.540974 1.946458,-2.7845321 4.920283,-2.3789948 2.973826,0.4055373 6.974836,2.4601098 9.732361,4.9202698 2.757525,2.460159 4.271419,5.32575 5.163559,9.759453 0.89214,4.433703 1.16248,10.435221 1.37875,15.652906 0.21628,5.217685 0.37848,9.651239 0.40552,15.571849 0.027,5.920609 -0.0811,13.327889 -0.86512,18.221141 -0.78401,4.893253 -2.243837,7.272233 -4.217374,8.759131 -1.973536,1.486898 -4.460652,2.081642 -6.515283,2.189776 -2.054631,0.108135 -3.676664,-0.270339 -5.731279,0.756968 z"
         id="path1"
         inkscape:path-effect="#path-effect1"
         inkscape:original-d="m 49.472968,83.860735 c 2.487165,2.433095 4.97433,4.866193 7.461496,7.299288 2.459385,1.010568 4.918622,2.021076 7.378006,3.031645 1.140311,0 3.420864,0 3.420864,0 V 34.660417 c 0,0 -0.707018,0 -1.060533,0 C 61.101668,32.94745 55.530672,31.234526 49.959587,29.521574 50.067725,25.358265 50.175862,21.194976 50.284,17.031677 52.230516,15.193301 54.176953,13.354998 56.123431,11.516658 54.176915,10.27305 52.230476,9.0294923 50.284,7.7859096 46.282825,9.8405656 42.281815,11.89514 38.280722,13.949754 c -1.513956,2.865705 -3.027855,5.731295 -4.541782,8.596942 -0.270349,6.001759 -0.540687,12.003277 -0.81103,18.004916 -0.162211,4.433731 -0.324414,8.867285 -0.486619,13.30093 0.108138,7.407574 0.216273,14.814854 0.324411,22.222283 1.459889,2.379075 2.919717,4.758055 4.379574,7.137083 2.487215,0.59477 4.974331,1.189513 7.461496,1.78427 1.622097,-0.378489 3.24413,-0.756962 4.866196,-1.135443 z"
         sodipodi:nodetypes="cccccccccccccccccc" /><path
         style="fill:#c3c4c3;fill-opacity:1;fill-rule:evenodd;stroke-width:3.96875;stroke-linejoin:bevel"
         d="m 67.733334,37.570834 c -1.025029,0 -2.050037,0 -5.417911,-0.773836 -3.367875,-0.773836 -9.078347,-2.321447 -12.051339,-5.490793 -2.972991,-3.169346 -3.208373,-7.960101 -2.66355,-11.379905 0.544823,-3.419805 1.869786,-5.468246 2.02628,-6.591389 0.156494,-1.123144 -0.855499,-1.320857 -2.91784,-0.03902 -2.062341,1.28184 -5.174784,4.043082 -6.943817,7.886169 -1.769034,3.843087 -2.194453,8.767655 -2.528145,14.200553 -0.333691,5.432899 -0.575632,11.373673 -0.730204,17.734803 -0.154573,6.36113 -0.221758,13.14186 0.465032,17.662178 0.68679,4.520317 2.127474,6.779686 4.244963,8.118595 2.117488,1.338909 4.911524,1.757198 6.508508,1.241331 1.596984,-0.515867 1.996728,-1.965855 3.548352,-4.799589 1.551623,-2.833735 4.255011,-7.051019 6.742199,-10.105926 2.487188,-3.054907 4.758033,-4.947278 6.341579,-5.920512 1.583546,-0.973234 2.47971,-1.027292 3.375893,-1.08135 z m -7e-6,0 c 1.025029,0 2.050037,0 5.417911,-0.773836 3.367875,-0.773836 9.078347,-2.321447 12.051339,-5.490793 2.972991,-3.169346 3.208373,-7.960101 2.66355,-11.379905 -0.544823,-3.419805 -1.869786,-5.468246 -2.02628,-6.591389 -0.156494,-1.123144 0.855499,-1.320857 2.91784,-0.03902 2.062341,1.28184 5.174784,4.043082 6.943817,7.886169 1.769034,3.843087 2.194453,8.767655 2.528145,14.200553 0.333691,5.432899 0.575632,11.373673 0.730204,17.734803 0.154573,6.36113 0.221758,13.14186 -0.465032,17.662178 -0.68679,4.520317 -2.127474,6.779686 -4.244963,8.118595 -2.117488,1.338909 -4.911524,1.757198 -6.508508,1.241331 -1.596984,-0.515867 -1.996728,-1.965855 -3.548352,-4.799589 -1.551623,-2.833735 -4.255011,-7.051019 -6.742199,-10.105926 -2.487188,-3.054907 -4.758033,-4.947278 -6.341579,-5.920512 -1.583546,-0.973234 -2.47971,-1.027292 -3.375893,-1.08135 z"
         id="path2"
         inkscape:path-effect="#path-effect2"
         inkscape:original-d="m 67.733334,37.570834 c 0,0 -2.050037,0 -3.075086,0 -5.7107,-1.547672 -11.421172,-3.095283 -17.131759,-4.642924 -0.235396,-4.791051 -0.470778,-9.581806 -0.706174,-14.372852 1.325042,-2.048563 2.650005,-4.097004 3.975046,-6.145565 -1.012053,-0.197726 -2.024046,-0.39544 -3.0361,-0.593165 -3.112628,2.761406 -6.225071,5.522648 -9.337701,8.284055 -0.425436,4.924767 -0.850856,9.849335 -1.276284,14.774003 -0.241955,5.941129 -0.483896,11.881903 -0.725851,17.823031 -0.06719,6.781132 -0.134376,13.561862 -0.201565,20.342994 1.44077,2.259503 2.881454,4.518872 4.322225,6.778376 2.794206,0.418314 5.588242,0.836603 8.382449,1.254917 0.399761,-1.450048 0.799505,-2.900036 1.199258,-4.350055 2.703494,-4.21745 5.406882,-8.434734 8.110324,-12.652102 2.270934,-1.892446 4.541779,-3.784817 6.812669,-5.677226 0.896202,-0.05406 2.688549,-0.162175 2.688549,-0.162175 z"
         sodipodi:nodetypes="ccccccccccccccccc" /><path
         style="fill:#c3c4c3;fill-opacity:1;fill-rule:evenodd;stroke-width:3.96875;stroke-linejoin:bevel"
         d="m 55.549207,72.418698 c 2.054081,-2.997958 4.670875,-6.372184 6.79637,-8.178659 2.125496,-1.806476 3.756444,-2.041846 5.387757,-2.277268 v 29.035111 c -1.458704,-0.04425 -2.917379,-0.0885 -4.836822,-0.868415 -1.919444,-0.779915 -4.299525,-2.295449 -6.438831,-3.998367 -2.139307,-1.702917 -4.037838,-3.593219 -4.243458,-5.846478 -0.20562,-2.253259 1.280903,-4.867967 3.334984,-7.865924 z m 24.368247,0 C 77.863373,69.42074 75.246579,66.046514 73.121084,64.240039 70.995588,62.433563 69.36464,62.198193 67.733327,61.962771 v 29.035111 c 1.458704,-0.04425 2.917379,-0.0885 4.836822,-0.868415 1.919444,-0.779915 4.299525,-2.295449 6.438831,-3.998367 2.139307,-1.702917 4.037838,-3.593219 4.243458,-5.846478 0.20562,-2.253259 -1.280903,-4.867967 -3.334984,-7.865924 z"
         id="path3"
         inkscape:path-effect="#path-effect3"
         inkscape:original-d="m 54.983211,72.7992 c 2.620077,-3.37846 5.236871,-6.752686 7.856185,-10.130162 1.631677,-0.235475 4.893938,-0.706267 4.893938,-0.706267 v 29.035111 c 0,0 -2.917379,-0.0885 -4.376113,-0.132751 -2.380153,-1.515579 -4.760234,-3.031113 -7.140316,-4.546647 -1.898531,-1.890301 -3.797062,-3.780603 -5.695651,-5.670962 1.487349,-2.616159 2.973872,-5.230867 4.461957,-7.848322 z"
         sodipodi:nodetypes="cccccccc" /><path
         style="mix-blend-mode:color-dodge;fill:#ffffff;fill-opacity:1;fill-rule:evenodd;stroke-width:3.96875;stroke-linejoin:bevel;filter:url(#filter6)"
         d="m 67.733334,39.372382 c -1.702873,-0.04864 -3.406667,-0.0973 -4.955007,0.155429 -1.548341,0.25273 -3.031538,0.841945 -4.354998,0.845773 -1.32346,0.0038 -2.778674,-0.553046 -4.709668,-2.524864 -1.930995,-1.971817 -4.512109,-5.640889 -5.846175,-8.346208 -1.334067,-2.705318 -1.611876,-4.808734 -1.452804,-6.811165 0.159071,-2.002431 0.912274,-4.626496 1.034142,-5.44373 0.121869,-0.817233 -0.287388,-0.99263 -0.65252,-0.469044 -0.365132,0.523585 -1.328967,2.550112 -1.847516,4.643165 -0.51855,2.093054 -0.841837,4.921819 -0.174368,7.774565 0.667469,2.852745 2.496147,6.386823 4.245801,8.599348 1.749654,2.212524 4.270415,3.901433 4.754144,4.630434 0.48373,0.729001 -0.234704,1.719944 -0.80317,2.335783 -0.568467,0.615838 -1.186324,1.114111 -1.712687,1.96368 -0.526363,0.84957 -1.043377,2.181875 -1.518242,4.385247 -0.474866,2.203372 -1.361118,8.296348 -1.361831,8.359846 -7.14e-4,0.0635 0.848825,-2.743669 1.266502,-3.806845 0.417677,-1.063177 0.823335,-1.758591 1.375677,-2.520442 0.552342,-0.761851 1.277384,-1.624063 2.175302,-2.306854 0.897918,-0.682792 2.059418,-1.253698 3.329442,-1.670721 1.270025,-0.417024 2.719421,-0.706904 4.607892,-0.914467 1.888471,-0.207563 4.24726,-0.337327 6.600084,-0.466764 z m -7e-6,0 c 1.702873,-0.04864 3.406667,-0.0973 4.955007,0.155429 1.548341,0.25273 3.031538,0.841945 4.354998,0.845773 1.32346,0.0038 2.778674,-0.553046 4.709668,-2.524864 1.930995,-1.971817 4.512109,-5.640889 5.846175,-8.346208 1.334067,-2.705318 1.611876,-4.808734 1.452804,-6.811165 -0.159071,-2.002431 -0.912274,-4.626496 -1.034142,-5.44373 -0.121869,-0.817233 0.287388,-0.99263 0.65252,-0.469044 0.365132,0.523585 1.328967,2.550112 1.847516,4.643165 0.51855,2.093054 0.841837,4.921819 0.174368,7.774565 -0.667469,2.852745 -2.496147,6.386823 -4.245801,8.599348 -1.749654,2.212524 -4.270415,3.901433 -4.754144,4.630434 -0.48373,0.729001 0.234704,1.719944 0.80317,2.335783 0.568467,0.615838 1.186324,1.114111 1.712687,1.96368 0.526363,0.84957 1.043377,2.181875 1.518242,4.385247 0.474866,2.203372 1.361118,8.296348 1.361831,8.359846 7.14e-4,0.0635 -0.848825,-2.743669 -1.266502,-3.806845 -0.417677,-1.063177 -0.823335,-1.758591 -1.375677,-2.520442 -0.552342,-0.761851 -1.277384,-1.624063 -2.175302,-2.306854 -0.897918,-0.682792 -2.059418,-1.253698 -3.329442,-1.670721 -1.270025,-0.417024 -2.719421,-0.706904 -4.607892,-0.914467 -1.888471,-0.207563 -4.24726,-0.337327 -6.600084,-0.466764 z"
         id="path4"
         inkscape:path-effect="#path-effect4"
         inkscape:original-d="m 67.733334,39.372382 c 0,0 -3.406667,-0.0973 -5.108619,-0.145911 -1.394729,0.55407 -2.877926,1.143285 -4.186451,1.66311 -1.338395,-0.51217 -2.793609,-1.069043 -4.28202,-1.63862 -3.451554,-2.615725 -5.868885,-6.400015 -7.359754,-10.461944 -0.263071,-1.991823 -0.54088,-4.095239 -0.80288,-6.078955 0.580143,-2.021146 1.333346,-4.645211 1.777806,-6.193654 -0.12486,-0.263039 -0.530476,-0.44693 -0.80288,-0.344092 -0.537364,1.129842 -1.758788,3.033857 -2.236596,4.702589 -0.301702,2.639887 -0.624989,5.468652 -0.917579,8.028808 1.627528,3.145335 3.456206,6.679413 5.104028,9.863968 1.532761,1.716203 4.372247,2.929403 5.734866,3.842357 0.141133,0.933861 -1.113594,1.535991 -1.663112,2.293946 -0.524319,0.551961 -1.205272,0.971995 -1.777807,1.433718 -0.81067,1.10917 -1.141454,2.513744 -1.491065,3.842359 -0.455871,3.134106 -1.342123,9.227082 -1.376369,9.462524 0.03282,-0.108446 0.882359,-2.915613 1.319021,-4.358495 0.318287,-0.730373 0.74554,-1.41319 1.20432,-2.064551 0.704713,-0.838036 1.256573,-1.845878 2.1219,-2.523339 1.103691,-0.542492 2.193477,-1.259299 3.383571,-1.66311 1.421669,-0.284335 2.850661,-0.676237 4.301147,-0.860232 2.337649,-0.296533 7.058473,-0.38831 7.058473,-0.38831 z"
         sodipodi:nodetypes="cascaaaaaaaaaaaaaaaaacc" /><path
         style="mix-blend-mode:color-dodge;fill:#ffffff;fill-opacity:1;fill-rule:evenodd;stroke-width:3.96875;stroke-linejoin:bevel;filter:url(#filter5)"
         d="m 41.874065,19.068423 c -0.735974,1.175647 -1.978528,3.641638 -2.676271,6.165004 -0.697743,2.523366 -0.85067,5.104003 -1.013159,8.468498 -0.162489,3.364494 -0.334532,7.512632 -0.439672,11.574866 -0.105139,4.062234 -0.143371,8.038329 -0.124254,11.460159 0.01912,3.42183 0.09558,6.289204 0.191162,8.793449 0.09558,2.504246 0.210276,4.64522 0.51614,6.423042 0.305864,1.777822 0.802876,3.192393 1.166086,3.86146 0.363209,0.669067 0.592602,0.592603 0.516133,-0.191176 -0.07647,-0.783779 -0.458785,-2.274815 -0.764647,-5.515063 -0.305861,-3.240247 -0.535251,-8.229479 -0.573482,-14.031316 -0.03823,-5.801836 0.114697,-12.415914 0.238953,-17.309696 0.124257,-4.893783 0.219835,-8.067011 0.659516,-10.791094 0.43968,-2.724084 1.223429,-4.998868 1.863827,-6.566406 0.640398,-1.567537 1.137409,-2.42775 1.271221,-2.915215 0.133811,-0.487465 -0.09558,-0.60216 -0.831553,0.573488 z m 51.718531,0 c 0.735974,1.175647 1.978528,3.641638 2.676271,6.165004 0.697743,2.523366 0.85067,5.104003 1.013159,8.468498 0.162489,3.364494 0.334532,7.512632 0.439672,11.574866 0.105139,4.062234 0.143371,8.038329 0.124254,11.460159 -0.01912,3.42183 -0.09558,6.289204 -0.191162,8.793449 -0.09558,2.504246 -0.210276,4.64522 -0.51614,6.423042 -0.305864,1.777822 -0.802876,3.192393 -1.166086,3.86146 -0.363209,0.669067 -0.592602,0.592603 -0.516133,-0.191176 0.07647,-0.783779 0.458785,-2.274815 0.764647,-5.515063 0.305861,-3.240247 0.535251,-8.229479 0.573482,-14.031316 C 96.83279,50.27551 96.679863,43.661432 96.555607,38.76765 96.43135,33.873867 96.335772,30.700639 95.896091,27.976556 95.456411,25.252472 94.672662,22.977688 94.032264,21.41015 93.391866,19.842613 92.894855,18.9824 92.761043,18.494935 c -0.133811,-0.487465 0.09558,-0.60216 0.831553,0.573488 z"
         id="path5"
         inkscape:path-effect="#path-effect5"
         inkscape:original-d="m 42.380645,17.778078 c -1.242555,2.465992 -2.485107,4.931983 -3.727662,7.397975 -0.152932,2.58074 -0.305859,5.161377 -0.458788,7.742067 -0.17205,4.148299 -0.344093,8.296437 -0.516138,12.444654 -0.03823,3.976251 -0.07647,7.952346 -0.114697,11.928518 0.07646,2.867488 0.152929,5.734862 0.229394,8.602295 0.114699,2.141058 0.229393,4.282032 0.34409,6.423049 0.497033,1.414626 0.994045,2.829197 1.491065,4.243797 0.229399,-0.07646 0.45879,-0.152929 0.688184,-0.229394 -0.382331,-1.491093 -0.764649,-2.982129 -1.146972,-4.473194 -0.229399,-4.98943 -0.45879,-9.978662 -0.688184,-14.967995 0.152932,-6.61434 0.305859,-13.228418 0.458791,-19.842629 0.09558,-3.173354 0.191161,-6.346582 0.286742,-9.519875 0.78378,-2.274874 1.567529,-4.549658 2.351294,-6.824487 0.49703,-0.860247 0.994042,-1.720459 1.491064,-2.580689 -0.229399,-0.114699 -0.45879,-0.229394 -0.688183,-0.344092 z"
         sodipodi:nodetypes="cccccccccccccccc" /></g><g
       id="g10"
       inkscape:path-effect="#path-effect11"
       style="display:none"><path
         style="display:inline;fill:#000000;fill-opacity:1;fill-rule:evenodd;stroke-width:28.1772;stroke-linejoin:bevel"
         id="rect10"
         width="135.46667"
         height="135.46667"
         x="-6.9255066e-06"
         y="-6.9255066e-06"
         sodipodi:type="rect"
         d="M -6.9255066e-6,-6.9255066e-6 H 135.46667 V 135.46667 H -6.9255066e-6 Z m 135.4666769255066,0 H -6.9255066e-6 V 135.46667 H 135.46667 Z" /><path
         style="fill:#00ff00;fill-opacity:1;fill-rule:evenodd;stroke-width:3.96875;stroke-linejoin:bevel"
         d="m 36.132361,53.815325 c 0.81408,0.69882 2.205293,2.842861 3.442379,4.628749 1.237086,1.785887 2.323341,3.21838 3.845688,4.777206 1.522346,1.558826 3.481444,3.244868 5.321276,4.103358 1.839831,0.85849 3.560255,0.889366 4.860166,0.904805 1.299911,0.01544 2.179241,0.01544 2.470619,0.343865 0.291378,0.328428 -0.0052,0.985243 -0.791292,1.657205 -0.786099,0.671963 -2.061634,1.358994 -4.149981,1.030567 -2.088347,-0.328427 -4.989316,-1.6723 -7.625057,-4.179442 -2.635742,-2.507142 -5.006105,-6.177381 -6.444537,-8.529473 -1.438433,-2.352092 -1.743049,-2.973932 -1.849102,-3.87312 -0.106053,-0.899188 0.105761,-1.562539 0.919841,-0.86372 z m 63.201939,0 c -0.81408,0.69882 -2.205293,2.842861 -3.442379,4.628749 -1.237086,1.785887 -2.323341,3.21838 -3.845688,4.777206 -1.522346,1.558826 -3.481444,3.244868 -5.321276,4.103358 -1.839831,0.85849 -3.560255,0.889366 -4.860166,0.904805 -1.299911,0.01544 -2.179241,0.01544 -2.470619,0.343865 -0.291378,0.328428 0.0052,0.985243 0.791292,1.657205 0.786099,0.671963 2.061634,1.358994 4.149981,1.030567 2.088347,-0.328427 4.989316,-1.6723 7.625057,-4.179442 2.635742,-2.507142 5.006105,-6.177381 6.444537,-8.529473 1.438433,-2.352092 1.743051,-2.973932 1.849101,-3.87312 0.10605,-0.899188 -0.10576,-1.562539 -0.91984,-0.86372 z"
         id="path6"
         inkscape:path-effect="#path-effect7"
         inkscape:original-d="m 35.556157,52.371535 c 1.390284,2.14261 2.781497,4.286651 4.170848,6.427824 1.032433,1.470328 2.171076,2.863095 3.256646,4.294684 1.959123,1.686063 3.918221,3.372105 5.877391,5.058208 1.720493,0.03088 3.440917,0.06175 5.161375,0.09263 0.879364,0 1.758694,0 2.638039,0 -0.296589,0.656855 -0.59316,1.31367 -0.889749,1.970524 -1.275609,0.687071 -2.551144,1.374103 -3.826755,2.061174 -2.901083,-1.343926 -5.802052,-2.687798 -8.703078,-4.031698 -2.370458,-3.670384 -4.74082,-7.340624 -7.11123,-11.010937 -0.506454,-1.033871 -0.811071,-1.655711 -1.287114,-2.6275 0.263937,-0.826587 0.475751,-1.489938 0.713627,-2.234909 z"
         sodipodi:nodetypes="cacccccccccc" /><path
         style="fill:#00ff00;fill-opacity:1;fill-rule:evenodd;stroke-width:3.96875;stroke-linejoin:bevel"
         d="m 49.797901,77.820183 c -0.898297,-0.594524 -2.465465,-1.13361 -3.570385,-1.869318 -1.104921,-0.735708 -1.747492,-1.667961 -2.263805,-2.507169 -0.516312,-0.839208 -0.906314,-1.585287 -1.290564,-2.279077 -0.38425,-0.69379 -0.762715,-1.335232 -1.468037,-2.156467 -0.705321,-0.821235 -1.737437,-1.822184 -2.766987,-3.55343 -1.02955,-1.731246 -2.056526,-4.192776 -2.616578,-4.853194 -0.560051,-0.660419 -0.653144,0.48028 -0.428782,2.083358 0.224363,1.603078 0.766153,3.668338 1.553215,5.069849 0.787061,1.401511 1.819294,2.139095 2.50653,2.718754 0.687237,0.579659 1.029394,1.001324 1.35262,1.671929 0.323226,0.670604 0.627483,1.59007 1.166588,2.577008 0.539106,0.986938 1.313003,2.041241 2.595968,2.999225 1.282966,0.957983 3.074886,1.819553 4.257614,2.135648 1.182729,0.316094 1.756202,0.08671 1.928246,-0.352974 0.172044,-0.439679 -0.05735,-1.089618 -0.955643,-1.684142 z m 35.870859,0 c 0.898297,-0.594524 2.465465,-1.13361 3.570385,-1.869318 1.104921,-0.735708 1.747492,-1.667961 2.263805,-2.507169 0.516312,-0.839208 0.906314,-1.585287 1.290564,-2.279077 0.38425,-0.69379 0.762715,-1.335232 1.468037,-2.156467 0.705321,-0.821235 1.737437,-1.822184 2.766987,-3.55343 1.02955,-1.731246 2.056526,-4.192776 2.616578,-4.853194 0.560054,-0.660419 0.653144,0.48028 0.428784,2.083358 -0.224365,1.603078 -0.766155,3.668338 -1.553217,5.069849 -0.787061,1.401511 -1.819294,2.139095 -2.50653,2.718754 -0.687237,0.579659 -1.029394,1.001324 -1.35262,1.671929 -0.323226,0.670604 -0.627483,1.59007 -1.166588,2.577008 -0.539106,0.986938 -1.313003,2.041241 -2.595968,2.999225 -1.282966,0.957983 -3.074886,1.819553 -4.257614,2.135648 -1.182729,0.316094 -1.756202,0.08671 -1.928246,-0.352974 -0.172044,-0.439679 0.05735,-1.089618 0.955643,-1.684142 z"
         id="path7"
         inkscape:path-effect="#path-effect8"
         inkscape:original-d="m 50.466804,77.764756 c -1.5672,-0.539097 -3.134368,-1.078183 -4.7016,-1.617291 -0.642609,-0.932308 -1.28518,-1.864561 -1.927788,-2.796868 -0.390017,-0.746109 -0.780019,-1.492188 -1.170029,-2.238284 -0.37849,-0.641484 -0.756955,-1.282926 -1.135445,-1.92441 -1.032153,-1.000986 -2.064269,-2.001935 -3.096391,-3.002891 -1.026978,-2.461536 -2.053954,-4.923066 -3.080959,-7.384665 -0.0931,1.140762 -0.186191,2.281461 -0.27929,3.422227 0.541824,2.06539 1.083615,4.13065 1.625439,6.196042 1.032298,0.73763 2.064531,1.475214 3.096826,2.212842 0.342178,0.42169 0.684335,0.843355 1.026513,1.265046 0.304274,0.919518 0.608531,1.838984 0.912804,2.7585 0.773938,1.05436 1.547835,2.108663 2.321775,3.163026 1.791991,0.861604 3.583911,1.723174 5.375867,2.584762 0.573501,-0.229399 1.146974,-0.458788 1.720461,-0.688181 -0.229399,-0.649965 -0.45879,-1.299904 -0.688183,-1.949855 z"
         sodipodi:nodetypes="cccccccccccccccc" /><path
         style="fill:#00ff00;fill-opacity:1;fill-rule:evenodd;stroke-width:3.96875;stroke-linejoin:bevel"
         d="m 36.403431,47.19929 c 0.732578,1.320377 2.197705,3.961078 4.052015,5.968321 1.85431,2.007243 4.097654,3.380865 5.949622,4.206145 1.851969,0.82528 3.312428,1.102172 4.975572,0.413974 1.663144,-0.688197 3.528811,-2.341436 4.904226,-3.834833 1.375415,-1.493396 2.260488,-2.826838 4.08689,-3.610603 1.826402,-0.783766 4.593961,-1.017764 7.361578,-1.251766 v -6.996642 c -3.154579,-0.16684 -6.309098,-0.333676 -8.677156,0.03418 -2.368058,0.367856 -3.949442,1.270359 -5.578593,0.944814 -1.62915,-0.325545 -3.305869,-1.879091 -4.837446,-3.311422 -1.531578,-1.43233 -2.917831,-2.743274 -3.507718,-3.680766 -0.589887,-0.937493 -0.383371,-1.501487 -0.319304,-2.274523 0.06407,-0.773035 -0.01432,-1.755053 -0.338339,-2.396701 -0.324021,-0.641648 -0.893644,-0.942857 -1.000444,-1.855592 -0.1068,-0.912735 0.249245,-2.436937 1.318785,-2.875413 1.069539,-0.438477 2.852581,0.20878 3.651164,-1.10299 0.798584,-1.311771 0.73238,-2.476598 1.076145,-5.388548 0.343764,-2.911949 1.234843,-5.154176 1.197846,-6.672939 -0.037,-1.518764 -1.002045,-2.313927 -2.562881,-2.093407 -1.560836,0.22052 -3.717273,1.456698 -5.375215,3.152874 -1.657942,1.696176 -2.817192,3.852147 -3.693276,5.73581 -0.876083,1.883664 -1.468895,3.494794 -1.494009,4.595076 -0.02511,1.100283 0.517484,1.689593 1.309576,1.558255 0.792092,-0.131338 1.833603,-0.983285 2.177701,-0.467137 0.344099,0.516148 -0.0093,2.400368 -0.415346,3.476312 -0.406083,1.075945 -0.864863,1.343566 -1.075142,2.203811 -0.210278,0.860244 -0.172046,2.313047 0.363218,3.307095 0.535263,0.994049 1.567518,1.529292 2.026307,2.599816 0.458788,1.070524 0.344093,2.676253 1.223458,5.008463 0.879365,2.33221 2.752716,5.390743 3.479128,7.034739 0.726412,1.643996 0.305872,1.873381 -0.436691,1.818143 -0.742562,-0.05524 -1.840502,-0.405769 -3.269411,-1.532772 -1.428908,-1.127003 -3.442838,-3.249094 -4.624523,-5.442977 -1.181685,-2.193883 -1.769292,-4.854192 -2.110105,-4.665551 -0.340812,0.188641 -0.455508,3.132479 -0.512857,4.604428 -0.05735,1.471949 -0.05735,1.471949 0.675225,2.792326 z m 62.659799,0 c -0.732578,1.320377 -2.197705,3.961078 -4.052015,5.968321 -1.85431,2.007243 -4.097654,3.380865 -5.949622,4.206145 -1.851969,0.82528 -3.312428,1.102172 -4.975572,0.413974 -1.663144,-0.688197 -3.528811,-2.341436 -4.904226,-3.834833 -1.375415,-1.493396 -2.260488,-2.826838 -4.08689,-3.610603 -1.826402,-0.783766 -4.593961,-1.017764 -7.361578,-1.251766 v -6.996642 c 3.154579,-0.16684 6.309098,-0.333676 8.677156,0.03418 2.368058,0.367856 3.949442,1.270359 5.578593,0.944814 1.62915,-0.325545 3.305869,-1.879091 4.837446,-3.311422 1.531578,-1.43233 2.917831,-2.743274 3.507718,-3.680766 0.589887,-0.937493 0.383371,-1.501487 0.319304,-2.274523 -0.06407,-0.773035 0.01432,-1.755053 0.338339,-2.396701 0.324021,-0.641648 0.893644,-0.942857 1.000444,-1.855592 0.1068,-0.912735 -0.249245,-2.436937 -1.318785,-2.875413 -1.069539,-0.438477 -2.852581,0.20878 -3.651164,-1.10299 -0.798584,-1.311771 -0.73238,-2.476598 -1.076145,-5.388548 -0.343764,-2.911949 -1.234843,-5.154176 -1.197846,-6.672939 0.037,-1.518764 1.002045,-2.313927 2.562881,-2.093407 1.560836,0.22052 3.717273,1.456698 5.375215,3.152874 1.657942,1.696176 2.817192,3.852147 3.693276,5.73581 0.876083,1.883664 1.468895,3.494794 1.494009,4.595076 0.02511,1.100283 -0.517484,1.689593 -1.309576,1.558255 -0.792092,-0.131338 -1.833603,-0.983285 -2.177701,-0.467137 -0.344099,0.516148 0.0093,2.400368 0.415346,3.476312 0.406083,1.075945 0.864863,1.343566 1.075142,2.203811 0.210278,0.860244 0.172046,2.313047 -0.363218,3.307095 -0.535263,0.994049 -1.567518,1.529292 -2.026307,2.599816 -0.458788,1.070524 -0.344093,2.676253 -1.223458,5.008463 -0.879365,2.33221 -2.752716,5.390743 -3.479128,7.034739 -0.726412,1.643996 -0.305872,1.873381 0.436691,1.818143 0.742562,-0.05524 1.840502,-0.405769 3.269411,-1.532772 1.428908,-1.127003 3.442838,-3.249094 4.624523,-5.442977 1.181685,-2.193883 1.769292,-4.854192 2.110105,-4.665551 0.340812,0.188641 0.455508,3.132479 0.512857,4.604428 0.05735,1.471949 0.05735,1.471949 -0.675225,2.792326 z"
         id="path8"
         inkscape:path-effect="#path-effect9"
         inkscape:original-d="m 35.670853,45.878913 c 1.465156,2.640754 2.930283,5.281455 4.395468,7.922262 2.243435,1.373679 4.486779,2.747301 6.730169,4.120952 1.460547,0.276909 2.921006,0.553801 4.381553,0.83071 1.865741,-1.653304 3.731408,-3.306543 5.59711,-4.959813 0.885128,-1.333523 1.770201,-2.666965 2.65533,-4.000489 2.767675,-0.234007 8.302851,-0.702007 8.302851,-0.702007 0,0 0,-4.664428 0,-6.996642 0,0 -6.309098,-0.333676 -9.463738,-0.500519 -1.581476,0.902555 -3.16286,1.805058 -4.744336,2.707613 -1.676825,-1.553645 -3.353544,-3.107191 -5.030376,-4.660843 -1.386323,-1.311009 -2.772576,-2.621953 -4.158869,-3.932934 0.206519,-0.564004 0.413035,-1.127998 0.619556,-1.692007 -0.07839,-0.982062 -0.156771,-1.96408 -0.235159,-2.94615 -0.569655,-0.301226 -1.139278,-0.602435 -1.708932,-0.903661 0.356054,-1.524244 0.712099,-3.048446 1.068145,-4.572653 1.783033,0.647254 3.566075,1.294511 5.34914,1.941777 -2.21241,-3.155629 -1.18013,-4.382889 -0.455666,-8.017272 0.891093,-2.242261 1.782172,-4.484488 2.673286,-6.726802 -0.965108,-0.795212 -1.930156,-1.590376 -2.895262,-2.385588 -2.156566,1.236252 -4.313003,2.47243 -6.469568,3.708682 -1.159319,2.1561 -2.318569,4.312071 -3.477888,6.46817 -0.592848,1.611228 -1.18566,3.222358 -1.778509,4.833588 0.542621,0.589335 1.085219,1.178645 1.627829,1.767968 1.041574,-0.851999 2.083085,-1.703946 3.124658,-2.555945 -0.353376,1.884295 -0.706737,3.768515 -1.060106,5.652772 -0.458799,0.267631 -0.917578,0.535254 -1.376368,0.80288 0.03823,1.452862 0.07646,2.905665 0.114697,4.358498 1.032295,0.535265 2.064551,1.070506 3.096826,1.605761 -0.1147,1.605794 -0.229394,3.211523 -0.344091,4.817285 1.873428,3.058657 3.746778,6.117191 5.620166,9.175785 -0.420563,0.229399 -0.841104,0.458783 -1.261669,0.688181 -1.06456,-0.339874 -2.246998,-0.42574 -3.193613,-1.019601 -1.826704,-1.92481 -3.840634,-4.046901 -5.657758,-5.961617 -0.546246,-2.47305 -1.133853,-5.133359 -1.700778,-7.700033 -0.1147,2.943956 -0.229397,5.887794 -0.344094,8.831692 z"
         sodipodi:nodetypes="ccccccccccccccccccccccccccccccccaaccc" /><path
         style="fill:#00ff00;fill-opacity:1;fill-rule:evenodd;stroke-width:3.96875;stroke-linejoin:bevel"
         d="m 67.733334,51.384465 c -0.976457,-2.8e-5 -1.952914,-5.6e-5 -2.853789,0.292841 -0.900875,0.292896 -1.72612,0.878683 -2.348651,1.821723 -0.622532,0.94304 -1.042276,2.243223 -1.125302,3.721195 -0.08303,1.477972 0.170676,3.133566 0.522967,3.791657 0.352292,0.658091 0.80314,0.318592 1.067485,-0.297762 0.264346,-0.616354 0.342183,-1.509554 1.100659,-2.00138 0.758476,-0.491827 2.197542,-0.582253 3.636631,-0.67268 z m -7e-6,0 c 0.976457,-2.8e-5 1.952914,-5.6e-5 2.853789,0.292841 0.900875,0.292896 1.72612,0.878683 2.348651,1.821723 0.622532,0.94304 1.042276,2.243223 1.125302,3.721195 0.08303,1.477972 -0.170676,3.133566 -0.522967,3.791657 -0.352292,0.658091 -0.80314,0.318592 -1.067485,-0.297762 -0.264346,-0.616354 -0.342183,-1.509554 -1.100659,-2.00138 -0.758476,-0.491827 -2.197542,-0.582253 -3.636631,-0.67268 z"
         id="path9"
         inkscape:path-effect="#path-effect10"
         inkscape:original-d="m 67.733334,51.384465 c 0,0 -1.952914,-5.6e-5 -2.92937,-8.4e-5 -0.825294,0.585821 -1.650539,1.171608 -2.475833,1.757429 -0.419768,1.300259 -0.839513,2.600442 -1.259281,3.900698 0.253716,1.655688 0.507418,3.311282 0.761135,4.966975 0.450866,-0.339511 0.901714,-0.67901 1.352567,-1.018512 0.07784,-0.893206 0.155676,-1.786406 0.233515,-2.67963 1.439112,-0.09043 4.317267,-0.271282 4.317267,-0.271282 z"
         sodipodi:nodetypes="ccccccccc" /></g></g></svg>
