<?xml version="1.0" encoding="UTF-8" standalone="no"?>
<!-- Created with Inkscape (http://www.inkscape.org/) -->

<svg
   width="135.46666mm"
   height="135.46666mm"
   viewBox="0 0 135.46666 135.46666"
   version="1.1"
   id="svg1"
   inkscape:version="1.3.2 (091e20e, 2023-11-25, custom)"
   xml:space="preserve"
   sodipodi:docname="Togruta_Lekku_Rear1_north.svg"
   inkscape:export-filename="Output\Togruta_Lekku_Rear1_northm.png"
   inkscape:export-xdpi="96"
   inkscape:export-ydpi="96"
   xmlns:inkscape="http://www.inkscape.org/namespaces/inkscape"
   xmlns:sodipodi="http://sodipodi.sourceforge.net/DTD/sodipodi-0.dtd"
   xmlns="http://www.w3.org/2000/svg"
   xmlns:svg="http://www.w3.org/2000/svg"><sodipodi:namedview
     id="namedview1"
     pagecolor="#ffffff"
     bordercolor="#000000"
     borderopacity="0.25"
     inkscape:showpageshadow="2"
     inkscape:pageopacity="0.0"
     inkscape:pagecheckerboard="0"
     inkscape:deskcolor="#d1d1d1"
     inkscape:document-units="px"
     inkscape:zoom="1.6311518"
     inkscape:cx="71.728456"
     inkscape:cy="244.30589"
     inkscape:window-width="3840"
     inkscape:window-height="2066"
     inkscape:window-x="-11"
     inkscape:window-y="-11"
     inkscape:window-maximized="1"
     inkscape:current-layer="layer1" /><defs
     id="defs1"><inkscape:path-effect
       effect="mirror_symmetry"
       start_point="67.73333,0"
       end_point="67.73333,135.46666"
       center_point="67.73333,67.73333"
       id="path-effect10"
       is_visible="true"
       lpeversion="1.2"
       lpesatellites=""
       mode="vertical"
       discard_orig_path="false"
       fuse_paths="false"
       oposite_fuse="false"
       split_items="false"
       split_open="false"
       link_styles="false" /><inkscape:path-effect
       effect="bspline"
       id="path-effect9"
       is_visible="true"
       lpeversion="1.3"
       weight="33.333333"
       steps="2"
       helper_size="0"
       apply_no_weight="true"
       apply_with_weight="true"
       only_selected="false"
       uniform="false" /><inkscape:path-effect
       effect="bspline"
       id="path-effect8"
       is_visible="true"
       lpeversion="1.3"
       weight="33.333333"
       steps="2"
       helper_size="0"
       apply_no_weight="true"
       apply_with_weight="true"
       only_selected="false"
       uniform="false" /><inkscape:path-effect
       effect="bspline"
       id="path-effect7"
       is_visible="true"
       lpeversion="1.3"
       weight="33.333333"
       steps="2"
       helper_size="0"
       apply_no_weight="true"
       apply_with_weight="true"
       only_selected="false"
       uniform="false" /><inkscape:path-effect
       effect="bspline"
       id="path-effect6"
       is_visible="true"
       lpeversion="1.3"
       weight="33.333333"
       steps="2"
       helper_size="0"
       apply_no_weight="true"
       apply_with_weight="true"
       only_selected="false"
       uniform="false" /><inkscape:path-effect
       effect="bspline"
       id="path-effect5"
       is_visible="true"
       lpeversion="1.3"
       weight="33.333333"
       steps="2"
       helper_size="0"
       apply_no_weight="true"
       apply_with_weight="true"
       only_selected="false"
       uniform="false" /><inkscape:path-effect
       effect="mirror_symmetry"
       start_point="67.73333,0"
       end_point="67.73333,135.46666"
       center_point="67.73333,67.73333"
       id="path-effect4"
       is_visible="true"
       lpeversion="1.2"
       lpesatellites=""
       mode="vertical"
       discard_orig_path="false"
       fuse_paths="false"
       oposite_fuse="false"
       split_items="false"
       split_open="false"
       link_styles="false" /><inkscape:path-effect
       effect="bspline"
       id="path-effect3"
       is_visible="true"
       lpeversion="1.3"
       weight="33.333333"
       steps="2"
       helper_size="0"
       apply_no_weight="true"
       apply_with_weight="true"
       only_selected="false"
       uniform="false" /><inkscape:path-effect
       effect="bspline"
       id="path-effect2"
       is_visible="true"
       lpeversion="1.3"
       weight="33.333333"
       steps="2"
       helper_size="0"
       apply_no_weight="true"
       apply_with_weight="true"
       only_selected="false"
       uniform="false" /><inkscape:path-effect
       effect="bspline"
       id="path-effect1"
       is_visible="true"
       lpeversion="1.3"
       weight="33.333333"
       steps="2"
       helper_size="0"
       apply_no_weight="true"
       apply_with_weight="true"
       only_selected="false"
       uniform="false" /><filter
       inkscape:collect="always"
       style="color-interpolation-filters:sRGB"
       id="filter3"
       x="-0.079460053"
       y="-0.030925663"
       width="1.1589201"
       height="1.0618513"><feGaussianBlur
         inkscape:collect="always"
         stdDeviation="0.7620432"
         id="feGaussianBlur3" /></filter></defs><g
     inkscape:label="Layer 1"
     inkscape:groupmode="layer"
     id="layer1"><rect
       style="fill:#000000;fill-opacity:0;fill-rule:evenodd;stroke-width:3.73045;stroke-linejoin:bevel"
       id="rect1"
       width="135.46667"
       height="135.46667"
       x="-6.9255066e-06"
       y="-6.9255066e-06" /><g
       id="g3"
       inkscape:path-effect="#path-effect4"><path
         style="fill:#000000;fill-rule:evenodd;stroke-width:3.96875;stroke-linejoin:bevel"
         d="m 67.733334,57.745578 v 76.399232 c -0.950252,-0.2163 -1.900505,-0.4326 -3.051504,-1.45994 -1.151,-1.02734 -2.502691,-2.86564 -3.800355,-5.97464 -1.297664,-3.109 -2.541223,-7.48849 -3.379294,-10.48932 -0.838071,-3.00084 -1.270612,-4.62287 -1.324677,-6.16385 -0.05407,-1.54098 0.270339,-3.0008 0.83807,-3.94701 0.567731,-0.94621 1.378747,-1.37875 1.540949,-2.13573 0.162201,-0.75697 -0.324409,-1.83833 -1.540977,-3.89297 -1.216567,-2.054647 -3.163005,-5.08244 -4.595838,-9.083581 -1.432833,-4.001142 -2.351984,-8.975375 -2.676394,-12.462833 -0.32441,-3.487459 -0.05407,-5.487966 0.865114,-7.137078 0.919186,-1.649111 2.487149,-2.946737 3.514462,-4.217366 1.027313,-1.27063 1.513922,-2.514189 2.67642,-3.811853 1.162497,-1.297665 3.000801,-2.649359 4.325495,-3.568534 1.324694,-0.919175 2.135709,-1.405784 3.151536,-1.676115 1.015827,-0.27033 2.236397,-0.324371 3.456993,-0.378412 z m -7e-6,0 v 76.399232 c 0.950252,-0.2163 1.900505,-0.4326 3.051504,-1.45994 1.151,-1.02734 2.502691,-2.86564 3.800355,-5.97464 1.297664,-3.109 2.541223,-7.48849 3.379294,-10.48932 0.838071,-3.00084 1.270612,-4.62287 1.324677,-6.16385 0.05407,-1.54098 -0.270339,-3.0008 -0.83807,-3.94701 -0.567731,-0.94621 -1.378747,-1.37875 -1.540949,-2.13573 -0.162201,-0.75697 0.324409,-1.83833 1.540977,-3.89297 1.216567,-2.054647 3.163005,-5.08244 4.595838,-9.083581 1.432833,-4.001142 2.351984,-8.975375 2.676394,-12.462833 0.32441,-3.487459 0.05407,-5.487966 -0.865114,-7.137078 -0.919186,-1.649111 -2.487149,-2.946737 -3.514462,-4.217366 -1.027313,-1.27063 -1.513922,-2.514189 -2.67642,-3.811853 C 77.504854,62.070974 75.66655,60.71928 74.341856,59.800105 73.017162,58.88093 72.206147,58.394321 71.19032,58.12399 70.174493,57.85366 68.953923,57.799619 67.733327,57.745578 Z"
         id="path1"
         inkscape:path-effect="#path-effect1"
         inkscape:original-d="m 67.733334,57.745578 v 76.399232 c 0,0 -1.900505,-0.4326 -2.850755,-0.6489 -1.351748,-1.83838 -2.703441,-3.67668 -4.05516,-5.51502 -1.243608,-4.37966 -2.487166,-8.75915 -3.73075,-13.13872 -0.432559,-1.6221 -0.8651,-3.24413 -1.297651,-4.8662 0.324419,-1.45989 0.648827,-2.91971 0.973238,-4.37957 0.811048,-0.43256 1.622065,-0.8651 2.433098,-1.29765 -0.48663,-1.0814 -0.973238,-2.16276 -1.459857,-3.24413 -1.946519,-3.027916 -3.892955,-6.05571 -5.839434,-9.083565 -0.919187,-4.974428 -1.838338,-9.948661 -2.757509,-14.922992 0.270349,-2.000586 0.540687,-4.001093 0.811033,-6.001639 1.568026,-1.297678 3.13599,-2.595303 4.703987,-3.892955 0.486627,-1.243608 0.973238,-2.487166 1.459857,-3.730747 1.838376,-1.351748 3.67668,-2.703441 5.51502,-4.055163 0.811049,-0.486627 1.622063,-0.973238 2.433096,-1.459857 1.220621,-0.05404 3.661787,-0.162124 3.661787,-0.162124 z"
         sodipodi:nodetypes="ccccccccccccccccc" /><path
         style="fill:#ffffff;fill-opacity:1;fill-rule:evenodd;stroke-width:3.96875;stroke-linejoin:bevel"
         d="m 67.733334,62.124961 c -1.163247,0.03771 -2.326471,0.07541 -3.975307,1.153266 -1.648836,1.077854 -3.783111,3.19573 -5.519908,5.387202 -1.736797,2.191472 -3.075907,4.456275 -3.782095,6.369758 -0.706188,1.913483 -0.77937,3.47542 -0.529778,5.61774 0.249593,2.14232 0.821932,4.864771 1.663013,7.642529 0.841082,2.777758 1.950808,5.610496 3.175298,8.072033 1.22449,2.461538 2.56361,4.551601 3.421086,6.025961 0.857476,1.47435 1.233228,2.33286 0.805591,3.02157 -0.427638,0.68872 -1.658624,1.20756 -2.267868,1.99185 -0.609244,0.78429 -0.596688,1.83395 0.03603,4.58031 0.63272,2.74637 1.885526,7.1891 2.839669,10.25034 0.954144,3.06123 1.609501,4.74057 2.248769,5.65677 0.639268,0.91621 1.262375,1.06916 1.885497,1.22211 z m -7e-6,0 c 1.163247,0.03771 2.326471,0.07541 3.975307,1.153266 1.648836,1.077854 3.783111,3.19573 5.519908,5.387202 1.736797,2.191472 3.075907,4.456275 3.782095,6.369758 0.706188,1.913483 0.77937,3.47542 0.529778,5.61774 -0.249593,2.14232 -0.821932,4.864771 -1.663013,7.642529 -0.841082,2.777758 -1.950808,5.610496 -3.175298,8.072033 -1.22449,2.461538 -2.56361,4.551601 -3.421086,6.025961 -0.857476,1.47435 -1.233228,2.33286 -0.805591,3.02157 0.427638,0.68872 1.658624,1.20756 2.267868,1.99185 0.609244,0.78429 0.596688,1.83395 -0.03603,4.58031 -0.63272,2.74637 -1.885526,7.1891 -2.839669,10.25034 -0.954144,3.06123 -1.609501,4.74057 -2.248769,5.65677 -0.639268,0.91621 -1.262375,1.06916 -1.885497,1.22211 z"
         id="path2"
         inkscape:path-effect="#path-effect2"
         inkscape:original-d="m 67.733334,62.124961 c 0,0 -2.326471,0.07541 -3.489741,0.113118 -2.134402,2.118002 -4.268677,4.235879 -6.403081,6.353882 -1.33919,2.26494 -2.6783,4.529743 -4.017489,6.79468 -0.07319,1.562029 -0.146369,3.123966 -0.219556,4.685995 0.572372,2.722611 1.144711,5.445062 1.717083,8.167673 1.109791,2.832905 2.219516,5.665643 3.329307,8.498546 1.33919,2.090172 2.67831,4.180235 4.017493,6.270395 0.37577,0.85855 0.751522,1.71706 1.127294,2.57562 -1.23105,0.51886 -2.462036,1.0377 -3.693079,1.55657 0.01256,1.04972 0.02511,2.09938 0.03767,3.1491 1.252884,4.44301 2.50569,8.88574 3.758577,13.32876 0.655401,1.67945 1.310758,3.35879 1.966157,5.03824 0.623135,0.15296 1.869365,0.45886 1.869365,0.45886 z"
         sodipodi:nodetypes="ccccccccccccccc" /><path
         style="fill:#d8d8d8;fill-opacity:1;fill-rule:evenodd;stroke-width:3.96875;stroke-linejoin:bevel;filter:url(#filter3)"
         d="m 64.268708,64.851754 c -0.879345,0.697742 -2.179247,1.959411 -3.507838,3.612983 -1.328591,1.653573 -2.685815,3.698968 -3.498256,5.648841 -0.812441,1.949872 -1.080063,3.804107 -1.032269,5.658398 0.04779,1.854292 0.410995,3.708529 1.242563,6.28925 0.831568,2.58072 2.131446,5.887761 3.278428,8.975058 1.146983,3.087296 2.141008,5.954676 2.743169,7.799396 0.602162,1.84472 0.812436,2.6667 0.583035,3.44092 -0.229401,0.77421 -0.898453,1.50061 -1.424154,1.97852 -0.525702,0.47791 -0.908013,0.70729 -0.936686,1.64401 -0.02867,0.93671 0.296297,2.58067 0.984493,4.79818 0.688195,2.21751 1.739565,5.00842 2.465985,6.68109 0.726421,1.67268 1.127854,2.22704 1.204314,1.76823 0.07646,-0.4588 -0.172046,-1.93072 -0.716867,-4.16735 -0.544821,-2.23663 -1.385915,-5.23781 -1.357232,-7.2737 0.02868,-2.03589 0.927125,-3.10637 1.586639,-4.10998 0.659514,-1.00361 1.080064,-1.94029 0.774193,-4.1578 -0.30587,-2.21752 -1.338126,-5.715719 -1.988079,-9.414745 -0.649953,-3.699026 -0.917575,-7.598656 -0.888898,-11.096953 0.02868,-3.498297 0.353647,-6.595063 0.755092,-9.357381 0.401446,-2.762317 0.879341,-5.190025 1.146969,-6.748004 0.267628,-1.557979 0.324975,-2.24615 0.12425,-2.523333 -0.200725,-0.277182 -0.659505,-0.143372 -1.538851,0.55437 z m 6.929245,0 c 0.879345,0.697742 2.179247,1.959411 3.507838,3.612983 1.328591,1.653573 2.685815,3.698968 3.498256,5.648841 0.812441,1.949872 1.080063,3.804107 1.032269,5.658398 -0.04779,1.854292 -0.410995,3.708529 -1.242563,6.28925 -0.831568,2.58072 -2.131446,5.887761 -3.278428,8.975058 -1.146983,3.087296 -2.141008,5.954676 -2.743169,7.799396 -0.602162,1.84472 -0.812436,2.6667 -0.583035,3.44092 0.229401,0.77421 0.898453,1.50061 1.424154,1.97852 0.525702,0.47791 0.908013,0.70729 0.936686,1.64401 0.02867,0.93671 -0.296297,2.58067 -0.984493,4.79818 -0.688195,2.21751 -1.739565,5.00842 -2.465985,6.68109 -0.726421,1.67268 -1.127854,2.22704 -1.204314,1.76823 -0.07646,-0.4588 0.172046,-1.93072 0.716867,-4.16735 0.544821,-2.23663 1.385915,-5.23781 1.357232,-7.2737 -0.02868,-2.03589 -0.927125,-3.10637 -1.586639,-4.10998 -0.659514,-1.00361 -1.080064,-1.94029 -0.774193,-4.1578 0.30587,-2.21752 1.338126,-5.715719 1.988079,-9.414745 0.649953,-3.699026 0.917575,-7.598656 0.888898,-11.096953 -0.02868,-3.498297 -0.353647,-6.595063 -0.755092,-9.357381 -0.401446,-2.762317 -0.879341,-5.190025 -1.146969,-6.748004 -0.267628,-1.557979 -0.324975,-2.24615 -0.12425,-2.523333 0.200725,-0.277182 0.659505,-0.143372 1.538851,0.55437 z"
         id="path3"
         inkscape:path-effect="#path-effect3"
         inkscape:original-d="m 64.689267,64.287825 c -1.299904,1.261671 -2.599807,2.523339 -3.89971,3.78501 -1.357278,2.045475 -2.714501,4.090871 -4.071752,6.136304 -0.267632,1.854311 -0.535255,3.708546 -0.802881,5.56282 0.363214,1.854309 0.726416,3.708546 1.089623,5.562817 1.299929,3.30717 2.599806,6.614211 3.899709,9.921314 0.994061,2.867491 1.988085,5.73487 2.98213,8.6023 0.21028,0.82201 0.420555,1.64399 0.630833,2.46599 -0.669081,0.72643 -1.338133,1.45283 -2.007201,2.17925 -0.382333,0.2294 -0.764648,0.45878 -1.146974,0.68818 0.324982,1.64403 0.649952,3.28799 0.974929,4.93198 1.051412,2.79103 2.102781,5.58194 3.154174,8.3729 0.401447,0.55439 0.802881,1.10875 1.20432,1.66311 -0.248515,-1.47197 -0.497019,-2.94389 -0.745532,-4.41584 -0.841129,-3.00131 -1.682226,-6.00249 -2.523339,-9.00374 0.89848,-1.07053 1.796923,-2.14101 2.695387,-3.21152 0.420563,-0.93671 0.841113,-1.87339 1.261668,-2.81008 -1.032295,-3.49834 -2.064551,-6.996539 -3.096826,-10.494804 -0.267631,-3.899787 -0.535255,-7.799417 -0.802881,-11.699124 0.324983,-3.096887 0.649952,-6.193653 0.974926,-9.290479 0.477917,-2.427809 0.955813,-4.855517 1.433717,-7.283278 0.05735,-0.688197 0.114696,-1.376368 0.172045,-2.064549 -0.458798,0.133816 -0.917578,0.267626 -1.376365,0.401439 z" /></g><rect
       style="fill:#000000;fill-opacity:1;fill-rule:evenodd;stroke-width:3.73045;stroke-linejoin:bevel"
       id="rect1-5"
       width="135.46667"
       height="135.46667"
       x="-6.9255066e-06"
       y="-6.9255066e-06" /><path
       id="path4"
       style="fill:#00ff00;fill-opacity:1;fill-rule:evenodd;stroke-width:3.96875;stroke-linejoin:bevel"
       d="m 67.733334,60.432488 c -1.129386,0.348439 -2.25882,0.696948 -3.674194,1.645377 -1.415376,0.948429 -3.116765,2.496459 -5.152657,4.847766 -2.035892,2.351309 -4.406159,5.505648 -5.57227,8.258411 -1.166112,2.752763 -1.127788,5.104186 -0.888835,6.910689 0.238954,1.806504 0.678552,3.067773 0.888835,3.153813 0.210283,0.08604 0.19121,-1.001304 0.842326,-3.251481 0.651114,-2.250176 2.00446,-5.74163 3.834908,-8.454781 1.830448,-2.71315 4.345838,-4.953431 6.057511,-6.100403 1.711673,-1.146973 2.68792,-1.261458 3.664376,-1.376143 z m 0,7.984525 c -0.632364,0.133784 -1.264602,0.267638 -1.986959,2.117184 -0.722358,1.849546 0.388685,5.317546 -0.659721,7.97076 -1.048406,2.653213 -1.562986,2.378553 -2.130175,4.070341 -0.567189,1.691787 -0.590691,3.349838 -0.996322,4.69532 -0.405632,1.345483 -2.967515,1.829797 -3.655705,2.661361 -0.688189,0.831565 -1.338103,1.844738 -1.685168,2.498556 -0.347065,0.653816 -0.391204,0.948347 -0.448552,1.330668 -0.05735,0.382321 -0.127833,0.852457 0.08888,1.23455 0.216717,0.382092 0.720446,0.676231 1.064534,0.876949 0.34409,0.200719 0.528591,0.308171 0.964799,-0.08733 0.436208,-0.3955 1.124419,-1.294111 2.147156,-1.982308 1.022738,-0.688197 2.379955,-1.165863 3.651973,-1.433504 1.272019,-0.267643 2.458522,-0.325038 3.645256,-0.382406 z m 0,25.577251 c -0.727945,0.191205 -1.455814,0.38235 -1.829346,1.538924 -0.373531,1.156573 -0.392745,3.278286 -0.411861,5.400192 l -3.039608,2.92488 c 0.01912,0.66907 0.03832,1.3384 0.439767,1.24282 0.401448,-0.0956 1.185118,-0.95615 2.055688,-1.44797 0.870569,-0.49183 1.82802,-0.61507 2.78536,-0.73846 z m 0,13.190406 c 0,0 -2.163102,0.24174 -3.098907,0.74464 -1.739328,0.93469 -3.873891,3.33227 -4.332681,4.03957 -0.458777,0.7073 -0.616509,1.02955 -0.456303,1.61127 0.160206,0.58171 0.638087,1.42317 1.316716,1.32757 0.678629,-0.0956 2.794755,-2.00457 4.389826,-2.58922 0.692657,-0.25389 2.181349,-0.37391 2.181349,-0.37391 z m 0,10.26553 c 0,0 -1.480891,0.27528 -2.078656,0.69539 -1.118262,0.78593 -2.13022,2.63502 -2.541217,3.21806 -0.410997,0.58305 -0.564477,0.80037 -0.220658,2.07533 0.343817,1.27496 1.184615,3.60731 2.074292,5.11752 0.889676,1.51021 1.828015,2.19843 2.766239,2.88664 z m -7e-6,-57.017712 c 1.129386,0.348439 2.25882,0.696948 3.674194,1.645377 1.415376,0.948429 3.116765,2.496459 5.152657,4.847766 2.035892,2.351309 4.406159,5.505648 5.57227,8.258411 1.166112,2.752763 1.127788,5.104186 0.888835,6.910689 -0.238954,1.806504 -0.678552,3.067773 -0.888835,3.153813 -0.210283,0.08604 -0.19121,-1.001304 -0.842326,-3.251481 -0.651114,-2.250176 -2.00446,-5.74163 -3.834908,-8.454781 -1.830448,-2.71315 -4.345838,-4.953431 -6.057511,-6.100403 -1.711673,-1.146973 -2.68792,-1.261458 -3.664376,-1.376143 z m 0,7.984525 c 0.632364,0.133784 1.264602,0.267638 1.986959,2.117184 0.722358,1.849546 -0.388685,5.317546 0.659721,7.97076 1.048406,2.653213 1.562986,2.378553 2.130175,4.070341 0.567189,1.691787 0.590691,3.349838 0.996322,4.69532 0.405632,1.345483 2.967515,1.829797 3.655705,2.661361 0.688189,0.831565 1.338103,1.844738 1.685168,2.498556 0.347065,0.653816 0.391204,0.948347 0.448552,1.330668 0.05735,0.382321 0.127833,0.852457 -0.08888,1.23455 -0.216717,0.382092 -0.720446,0.676231 -1.064534,0.876949 -0.34409,0.200719 -0.528591,0.308171 -0.964799,-0.08733 -0.436208,-0.3955 -1.124419,-1.294111 -2.147156,-1.982308 -1.022738,-0.688197 -2.379955,-1.165863 -3.651973,-1.433504 -1.272019,-0.267643 -2.458522,-0.325038 -3.645256,-0.382406 z m 0,25.577251 c 0.727945,0.191205 1.455814,0.38235 1.829346,1.538924 0.373531,1.156573 0.392745,3.278286 0.411861,5.400192 l 3.039608,2.92488 c -0.01912,0.66907 -0.03832,1.3384 -0.439767,1.24282 -0.401448,-0.0956 -1.185118,-0.95615 -2.055688,-1.44797 -0.870569,-0.49183 -1.82802,-0.61507 -2.78536,-0.73846 z m 0,13.190406 c 0,0 2.163102,0.24174 3.098907,0.74464 1.739328,0.93469 3.873891,3.33227 4.332681,4.03957 0.458777,0.7073 0.616509,1.02955 0.456303,1.61127 -0.160206,0.58171 -0.638087,1.42317 -1.316716,1.32757 -0.678629,-0.0956 -2.794755,-2.00457 -4.389826,-2.58922 -0.692657,-0.25389 -2.181349,-0.37391 -2.181349,-0.37391 z m 0,10.26553 c 0,0 1.480891,0.27528 2.078656,0.69539 1.118262,0.78593 2.13022,2.63502 2.541217,3.21806 0.410997,0.58305 0.564477,0.80037 0.220658,2.07533 -0.343817,1.27496 -1.184615,3.60731 -2.074292,5.11752 -0.889676,1.51021 -1.828015,2.19843 -2.766239,2.88664 z"
       inkscape:path-effect="#path-effect10"
       inkscape:original-d="m 67.733334,60.432488 c -1.129386,0.348439 -2.25882,0.696948 -3.674194,1.645377 -1.415376,0.948429 -3.116765,2.496459 -5.152657,4.847766 -2.035892,2.351309 -4.406159,5.505648 -5.57227,8.258411 -1.166112,2.752763 -1.127788,5.104186 -0.888835,6.910689 0.238954,1.806504 0.678552,3.067773 0.888835,3.153813 0.210283,0.08604 0.19121,-1.001304 0.842326,-3.251481 0.651114,-2.250176 2.00446,-5.74163 3.834908,-8.454781 1.830448,-2.71315 4.345838,-4.953431 6.057511,-6.100403 1.711673,-1.146973 2.68792,-1.261458 3.664376,-1.376143 z m 0,7.984525 c -0.632364,0.133784 -1.264602,0.267638 -1.986959,2.117184 -0.722358,1.849546 0.388685,5.317546 -0.659721,7.97076 -1.048406,2.653213 -1.562986,2.378553 -2.130175,4.070341 -0.567189,1.691787 -0.590691,3.349838 -0.996322,4.69532 -0.405632,1.345483 -2.967515,1.829797 -3.655705,2.661361 -0.688189,0.831565 -1.338103,1.844738 -1.685168,2.498556 -0.347065,0.653816 -0.391204,0.948347 -0.448552,1.330668 -0.05735,0.382321 -0.127833,0.852457 0.08888,1.23455 0.216717,0.382092 0.720446,0.676231 1.064534,0.876949 0.34409,0.200719 0.528591,0.308171 0.964799,-0.08733 0.436208,-0.3955 1.124419,-1.294111 2.147156,-1.982308 1.022738,-0.688197 2.379955,-1.165863 3.651973,-1.433504 1.272019,-0.267643 2.458522,-0.325038 3.645256,-0.382406 z m 0,25.577251 c -0.727945,0.191205 -1.455814,0.38235 -1.829346,1.538924 -0.373531,1.156573 -0.392745,3.278286 -0.411861,5.400192 l -3.039608,2.92488 c 0.01912,0.66907 0.03832,1.3384 0.439767,1.24282 0.401448,-0.0956 1.185118,-0.95615 2.055688,-1.44797 0.870569,-0.49183 1.82802,-0.61507 2.78536,-0.73846 z m 0,13.190406 c 0,0 -2.163102,0.24174 -3.098907,0.74464 -1.739328,0.93469 -3.873891,3.33227 -4.332681,4.03957 -0.458777,0.7073 -0.616509,1.02955 -0.456303,1.61127 0.160206,0.58171 0.638087,1.42317 1.316716,1.32757 0.678629,-0.0956 2.794755,-2.00457 4.389826,-2.58922 0.692657,-0.25389 2.181349,-0.37391 2.181349,-0.37391 z m 0,10.26553 c 0,0 -1.480891,0.27528 -2.078656,0.69539 -1.118262,0.78593 -2.13022,2.63502 -2.541217,3.21806 -0.410997,0.58305 -0.564477,0.80037 -0.220658,2.07533 0.343817,1.27496 1.184615,3.60731 2.074292,5.11752 0.889676,1.51021 1.828015,2.19843 2.766239,2.88664 z"
       sodipodi:nodetypes="csssssssscccsssssssssssscccsccsscccasscacccassscc" /></g></svg>
