<?xml version="1.0" encoding="UTF-8" standalone="no"?>
<!-- Created with Inkscape (http://www.inkscape.org/) -->

<svg
   width="135.46666mm"
   height="135.46666mm"
   viewBox="0 0 135.46666 135.46666"
   version="1.1"
   id="svg1"
   inkscape:version="1.3.2 (091e20e, 2023-11-25, custom)"
   xml:space="preserve"
   sodipodi:docname="Togruta_Lekku_Left_north.svg"
   inkscape:export-filename="Output\Togruta_Lekku_Left_northm.png"
   inkscape:export-xdpi="96"
   inkscape:export-ydpi="96"
   xmlns:inkscape="http://www.inkscape.org/namespaces/inkscape"
   xmlns:sodipodi="http://sodipodi.sourceforge.net/DTD/sodipodi-0.dtd"
   xmlns="http://www.w3.org/2000/svg"
   xmlns:svg="http://www.w3.org/2000/svg"><sodipodi:namedview
     id="namedview1"
     pagecolor="#ffffff"
     bordercolor="#000000"
     borderopacity="0.25"
     inkscape:showpageshadow="2"
     inkscape:pageopacity="0.0"
     inkscape:pagecheckerboard="0"
     inkscape:deskcolor="#d1d1d1"
     inkscape:document-units="px"
     inkscape:zoom="3.2623036"
     inkscape:cx="167.3664"
     inkscape:cy="268.67518"
     inkscape:window-width="3840"
     inkscape:window-height="2066"
     inkscape:window-x="-11"
     inkscape:window-y="-11"
     inkscape:window-maximized="1"
     inkscape:current-layer="g12" /><defs
     id="defs1"><inkscape:path-effect
       effect="bspline"
       id="path-effect12"
       is_visible="true"
       lpeversion="1.3"
       weight="33.333333"
       steps="2"
       helper_size="0"
       apply_no_weight="true"
       apply_with_weight="true"
       only_selected="false"
       uniform="false" /><inkscape:path-effect
       effect="bspline"
       id="path-effect11"
       is_visible="true"
       lpeversion="1.3"
       weight="33.333333"
       steps="2"
       helper_size="0"
       apply_no_weight="true"
       apply_with_weight="true"
       only_selected="false"
       uniform="false" /><inkscape:path-effect
       effect="bspline"
       id="path-effect10"
       is_visible="true"
       lpeversion="1.3"
       weight="33.333333"
       steps="2"
       helper_size="0"
       apply_no_weight="true"
       apply_with_weight="true"
       only_selected="false"
       uniform="false" /><inkscape:path-effect
       effect="bspline"
       id="path-effect9"
       is_visible="true"
       lpeversion="1.3"
       weight="33.333333"
       steps="2"
       helper_size="0"
       apply_no_weight="true"
       apply_with_weight="true"
       only_selected="false"
       uniform="false" /><inkscape:path-effect
       effect="bspline"
       id="path-effect7"
       is_visible="true"
       lpeversion="1.3"
       weight="33.333333"
       steps="2"
       helper_size="0"
       apply_no_weight="true"
       apply_with_weight="true"
       only_selected="false"
       uniform="false" /><inkscape:path-effect
       effect="bspline"
       id="path-effect6"
       is_visible="true"
       lpeversion="1.3"
       weight="33.333333"
       steps="2"
       helper_size="0"
       apply_no_weight="true"
       apply_with_weight="true"
       only_selected="false"
       uniform="false" /><inkscape:path-effect
       effect="bspline"
       id="path-effect5"
       is_visible="true"
       lpeversion="1.3"
       weight="33.333333"
       steps="2"
       helper_size="0"
       apply_no_weight="true"
       apply_with_weight="true"
       only_selected="false"
       uniform="false" /><inkscape:path-effect
       effect="bspline"
       id="path-effect4"
       is_visible="true"
       lpeversion="1.3"
       weight="33.333333"
       steps="2"
       helper_size="0"
       apply_no_weight="true"
       apply_with_weight="true"
       only_selected="false"
       uniform="false" /><inkscape:path-effect
       effect="bspline"
       id="path-effect3"
       is_visible="true"
       lpeversion="1.3"
       weight="33.333333"
       steps="2"
       helper_size="0"
       apply_no_weight="true"
       apply_with_weight="true"
       only_selected="false"
       uniform="false" /><inkscape:path-effect
       effect="bspline"
       id="path-effect2"
       is_visible="true"
       lpeversion="1.3"
       weight="33.333333"
       steps="2"
       helper_size="0"
       apply_no_weight="true"
       apply_with_weight="true"
       only_selected="false"
       uniform="false" /><inkscape:path-effect
       effect="bspline"
       id="path-effect1"
       is_visible="true"
       lpeversion="1.3"
       weight="33.333333"
       steps="2"
       helper_size="0"
       apply_no_weight="true"
       apply_with_weight="true"
       only_selected="false"
       uniform="false" /><filter
       inkscape:collect="always"
       style="color-interpolation-filters:sRGB"
       id="filter3"
       x="-0.15518393"
       y="-0.036984014"
       width="1.3103679"
       height="1.073968"><feGaussianBlur
         inkscape:collect="always"
         stdDeviation="0.34010608"
         id="feGaussianBlur3" /></filter><filter
       inkscape:collect="always"
       style="color-interpolation-filters:sRGB"
       id="filter4"
       x="-0.16136532"
       y="-0.027280415"
       width="1.3227306"
       height="1.0545608"><feGaussianBlur
         inkscape:collect="always"
         stdDeviation="0.46558149"
         id="feGaussianBlur4" /></filter><filter
       inkscape:collect="always"
       style="color-interpolation-filters:sRGB"
       id="filter5"
       x="-0.2738579"
       y="-0.13733265"
       width="1.5477158"
       height="1.2746653"><feGaussianBlur
         inkscape:collect="always"
         stdDeviation="0.24546539"
         id="feGaussianBlur5" /></filter><filter
       inkscape:collect="always"
       style="color-interpolation-filters:sRGB"
       id="filter9"
       x="-0.094427008"
       y="-0.19606082"
       width="1.188854"
       height="1.3921216"><feGaussianBlur
         inkscape:collect="always"
         stdDeviation="0.49189831"
         id="feGaussianBlur9" /></filter></defs><g
     inkscape:label="Layer 1"
     inkscape:groupmode="layer"
     id="layer1"><rect
       style="fill:#000000;fill-opacity:0;fill-rule:evenodd;stroke-width:3.73045;stroke-linejoin:bevel"
       id="rect1"
       width="135.46667"
       height="135.46667"
       x="-6.9255066e-06"
       y="-6.9255066e-06" /><g
       id="g5"
       style="display:inline"
       inkscape:label="0"><path
         style="fill:#000000;fill-opacity:1;fill-rule:evenodd;stroke-width:3.96875;stroke-linejoin:bevel"
         d="m 53.788164,132.30081 c 1.308061,-1.07159 2.3583,-2.16006 3.129189,-9.68268 0.770888,-7.52261 1.262372,-21.47919 0.916634,-29.615579 -0.345738,-8.136388 -1.525292,-10.445415 -4.190169,-12.611618 -2.664876,-2.166202 -6.764274,-4.154955 -9.542296,-4.620109 -2.778022,-0.465153 -4.168161,0.608151 -5.034919,2.10107 -0.866758,1.492918 -1.203152,3.399963 -1.191672,5.621137 0.01148,2.221174 0.37083,4.756212 1.791135,12.54781 1.420305,7.791599 2.778749,14.935209 4.81347,25.297329 2.03472,10.36211 2.092364,10.5816 2.844561,11.84774 0.752196,1.26613 1.244953,1.66498 2.278898,1.54647 1.033945,-0.11852 2.877108,-1.35998 4.185169,-2.43157 z"
         id="path1"
         inkscape:path-effect="#path-effect1"
         inkscape:original-d="m 54.045954,132.31772 c 1.050272,-1.0885 2.100511,-2.17697 3.150798,-3.26549 0.491489,-13.95671 0.982973,-27.91329 1.474474,-41.870341 -1.182977,-2.315726 -2.362532,-4.624753 -3.548863,-6.947047 -4.143421,-2.010111 -8.242819,-3.998864 -12.394878,-6.013166 -1.403985,1.083995 -2.794124,2.157299 -4.191227,3.23598 -0.336414,1.907156 -0.672807,3.814201 -1.00922,5.721358 0.359372,2.535191 0.718723,5.070229 1.078096,7.605423 2.481236,13.048003 3.839681,20.191613 7.443504,39.142923 0.465619,1.77292 0.523261,1.99241 0.961712,3.66188 1.065944,0.8628 1.558702,1.26165 2.338078,1.8925 1.288511,-0.86788 3.131675,-2.10934 4.697526,-3.16402 z"
         sodipodi:nodetypes="cccccccccccc" /><path
         style="fill:#cfcfcf;fill-opacity:1;fill-rule:evenodd;stroke-width:3.96875;stroke-linejoin:bevel"
         d="m 44.397406,80.096935 c 0.927136,0.382324 2.781407,1.146972 4.817307,1.921187 2.035899,0.774214 4.253292,1.557947 5.352496,4.769536 1.099204,3.211588 1.080088,8.850757 0.764222,16.150142 -0.315866,7.29938 -0.926944,16.23639 -1.787059,21.33857 -0.860115,5.10219 -1.96883,6.36383 -2.895973,6.36382 -0.927143,-1e-5 -1.658971,-1.23849 -2.441592,-5.34516 -0.78262,-4.10667 -1.567403,-10.85264 -2.787489,-17.30412 -1.220085,-6.45147 -2.891082,-12.672094 -3.739086,-17.16491 -0.848003,-4.492817 -0.848003,-7.096985 -0.381294,-8.659504 0.466708,-1.562519 1.22895,-1.96021 1.70014,-2.206048 0.471189,-0.245837 0.471192,-0.245837 1.398328,0.136487 z"
         id="path2"
         inkscape:path-effect="#path-effect2"
         inkscape:original-d="m 43.47027,79.714611 c 1.854272,0.764648 3.708543,1.529297 5.562817,2.293945 2.217525,0.78378 4.434918,1.567513 6.652443,2.351293 -0.01912,5.639397 -0.03823,11.278566 -0.05735,16.917851 -0.899993,8.93983 -1.835158,17.85468 -1.835158,26.83916 -1.108763,1.2617 -2.217481,2.52334 -3.32622,3.78501 -0.745549,-1.26169 -1.477374,-2.50017 -2.236598,-3.78501 -0.806017,-6.9285 -0.813903,-13.76485 -2.374448,-20.41068 -1.460416,-6.21942 -3.32752,-12.387364 -5.023527,-18.701091 0,-2.671906 0,-5.276074 0,-7.914113 0.72977,-0.877324 1.581982,-1.102572 2.638038,-1.376365 z"
         sodipodi:nodetypes="scccccccccss" /><path
         style="fill:#ffffff;fill-opacity:1;fill-rule:evenodd;stroke-width:3.96875;stroke-linejoin:bevel;filter:url(#filter3)"
         d="m 50.868243,85.430358 c 0.55437,0.611719 1.452831,1.605761 2.14102,3.049054 0.688189,1.443292 1.166085,3.335762 1.424154,5.333427 0.258069,1.997665 0.296301,4.100406 0.219834,6.403931 -0.07647,2.30353 -0.267625,4.80771 -0.544814,5.87821 -0.27719,1.0705 -0.640392,0.7073 -0.783761,-0.61174 -0.143369,-1.31904 -0.0669,-3.59382 -0.238955,-6.203214 -0.17205,-2.609394 -0.592599,-5.553233 -1.204326,-7.656029 -0.611726,-2.102795 -1.414591,-3.36444 -1.88294,-4.243791 -0.468348,-0.87935 -0.60216,-1.376362 -0.563926,-1.816039 0.03823,-0.439676 0.24851,-0.821994 0.45879,-0.898456 0.21028,-0.07646 0.420554,0.152928 0.974924,0.764647 z"
         id="path3"
         inkscape:path-effect="#path-effect3"
         inkscape:original-d="m 50.524152,85.048034 c 0.898462,0.994042 1.796923,1.988084 2.695385,2.982129 0.477916,1.892541 0.955812,3.785011 1.433716,5.677514 0.03824,2.102827 0.07646,4.205568 0.114697,6.308353 -0.191164,2.50427 -0.382323,5.00845 -0.573485,7.51267 -0.363214,-0.36322 -0.726416,-0.72642 -1.089625,-1.08962 0.07647,-2.27488 0.152929,-4.54966 0.229396,-6.824492 -0.420566,-2.943956 -0.841116,-5.887795 -1.261671,-8.831692 -0.802897,-1.261694 -1.605761,-2.523339 -2.408642,-3.78501 -0.133816,-0.49703 -0.267629,-0.994042 -0.401442,-1.491065 0.210283,-0.38233 0.420558,-0.764648 0.630836,-1.146971 0.210282,0.229399 0.420557,0.458788 0.630835,0.688184 z" /><path
         style="fill:#ffffff;fill-opacity:1;fill-rule:evenodd;stroke-width:3.96875;stroke-linejoin:bevel;filter:url(#filter4)"
         d="m 42.848992,83.996642 c -0.08602,1.127857 0.06691,3.38357 0.391887,6.069428 0.32498,2.685858 0.821992,5.80174 1.385927,8.812575 0.563935,3.010835 1.194756,5.916435 1.816039,8.994185 0.621284,3.07774 1.232991,6.32743 1.777808,9.42428 0.544818,3.09686 1.022714,6.0407 1.299899,6.73843 0.277185,0.69772 0.353648,-0.85066 -0.05736,-3.82328 -0.411007,-2.97261 -1.309451,-7.36925 -2.169689,-11.76603 -0.860239,-4.39677 -1.682219,-8.79341 -2.293942,-13.056368 -0.611723,-4.262957 -1.013155,-8.391976 -1.376366,-10.456527 -0.363211,-2.06455 -0.688181,-2.06455 -0.774203,-0.936693 z"
         id="path4"
         inkscape:path-effect="#path-effect4"
         inkscape:original-d="m 42.610038,82.868785 c 0.152932,2.255714 0.305861,4.511427 0.45879,6.76714 0.497031,3.116003 0.994043,6.231885 1.491065,9.347827 0.630849,2.905728 1.261671,5.811328 1.892504,8.716998 0.611732,3.24982 1.223439,6.49951 1.835158,9.74926 0.477914,2.94396 0.95581,5.8878 1.433716,8.83169 0.07646,-1.54844 0.152929,-3.09682 0.229394,-4.64524 -0.89848,-4.39681 -1.796923,-8.79345 -2.695385,-13.19018 -0.822015,-4.39682 -1.643996,-8.79346 -2.465993,-13.19019 -0.401447,-4.129185 -0.802881,-8.258204 -1.20432,-12.387305 -0.324982,0 -0.649952,0 -0.974929,0 z" /><path
         style="fill:#ffffff;fill-opacity:1;fill-rule:evenodd;stroke-width:3.96875;stroke-linejoin:bevel;filter:url(#filter5)"
         d="m 52.215936,124.44655 c -0.02867,-0.21028 -0.25807,0.72642 -0.716865,1.5293 -0.458796,0.80289 -1.146963,1.47194 -1.35724,1.97853 -0.210276,0.50658 0.05734,0.85066 0.430116,0.7264 0.372774,-0.12426 0.850669,-0.71685 1.175646,-1.69179 0.324976,-0.97494 0.497018,-2.33216 0.468343,-2.54244 z"
         id="path5"
         inkscape:path-effect="#path-effect5"
         inkscape:original-d="m 52.416656,123.29958 c -0.229394,0.93669 -0.458788,1.87339 -0.688184,2.81008 -0.688197,0.66908 -1.376365,1.33813 -2.064549,2.0072 0.267631,0.3441 0.535252,0.68818 0.802881,1.03228 0.477914,-0.59262 0.95581,-1.18521 1.433716,-1.77781 0.172048,-1.35728 0.34409,-2.7145 0.516136,-4.07175 z" /></g><g
       id="g9"
       style="display:none"
       inkscape:label="1"><path
         style="fill:#000000;fill-opacity:1;fill-rule:evenodd;stroke-width:3.96875;stroke-linejoin:bevel"
         d="m 41.105638,75.978816 c 1.362429,-0.632557 3.95553,-0.407069 6.250227,0.456927 2.294698,0.863996 4.888697,2.49507 6.886381,4.425845 1.997684,1.930776 3.469574,4.205515 4.138655,6.661997 0.669081,2.456482 0.535272,5.094414 -0.535258,7.656038 -1.070529,2.561625 -3.0705,5.037777 -5.683791,6.005877 -2.613292,0.9681 -5.785858,0.41718 -8.098964,-0.89231 -2.313107,-1.309481 -3.746767,-3.37395 -4.68348,-6.84361 -0.936713,-3.46966 -1.39815,-8.585592 -1.125606,-11.701673 0.272544,-3.116082 1.489407,-5.136535 2.851836,-5.769091 z"
         id="path6"
         inkscape:path-effect="#path-effect6"
         inkscape:original-d="m 40.602837,75.184065 c 1.86523,0.162195 4.503267,-0.129086 6.595093,0.573488 2.452633,1.542186 5.046632,3.17326 7.570022,4.759937 1.471977,2.274874 2.943868,4.549613 4.415846,6.824487 -0.133817,2.63809 -0.267625,5.276022 -0.401441,7.914113 -2.007243,2.485158 -4.007215,4.96131 -6.021607,7.45532 -3.212189,-0.55781 -6.384756,-1.10873 -9.577224,-1.66311 -1.433744,-2.064591 -2.867404,-4.12906 -4.301149,-6.19365 -0.439681,-4.87473 -2.416091,-9.854017 -1.319019,-14.623902 0.962988,-1.598923 1.289523,-4.155596 3.039479,-5.046683 z"
         sodipodi:nodetypes="aaccccccaa" /><path
         style="fill:#cdcdcd;fill-opacity:1;fill-rule:evenodd;stroke-width:3.96875;stroke-linejoin:bevel"
         d="m 42.821123,79.688233 c -1.215161,0.851682 -1.625676,3.333431 -1.749934,5.541397 -0.124258,2.207967 0.04743,4.077468 0.756186,6.203729 0.708754,2.126261 1.946062,4.486663 4.06298,5.846855 2.116918,1.360191 5.080195,1.702108 6.846194,0.09927 1.765999,-1.602836 2.297745,-5.116162 2.106125,-7.722199 -0.19162,-2.606038 -1.106981,-4.26513 -2.386152,-5.622689 -1.279171,-1.357558 -2.887533,-2.38877 -4.719855,-3.373156 -1.832322,-0.984386 -3.700383,-1.824892 -4.915544,-0.973209 z"
         id="path7"
         inkscape:path-effect="#path-effect7"
         inkscape:original-d="m 42.036553,77.936801 c -0.430591,2.603114 -0.841106,5.084863 -1.261672,7.62737 0.17205,1.873426 0.34374,3.742927 0.51614,5.620166 1.245108,2.375283 2.482416,4.735685 3.727662,7.111231 2.98859,0.344837 5.951867,0.686754 8.946387,1.032276 0.537478,-3.551194 1.069224,-7.06452 1.605761,-10.609498 -0.919777,-1.667097 -1.835138,-3.326189 -2.752733,-4.989331 -1.640747,-1.051975 -3.249109,-2.083187 -4.922144,-3.155864 -1.991609,-0.896095 -3.85967,-1.736601 -5.859401,-2.63635 z"
         sodipodi:nodetypes="ccccccccc" /><path
         id="path8"
         style="fill:#ffffff;fill-rule:evenodd;stroke-width:3.96875;stroke-linejoin:bevel;filter:url(#filter9)"
         d="m 42.879322,85.27955 c -0.579397,0.04835 -1.032385,1.3304 -1.014409,2.092896 0.01798,0.762496 0.496012,1.992777 1.075904,1.976623 0.579801,-0.01629 1.045379,-0.521384 1.045414,-1.634095 l -0.0015,-0.520295 c -0.03384,-1.110724 -0.526093,-1.963597 -1.105359,-1.915129 z m 10.58925,3.4401 c -0.469668,0.0309 -0.83581,0.621651 -0.822173,1.326534 0.01369,0.704959 0.402176,1.262831 0.872299,1.252637 0.470317,-0.01002 0.848064,-0.584814 0.84801,-1.290361 l -0.0016,-0.07493 c -0.02741,-0.704219 -0.426762,-1.244893 -0.896586,-1.21388 z"
         sodipodi:nodetypes="czcccccccccc" /></g><g
       id="g12"
       inkscape:label="m"
       style="display:none"><rect
         style="fill:#000000;fill-opacity:1;fill-rule:evenodd;stroke-width:3.73045;stroke-linejoin:bevel"
         id="rect12"
         width="135.46667"
         height="135.46667"
         x="-6.9255066e-06"
         y="-6.9255066e-06" /><path
         style="fill:#00ff00;fill-opacity:1;fill-rule:evenodd;stroke-width:3.96875;stroke-linejoin:bevel"
         d="m 42.538642,79.035092 c 1.2571,0.283862 3.771298,0.851584 6.028691,1.824836 2.257394,0.973252 4.2579,2.351979 5.433901,3.541504 1.176,1.189524 1.527439,2.189776 1.865373,3.379305 0.337933,1.189528 0.662341,2.568256 0.08109,2.568241 -0.581255,-1.4e-5 -2.068118,-1.378742 -4.176828,-2.784545 -2.108711,-1.405803 -4.839131,-2.838599 -7.028935,-3.730738 -2.189803,-0.892139 -3.838869,-1.243578 -4.528244,-1.730205 -0.689374,-0.486626 -0.419035,-1.108405 -0.09462,-1.743719 0.324417,-0.635315 0.70289,-1.284126 0.905649,-1.55447 0.202758,-0.270344 0.229791,-0.162207 0.243307,-0.108139 0.01352,0.05407 0.01352,0.05407 1.27062,0.33793 z"
         id="path9"
         inkscape:path-effect="#path-effect9"
         inkscape:original-d="m 41.281542,78.751231 c 2.5142,0.567722 5.028398,1.135446 7.542599,1.703168 2.000586,1.378781 4.001092,2.757509 6.001639,4.136263 0.351454,1.000294 0.702894,2.000546 1.05434,3.00082 0.324422,1.378783 0.648828,2.757511 0.973241,4.136265 -1.486924,-1.378783 -2.973787,-2.757511 -4.460679,-4.136265 -2.730529,-1.432852 -5.46095,-2.865647 -8.191424,-4.298472 -1.649132,-0.351454 -3.298198,-0.702894 -4.947298,-1.05434 0.270351,-0.621806 0.540689,-1.243585 0.811033,-1.865374 0.378489,-0.64884 0.756962,-1.297652 1.135446,-1.946479 0.02703,0.108141 0.05407,0.216276 0.0811,0.324414 z" /><path
         style="fill:#00ff00;fill-opacity:1;fill-rule:evenodd;stroke-width:3.96875;stroke-linejoin:bevel"
         d="m 40.659749,86.064038 c 1.162479,0.04055 3.406336,0.824549 5.704285,2.162771 2.297949,1.338223 4.649893,3.230591 6.488247,5.136537 1.838354,1.905946 3.163013,3.82535 3.622594,6.258477 0.459581,2.433127 0.05408,5.379757 -0.229787,6.785577 -0.283868,1.40581 -0.446065,1.27065 -1.230081,-0.0135 -0.784015,-1.28416 -2.189772,-3.7172 -3.852407,-5.90701 -1.662636,-2.189803 -3.581999,-4.136198 -5.291356,-5.317043 -1.709357,-1.180845 -3.208507,-1.595994 -4.08713,-1.839305 -0.878624,-0.243311 -1.136665,-0.314768 -1.441412,-1.269675 -0.304747,-0.954907 -0.656191,-2.79323 -0.791363,-4.063855 -0.135171,-1.270625 -0.05407,-1.973505 1.10841,-1.932954 z"
         id="path10"
         inkscape:path-effect="#path-effect10"
         inkscape:original-d="m 39.578374,85.320592 c 2.243854,0.783997 4.487711,1.567995 6.731566,2.351992 2.352043,1.892448 4.703987,3.784817 7.055983,5.677226 1.32471,1.919483 2.64937,3.838887 3.974057,5.758331 -0.405524,2.946809 -0.811025,5.893439 -1.216549,8.840249 -0.162209,-0.13518 -0.32441,-0.27034 -0.48662,-0.40552 -1.405817,-2.43315 -2.811575,-4.86619 -4.217367,-7.29929 -1.919481,-1.946512 -3.838843,-3.892908 -5.758329,-5.839427 -1.499228,-0.415171 -2.998378,-0.83032 -4.497584,-1.245484 -0.25804,-0.07146 -0.516082,-0.142915 -0.774126,-0.214374 -0.35145,-1.838355 -0.702894,-3.676678 -1.054342,-5.515019 0.08111,-0.702908 0.162208,-1.405789 0.243311,-2.108684 z"
         sodipodi:nodetypes="cccccccccccc" /><path
         style="fill:#00ff00;fill-opacity:1;fill-rule:evenodd;stroke-width:3.96875;stroke-linejoin:bevel"
         d="m 43.890361,108.05653 c 0.364965,-0.32441 1.878892,1.40579 3.717253,2.25737 1.838361,0.85159 4.00107,0.82455 5.501489,0.66234 1.500418,-0.16221 2.338469,-0.45958 2.784537,0.0271 0.446067,0.48663 0.500136,1.75723 -0.162222,2.47364 -0.662357,0.71641 -2.041086,0.87861 -3.933517,0.72992 -1.892432,-0.14869 -4.298448,-0.60827 -5.893485,-2.0276 -1.595038,-1.41933 -2.379021,-3.79831 -2.014055,-4.12272 z"
         id="path11"
         inkscape:path-effect="#path-effect11"
         inkscape:original-d="m 42.741399,106.00192 c 1.513927,1.7302 3.027854,3.4604 4.541782,5.1906 2.162794,-0.027 4.325503,-0.0541 6.488258,-0.0811 0.838081,-0.29739 1.676133,-0.59476 2.514198,-0.89214 0.05407,1.27064 0.108138,2.54124 0.162208,3.81185 -1.378784,0.16221 -2.757512,0.32442 -4.136266,0.48662 -2.40611,-0.45959 -4.812125,-0.91917 -7.218185,-1.37875 -0.784014,-2.37908 -1.567998,-4.75806 -2.351995,-7.13708 z" /><path
         style="fill:#00ff00;fill-opacity:1;fill-rule:evenodd;stroke-width:3.96875;stroke-linejoin:bevel"
         d="m 46.41808,120.34367 c 0.216277,-1.28413 1.189493,0.0946 2.21682,0.77046 1.027328,0.67588 2.108661,0.64884 3.230613,0.31091 1.121952,-0.33794 2.284405,-0.98675 2.635848,0.17576 0.351443,1.16251 -0.108132,4.13623 -0.662344,6.21789 -0.554213,2.08167 -1.203026,3.27116 -2.00055,3.86591 -0.797523,0.59476 -1.74371,0.59476 -2.527714,0.13516 -0.784004,-0.45959 -1.405782,-1.37874 -1.987026,-3.81188 -0.581245,-2.43313 -1.121924,-6.38008 -0.905647,-7.66421 z"
         id="path12"
         inkscape:path-effect="#path-effect12"
         inkscape:original-d="m 45.661115,117.68078 c 0.973239,1.37876 1.946457,2.75748 2.919715,4.13626 1.081399,-0.027 2.16273,-0.0541 3.24413,-0.0811 1.162505,-0.64884 2.32496,-1.29765 3.487439,-1.94648 -0.459595,2.97385 -0.919171,5.94757 -1.378755,8.92136 -0.648837,1.18954 -1.297651,2.37903 -1.946478,3.56854 -0.946222,0 -1.892409,0 -2.838612,0 -0.621805,-0.91919 -1.243584,-1.83834 -1.865373,-2.75751 -0.5407,-3.9471 -1.081379,-7.89405 -1.622066,-11.84107 z"
         sodipodi:nodetypes="ccccccccc" /></g></g></svg>
