<?xml version="1.0" encoding="UTF-8" standalone="no"?>
<!-- Created with Inkscape (http://www.inkscape.org/) -->

<svg
   width="135.46666mm"
   height="135.46666mm"
   viewBox="0 0 135.46666 135.46666"
   version="1.1"
   id="svg1"
   inkscape:version="1.3.2 (091e20e, 2023-11-25, custom)"
   xml:space="preserve"
   sodipodi:docname="Togruta_Lekku_Left_south.svg"
   inkscape:export-filename="Output\Togruta_Lekku_Left_southm.png"
   inkscape:export-xdpi="96"
   inkscape:export-ydpi="96"
   xmlns:inkscape="http://www.inkscape.org/namespaces/inkscape"
   xmlns:sodipodi="http://sodipodi.sourceforge.net/DTD/sodipodi-0.dtd"
   xmlns="http://www.w3.org/2000/svg"
   xmlns:svg="http://www.w3.org/2000/svg"><sodipodi:namedview
     id="namedview1"
     pagecolor="#ffffff"
     bordercolor="#000000"
     borderopacity="0.25"
     inkscape:showpageshadow="2"
     inkscape:pageopacity="0.0"
     inkscape:pagecheckerboard="0"
     inkscape:deskcolor="#d1d1d1"
     inkscape:document-units="px"
     inkscape:zoom="3.2623036"
     inkscape:cx="252.27572"
     inkscape:cy="376.57439"
     inkscape:window-width="3840"
     inkscape:window-height="2066"
     inkscape:window-x="-11"
     inkscape:window-y="-11"
     inkscape:window-maximized="1"
     inkscape:current-layer="g9" /><defs
     id="defs1"><inkscape:path-effect
       effect="bspline"
       id="path-effect9"
       is_visible="true"
       lpeversion="1.3"
       weight="33.333333"
       steps="2"
       helper_size="0"
       apply_no_weight="true"
       apply_with_weight="true"
       only_selected="false"
       uniform="false" /><inkscape:path-effect
       effect="bspline"
       id="path-effect8"
       is_visible="true"
       lpeversion="1.3"
       weight="33.333333"
       steps="2"
       helper_size="0"
       apply_no_weight="true"
       apply_with_weight="true"
       only_selected="false"
       uniform="false" /><inkscape:path-effect
       effect="bspline"
       id="path-effect7"
       is_visible="true"
       lpeversion="1.3"
       weight="33.333333"
       steps="2"
       helper_size="0"
       apply_no_weight="true"
       apply_with_weight="true"
       only_selected="false"
       uniform="false" /><inkscape:path-effect
       effect="bspline"
       id="path-effect6"
       is_visible="true"
       lpeversion="1.3"
       weight="33.333333"
       steps="2"
       helper_size="0"
       apply_no_weight="true"
       apply_with_weight="true"
       only_selected="false"
       uniform="false" /><inkscape:path-effect
       effect="bspline"
       id="path-effect5"
       is_visible="true"
       lpeversion="1.3"
       weight="33.333333"
       steps="2"
       helper_size="0"
       apply_no_weight="true"
       apply_with_weight="true"
       only_selected="false"
       uniform="false" /><inkscape:path-effect
       effect="bspline"
       id="path-effect4"
       is_visible="true"
       lpeversion="1.3"
       weight="33.333333"
       steps="2"
       helper_size="0"
       apply_no_weight="true"
       apply_with_weight="true"
       only_selected="false"
       uniform="false" /><inkscape:path-effect
       effect="bspline"
       id="path-effect3"
       is_visible="true"
       lpeversion="1.3"
       weight="33.333333"
       steps="2"
       helper_size="0"
       apply_no_weight="true"
       apply_with_weight="true"
       only_selected="false"
       uniform="false" /><inkscape:path-effect
       effect="bspline"
       id="path-effect2"
       is_visible="true"
       lpeversion="1.3"
       weight="33.333333"
       steps="2"
       helper_size="0"
       apply_no_weight="true"
       apply_with_weight="true"
       only_selected="false"
       uniform="false" /><inkscape:path-effect
       effect="bspline"
       id="path-effect1"
       is_visible="true"
       lpeversion="1.3"
       weight="33.333333"
       steps="2"
       helper_size="0"
       apply_no_weight="true"
       apply_with_weight="true"
       only_selected="false"
       uniform="false" /><filter
       inkscape:collect="always"
       style="color-interpolation-filters:sRGB"
       id="filter3"
       x="-0.24301817"
       y="-0.058269128"
       width="1.4860363"
       height="1.1165383"><feGaussianBlur
         inkscape:collect="always"
         stdDeviation="1.2687593"
         id="feGaussianBlur3" /></filter><filter
       inkscape:collect="always"
       style="color-interpolation-filters:sRGB"
       id="filter6"
       x="-0.24915522"
       y="-0.082035974"
       width="1.4983104"
       height="1.1640719"><feGaussianBlur
         inkscape:collect="always"
         stdDeviation="0.89308243"
         id="feGaussianBlur6" /></filter></defs><g
     inkscape:label="Layer 1"
     inkscape:groupmode="layer"
     id="layer1"><rect
       style="fill:#000000;fill-opacity:0;fill-rule:evenodd;stroke-width:3.73045;stroke-linejoin:bevel"
       id="rect1"
       width="135.46667"
       height="135.46667"
       x="-6.9255066e-06"
       y="-6.9255066e-06" /><g
       id="g7"
       style="display:inline"
       inkscape:label="0"><path
         style="fill:#000000;fill-rule:evenodd;stroke-width:3.96875;stroke-linejoin:bevel"
         d="m 89.619062,131.54943 c -0.378482,0.9462 -1.081362,1.48688 -2.041102,1.64909 -0.95974,0.16221 -2.176241,-0.0541 -3.56854,-1.78429 -1.392299,-1.73024 -2.960268,-4.97431 -3.919988,-9.09705 -0.95972,-4.12274 -1.311162,-9.12402 -1.85186,-14.8419 -0.540698,-5.71789 -1.270598,-12.151832 -1.013766,-16.639631 0.256832,-4.4878 1.500391,-7.028984 3.04137,-8.988992 1.540979,-1.960008 3.379283,-3.338737 4.920256,-4.298464 1.540972,-0.959726 2.784531,-1.500404 3.460393,-1.311154 0.675862,0.18925 0.783997,1.108402 0.405507,2.270896 -0.37849,1.162493 -1.243575,2.568256 -1.162461,3.392807 0.08111,0.824551 1.1084,1.067856 2.176271,1.203028 1.06787,0.135172 2.176259,0.162205 2.838604,-0.05408 0.662344,-0.21628 0.878615,-0.675854 0.851578,-1.446345 -0.02704,-0.770492 -0.297376,-1.851847 -0.189233,-2.514193 0.108143,-0.662346 0.594751,-0.90565 1.243585,-0.919165 0.648834,-0.01351 1.459851,0.202757 2.054612,0.743453 0.59476,0.540696 0.973235,1.40578 1.108406,4.122783 0.135171,2.717004 0.02704,7.285729 -0.851599,12.733226 -0.878635,5.447501 -2.527701,11.773431 -3.825363,17.274981 -1.297661,5.50155 -2.243826,10.1783 -2.743973,13.1927 -0.500148,3.0144 -0.554215,4.36609 -0.932697,5.3123 z"
         id="path1"
         inkscape:path-effect="#path-effect1"
         inkscape:original-d="m 89.943475,131.95494 c -0.702895,0.54069 -1.405775,1.08137 -2.108683,1.62207 -1.216572,-0.21628 -2.433073,-0.43255 -3.649645,-0.64883 -1.568026,-3.24419 -3.135995,-6.48826 -4.703988,-9.73238 -0.351447,-5.00136 -0.702888,-10.00264 -1.054343,-15.0041 -0.729942,-6.43431 -1.459843,-12.868252 -2.189785,-19.302567 1.243607,-2.541284 2.487166,-5.082468 3.730749,-7.623702 1.838375,-1.378783 3.676679,-2.757511 5.515017,-4.136265 1.243608,-0.540698 2.487166,-1.081376 3.73075,-1.622066 0.10814,0.919189 0.216275,1.838341 0.324413,2.757512 -0.865118,1.405816 -1.730203,2.811579 -2.595303,4.217366 1.027327,0.243316 2.054614,0.486621 3.081922,0.72993 1.108433,0.02704 2.216822,0.05407 3.325231,0.0811 0.216281,-0.459594 0.432551,-0.919168 0.648827,-1.378754 -0.270349,-1.081397 -0.540689,-2.162752 -0.811033,-3.244128 0.48663,-0.243316 0.973238,-0.486619 1.459857,-0.72993 0.811049,0.216281 1.622066,0.432552 2.433098,0.648827 0.378489,0.865117 0.756963,1.730201 1.135446,2.595301 -0.10814,4.568907 -0.216275,9.137632 -0.324413,13.706446 -1.649132,6.32618 -3.298198,12.65211 -4.947296,18.97816 -0.946224,4.67705 -1.89239,9.3538 -2.838615,14.03085 -0.05407,1.35175 -0.108137,2.70344 -0.162206,4.05516 z"
         sodipodi:nodetypes="cccccccccccccccccccccc" /><path
         style="fill:#fefefe;fill-opacity:1;fill-rule:evenodd;stroke-width:3.96875;stroke-linejoin:bevel"
         d="m 87.199483,80.346261 c -1.284134,1.270616 -3.852403,3.811851 -5.244677,6.420699 -1.392274,2.608848 -1.608545,5.285198 -1.554474,7.975149 0.05407,2.689952 0.378478,5.393341 0.662342,8.664541 0.283864,3.2712 0.527169,7.11001 0.770482,10.55693 0.243312,3.44692 0.552821,7.33296 0.996026,9.17219 0.443206,1.83922 1.682793,4.38161 2.547894,5.58464 0.8651,1.20303 1.620858,1.61051 2.106873,1.28707 0.486015,-0.32343 0.702286,-1.37774 1.121329,-4.4327 0.419044,-3.05495 1.04081,-8.11018 1.959999,-12.88184 0.919188,-4.77167 2.135688,-9.2592 3.068394,-13.828108 0.932706,-4.568908 1.581518,-9.218736 1.865378,-12.665644 0.283861,-3.446909 0.20276,-5.690722 -0.378492,-7.082999 -0.581251,-1.392277 -1.662605,-1.932954 -2.825097,-2.338473 -1.162492,-0.405519 -2.40605,-0.675858 -3.054876,-0.27033 -0.648825,0.405528 -0.702894,1.486883 -0.729928,2.02757 -0.02703,0.540688 -0.02704,0.540688 -1.311173,1.811305 z"
         id="path2"
         inkscape:path-effect="#path-effect2"
         inkscape:original-d="m 88.483617,79.075644 c -2.568268,2.541233 -5.136536,5.082469 -7.704805,7.623702 -0.216281,2.676462 -0.432551,5.352812 -0.648827,8.029221 0.324419,2.703494 0.648827,5.406883 0.973238,8.110323 0.243316,3.83896 0.486619,7.67777 0.72993,11.51666 0.243315,3.05495 0.552824,6.94099 0.729931,9.16466 0.709305,1.45478 1.948892,3.99717 2.923338,5.99576 0.755756,0.40747 1.511511,0.81495 2.267266,1.22242 0.216276,-1.05434 0.432548,-2.10865 0.648829,-3.16302 0.621805,-5.05554 1.243571,-10.11077 1.865375,-15.1663 1.216573,-4.4878 2.433074,-8.97533 3.649647,-13.463135 0.648838,-4.650011 1.29765,-9.299839 1.946475,-13.949757 -0.0811,-2.243899 -0.162205,-4.487712 -0.243308,-6.731566 -1.0814,-0.5407 -2.162754,-1.081376 -3.24413,-1.622065 -1.243608,-0.270349 -2.487166,-0.54069 -3.730747,-0.811033 -0.05407,1.0814 -0.108138,2.162755 -0.162208,3.24413 z"
         sodipodi:nodetypes="cccccscaccccccccc" /><path
         style="mix-blend-mode:multiply;fill:#bebebe;fill-opacity:1;fill-rule:evenodd;stroke-width:3.96875;stroke-linejoin:bevel;filter:url(#filter3)"
         d="m 92.86325,80.236781 c -1.324744,1.461199 -2.487199,4.651195 -3.095486,9.12548 -0.608286,4.474286 -0.662354,10.232494 -1.05436,15.761089 -0.392007,5.52859 -1.121921,10.82723 -1.500403,14.42283 -0.378481,3.59559 -0.405513,5.48792 -0.959728,6.5558 -0.554214,1.06788 -1.635552,1.31119 -1.865348,2.01409 -0.229796,0.70291 0.391973,1.86535 1.230055,2.5277 0.838081,0.66236 1.892397,0.82456 2.493625,0.48137 0.601227,-0.34318 0.749332,-1.19174 1.235954,-3.23285 0.486623,-2.04111 1.311746,-5.2747 2.319073,-10.55469 1.007327,-5.28 2.196837,-12.6063 3.129531,-18.37819 0.932694,-5.77189 1.608541,-9.989174 1.892401,-13.017046 0.28386,-3.027872 0.175725,-4.866174 0.06759,-6.704514 -1.596314,-0.287336 -2.568158,-0.462268 -3.892901,0.998931 z"
         id="path3"
         inkscape:path-effect="#path-effect3"
         inkscape:original-d="m 92.700985,78.50792 c -1.162479,3.19006 -2.324934,6.380056 -3.487437,9.570181 -0.05407,5.758446 -0.108138,11.516654 -0.162207,17.274989 -0.729945,5.29885 -1.459859,10.59749 -2.189787,15.89623 -0.02704,1.89245 -0.05407,3.78478 -0.0811,5.67723 -1.081396,0.24331 -2.162734,0.48661 -3.244127,0.72993 0.621801,1.1625 1.24357,2.32494 1.865373,3.48744 1.054362,0.1622 2.108678,0.3244 3.163026,0.48661 0.148106,-0.84857 0.296211,-1.69713 0.444315,-2.54569 0.825141,-3.23366 1.650264,-6.46725 2.4754,-9.70089 1.189518,-7.32635 2.379028,-14.65265 3.568542,-21.978977 0.675875,-4.217453 1.351722,-8.434737 2.027581,-12.652103 -0.10814,-1.838378 -0.324413,-5.51502 -0.324413,-5.51502 -1.696952,0.271766 -2.666965,0.08666 -4.055166,-0.72993 z"
         sodipodi:nodetypes="cccccccccccccc" /></g><g
       id="g6"
       inkscape:label="1"
       style="display:none"><path
         style="fill:#000000;fill-opacity:1;fill-rule:evenodd;stroke-width:3.96875;stroke-linejoin:bevel"
         d="m 87.185965,75.912619 c -2.189787,1.459857 -4.379573,2.919714 -6.055718,4.906768 -1.676146,1.987055 -2.838602,4.501204 -3.460394,6.920807 -0.621792,2.419603 -0.702893,4.744516 -0.324403,6.934324 0.37849,2.189808 1.21654,4.244382 2.487174,6.299012 1.270635,2.05464 2.973765,4.10921 4.731021,5.123 1.757256,1.0138 3.568526,0.98676 5.339298,-0.32443 1.770771,-1.3112 3.500938,-3.90645 4.798598,-6.190877 1.29766,-2.284427 2.162743,-4.257899 2.676399,-6.542333 0.513656,-2.284434 0.675859,-4.879684 0.662339,-7.218181 -0.01352,-2.338498 -0.202757,-4.420107 -0.648831,-5.825903 -0.446075,-1.405796 -1.148956,-2.13571 -1.797787,-2.149221 -0.648832,-0.01351 -1.243578,0.68937 -1.797788,1.622068 -0.55421,0.932699 -1.067854,2.095157 -2.216834,2.527704 -1.14898,0.432547 -2.933214,0.135175 -3.39279,-0.94622 -0.459576,-1.081394 0.405509,-2.946732 1.270611,-4.812106 z"
         id="path4"
         inkscape:path-effect="#path-effect4"
         inkscape:original-d="m 87.185965,75.912619 c 0,0 -4.379573,2.919714 -6.569361,4.379572 -1.162502,2.514251 -2.324957,5.028401 -3.487438,7.542601 -0.08111,2.325005 -0.162206,4.649918 -0.243309,6.974878 0.838084,2.054656 1.676133,4.10923 2.514198,6.16384 1.703203,2.05466 3.406336,4.10923 5.109504,6.16385 1.811343,-0.027 3.622612,-0.0541 5.433918,-0.0811 1.730234,-2.59536 3.460403,-5.19061 5.190606,-7.785914 0.865116,-1.973551 1.730201,-3.947022 2.595303,-5.920536 0.162209,-2.595354 0.324411,-5.190604 0.486619,-7.785907 -0.189245,-2.081692 -0.378483,-4.163301 -0.567724,-6.24495 -0.702908,-0.729943 -1.405789,-1.459857 -2.108684,-2.189787 -0.594768,0.702908 -1.189514,1.405789 -1.784271,2.108684 -0.513662,1.162502 -1.027306,2.32496 -1.54096,3.487439 -1.784307,-0.297384 -3.568541,-0.594757 -5.352812,-0.892136 0.865119,-1.86541 2.595306,-5.596122 2.595306,-5.596122 z"
         sodipodi:nodetypes="ccccccccccccccccc" /><path
         style="fill:#ffffff;fill-opacity:1;fill-rule:evenodd;stroke-width:3.96875;stroke-linejoin:bevel"
         d="m 88.875617,77.318407 c -1.905925,0.946204 -3.987534,3.460355 -5.569078,5.907017 -1.581544,2.446663 -2.662878,4.825596 -2.91971,7.231707 -0.256832,2.40611 0.310868,4.839109 1.284126,6.799143 0.973258,1.960033 2.351985,3.446896 3.446887,4.460686 1.094901,1.0138 1.905918,1.55448 2.64937,1.60854 0.743452,0.0541 1.419297,-0.37848 2.392548,-1.86539 0.973252,-1.48692 2.243846,-4.028106 3.081917,-6.082735 0.83807,-2.054629 1.243579,-3.622595 1.513924,-5.947584 0.270346,-2.324989 0.405516,-5.406851 0.297375,-7.502028 -0.108142,-2.095177 -0.459583,-3.203567 -1.500424,-4.068674 -1.040842,-0.865107 -2.77101,-1.486887 -4.676935,-0.540682 z"
         id="path5"
         inkscape:path-effect="#path-effect5"
         inkscape:original-d="m 89.051341,75.750411 c -2.081649,2.5142 -4.163258,5.028351 -6.244948,7.542601 -1.081398,2.379075 -2.162732,4.758008 -3.24413,7.137084 0.567734,2.433145 1.135434,4.866144 1.703168,7.29929 1.378782,1.486921 2.757509,2.973784 4.136264,4.460674 0.811048,0.5407 1.622065,1.08138 2.433097,1.62207 0.675873,-0.43256 1.35172,-0.8651 2.027579,-1.29766 1.270643,-2.541279 2.541236,-5.082465 3.811852,-7.623698 0.405525,-1.568026 0.811033,-3.135992 1.216549,-4.703987 0.135176,-3.081983 0.270344,-6.163845 0.405517,-9.245767 -0.351454,-1.108432 -0.702895,-2.216822 -1.054344,-3.325233 -1.730235,-0.621803 -3.460403,-1.243582 -5.190604,-1.865374 z"
         sodipodi:nodetypes="cccccccccccc" /><path
         style="mix-blend-mode:multiply;fill:#c3c3c3;fill-opacity:1;fill-rule:evenodd;stroke-width:3.96875;stroke-linejoin:bevel;filter:url(#filter6)"
         d="m 93.295741,78.372749 c -1.135445,0.459585 -2.324959,2.162753 -3.122478,4.420154 -0.797519,2.257401 -1.203027,5.068924 -1.567995,8.651027 -0.364967,3.582103 -0.689374,7.934554 -0.79751,10.36766 -0.108136,2.4331 -1e-6,2.94674 0.892152,2.31142 0.892153,-0.63533 2.568254,-2.41957 3.987572,-5.204148 1.419317,-2.784582 2.581773,-6.569324 3.190048,-9.97569 0.608274,-3.406365 0.662342,-6.434159 0.148677,-8.340092 -0.513664,-1.905932 -1.59502,-2.689915 -2.730466,-2.230331 z"
         id="path6"
         inkscape:path-effect="#path-effect6"
         inkscape:original-d="m 93.34981,77.129166 c -1.189514,1.703168 -2.379028,3.406336 -3.568542,5.109504 -0.405524,2.811634 -0.811032,5.623157 -1.216548,8.434734 -0.324419,4.352629 -0.648825,8.70508 -0.973238,13.057616 0.10814,0.51367 0.216275,1.02731 0.324413,1.54097 1.676167,-1.78431 3.352266,-3.56855 5.028401,-5.352817 1.162503,-3.784893 2.324957,-7.569636 3.487439,-11.354453 0.05407,-3.027913 0.108135,-6.055707 0.162205,-9.083559 -1.081397,-0.784014 -2.162752,-1.567998 -3.24413,-2.351995 z" /></g><g
       id="g9"
       inkscape:label="m"
       style="display:none"><rect
         style="fill:#000000;fill-opacity:1;fill-rule:evenodd;stroke-width:3.73045;stroke-linejoin:bevel"
         id="rect9"
         width="135.46667"
         height="135.46667"
         x="-6.9255066e-06"
         y="-6.9255066e-06" /><path
         style="fill:#00ff00;fill-opacity:1;fill-rule:evenodd;stroke-width:3.96875;stroke-linejoin:bevel"
         d="m 96.242493,78.751231 c -0.324412,-0.378481 -1.16248,-0.675859 -2.162765,-0.419025 -1.000285,0.256835 -2.16274,1.067849 -3.500959,2.230345 -1.33822,1.162495 -2.852115,2.676391 -3.609078,3.811844 -0.756964,1.135453 -0.756964,1.892402 -0.337922,2.122191 0.419042,0.229789 1.257091,-0.06758 1.446327,-0.02703 0.189237,0.04056 -0.270339,0.419029 -0.87862,0.919172 -0.608282,0.500142 -1.36523,1.121922 -1.716678,2.379041 -0.351447,1.257119 -0.297378,3.14949 -0.351449,4.744534 -0.05407,1.595043 -0.216273,2.892668 -0.527173,3.974053 -0.3109,1.081385 -0.770472,1.946464 -1.230063,2.635854 -0.45959,0.68938 -0.919165,1.20302 -1.554483,2.01407 -0.635318,0.81104 -1.446334,1.91943 -1.730193,3.01433 -0.283859,1.09491 -0.04056,2.17626 0.297378,2.24384 0.337934,0.0676 0.770478,-0.87861 1.676146,-2.09517 0.905668,-1.21657 2.284394,-2.70343 3.257637,-3.94702 0.973243,-1.24359 1.540957,-2.24385 1.946475,-4.0687 0.405518,-1.824848 0.648823,-4.474166 1.243589,-6.609901 0.594766,-2.135734 1.540951,-3.757766 2.284403,-4.717491 0.743452,-0.959724 1.284128,-1.257096 2.176277,-1.54096 0.892148,-0.283865 2.135706,-0.554204 2.852119,-1.054347 0.716413,-0.500144 0.905651,-1.230058 0.540678,-1.784268 -0.364974,-0.554209 -1.284126,-0.932682 -1.405774,-1.324686 -0.121648,-0.392003 0.554199,-0.79751 0.986751,-1.230065 0.432553,-0.432555 0.62179,-0.892132 0.297377,-1.270613 z"
         id="path7"
         inkscape:path-effect="#path-effect7"
         inkscape:original-d="m 96.756146,78.670128 c -0.838065,-0.297378 -1.676133,-0.594757 -2.514201,-0.892135 -1.162502,0.811048 -2.324957,1.622062 -3.487438,2.433095 -1.513957,1.513959 -3.027852,3.027855 -4.54178,4.541782 0,0.756978 0,1.513927 0,2.27089 0.838084,-0.297384 1.676133,-0.594757 2.514201,-0.892136 -0.459595,0.37849 -0.919171,0.756963 -1.378755,1.135444 -0.756978,0.621805 -1.513927,1.243584 -2.270892,1.865376 0.05407,1.892446 0.108138,3.784817 0.162208,5.677226 -0.162211,1.297678 -0.324413,2.595303 -0.486619,3.892954 -0.459594,0.865119 -0.91917,1.730196 -1.378754,2.595306 -0.459595,0.51366 -0.919171,1.0273 -1.378757,1.54096 -0.811049,1.10843 -1.622063,2.21682 -2.433095,3.32523 0.243313,1.0814 0.486619,2.16275 0.729927,3.24413 0.432559,-0.94622 0.865103,-1.89241 1.297651,-2.83861 1.378784,-1.48693 2.757512,-2.97379 4.136266,-4.46068 0.567735,-1.00029 1.135446,-2.00055 1.703168,-3.000819 0.243314,-2.649427 0.486619,-5.298745 0.72993,-7.948118 0.946221,-1.622097 1.892408,-3.244128 2.838611,-4.866193 0.5407,-0.297384 1.081376,-0.594757 1.622066,-0.892135 1.243607,-0.270349 2.487165,-0.540687 3.730746,-0.811033 0.189246,-0.729943 0.378484,-1.459857 0.567725,-2.189787 -0.919189,-0.378489 -1.838341,-0.756962 -2.757512,-1.135444 0.675876,-0.405524 1.351722,-0.811032 2.027582,-1.216548 0.189243,-0.459595 0.378481,-0.919171 0.567722,-1.378755 z" /><path
         style="fill:#00ff00;fill-opacity:1;fill-rule:evenodd;stroke-width:3.96875;stroke-linejoin:bevel"
         d="m 94.47174,97.053525 c -1.230066,0.865101 -3.690197,2.595303 -4.93378,4.230895 -1.243583,1.6356 -1.270616,3.17653 -1.662622,4.39309 -0.392006,1.21656 -1.148957,2.10868 -2.00055,3.14951 -0.851593,1.04084 -1.797779,2.23033 -2.689921,3.35227 -0.892142,1.12193 -1.730195,2.17626 -2.054606,3.31171 -0.324411,1.13546 -0.135173,2.35199 0.270348,2.55474 0.405521,0.20275 1.027303,-0.60827 2.257386,-2.21684 1.230084,-1.60857 3.068389,-4.01459 4.325496,-5.78535 1.257107,-1.77077 1.932953,-2.90619 2.189778,-4.14978 0.256824,-1.2436 0.09462,-2.5953 0.729944,-2.89267 0.635323,-0.29737 2.068119,0.45958 2.960257,0.1757 0.892138,-0.28387 1.243578,-1.60853 1.459855,-2.94675 0.216276,-1.338211 0.297378,-2.689907 0.33793,-3.365767 0.04055,-0.675859 0.04055,-0.675859 -1.189515,0.189242 z"
         id="path8"
         inkscape:path-effect="#path-effect8"
         inkscape:original-d="m 95.701805,96.188424 c -2.46013,1.730203 -4.920263,3.460403 -7.380394,5.190606 -0.02703,1.54099 -0.05407,3.08192 -0.0811,4.62289 -0.756979,0.89215 -1.513928,1.78427 -2.270893,2.6764 -0.946221,1.18954 -1.892408,2.37903 -2.838611,3.56854 -0.838084,1.05436 -1.676133,2.10869 -2.514201,3.16303 0.189246,1.21657 0.378481,2.4331 0.567722,3.64964 0.621805,-0.81104 1.243584,-1.62206 1.865376,-2.43309 1.838375,-2.40611 3.676679,-4.81213 5.515018,-7.21819 0.675875,-1.13547 1.351721,-2.27089 2.027581,-3.40633 -0.162208,-1.35175 -0.324413,-2.70345 -0.486619,-4.05517 1.432851,0.75698 2.865647,1.51393 4.298471,2.27089 0.351454,-1.32471 0.702895,-2.64937 1.054341,-3.97406 0.0811,-1.351741 0.162208,-2.703437 0.243311,-4.055156 z" /><path
         style="fill:#00ff00;fill-opacity:1;fill-rule:evenodd;stroke-width:3.96875;stroke-linejoin:bevel"
         d="m 83.036184,124.18255 c 0.28386,-1.52744 1.689648,-2.47364 2.771033,-3.41986 1.081385,-0.94621 1.838336,-1.8924 2.689928,-3.00082 0.851592,-1.10842 1.797781,-2.37902 2.108673,-2.04107 0.310891,0.33795 -0.01352,2.28439 -0.662352,3.52798 -0.648836,1.24359 -1.622058,1.78427 -2.311438,2.54124 -0.68938,0.75697 -1.094888,1.73019 -1.000261,2.12219 0.09463,0.392 0.689371,0.20276 1.378757,-0.28387 0.689386,-0.48663 1.473366,-1.27061 1.500393,0.0947 0.02703,1.36528 -0.702888,4.87968 -1.351718,6.6234 -0.648829,1.74372 -1.216544,1.71668 -1.824824,1.35171 -0.60828,-0.36497 -1.257092,-1.06785 -2.000546,-2.47366 -0.743454,-1.40581 -1.581504,-3.51445 -1.297645,-5.0419 z"
         id="path9"
         inkscape:path-effect="#path-effect9"
         inkscape:original-d="m 81.914256,123.60131 c 1.405789,-0.9462 2.811579,-1.8924 4.217368,-2.83861 0.756979,-0.94622 1.513928,-1.89241 2.27089,-2.83861 0.946224,-1.27064 1.892409,-2.54124 2.838614,-3.81185 -0.324421,1.94651 -0.648827,3.89295 -0.97324,5.83943 -0.973257,0.5407 -1.946477,1.08138 -2.919715,1.62206 -0.405524,0.97326 -0.811032,1.94648 -1.216549,2.91972 0.594768,-0.18925 1.189514,-0.37848 1.784271,-0.56772 0.784013,-0.78402 1.567995,-1.568 2.351993,-2.352 -0.729944,3.51455 -1.459858,7.02895 -2.189787,10.54342 -0.567733,-0.027 -1.135444,-0.0541 -1.703168,-0.0811 -0.648838,-0.70291 -1.297652,-1.40579 -1.946477,-2.10869 -0.838083,-2.10872 -1.676132,-4.21736 -2.5142,-6.32605 z" /></g></g></svg>
