<?xml version="1.0" encoding="UTF-8" standalone="no"?>
<!-- Created with Inkscape (http://www.inkscape.org/) -->

<svg
   width="135.46666mm"
   height="135.46666mm"
   viewBox="0 0 135.46666 135.46666"
   version="1.1"
   id="svg1"
   inkscape:version="1.3.2 (091e20e, 2023-11-25, custom)"
   xml:space="preserve"
   sodipodi:docname="Togruta_Lekku_Rear_north.svg"
   inkscape:export-filename="Output\Togruta_Lekku_Rear_northm.png"
   inkscape:export-xdpi="96"
   inkscape:export-ydpi="96"
   xmlns:inkscape="http://www.inkscape.org/namespaces/inkscape"
   xmlns:sodipodi="http://sodipodi.sourceforge.net/DTD/sodipodi-0.dtd"
   xmlns:xlink="http://www.w3.org/1999/xlink"
   xmlns="http://www.w3.org/2000/svg"
   xmlns:svg="http://www.w3.org/2000/svg"><sodipodi:namedview
     id="namedview1"
     pagecolor="#ffffff"
     bordercolor="#000000"
     borderopacity="0.25"
     inkscape:showpageshadow="2"
     inkscape:pageopacity="0.0"
     inkscape:pagecheckerboard="0"
     inkscape:deskcolor="#d1d1d1"
     inkscape:document-units="px"
     inkscape:zoom="2.306797"
     inkscape:cx="217.18426"
     inkscape:cy="286.32775"
     inkscape:window-width="3840"
     inkscape:window-height="2066"
     inkscape:window-x="-11"
     inkscape:window-y="-11"
     inkscape:window-maximized="1"
     inkscape:current-layer="layer1" /><defs
     id="defs1"><linearGradient
       id="linearGradient7"
       inkscape:collect="always"><stop
         style="stop-color:#00ff00;stop-opacity:1;"
         offset="0"
         id="stop7" /><stop
         style="stop-color:#00ff00;stop-opacity:0;"
         offset="1"
         id="stop8" /></linearGradient><inkscape:path-effect
       effect="mirror_symmetry"
       start_point="67.73333,0"
       end_point="67.73333,135.46666"
       center_point="67.73333,67.73333"
       id="path-effect7"
       is_visible="true"
       lpeversion="1.2"
       lpesatellites=""
       mode="vertical"
       discard_orig_path="false"
       fuse_paths="false"
       oposite_fuse="false"
       split_items="false"
       split_open="false"
       link_styles="false" /><inkscape:path-effect
       effect="bspline"
       id="path-effect6"
       is_visible="true"
       lpeversion="1.3"
       weight="33.333333"
       steps="2"
       helper_size="0"
       apply_no_weight="true"
       apply_with_weight="true"
       only_selected="false"
       uniform="false" /><inkscape:path-effect
       effect="bspline"
       id="path-effect5"
       is_visible="true"
       lpeversion="1.3"
       weight="33.333333"
       steps="2"
       helper_size="0"
       apply_no_weight="true"
       apply_with_weight="true"
       only_selected="false"
       uniform="false" /><inkscape:path-effect
       effect="mirror_symmetry"
       start_point="67.73333,0"
       end_point="67.73333,135.46666"
       center_point="67.73333,67.73333"
       id="path-effect4"
       is_visible="true"
       lpeversion="1.2"
       lpesatellites=""
       mode="vertical"
       discard_orig_path="false"
       fuse_paths="false"
       oposite_fuse="false"
       split_items="false"
       split_open="false"
       link_styles="false" /><inkscape:path-effect
       effect="bspline"
       id="path-effect3"
       is_visible="true"
       lpeversion="1.3"
       weight="33.333333"
       steps="2"
       helper_size="0"
       apply_no_weight="true"
       apply_with_weight="true"
       only_selected="false"
       uniform="false" /><inkscape:path-effect
       effect="bspline"
       id="path-effect2"
       is_visible="true"
       lpeversion="1.3"
       weight="33.333333"
       steps="2"
       helper_size="0"
       apply_no_weight="true"
       apply_with_weight="true"
       only_selected="false"
       uniform="false" /><inkscape:path-effect
       effect="bspline"
       id="path-effect1"
       is_visible="true"
       lpeversion="1.3"
       weight="33.333333"
       steps="2"
       helper_size="0"
       apply_no_weight="true"
       apply_with_weight="true"
       only_selected="false"
       uniform="false" /><filter
       inkscape:collect="always"
       style="color-interpolation-filters:sRGB"
       id="filter3"
       x="-0.080309636"
       y="-0.032636919"
       width="1.1606193"
       height="1.0652738"><feGaussianBlur
         inkscape:collect="always"
         stdDeviation="0.80457748"
         id="feGaussianBlur3" /></filter><radialGradient
       inkscape:collect="always"
       xlink:href="#linearGradient7"
       id="radialGradient8"
       cx="67.843079"
       cy="92.28801"
       fx="67.843079"
       fy="92.28801"
       r="15.543404"
       gradientTransform="matrix(1.2584371,-0.00202254,0.00792456,4.9307025,-18.259556,-374.23185)"
       gradientUnits="userSpaceOnUse" /></defs><g
     inkscape:label="Layer 1"
     inkscape:groupmode="layer"
     id="layer1"><rect
       style="fill:#000000;fill-opacity:0;fill-rule:evenodd;stroke-width:3.73045;stroke-linejoin:bevel"
       id="rect1"
       width="135.46667"
       height="135.46667"
       x="-6.9255066e-06"
       y="-6.9255066e-06" /><image
       width="135.46667"
       height="135.46667"
       preserveAspectRatio="none"
       xlink:href="file:///E:/rimworld_modding/rimworld_mods/StarWarsRaces/1.5/Textures/StarWarsRaces/Togruta/LekkuRear/Lekku_Rear_north.png"
       id="image1"
       x="-6.9255066e-06"
       y="-6.9255066e-06"
       style="display:none" /><g
       id="g3"
       inkscape:path-effect="#path-effect4"><path
         style="display:inline;fill:#000000;fill-rule:evenodd;stroke-width:3.96875;stroke-linejoin:bevel"
         d="m 66.209289,57.880658 c -0.867126,0.05408 -2.272913,0.162217 -4.084241,1.081404 -1.811327,0.919187 -4.028105,2.649354 -6.285501,5.082482 -2.257397,2.433129 -4.555275,5.569058 -5.825894,8.029207 -1.270619,2.460148 -1.513924,4.244382 -1.513921,5.879979 2e-6,1.635598 0.243307,3.122461 1.176011,7.110101 0.932703,3.98764 2.554735,10.475765 3.947019,16.545049 1.392283,6.06928 2.554739,11.71936 3.771299,16.3558 1.21656,4.63643 2.487152,8.25897 3.568256,10.87326 1.081104,2.6143 1.972641,4.22018 3.069579,5.07178 1.096939,0.8516 2.399176,0.94882 3.701438,1.04604 V 57.82654 c -0.32846,2e-5 -0.65692,3.9e-5 -1.524045,0.05412 z m 3.048083,0 c 0.867126,0.05408 2.272913,0.162217 4.084241,1.081404 1.811327,0.919187 4.028105,2.649354 6.285501,5.082482 2.257397,2.433129 4.555275,5.569058 5.825894,8.029207 1.270619,2.460148 1.513924,4.244382 1.513921,5.879979 -2e-6,1.635598 -0.243307,3.122461 -1.176011,7.110101 -0.932703,3.98764 -2.554735,10.475765 -3.947019,16.545049 -1.392283,6.06928 -2.554739,11.71936 -3.771299,16.3558 -1.21656,4.63643 -2.487152,8.25897 -3.568256,10.87326 -1.081104,2.6143 -1.972641,4.22018 -3.069579,5.07178 -1.096939,0.8516 -2.399176,0.94882 -3.701438,1.04604 V 57.82654 c 0.32846,2e-5 0.65692,3.9e-5 1.524045,0.05412 z"
         id="path1"
         inkscape:path-effect="#path-effect1"
         inkscape:original-d="m 66.747953,57.826599 c -1.40579,0.108138 -2.811577,0.216276 -4.217366,0.324414 -2.216867,1.730235 -4.433644,3.460403 -6.650467,5.190606 -2.297969,3.136054 -4.595849,6.271983 -6.893771,9.407973 -0.243317,1.784307 -0.486622,3.568541 -0.72993,5.352812 0.243313,1.486924 0.486619,2.973787 0.72993,4.460679 1.622097,6.488388 3.244127,12.976514 4.866193,19.464767 1.162502,5.65031 2.324957,11.30039 3.487438,16.95058 1.270643,3.62268 2.541233,7.24522 3.81185,10.86783 0.891591,1.60598 1.783128,3.21186 2.674719,4.81784 1.302288,0.0972 3.906785,0.29166 3.906785,0.29166 V 57.82654 c 0,0 -0.65692,3.9e-5 -0.985381,5.9e-5 z"
         sodipodi:nodetypes="scccccccccccs" /><path
         style="fill:#ffffff;fill-opacity:1;fill-rule:evenodd;stroke-width:3.96875;stroke-linejoin:bevel"
         d="m 67.733334,128.79202 c -0.544735,-0.0271 -1.08947,-0.0541 -1.889022,-0.73003 -0.799551,-0.67589 -1.853871,-2.00055 -3.421886,-7.21828 -1.568015,-5.21773 -3.649623,-14.32814 -5.366321,-21.938388 -1.716699,-7.610248 -3.068392,-13.719903 -3.446868,-17.815636 -0.378476,-4.095733 0.216269,-6.177342 1.513941,-8.610466 1.297671,-2.433125 3.298178,-5.217613 4.879703,-6.893752 1.581524,-1.676139 2.743957,-2.243839 3.962554,-2.608832 1.218596,-0.364993 2.493235,-0.527238 3.767899,-0.689487 z m -7e-6,0 c 0.544735,-0.0271 1.08947,-0.0541 1.889022,-0.73003 0.799551,-0.67589 1.853871,-2.00055 3.421886,-7.21828 1.568015,-5.21773 3.649623,-14.32814 5.366321,-21.938388 1.716699,-7.610248 3.068392,-13.719903 3.446868,-17.815636 C 82.2359,76.993953 81.641155,74.912344 80.343483,72.47922 79.045812,70.046095 77.045305,67.261607 75.46378,65.585468 73.882256,63.909329 72.719823,63.341629 71.501226,62.976636 70.28263,62.611643 69.007991,62.449398 67.733327,62.287149 Z"
         id="path2"
         inkscape:path-effect="#path-effect2"
         inkscape:original-d="m 67.733334,128.79202 c 0,0 -1.089472,-0.0541 -1.634206,-0.0812 -1.054365,-1.32472 -2.108684,-2.64938 -3.163025,-3.97406 -2.081691,-9.11078 -4.163301,-18.22119 -6.24495,-27.331787 -1.351746,-6.109899 -2.703441,-12.219554 -4.05516,-18.329329 0.594767,-2.081691 1.189513,-4.1633 1.78427,-6.24495 2.000586,-2.784599 4.001093,-5.569087 6.00164,-8.353631 1.162502,-0.567734 2.324935,-1.135434 3.487438,-1.703168 1.27469,-0.162252 3.823993,-0.486746 3.823993,-0.486746 z"
         sodipodi:nodetypes="cccccccccc" /><path
         style="fill:#d4d4d4;fill-opacity:1;fill-rule:evenodd;stroke-width:3.96875;stroke-linejoin:bevel;filter:url(#filter3)"
         d="m 63.287549,66.707402 c -1.270617,1.419307 -3.811851,4.25792 -5.406888,6.812694 -1.595036,2.554774 -2.24385,4.825619 -2.162738,7.691301 0.08111,2.865682 0.892128,6.326017 2.041105,11.435587 1.148977,5.10957 2.63584,11.868036 3.94702,17.342546 1.31118,5.47451 2.446603,9.66476 3.176537,11.78696 0.729934,2.1222 1.054335,2.17627 1.162472,1.87888 0.108137,-0.29738 2e-6,-0.94619 -1.094913,-7.86713 C 63.85523,108.8673 61.773622,95.67477 60.77335,87.915871 59.773078,80.156973 59.85418,77.83206 60.43543,75.777427 c 0.58125,-2.054633 1.662605,-3.838868 2.649369,-5.433912 0.986764,-1.595043 1.878883,-3.000806 2.338467,-4.001084 0.459585,-1.000278 0.486618,-1.595025 0.270338,-1.703159 -0.216279,-0.108135 -0.675856,0.270341 -0.905649,0.459582 -0.229792,0.189241 -0.229789,0.189241 -1.500406,1.608548 z m 8.891563,0 c 1.270617,1.419307 3.811851,4.25792 5.406888,6.812694 1.595036,2.554774 2.24385,4.825619 2.162738,7.691301 -0.08111,2.865682 -0.892128,6.326017 -2.041105,11.435587 -1.148977,5.10957 -2.63584,11.868036 -3.94702,17.342546 -1.31118,5.47451 -2.446603,9.66476 -3.176537,11.78696 -0.729934,2.1222 -1.054335,2.17627 -1.162472,1.87888 -0.108137,-0.29738 -2e-6,-0.94619 1.094913,-7.86713 1.094914,-6.92094 3.176522,-20.11347 4.176794,-27.872369 1.000272,-7.758898 0.91917,-10.083811 0.33792,-12.138444 -0.58125,-2.054633 -1.662605,-3.838868 -2.649369,-5.433912 -0.986764,-1.595043 -1.878883,-3.000806 -2.338467,-4.001084 -0.459585,-1.000278 -0.486618,-1.595025 -0.270338,-1.703159 0.216279,-0.108135 0.675856,0.270341 0.905649,0.459582 0.229792,0.189241 0.229789,0.189241 1.500406,1.608548 z"
         id="path3"
         inkscape:path-effect="#path-effect3"
         inkscape:original-d="m 64.558166,65.288095 c -2.541233,2.838615 -5.082469,5.677226 -7.623702,8.51584 -0.64884,2.270935 -1.297652,4.54178 -1.946479,6.812669 0.811049,3.460475 1.622065,6.92081 2.433098,10.381213 1.486921,6.758737 2.973784,13.517203 4.460677,20.275803 1.135467,4.19042 2.270889,8.38067 3.406335,12.571 0.324419,0.0541 0.648825,0.10814 0.973239,0.16221 -0.108141,-0.64884 -0.216276,-1.29765 -0.324414,-1.94648 -2.081689,-13.19305 -4.163298,-26.38558 -6.244947,-39.578372 0.08111,-2.325005 0.162205,-4.649918 0.24331,-6.974878 1.081398,-1.784305 2.162752,-3.568541 3.244128,-5.352812 0.892154,-1.405815 1.784271,-2.811579 2.676406,-4.217368 0.02703,-0.594767 0.05407,-1.189514 0.0811,-1.784271 -0.459592,0.378489 -0.919168,0.756965 -1.378754,1.135446 z" /></g><image
       width="135.46667"
       height="135.46667"
       preserveAspectRatio="none"
       xlink:href="file:///E:/rimworld_modding/rimworld_mods/StarWarsRaces/1.5/Textures/StarWarsRaces/Togruta/LekkuRear/Lekku_Rear_northm.png"
       id="image1-1"
       x="-6.9255066e-06"
       y="-6.9255066e-06"
       style="display:none" /><g
       id="g6"
       style="display:inline"><rect
         style="fill:#000000;fill-opacity:1;fill-rule:evenodd;stroke-width:3.73045;stroke-linejoin:bevel"
         id="rect1-9"
         width="135.46667"
         height="135.46667"
         x="-6.9255066e-06"
         y="-6.9255066e-06" /><path
         style="fill:url(#radialGradient8);fill-opacity:1;fill-rule:evenodd;stroke-width:3.96875;stroke-linejoin:bevel"
         d="m 62.854998,61.706034 c -0.527171,0.594757 -1.581512,1.78427 -2.71697,3.257663 -1.135457,1.473393 -2.351982,3.230594 -3.63613,5.237922 -1.284148,2.007327 -2.635841,4.264654 -3.392806,5.839418 -0.756965,1.574763 -0.919165,2.466863 -0.919165,3.372535 0,0.905671 0.162203,1.824817 0.305829,2.210445 0.143625,0.385629 0.268666,0.237714 0.995016,-1.154211 0.72635,-1.391925 2.064819,-4.049324 3.967273,-6.79413 1.902454,-2.744806 4.356131,-5.56249 6.162712,-7.05614 1.806581,-1.493649 2.959567,-1.655848 4.112577,-1.81805 v -3.771371 l -3.625971,0.06763 c -0.725194,0.01353 -0.725194,0.01353 -1.252365,0.608286 z m 1.432825,8.644254 c -0.391999,0.520412 -1.175996,1.561236 -1.59503,2.602061 -0.419033,1.040825 -0.473102,2.081649 -1.007031,3.568542 -0.53393,1.486892 -1.54772,3.419853 -2.08165,5.204124 -0.533929,1.784271 -0.587998,3.419852 -1.01379,4.717504 -0.425792,1.297651 -1.223307,2.257373 -1.926208,3.007583 -0.7029,0.75021 -1.311162,1.290887 -1.628816,2.399314 -0.317654,1.108428 -0.344687,2.784528 -0.135165,3.7037 0.209522,0.919171 0.655581,1.081375 1.11517,1.115167 0.459589,0.03379 0.932683,-0.06083 1.18951,-0.466351 0.256827,-0.405523 0.297378,-1.12192 1.19629,-2.358762 0.898911,-1.236842 2.656113,-2.994043 4.244398,-4.076089 1.588286,-1.082046 3.007537,-1.488876 3.827366,-1.69584 0.81983,-0.206963 1.040146,-0.214037 1.260467,-0.22111 l -2e-6,-17.898533 -2.544593,-0.101438 c -0.508919,-0.02029 -0.508917,-0.02029 -0.900916,0.500128 z m 3.445511,20.809784 c -0.896183,-1.6e-5 -1.792366,-3.3e-5 -2.524325,0.398725 -0.731958,0.398757 -1.299669,1.196256 -1.576772,3.007589 -0.277103,1.811334 -0.263587,4.636373 -0.777252,6.373334 -0.513665,1.73697 -1.554452,2.38577 -2.439841,3.31172 -0.88539,0.92594 -1.615305,2.12895 -1.926203,2.91971 -0.310897,0.79076 -0.20276,1.16924 0.452836,0.70255 0.655597,-0.46669 1.686845,-1.59121 3.465573,-2.75861 1.778727,-1.16741 3.41601,-1.79428 5.325984,-2.52555 z m 0,23.519868 c -1.193561,0.3109 -2.3871,0.6218 -3.52459,1.27064 -1.13749,0.64884 -2.218839,1.63557 -2.796321,2.02424 -0.577482,0.38867 -0.651063,0.17925 -0.826786,-0.32089 -0.175723,-0.50013 -0.453585,-1.29097 -0.768025,-2.25421 -0.31444,-0.96324 -0.665428,-2.09879 -0.89522,-2.84224 -0.229792,-0.74344 -0.338378,-1.09475 0.330505,-1.76379 0.668883,-0.66904 2.11521,-1.65579 3.594744,-2.53701 1.479535,-0.88122 2.847829,-1.58285 3.683611,-1.97121 0.835783,-0.38836 1.018932,-0.40186 1.202082,-0.41536 z m -0.464969,1.83161 c -0.290619,0.007 -0.871858,0.0203 -1.777524,0.6759 -0.905666,0.65561 -2.135703,1.95323 -2.710185,3.10897 -0.574482,1.15573 -0.493381,2.1695 -0.24331,3.00757 0.250071,0.83807 0.669096,1.5004 1.290896,2.48717 0.621801,0.98677 1.446334,2.29791 2.027577,2.96701 0.581242,0.6691 0.919171,0.69614 1.191541,0.69615 0.27237,2e-5 0.479168,-0.027 0.685974,-0.054 v -12.89553 l -0.145291,10e-6 c -0.02906,0 -0.02906,-4e-5 -0.319678,0.007 z m 5.343298,-54.805516 c 0.527171,0.594757 1.581512,1.78427 2.71697,3.257663 1.135457,1.473393 2.351982,3.230594 3.63613,5.237922 1.284148,2.007327 2.635841,4.264654 3.392806,5.839418 0.756965,1.574763 0.919165,2.466863 0.919165,3.372535 0,0.905671 -0.162203,1.824817 -0.305829,2.210445 -0.143625,0.385629 -0.268666,0.237714 -0.995016,-1.154211 -0.72635,-1.391925 -2.064819,-4.049324 -3.967273,-6.79413 -1.902454,-2.744806 -4.356131,-5.56249 -6.162712,-7.05614 -1.806581,-1.493649 -2.959567,-1.655848 -4.112577,-1.81805 v -3.771371 l 3.625971,0.06763 c 0.725194,0.01353 0.725194,0.01353 1.252365,0.608286 z m -1.432825,8.644254 c 0.391999,0.520412 1.175996,1.561236 1.595029,2.602061 0.419034,1.040825 0.473103,2.081649 1.007032,3.568542 0.53393,1.486892 1.54772,3.419853 2.08165,5.204124 0.533929,1.784271 0.587998,3.419852 1.01379,4.717504 0.425792,1.297651 1.223307,2.257373 1.926208,3.007583 0.7029,0.75021 1.311162,1.290887 1.628816,2.399314 0.317654,1.108428 0.344687,2.784528 0.135165,3.7037 -0.209522,0.919171 -0.655581,1.081375 -1.11517,1.115167 -0.45959,0.03379 -0.932683,-0.06083 -1.18951,-0.466351 -0.256828,-0.405523 -0.297378,-1.12192 -1.19629,-2.358762 -0.898911,-1.236842 -2.656113,-2.994043 -4.244398,-4.076089 -1.588286,-1.082046 -3.007537,-1.488876 -3.827366,-1.69584 -0.81983,-0.206963 -1.040146,-0.214037 -1.260467,-0.22111 l 2e-6,-17.898533 2.544593,-0.101438 c 0.508919,-0.02029 0.508917,-0.02029 0.900916,0.500128 z m -3.445511,20.809784 c 0.896183,-1.6e-5 1.792366,-3.3e-5 2.524324,0.398725 0.731959,0.398757 1.29967,1.196256 1.576773,3.007589 0.277103,1.811334 0.263587,4.636373 0.777252,6.373334 0.513665,1.73697 1.554452,2.38577 2.439841,3.31172 0.88539,0.92594 1.615305,2.12895 1.926203,2.91971 0.310897,0.79076 0.20276,1.16924 -0.452836,0.70255 -0.655597,-0.46669 -1.686846,-1.59121 -3.465573,-2.75861 -1.778727,-1.16741 -3.41601,-1.79428 -5.325984,-2.52555 z m 0,23.519868 c 1.193561,0.3109 2.3871,0.6218 3.52459,1.27064 1.13749,0.64884 2.218839,1.63557 2.796321,2.02424 0.577482,0.38867 0.651063,0.17925 0.826786,-0.32089 0.175723,-0.50013 0.453585,-1.29097 0.768025,-2.25421 0.314439,-0.96324 0.665428,-2.09879 0.89522,-2.84224 0.229792,-0.74344 0.338378,-1.09475 -0.330505,-1.76379 -0.668883,-0.66904 -2.11521,-1.65579 -3.594744,-2.53701 -1.479535,-0.88122 -2.847829,-1.58285 -3.683611,-1.97121 -0.835783,-0.38836 -1.018932,-0.40186 -1.202082,-0.41536 z m 0.464969,1.83161 c 0.290619,0.007 0.871858,0.0203 1.777524,0.6759 0.905666,0.65561 2.135703,1.95323 2.710185,3.10897 0.574482,1.15573 0.493381,2.1695 0.24331,3.00757 -0.250071,0.83807 -0.669096,1.5004 -1.290896,2.48717 -0.621801,0.98677 -1.446334,2.29791 -2.027577,2.96701 -0.581242,0.6691 -0.919171,0.69614 -1.191541,0.69615 -0.27237,2e-5 -0.479168,-0.027 -0.685974,-0.054 v -12.89553 l 0.145291,10e-6 c 0.02906,0 0.02906,-4e-5 0.319678,0.007 z"
         id="path5"
         inkscape:path-effect="#path-effect6;#path-effect7"
         inkscape:original-d="m 63.382169,61.111277 c -1.054342,1.189514 -2.108684,2.379027 -3.163025,3.568541 -1.216572,1.757273 -2.433097,3.514474 -3.649646,5.271709 -1.351746,2.25742 -2.703439,4.514747 -4.055161,6.772119 -0.16221,0.892154 -0.32441,1.784254 -0.48662,2.676409 0.162211,0.919188 0.324414,1.838334 0.486621,2.757507 0.125043,-0.147916 0.250084,-0.295831 0.375125,-0.443745 1.327659,-2.635936 2.666128,-5.293335 4.004447,-7.950436 2.466589,-2.832511 4.920266,-5.650195 7.380395,-8.475289 1.153033,-0.162205 3.459029,-0.486606 3.459029,-0.486606 0,-1.257124 0,-2.514247 0,-3.771371 0,0 -2.900777,0.05411 -4.351165,0.08116 z m 1.297653,8.718598 c -0.783998,1.040825 -1.567995,2.081649 -2.351993,3.122474 -0.05407,1.040825 -0.108138,2.081649 -0.162207,3.122474 -1.01379,1.93296 -2.02758,3.865921 -3.04137,5.798881 -0.05407,1.635582 -0.108138,3.271163 -0.162207,4.906745 -0.797515,0.959721 -1.59503,1.919443 -2.392545,2.879164 -0.608286,0.540699 -1.216548,1.081376 -1.824822,1.622064 -0.02703,1.676167 -0.05407,3.352267 -0.0811,5.0284 0.446077,0.16221 0.892136,0.324413 1.338203,0.48662 0.473112,-0.09462 0.946205,-0.189241 1.419307,-0.283862 0.04055,-0.716426 0.0811,-1.432823 0.121655,-2.149235 1.757271,-1.757272 3.514473,-3.514473 5.271709,-5.27171 1.419335,-0.406855 2.838586,-0.813685 4.257919,-1.220539 0.220325,-0.0071 0.660963,-0.02122 0.660963,-0.02122 0,0 -10e-7,-11.932355 -2e-6,-17.898533 0,0 -2.035675,-0.08115 -3.053512,-0.121726 z m 3.053512,21.330197 c 0,0 -1.792366,-3.3e-5 -2.688549,-4.9e-5 -0.567734,0.797531 -1.135445,1.59503 -1.703168,2.392545 0.01352,2.825152 0.02703,5.650191 0.04055,8.475282 -1.040848,0.64884 -2.081636,1.29764 -3.122474,1.94648 -0.729939,1.20305 -1.459854,2.40606 -2.189787,3.6091 0.108139,0.37848 0.216275,0.75696 0.324413,1.13544 1.203057,-1.31186 2.234304,-2.43638 3.609093,-3.93551 2.182664,-0.83568 5.729922,-2.19382 5.729922,-2.19382 z m 0,23.519868 c 0,0 -2.3871,0.6218 -3.580684,0.93271 -1.081398,0.98677 -2.162744,1.9735 -3.244129,2.96026 -0.07358,-0.20942 -0.147161,-0.41884 -0.220741,-0.62826 -0.277868,-0.79085 -0.555729,-1.58169 -0.833601,-2.37256 -0.351006,-1.13561 -0.701996,-2.27116 -1.052995,-3.40675 -0.108586,-0.3513 -0.217172,-0.70261 -0.32576,-1.05393 1.446358,-0.98676 2.892681,-1.97351 4.339022,-2.96026 1.337371,-1.11767 2.721073,-1.78925 4.369437,-2.24054 0.183152,-0.0135 0.549451,-0.0405 0.549451,-0.0405 z m -0.174349,1.82484 c -0.58124,0.0135 -1.16248,0.027 -1.74372,0.0406 -1.23009,1.29768 -2.460131,2.5953 -3.690196,3.89296 0.0811,1.01381 0.162206,2.02758 0.243309,3.04137 0.419042,0.66235 0.838067,1.32468 1.2571,1.98703 0.824566,1.31119 1.649099,2.62233 2.473649,3.9335 0.337937,0.027 0.67586,0.0541 1.01379,0.0811 0.206813,-0.027 0.620417,-0.081 0.620417,-0.081 0,-4.29851 0,-8.59702 0,-12.89553 0,0 -0.116233,10e-6 -0.174349,10e-6 z"
         sodipodi:nodetypes="accccccccccaacaaaacccccccccccccccccccccccccccccccccccccccscccc" /></g></g></svg>
