<?xml version="1.0" encoding="UTF-8" standalone="no"?>
<!-- Created with Inkscape (http://www.inkscape.org/) -->

<svg
   width="135.46666mm"
   height="135.46666mm"
   viewBox="0 0 135.46666 135.46666"
   version="1.1"
   id="svg1"
   inkscape:version="1.3.2 (091e20e, 2023-11-25, custom)"
   xml:space="preserve"
   sodipodi:docname="Togruta_Montral0_east.svg"
   inkscape:export-filename="Output\Togruta_Montral_east.png"
   inkscape:export-xdpi="96"
   inkscape:export-ydpi="96"
   xmlns:inkscape="http://www.inkscape.org/namespaces/inkscape"
   xmlns:sodipodi="http://sodipodi.sourceforge.net/DTD/sodipodi-0.dtd"
   xmlns:xlink="http://www.w3.org/1999/xlink"
   xmlns="http://www.w3.org/2000/svg"
   xmlns:svg="http://www.w3.org/2000/svg"><sodipodi:namedview
     id="namedview1"
     pagecolor="#ffffff"
     bordercolor="#000000"
     borderopacity="0.25"
     inkscape:showpageshadow="2"
     inkscape:pageopacity="0.0"
     inkscape:pagecheckerboard="0"
     inkscape:deskcolor="#d1d1d1"
     inkscape:document-units="px"
     inkscape:zoom="0.89355474"
     inkscape:cx="-190.25135"
     inkscape:cy="111.353"
     inkscape:window-width="3840"
     inkscape:window-height="2066"
     inkscape:window-x="-11"
     inkscape:window-y="-11"
     inkscape:window-maximized="1"
     inkscape:current-layer="layer1" /><defs
     id="defs1"><linearGradient
       id="linearGradient15"
       inkscape:collect="always"><stop
         style="stop-color:#00ff00;stop-opacity:1;"
         offset="0"
         id="stop15" /><stop
         style="stop-color:#00ff00;stop-opacity:0;"
         offset="1"
         id="stop16" /></linearGradient><inkscape:path-effect
       effect="bspline"
       id="path-effect14"
       is_visible="true"
       lpeversion="1.3"
       weight="33.333333"
       steps="2"
       helper_size="0"
       apply_no_weight="true"
       apply_with_weight="true"
       only_selected="false"
       uniform="false" /><inkscape:path-effect
       effect="bspline"
       id="path-effect13"
       is_visible="true"
       lpeversion="1.3"
       weight="33.333333"
       steps="2"
       helper_size="0"
       apply_no_weight="true"
       apply_with_weight="true"
       only_selected="false"
       uniform="false" /><inkscape:path-effect
       effect="bspline"
       id="path-effect12"
       is_visible="true"
       lpeversion="1.3"
       weight="33.333333"
       steps="2"
       helper_size="0"
       apply_no_weight="true"
       apply_with_weight="true"
       only_selected="false"
       uniform="false" /><inkscape:path-effect
       effect="bspline"
       id="path-effect11"
       is_visible="true"
       lpeversion="1.3"
       weight="33.333333"
       steps="2"
       helper_size="0"
       apply_no_weight="true"
       apply_with_weight="true"
       only_selected="false"
       uniform="false" /><inkscape:path-effect
       effect="bspline"
       id="path-effect10"
       is_visible="true"
       lpeversion="1.3"
       weight="33.333333"
       steps="2"
       helper_size="0"
       apply_no_weight="true"
       apply_with_weight="true"
       only_selected="false"
       uniform="false" /><inkscape:path-effect
       effect="bspline"
       id="path-effect9"
       is_visible="true"
       lpeversion="1.3"
       weight="33.333333"
       steps="2"
       helper_size="0"
       apply_no_weight="true"
       apply_with_weight="true"
       only_selected="false"
       uniform="false" /><inkscape:path-effect
       effect="bspline"
       id="path-effect8"
       is_visible="true"
       lpeversion="1.3"
       weight="33.333333"
       steps="2"
       helper_size="0"
       apply_no_weight="true"
       apply_with_weight="true"
       only_selected="false"
       uniform="false" /><inkscape:path-effect
       effect="bspline"
       id="path-effect7"
       is_visible="true"
       lpeversion="1.3"
       weight="33.333333"
       steps="2"
       helper_size="0"
       apply_no_weight="true"
       apply_with_weight="true"
       only_selected="false"
       uniform="false" /><inkscape:path-effect
       effect="bspline"
       id="path-effect6"
       is_visible="true"
       lpeversion="1.3"
       weight="33.333333"
       steps="2"
       helper_size="0"
       apply_no_weight="true"
       apply_with_weight="true"
       only_selected="false"
       uniform="false" /><inkscape:path-effect
       effect="bspline"
       id="path-effect5"
       is_visible="true"
       lpeversion="1.3"
       weight="33.333333"
       steps="2"
       helper_size="0"
       apply_no_weight="true"
       apply_with_weight="true"
       only_selected="false"
       uniform="false" /><inkscape:path-effect
       effect="bspline"
       id="path-effect4"
       is_visible="true"
       lpeversion="1.3"
       weight="33.333333"
       steps="2"
       helper_size="0"
       apply_no_weight="true"
       apply_with_weight="true"
       only_selected="false"
       uniform="false" /><inkscape:path-effect
       effect="bspline"
       id="path-effect3"
       is_visible="true"
       lpeversion="1.3"
       weight="33.333333"
       steps="2"
       helper_size="0"
       apply_no_weight="true"
       apply_with_weight="true"
       only_selected="false"
       uniform="false" /><inkscape:path-effect
       effect="bspline"
       id="path-effect2"
       is_visible="true"
       lpeversion="1.3"
       weight="33.333333"
       steps="2"
       helper_size="0"
       apply_no_weight="true"
       apply_with_weight="true"
       only_selected="false"
       uniform="false" /><inkscape:path-effect
       effect="bspline"
       id="path-effect1"
       is_visible="true"
       lpeversion="1.3"
       weight="33.333333"
       steps="2"
       helper_size="0"
       apply_no_weight="true"
       apply_with_weight="true"
       only_selected="false"
       uniform="false" /><filter
       inkscape:collect="always"
       style="color-interpolation-filters:sRGB"
       id="filter6"
       x="-0.017940182"
       y="-0.053789077"
       width="1.0358804"
       height="1.1075782"><feGaussianBlur
         inkscape:collect="always"
         stdDeviation="0.09834407"
         id="feGaussianBlur6" /></filter><filter
       inkscape:collect="always"
       style="color-interpolation-filters:sRGB"
       id="filter7"
       x="-0.036660666"
       y="-0.021093416"
       width="1.0733213"
       height="1.0421868"><feGaussianBlur
         inkscape:collect="always"
         stdDeviation="0.45355721"
         id="feGaussianBlur7" /></filter><filter
       inkscape:collect="always"
       style="color-interpolation-filters:sRGB"
       id="filter8"
       x="-0.099900496"
       y="-0.15853195"
       width="1.199801"
       height="1.3170639"><feGaussianBlur
         inkscape:collect="always"
         stdDeviation="0.57417669"
         id="feGaussianBlur8" /></filter><linearGradient
       inkscape:collect="always"
       xlink:href="#linearGradient15"
       id="linearGradient16"
       x1="61.505955"
       y1="32.489998"
       x2="101.36924"
       y2="79.570213"
       gradientUnits="userSpaceOnUse" /></defs><g
     inkscape:label="Layer 1"
     inkscape:groupmode="layer"
     id="layer1"
     style="display:inline"><g
       id="g8"><path
         style="fill:#000000;fill-rule:evenodd;stroke-width:3.96875;stroke-linejoin:bevel"
         d="m 58.556528,95.620701 c 3.027853,0.189241 7.515565,0.135172 10.083841,-0.756981 2.568276,-0.892153 3.217088,-2.622319 3.460397,-7.380453 0.243308,-4.758135 0.08111,-12.543888 0.70291,-17.004576 0.621804,-4.460689 2.027565,-5.596112 3.271159,-6.704534 1.243594,-1.108422 2.324948,-2.189775 4.708418,-2.378447 2.383469,-0.188671 6.713666,0.638504 9.711081,-1.434714 2.997414,-2.073218 7.100711,-8.639459 9.196535,-15.273659 2.095821,-6.634201 2.542751,-13.127577 1.873021,-18.77221 -0.66973,-5.644633 -2.534237,-9.303742 -4.14298,-11.778166 -1.608742,-2.474424 -2.961563,-3.7639 -3.919534,-3.559599 -0.957971,0.204301 -1.521031,1.902291 -2.157313,3.593499 -0.636281,1.691208 -1.345707,3.375425 -4.018325,7.094487 -2.672617,3.719063 -7.308104,9.472521 -10.537821,11.998767 -3.229717,2.526245 -5.053309,1.824955 -7.809264,1.695785 -2.755955,-0.129171 -6.444015,0.313765 -9.349873,1.298784 -2.905859,0.985019 -5.029169,2.512005 -7.185638,4.733508 -2.156468,2.221504 -4.345838,5.13726 -6.537824,7.407633 -2.191986,2.270373 -4.386323,3.895088 -5.989304,5.471597 -1.602981,1.576509 -2.614409,3.104618 -2.965864,4.831343 -0.351454,1.726726 -0.05168,3.596987 0.634388,6.027475 0.686073,2.430489 1.659717,5.089779 3.471343,9.116051 1.811625,4.026271 4.275522,8.991909 5.967831,12.179595 1.692309,3.187687 2.557393,4.485313 3.314363,5.593732 0.756969,1.10842 1.405783,2.027573 2.514209,2.703437 1.108427,0.675863 2.676391,1.108405 5.704244,1.297646 z"
         id="path1"
         inkscape:path-effect="#path-effect1"
         inkscape:original-d="m 57.096669,95.86401 c 4.487712,-0.05407 8.975424,-0.108137 13.463136,-0.162205 0.64884,-1.730238 1.297651,-3.460404 1.946479,-5.190607 -0.162211,-7.786066 -0.324414,-15.571819 -0.486619,-23.357729 1.405815,-1.135467 2.811576,-2.27089 4.217365,-3.406336 1.0814,-1.081397 2.162752,-2.162752 3.244131,-3.244128 3.685561,0.704034 7.617944,3.613735 11.056468,2.11206 2.954119,-4.727287 7.057414,-11.293529 10.741611,-17.189109 0.50745,-7.37282 0.95438,-13.866196 1.47953,-21.496139 C 100.89416,20.270492 99.029654,16.611384 97.16504,12.952062 95.812168,11.662537 94.459347,10.373061 93.106502,9.0835612 92.543405,10.781663 91.980346,12.479653 91.41725,14.17775 90.707782,15.862069 89.998356,17.546286 89.288888,19.230604 84.653121,24.984411 80.017634,30.737869 75.381865,36.491678 73.5582,35.79036 71.734608,35.08907 69.91098,34.387767 c -3.688282,0.442962 -7.376342,0.885898 -11.064622,1.32886 -2.123437,1.527076 -4.246747,3.054062 -6.370183,4.581138 -2.189501,2.915931 -4.378872,5.831687 -6.568373,8.747619 -2.19447,1.624814 -4.388807,3.249529 -6.583278,4.874344 -1.011491,1.528203 -2.022919,3.056312 -3.034411,4.584516 0.308583,1.925247 0.608352,3.795508 0.925729,5.77562 1.054769,2.880865 2.028413,5.540155 3.076566,8.40295 2.575099,5.189748 5.038995,10.155386 7.558494,15.233081 0.865119,1.297678 1.730204,2.595303 2.595304,3.892955 0.648837,0.919189 1.297651,1.838341 1.946476,2.757509 1.568029,0.432559 3.135992,0.865103 4.703987,1.297651 z"
         sodipodi:nodetypes="ccccccaccccccccccccccccccc" /><path
         style="display:inline;fill:#ffffff;fill-opacity:1;fill-rule:evenodd;stroke-width:3.96875;stroke-linejoin:bevel"
         d="m 41.303937,59.831784 c -0.545326,2.194425 0.79709,5.177425 1.701549,6.041238 0.904459,0.863813 1.370892,-0.391644 2.421148,-1.273465 1.050256,-0.881821 2.684334,-1.390005 2.832253,-0.90504 0.147918,0.484965 -1.190332,1.963049 -2.039918,3.398343 -0.849586,1.435294 -1.210507,2.827795 0.06212,6.345309 1.272629,3.517515 4.1787,9.159767 6.226534,12.548687 2.047835,3.38892 3.237324,4.524343 5.129758,5.22724 1.892434,0.702897 4.487687,0.973235 6.542317,0.838058 2.05463,-0.135178 3.568526,-0.675854 4.10921,-1.865387 0.540684,-1.189533 0.108143,-3.027834 -0.0811,-7.164163 -0.189241,-4.13633 -0.135172,-10.570391 0.405526,-14.544464 0.540699,-3.974073 1.567985,-5.487969 3.027862,-6.839701 1.459876,-1.351733 3.352248,-2.541223 5.27171,-3.13598 1.919462,-0.594757 3.865901,-0.594757 5.785362,-0.594757 1.919461,0 3.811833,0 5.493182,-1.119632 1.68135,-1.119631 3.151551,-3.358759 4.719578,-6.954406 1.568027,-3.595648 3.233724,-8.547484 4.17473,-13.267352 0.941005,-4.719868 1.157276,-9.20749 0.562505,-12.749024 -0.594771,-3.541534 -2.000532,-6.136786 -2.865636,-6.731528 -0.865104,-0.594743 -1.189511,0.811018 -1.973522,2.351996 -0.78401,1.540979 -2.027568,3.217078 -4.717931,7.088824 -2.690363,3.871745 -6.827257,9.938736 -10.747325,12.561126 -3.920068,2.622391 -7.622912,1.799847 -10.663908,1.577812 -3.040996,-0.222036 -5.419978,0.156439 -7.799029,1.616322 -2.379051,1.459883 -4.758032,4.001067 -6.78563,6.271977 -2.027597,2.27091 -3.703696,4.271415 -5.758336,5.974598 -2.05464,1.703183 -4.487688,3.108944 -5.033014,5.303369 z"
         id="path2"
         inkscape:path-effect="#path-effect2"
         inkscape:original-d="m 39.416168,59.043148 c 1.342443,2.983061 2.684859,5.966061 4.02733,8.949184 0.466447,-1.255497 0.93288,-2.510954 1.399313,-3.766412 1.634079,-0.508184 3.268157,-1.016368 4.902285,-1.524567 -1.338291,1.478129 -2.676541,2.956213 -4.014792,4.434298 -0.360921,1.392503 -0.721842,2.785004 -1.082774,4.177548 2.90619,5.642485 5.812261,11.284737 8.718393,16.92711 1.189537,1.135467 2.379027,2.270889 3.568541,3.406336 2.595353,0.270348 5.190606,0.540686 7.78591,0.811029 1.513956,-0.540697 3.027852,-1.081375 4.541779,-1.622062 -0.432559,-1.838378 -0.8651,-3.676679 -1.297651,-5.51502 0.05407,-6.434318 0.108137,-12.868379 0.162208,-19.302567 1.027326,-1.513959 2.054614,-3.027854 3.081922,-4.541782 1.892445,-1.189537 3.784817,-2.379027 5.677225,-3.568541 1.946516,0 3.892955,0 5.839432,0 1.892445,0 3.784817,0 5.677225,0 1.470291,-2.239263 2.940492,-4.478391 4.410782,-6.717653 1.665764,-4.952033 3.331462,-9.903869 4.997193,-14.855806 0.216279,-4.487799 0.432549,-8.975421 0.648825,-13.463134 -1.405816,-2.595355 -2.811579,-5.190606 -4.217366,-7.785909 -0.324422,1.405817 -0.648827,2.811578 -0.973241,4.217368 -1.243608,1.676166 -2.487165,3.352266 -3.730747,5.028399 -4.137144,6.067358 -8.274038,12.134349 -12.411182,18.201706 -3.702992,-0.822576 -7.405836,-1.64512 -11.108753,-2.46768 -2.379075,0.378489 -4.758057,0.756962 -7.137085,1.135446 -2.379075,2.541283 -4.758055,5.082468 -7.137083,7.623702 -1.676167,2.000586 -3.352265,4.001092 -5.028401,6.001639 -2.433145,1.405818 -4.866193,2.811579 -7.299288,4.217368 z"
         sodipodi:nodetypes="ccccccccccccccsccccccccccccc" /><path
         style="mix-blend-mode:multiply;fill:#666666;fill-opacity:1;fill-rule:evenodd;stroke-width:3.96875;stroke-linejoin:bevel;filter:url(#filter6)"
         d="m 57.981401,92.512588 c -2.069374,-0.295739 -1.74328,-1.224729 -1.130752,-2.108964 0.612527,-0.884236 1.511417,-1.723625 2.785769,-2.026395 1.274352,-0.30277 2.924051,-0.06888 4.796533,0.134841 1.872482,0.203716 3.967732,0.377254 4.762796,0.975768 0.795064,0.598514 0.289909,1.621941 -2.19515,2.302452 -2.485059,0.680512 -6.949822,1.018037 -9.019196,0.722298 z"
         id="path3"
         inkscape:path-effect="#path-effect3"
         inkscape:original-d="m 55.585927,93.145858 c 0.3261,-0.929009 0.652194,-1.857999 0.978301,-2.787027 0.898948,-0.839443 1.797838,-1.678832 2.696786,-2.518274 1.649756,0.233902 3.299455,0.467796 4.949164,0.701691 2.095255,0.173538 4.190505,0.347076 6.285816,0.520619 -0.505183,1.023485 -1.010338,2.046912 -1.515521,3.070397 -4.464935,0.337538 -8.929698,0.675062 -13.394546,1.012594 z"
         sodipodi:nodetypes="ccccccc" /><path
         style="mix-blend-mode:multiply;fill:#f4f4f4;fill-opacity:1;fill-rule:evenodd;stroke-width:3.96875;stroke-linejoin:bevel"
         d="m 70.938343,49.30684 c 0.496275,1.811044 3.260215,5.950712 6.301954,7.756473 3.041739,1.805761 6.361068,1.277487 8.945895,0.586423 2.584827,-0.691064 4.435107,-1.54491 6.277107,-4.773189 1.842001,-3.228279 3.675694,-8.830936 4.835859,-13.768038 1.160166,-4.937102 1.646775,-9.208454 1.052001,-13.101443 -0.594773,-3.892989 -2.270873,-7.407393 -3.066863,-7.442312 -0.795991,-0.03492 -0.711844,3.409512 -1.432682,7.439338 -0.720837,4.029827 -2.246572,8.644563 -4.354795,12.743224 -2.108223,4.09866 -4.798683,7.680754 -7.481113,9.225356 -2.68243,1.544602 -5.35657,1.051522 -7.579385,0.54615 -2.222815,-0.505372 -3.994253,-1.023026 -3.497978,0.788018 z"
         id="path4"
         inkscape:path-effect="#path-effect4"
         inkscape:original-d="m 68.67063,46.978142 c 2.763988,4.139742 5.527928,8.27941 8.291965,12.419225 3.319441,-0.528293 6.63877,-1.056567 9.958144,-1.584849 1.85028,-0.853846 3.70056,-1.707692 5.550851,-2.561543 1.83371,-5.602707 3.667403,-11.205364 5.501105,-16.808048 0.486629,-4.27152 0.973238,-8.542872 1.459857,-12.814308 -1.676165,-3.514543 -3.352266,-7.028946 -5.028399,-10.543419 0.08415,3.444636 0.168299,6.889066 0.252451,10.333703 -1.525827,4.615016 -3.051562,9.229752 -4.577389,13.844767 -2.690619,3.582306 -5.381079,7.1644 -8.071696,10.746704 -2.674243,-0.4931 -5.348383,-0.98618 -8.022574,-1.47927 -1.771439,-0.517654 -3.542877,-1.035308 -5.314315,-1.552962 z"
         sodipodi:nodetypes="scccccccccss"
         transform="matrix(0.78675713,0,0,0.92195107,21.026968,1.4489387)" /><path
         id="path5"
         style="mix-blend-mode:multiply;fill:#f4f4f4;fill-opacity:1;fill-rule:evenodd;stroke-width:3.96875;stroke-linejoin:bevel;filter:url(#filter7)"
         d="m 67.595662,40.038767 c -1.479957,-0.346465 -3.009435,0.434441 -4.504781,0.706933 -1.971463,0.359252 -4.097469,0.31923 -5.886103,1.222843 -2.707232,1.367686 -5.458892,3.340952 -6.775965,6.073165 -0.560271,1.162258 -0.591844,2.626967 -0.225675,3.864168 0.37136,1.254741 1.235583,2.438116 2.324922,3.163115 1.211748,0.806468 2.790607,0.950966 4.244186,1.027327 1.361762,0.07154 2.748839,-0.148967 4.05505,-0.540535 1.409307,-0.422474 2.888753,-0.926841 3.974434,-1.91978 0.984129,-0.900062 1.673805,-2.155114 2.054138,-3.433382 0.262298,-0.88156 -0.215794,-1.896354 0.108235,-2.75714 0.4086,-1.085449 1.250583,-2.023596 2.190047,-2.703711 0.390341,-0.282583 1.137881,-0.08163 1.351339,-0.513664 0.416134,-0.842247 -0.257497,-1.937602 -0.805241,-2.700834 -0.500993,-0.698091 -1.267947,-1.292644 -2.104586,-1.488505 z M 47.364035,53.58226 c -0.936618,-0.05271 -2.010627,0.609172 -2.406055,1.459859 -0.55735,1.199031 0.631213,2.596928 0.613131,3.919043 -0.02581,1.88737 -0.09204,3.929374 -1.027942,5.568555 -0.785475,1.375715 -3.418407,1.543274 -3.586207,3.118522 -0.295991,2.778659 4.078927,4.736529 5.025143,6.710062 0.946215,1.973533 1.419556,2.792762 2.284664,4.766288 0.865107,1.973527 2.236656,5.330864 3.236939,6.763709 1.000282,1.432846 4.72621,5.529354 5.59132,5.664532 0.86511,0.135177 1.507544,-2.888374 2.345618,-3.104652 0.838074,-0.216278 4.624345,1.227337 4.894699,0.308167 0.270353,-0.91917 -2.59251,-3.980432 -3.522665,-6.153052 -1.980271,-4.62544 -4.691157,-9.451747 -4.302894,-14.468262 0.203692,-2.631789 2.280144,-3.466309 3.398475,-7.152665 0.09392,-0.309578 0.678392,-0.685925 1.293662,-1.335489 0.303484,-0.3204 1.13521,-0.75067 0.898456,-1.187123 -0.716737,-1.321296 -2.055981,0.0749 -3.084342,0.06949 -1.631949,-0.0086 -3.340401,0.340265 -4.893242,-0.161748 -1.674293,-0.541277 -2.952659,-1.917475 -4.379578,-2.947107 -0.812693,-0.58642 -1.378588,-1.781818 -2.379182,-1.83813 z"
         sodipodi:nodetypes="aaaaaaaaaaaaaaaaaaaassssssaasssaaaaa" /><path
         style="mix-blend-mode:multiply;fill:#e8e8e8;fill-opacity:1;fill-rule:evenodd;stroke-width:3.96875;stroke-linejoin:bevel;filter:url(#filter8)"
         d="m 77.23906,48.478718 c 0.410999,1.299902 1.443253,3.135021 2.915232,4.43495 1.471978,1.299929 3.383521,2.064547 5.505464,2.10278 2.121942,0.03823 4.454028,-0.649924 5.008409,-1.089605 0.554381,-0.439682 -0.669007,-0.630836 -2.12187,-0.936702 -1.452863,-0.305865 -3.135022,-0.726405 -4.568766,-1.242553 -1.433744,-0.516148 -2.618905,-1.127844 -3.498267,-1.859052 -0.879361,-0.731209 -1.452825,-1.581847 -1.940299,-2.308278 -0.487473,-0.726431 -0.888899,-1.328568 -1.194764,-1.247322 -0.305864,0.08125 -0.516138,0.84588 -0.105139,2.145782 z"
         id="path7"
         inkscape:path-effect="#path-effect7"
         inkscape:original-d="m 76.617783,47.943464 c 1.032276,1.835156 2.064531,3.670275 3.096827,5.505469 1.91166,0.764664 3.823203,1.529282 5.734862,2.293946 2.332226,-0.688198 4.664312,-1.376355 6.996536,-2.064552 -1.223462,-0.191166 -2.44685,-0.38232 -3.670314,-0.573486 -1.682262,-0.420566 -3.364421,-0.841105 -5.046681,-1.26167 -1.185228,-0.611731 -2.370389,-1.223427 -3.555616,-1.835157 -0.573496,-0.850687 -1.14696,-1.701325 -1.720458,-2.552014 -0.401449,-0.602173 -0.802874,-1.20431 -1.204323,-1.806481 -0.210281,0.764662 -0.420555,1.529297 -0.630833,2.293945 z"
         sodipodi:nodetypes="cccccccccc"
         transform="rotate(-17.453117,86.978109,38.140851)" /></g><image
       width="135.46667"
       height="135.46667"
       preserveAspectRatio="none"
       xlink:href="../../../rimworld_mods/StarWarsRaces/1.4/Textures/StarWarsRaces/Togruta/Montral/Montral_eastm.png"
       id="image1-3"
       x="-6.9255066e-06"
       y="-6.9255066e-06"
       style="display:none" /><g
       id="g14"
       style="display:none"><rect
         style="display:inline;fill:#000f00;fill-opacity:1;fill-rule:evenodd;stroke-width:19.7184;stroke-linejoin:bevel"
         id="rect14"
         width="135.46667"
         height="135.46667"
         x="-6.9255066e-06"
         y="-6.9255066e-06" /><path
         id="path8"
         style="fill:url(#linearGradient16);fill-opacity:1;fill-rule:evenodd;stroke-width:3.82091;stroke-linejoin:bevel"
         d="m 94.781317,15.368991 c -0.826272,-0.0129 -1.875427,0.787501 -2.924658,2.324149 -1.04923,1.536648 -2.098811,3.809722 -2.439804,5.669183 -0.340993,1.859462 0.02663,3.305298 0.682403,4.247938 0.655773,0.942641 1.599682,1.381862 2.976802,1.691771 1.37712,0.309909 3.187277,0.490517 4.288962,0.438863 1.101686,-0.05165 1.494929,-0.335551 1.285084,-2.491992 -0.209844,-2.156441 -1.023098,-6.185255 -1.731329,-8.612874 -0.70823,-2.427619 -1.311189,-3.254133 -2.13746,-3.267038 z m -8.910853,12.945228 c -0.11732,-0.0089 -0.191352,0.05136 -0.388083,0.212768 -0.314766,0.258256 -0.944136,0.775234 -1.442522,1.317576 -0.498386,0.542344 -0.865702,1.110482 -0.983744,1.807781 -0.118041,0.697299 0.01293,1.523252 0.196549,1.962295 0.183615,0.439044 0.41991,0.490721 0.629756,0.322853 0.209846,-0.167867 0.393549,-0.554902 0.734548,-0.877725 0.340999,-0.322824 0.83932,-0.581247 1.259011,-0.710376 0.419693,-0.12913 0.760629,-0.128868 1.259013,0.039 0.498383,0.167867 1.154335,0.503539 1.967487,0.99423 0.813152,0.49069 1.783478,1.135912 2.531058,1.626607 0.74758,0.490695 1.272183,0.826686 1.665645,1.678935 0.393465,0.85225 0.655867,2.220947 1.23294,2.879515 0.577073,0.658567 1.468698,0.607086 1.783473,0.05183 0.314776,-0.555253 0.05244,-1.61401 -0.07872,-2.311312 C 96.10572,36.610892 96.106,36.274749 95.60762,35.65493 c -0.49838,-0.619818 -1.495524,-1.523333 -2.518524,-2.194808 -1.023,-0.671477 -2.071732,-1.110635 -2.91112,-1.536762 -0.839387,-0.426128 -1.469123,-0.839305 -1.797011,-1.317083 -0.327888,-0.477778 -0.354206,-1.019954 -0.734549,-1.420259 -0.380342,-0.400303 -1.114906,-0.658751 -1.482133,-0.787879 -0.13771,-0.04842 -0.223427,-0.07863 -0.29382,-0.08393 z m -5.650258,7.194097 c -0.05574,0.0049 -0.101733,0.04347 -0.19354,0.120947 -0.183612,0.154954 -0.550828,0.465057 -0.91806,0.78788 -0.367231,0.322824 -0.734606,0.658183 -1.141183,1.045571 -0.406576,0.387387 -0.852372,0.826468 -0.852377,1.304248 -4e-6,0.477779 0.445562,0.994645 0.891486,1.252907 0.445925,0.258262 0.892105,0.258029 1.705257,0.283854 0.813151,0.02583 1.993405,0.07753 2.767217,0.155009 0.773811,0.07747 1.141323,0.180788 1.783976,0.490697 0.642651,0.30991 1.560273,0.826445 2.071778,1.472092 0.511504,0.645647 0.61651,1.420498 0.734548,2.117799 0.118038,0.697301 0.249519,1.317086 0.69544,1.80778 0.44592,0.490695 1.206242,0.852185 2.058741,0.99423 0.852499,0.142045 1.796776,0.06435 2.334511,-0.129338 0.537736,-0.193694 0.669028,-0.503508 0.891987,-0.671377 0.22296,-0.16787 0.537558,-0.193542 0.944134,-0.271019 0.406576,-0.07747 0.905103,-0.206509 1.141182,-0.426029 0.236079,-0.219518 0.209687,-0.529437 0.02608,-0.736046 -0.183613,-0.206607 -0.524626,-0.310199 -0.996779,-0.361852 -0.472153,-0.05165 -1.07524,-0.05144 -1.53428,0.129338 -0.459039,0.180779 -0.773609,0.542013 -1.114608,0.709883 -0.341,0.167871 -0.708584,0.142485 -1.023354,0.09083 -0.314771,-0.05166 -0.576979,-0.129476 -0.681902,-0.516861 -0.104924,-0.387385 -0.0522,-1.084445 0.03961,-1.678442 0.0918,-0.593997 0.222513,-1.084729 0.156939,-1.549596 -0.06557,-0.464866 -0.327687,-0.90408 -0.865415,-1.446422 -0.537726,-0.542341 -1.35056,-1.187721 -1.966986,-1.600937 -0.616425,-0.413216 -1.036323,-0.593897 -1.797011,-0.671376 -0.760688,-0.07748 -1.862356,-0.05191 -2.583706,-0.039 -0.72135,0.01291 -1.062359,0.01296 -1.245974,-0.09034 -0.183618,-0.103304 -0.209981,-0.309971 -0.144403,-0.645707 0.06558,-0.335735 0.223222,-0.800587 0.03961,-1.149238 -0.183611,-0.348652 -0.708401,-0.580832 -0.970707,-0.697047 -0.131152,-0.05811 -0.196462,-0.08728 -0.252203,-0.08244 z m -9.807352,4.236091 c -0.280339,0.0049 -0.294969,0.04615 -0.353987,0.210792 -0.07869,0.219519 -0.235832,0.658415 0.210086,1.007065 0.445917,0.348652 1.495179,0.606688 2.491949,1.0199 0.996772,0.413213 1.940934,0.98147 3.436084,2.363148 1.495149,1.381678 3.540886,3.576775 5.036045,4.932643 1.495159,1.355868 2.439504,1.87266 3.737925,2.247138 1.29842,0.374476 2.951026,0.60681 4.065839,0.671376 1.114814,0.06457 1.691954,-0.03872 1.901805,-0.413193 0.20985,-0.374473 0.05227,-1.020264 -0.551037,-1.368917 -0.603305,-0.348653 -1.652249,-0.400024 -2.544096,-0.619542 -0.891847,-0.219519 -1.626588,-0.60699 -3.200426,-1.872449 -1.573838,-1.265462 -3.986686,-3.409066 -5.888422,-4.906974 -1.901737,-1.49791 -3.292064,-2.350132 -4.642949,-2.789176 -1.350885,-0.439043 -2.662491,-0.46495 -3.318255,-0.477861 -0.16394,-0.0032 -0.287115,-0.0056 -0.380561,-0.004 z m -8.24299,1.592052 c -0.481574,0.0059 -0.944069,0.02916 -1.370322,0.06467 -1.705005,0.14204 -2.832707,0.478134 -4.196703,1.252907 -1.363998,0.774772 -2.964356,1.988417 -4.197207,3.060195 -1.23285,1.071775 -2.098358,2.001592 -2.845936,3.099192 -0.74758,1.097599 -1.377208,2.362832 -2.898584,4.054424 -1.521377,1.691591 -3.93421,3.80956 -5.140838,5.694854 -1.206627,1.885292 -1.206962,3.538102 -0.774158,5.333001 0.432802,1.794898 1.298558,3.731618 2.557632,5.771864 1.259074,2.040247 2.911331,4.18371 3.79007,5.255496 0.87874,1.071788 0.983992,1.071836 1.443025,0.891056 0.459034,-0.18078 1.272236,-0.542627 1.823085,-1.511091 0.550848,-0.968465 0.839026,-2.543352 1.140681,-4.260773 0.301654,-1.717422 0.616867,-3.577123 1.508707,-5.204156 0.891841,-1.627035 2.360255,-3.021512 3.82918,-3.95125 1.468924,-0.929737 2.938052,-1.394473 4.459437,-1.084569 1.521385,0.309903 3.095198,1.394419 4.498546,2.569497 1.403349,1.175077 2.635988,2.440339 3.527839,2.982688 0.89185,0.542351 1.442699,0.361607 1.245975,-0.335687 -0.196724,-0.697295 -1.140799,-1.911019 -2.203145,-3.047358 -1.062345,-1.136342 -2.242648,-2.195171 -1.508205,-2.543828 0.734441,-0.348656 3.383441,0.01301 4.878605,0.06467 1.495166,0.05166 1.836475,-0.206728 1.19383,-1.046064 -0.642644,-0.839335 -2.268892,-2.259578 -3.672242,-2.814845 -1.40335,-0.555265 -2.583929,-0.245291 -3.711852,0.155009 -1.127923,0.4003 -2.203158,0.891079 -3.449119,0.96856 -1.245961,0.07748 -2.662712,-0.258275 -4.4464,0.167845 -1.783691,0.426119 -3.934246,1.614073 -5.468753,2.957018 -1.534506,1.342945 -2.45261,2.840616 -3.239534,3.395883 -0.786926,0.555268 -1.442703,0.167773 -1.495171,-0.96856 -0.05247,-1.136333 0.498225,-3.021449 1.691718,-4.945479 1.193493,-1.924028 3.029556,-3.886668 5.259168,-5.345836 2.229612,-1.459169 4.852841,-2.414955 6.964423,-2.828174 2.111582,-0.41322 3.711487,-0.283841 6.019789,0.452192 2.308302,0.736032 5.324969,2.079061 7.384094,2.853844 2.059125,0.774783 3.16051,0.980976 4.20974,0.968065 1.049231,-0.01291 2.046151,-0.244962 2.387158,-0.554872 0.341007,-0.309911 0.02616,-0.697702 -1.403413,-1.162568 -1.429566,-0.464865 -3.97371,-1.006974 -6.282022,-1.92379 -2.30831,-0.916816 -4.380579,-2.208008 -6.400349,-2.80201 -2.01977,-0.594003 -3.987366,-0.490672 -5.443182,-0.413193 -1.455813,0.07748 -2.399935,0.128867 -3.108168,-0.039 -0.708232,-0.167866 -1.180339,-0.55498 -1.088535,-0.864892 0.0918,-0.309911 0.74763,-0.542639 2.07228,-0.852549 1.324647,-0.30991 3.318315,-0.696888 4.721667,-0.722717 1.403353,-0.02583 2.216082,0.309787 2.898083,0.593871 0.682001,0.284086 1.232971,0.516366 1.810048,0.516369 0.577078,2e-6 1.180332,-0.232344 0.839342,-0.916726 -0.340991,-0.684381 -1.626323,-1.820486 -3.410011,-2.414487 -1.337766,-0.445502 -2.955547,-0.586249 -4.400273,-0.568695 z m -1.206866,29.563773 c -0.709757,0.0042 -1.438947,0.07648 -2.157015,0.226591 -1.914848,0.400295 -3.750839,1.355814 -5.101729,2.711669 -1.350889,1.355856 -2.216498,3.111813 -2.662426,4.867974 -0.445925,1.756163 -0.472238,3.512535 -0.485352,4.390606 -0.01311,0.878071 -0.013,0.877783 0.314878,1.032736 0.327882,0.154953 0.983402,0.465041 1.455558,0.05183 0.472157,-0.413207 0.760602,-1.549483 1.180293,-2.879515 0.419691,-1.330031 0.970959,-2.853826 1.928378,-4.003083 0.95742,-1.149257 2.321042,-1.924231 3.724388,-2.259972 1.403345,-0.335741 2.846216,-0.232078 4.380717,0.76221 1.534499,0.994289 3.16064,2.879543 4.354143,3.938414 1.193504,1.058871 1.954082,1.290957 2.347548,0.709882 0.393465,-0.581076 0.420082,-1.975402 -0.06518,-3.240874 -0.485265,-1.26547 -1.482144,-2.401999 -2.478914,-3.409211 -0.996767,-1.007211 -1.993579,-1.88513 -3.488729,-2.401652 -0.934469,-0.322826 -2.063624,-0.504544 -3.246555,-0.497609 z m 0.935609,9.465917 c -1.062563,0.009 -2.146602,0.356181 -3.354855,1.155163 -1.757459,1.162157 -3.776955,3.279986 -4.786851,4.816634 -1.009895,1.536648 -1.010336,2.492262 -0.590647,3.021688 0.41969,0.529427 1.259175,0.63271 1.980524,0.413193 0.721348,-0.219517 1.324628,-0.761886 2.334511,-1.71744 1.00988,-0.955555 2.426412,-2.324039 3.816644,-2.750177 1.390231,-0.426135 2.753935,0.0902 4.20974,0.852057 1.455806,0.761862 3.00341,1.769188 4.078877,1.78211 1.075467,0.01292 1.679143,-0.968493 1.351268,-1.96279 -0.327874,-0.994297 -1.587337,-2.001643 -3.016914,-3.008853 -1.429576,-1.00721 -3.029148,-2.01418 -4.576764,-2.414487 -0.48363,-0.125097 -0.962548,-0.191178 -1.445533,-0.187098 z" /></g></g></svg>
