<?xml version="1.0" encoding="UTF-8" standalone="no"?>
<!-- Created with Inkscape (http://www.inkscape.org/) -->

<svg
   width="511.99997"
   height="511.99997"
   viewBox="0 0 135.46664 135.46664"
   version="1.1"
   id="svg5"
   inkscape:export-filename="Output\Togruta_Montral1_southm.png"
   inkscape:export-xdpi="96"
   inkscape:export-ydpi="96"
   inkscape:version="1.3.2 (091e20e, 2023-11-25, custom)"
   sodipodi:docname="Togruta_Montral1_south.svg"
   xml:space="preserve"
   xmlns:inkscape="http://www.inkscape.org/namespaces/inkscape"
   xmlns:sodipodi="http://sodipodi.sourceforge.net/DTD/sodipodi-0.dtd"
   xmlns="http://www.w3.org/2000/svg"
   xmlns:svg="http://www.w3.org/2000/svg"><sodipodi:namedview
     id="namedview7"
     pagecolor="#ffffff"
     bordercolor="#666666"
     borderopacity="1.0"
     inkscape:pageshadow="2"
     inkscape:pageopacity="0"
     inkscape:pagecheckerboard="true"
     inkscape:document-units="px"
     showgrid="false"
     units="px"
     inkscape:object-paths="true"
     showguides="false"
     width="512px"
     inkscape:zoom="2.338723"
     inkscape:cx="157.77841"
     inkscape:cy="192.1989"
     inkscape:window-width="3840"
     inkscape:window-height="2066"
     inkscape:window-x="-11"
     inkscape:window-y="-11"
     inkscape:window-maximized="1"
     inkscape:current-layer="layer1"
     inkscape:showpageshadow="2"
     inkscape:deskcolor="#d1d1d1"
     guidecolor="#3cff3f"
     guideopacity="0.6"><inkscape:grid
       type="xygrid"
       id="grid85961"
       originx="0"
       originy="0"
       spacingy="1"
       spacingx="1"
       units="px"
       visible="false" /><sodipodi:guide
       position="0,135.46665"
       orientation="0,512"
       id="guide38033"
       inkscape:locked="false" /><sodipodi:guide
       position="67.733325,-214.75068"
       orientation="512,0"
       id="guide38035"
       inkscape:locked="false" /><sodipodi:guide
       position="135.46664,3.0079639e-14"
       orientation="0,-512"
       id="guide38037"
       inkscape:locked="false" /><sodipodi:guide
       position="0,3.0079639e-14"
       orientation="-512,0"
       id="guide38039"
       inkscape:locked="false" /><sodipodi:guide
       position="420.94946,119.65766"
       orientation="1,0"
       id="guide40893"
       inkscape:locked="false" /><sodipodi:guide
       position="0,135.46665"
       orientation="0,511.99997"
       id="guide40984"
       inkscape:locked="false" /><sodipodi:guide
       position="135.46664,135.46665"
       orientation="511.99997,0"
       id="guide40986"
       inkscape:locked="false" /><sodipodi:guide
       position="135.46664,8.0744416e-06"
       orientation="0,-511.99997"
       id="guide40988"
       inkscape:locked="false" /><sodipodi:guide
       position="-0.24555384,-16.811814"
       orientation="-511.99997,0"
       id="guide40990"
       inkscape:locked="false" /><sodipodi:guide
       position="-14.485935,-15.312758"
       orientation="0,-1"
       id="guide730"
       inkscape:locked="false" /><sodipodi:guide
       position="-1.7773421,-152.88372"
       orientation="0,-1"
       id="guide732"
       inkscape:locked="false" /><sodipodi:guide
       position="-2.4804684,-173.59971"
       orientation="0,-1"
       id="guide734"
       inkscape:locked="false" /><sodipodi:guide
       position="-14.967091,-309.05597"
       orientation="0,-1"
       id="guide736"
       inkscape:locked="false" /><sodipodi:guide
       position="-271.19788,93.397905"
       orientation="0,-1"
       id="guide954"
       inkscape:locked="false" /><sodipodi:guide
       position="-243.15205,41.274996"
       orientation="0,-1"
       id="guide956"
       inkscape:locked="false" /><sodipodi:guide
       position="-224.36663,-58.208326"
       orientation="0,-1"
       id="guide958"
       inkscape:locked="false" /><sodipodi:guide
       position="-211.13747,-110.33123"
       orientation="0,-1"
       id="guide960"
       inkscape:locked="false" /><sodipodi:guide
       position="-157.69164,-215.63538"
       orientation="0,-1"
       id="guide962"
       inkscape:locked="false" /><sodipodi:guide
       position="-187.32497,-268.02289"
       orientation="0,-1"
       id="guide964"
       inkscape:locked="false" /><sodipodi:guide
       position="-116.94582,-232.56872"
       orientation="0,-1"
       id="guide966"
       inkscape:locked="false" /><sodipodi:guide
       position="-97.89582,78.316657"
       orientation="0,-1"
       id="guide968"
       inkscape:locked="false" /><sodipodi:guide
       position="-93.397904,64.558326"
       orientation="0,-1"
       id="guide970"
       inkscape:locked="false" /><sodipodi:guide
       position="-95.249988,58.737493"
       orientation="0,-1"
       id="guide972"
       inkscape:locked="false" /><sodipodi:guide
       position="-87.577072,-87.841655"
       orientation="0,-1"
       id="guide974"
       inkscape:locked="false" /><sodipodi:guide
       position="-116.41665,-94.72082"
       orientation="0,-1"
       id="guide976"
       inkscape:locked="false" /><sodipodi:guide
       position="54.53634,194.0254"
       orientation="1,0"
       id="guide978"
       inkscape:locked="false" /><sodipodi:guide
       position="63.61014,194.0254"
       orientation="1,0"
       id="guide980"
       inkscape:locked="false" /></sodipodi:namedview><defs
     id="defs2"><inkscape:path-effect
       effect="mirror_symmetry"
       start_point="67.73332,0"
       end_point="67.73332,135.46664"
       center_point="67.73332,67.73332"
       id="path-effect3"
       is_visible="true"
       lpeversion="1.2"
       lpesatellites=""
       mode="vertical"
       discard_orig_path="false"
       fuse_paths="false"
       oposite_fuse="false"
       split_items="false"
       split_open="false"
       link_styles="false" /><inkscape:path-effect
       effect="bspline"
       id="path-effect2"
       is_visible="true"
       lpeversion="1.3"
       weight="33.333333"
       steps="2"
       helper_size="0"
       apply_no_weight="true"
       apply_with_weight="true"
       only_selected="false"
       uniform="false" /><inkscape:path-effect
       effect="bspline"
       id="path-effect1"
       is_visible="true"
       lpeversion="1.3"
       weight="33.333333"
       steps="2"
       helper_size="0"
       apply_no_weight="true"
       apply_with_weight="true"
       only_selected="false"
       uniform="false" /><inkscape:path-effect
       effect="mirror_symmetry"
       start_point="67.359306,-0.067936"
       end_point="67.359306,135.3987"
       center_point="67.359306,67.665384"
       id="path-effect5"
       is_visible="true"
       lpeversion="1.2"
       lpesatellites=""
       mode="vertical"
       discard_orig_path="false"
       fuse_paths="false"
       oposite_fuse="false"
       split_items="false"
       split_open="false"
       link_styles="false" /><inkscape:path-effect
       center_point="67.73332,67.73332"
       end_point="67.73332,135.46664"
       start_point="67.73332,0"
       effect="mirror_symmetry"
       id="path-effect63"
       is_visible="true"
       lpeversion="1.2"
       lpesatellites=""
       mode="vertical"
       discard_orig_path="false"
       fuse_paths="false"
       oposite_fuse="false"
       split_items="false"
       split_open="false"
       link_styles="false" /><inkscape:path-effect
       effect="bspline"
       id="path-effect61"
       is_visible="true"
       lpeversion="1.3"
       weight="33.333333"
       steps="2"
       helper_size="0"
       apply_no_weight="true"
       apply_with_weight="true"
       only_selected="false"
       uniform="false" /><inkscape:path-effect
       center_point="67.73332,67.73332"
       end_point="67.73332,135.46664"
       start_point="67.73332,0"
       effect="mirror_symmetry"
       id="path-effect59"
       is_visible="true"
       lpeversion="1.2"
       lpesatellites=""
       mode="vertical"
       discard_orig_path="false"
       fuse_paths="false"
       oposite_fuse="false"
       split_items="false"
       split_open="false"
       link_styles="false" /><inkscape:path-effect
       effect="mirror_symmetry"
       start_point="67.73332,0"
       end_point="67.73332,135.46664"
       center_point="67.73332,67.73332"
       id="path-effect47"
       is_visible="true"
       lpeversion="1.2"
       lpesatellites=""
       mode="vertical"
       discard_orig_path="false"
       fuse_paths="false"
       oposite_fuse="false"
       split_items="false"
       split_open="false"
       link_styles="false" /><inkscape:path-effect
       effect="bspline"
       id="path-effect43"
       is_visible="true"
       lpeversion="1.3"
       weight="33.333333"
       steps="2"
       helper_size="0"
       apply_no_weight="true"
       apply_with_weight="true"
       only_selected="false"
       uniform="false" /><inkscape:path-effect
       effect="bspline"
       id="path-effect36"
       is_visible="true"
       lpeversion="1.3"
       weight="33.333333"
       steps="2"
       helper_size="0"
       apply_no_weight="true"
       apply_with_weight="true"
       only_selected="false"
       uniform="false" /><inkscape:path-effect
       effect="bspline"
       id="path-effect9"
       is_visible="true"
       lpeversion="1.3"
       weight="33.333333"
       steps="2"
       helper_size="0"
       apply_no_weight="true"
       apply_with_weight="true"
       only_selected="false"
       uniform="false" /><linearGradient
       id="linearGradient17330"
       inkscape:swatch="solid"><stop
         style="stop-color:#000000;stop-opacity:1;"
         offset="0"
         id="stop17328" /></linearGradient><filter
       inkscape:collect="always"
       style="color-interpolation-filters:sRGB"
       id="filter47"
       x="-0.015496744"
       y="-0.033223132"
       width="1.0309935"
       height="1.0664463"><feGaussianBlur
         inkscape:collect="always"
         stdDeviation="0.41071177"
         id="feGaussianBlur47" /></filter><filter
       inkscape:collect="always"
       style="color-interpolation-filters:sRGB"
       id="filter61"
       x="-0.040606123"
       y="-0.057929105"
       width="1.0812122"
       height="1.1158582"><feGaussianBlur
         inkscape:collect="always"
         stdDeviation="0.75311116"
         id="feGaussianBlur61" /></filter><filter
       inkscape:collect="always"
       style="color-interpolation-filters:sRGB"
       id="filter2"
       x="-0.070712679"
       y="-0.56694413"
       width="1.1414254"
       height="2.1338883"><feGaussianBlur
         inkscape:collect="always"
         stdDeviation="0.27400955"
         id="feGaussianBlur2" /></filter></defs><g
     inkscape:groupmode="layer"
     id="layer1"
     inkscape:label="south"
     style="display:inline"><g
       id="g2"
       style="display:inline"
       inkscape:label="montral1"><path
         style="display:inline;fill:#dcdcdc;fill-opacity:1;fill-rule:evenodd;stroke:#000000;stroke-width:3.96875;stroke-linejoin:bevel;stroke-opacity:1"
         d="m 67.359311,30.09456 c -0.680447,0 -1.797017,0 -2.302031,0.07206 -0.505015,0.07206 -4.004292,0.730727 -4.137711,0.522179 -0.133419,-0.208548 1.732195,-1.02702 1.224978,-3.030344 -0.507216,-2.003324 -3.387167,-5.191269 -5.8672,-7.351989 -2.480033,-2.160719 -4.559847,-3.293951 -6.799783,-4.260589 -2.239936,-0.966639 -4.639731,-1.766571 -6.812992,-1.913233 -2.173261,-0.146662 -4.119763,0.359962 -4.873074,1.45993 -0.75331,1.099967 -0.31335,2.79315 0.213302,4.73976 0.526651,1.94661 1.139931,4.146414 1.853244,8.212962 0.713313,4.066547 1.526574,9.999349 1.259914,13.385919 -0.266659,3.38657 -1.613205,4.226494 -3.766476,7.293072 -2.153272,3.066577 -5.113008,8.359439 -6.539633,12.232659 -1.426625,3.87322 -1.319966,6.326338 -0.140232,8.575976 1.179735,2.249637 3.432122,4.295273 5.016264,6.144213 1.584142,1.84894 2.499045,3.500024 3.36379,5.131019 0.864745,1.630996 1.679118,3.241509 3.428413,4.059393 1.749295,0.817885 4.433005,0.843044 6.248073,0.430593 1.815067,-0.412451 2.760592,-1.262397 3.013883,-5.435021 0.25329,-4.172623 -0.185638,-11.669503 0.341568,-15.871148 0.527207,-4.201644 2.020373,-5.108209 3.387,-6.20151 1.366626,-1.093301 2.606516,-2.373187 3.699817,-3.059834 1.093301,-0.686646 2.039883,-0.779972 2.933191,-0.625772 0.893308,0.154199 1.733232,0.555904 2.60031,0.756779 0.867077,0.200875 1.761222,0.200896 2.655385,0.200916 M 67.3593,30.09456 c 0.680448,0 1.797017,0 2.302032,0.07206 0.505014,0.07206 4.004291,0.730727 4.13771,0.522179 0.133419,-0.208548 -1.732195,-1.02702 -1.224978,-3.030344 0.507217,-2.003324 3.387167,-5.191269 5.8672,-7.351989 2.480033,-2.160719 4.559848,-3.293951 6.799784,-4.260589 2.239935,-0.966639 4.63973,-1.766571 6.812991,-1.913233 2.173261,-0.146662 4.119763,0.359962 4.873074,1.45993 0.753311,1.099967 0.31335,2.79315 -0.213301,4.73976 -0.526652,1.94661 -1.139932,4.146414 -1.853245,8.212962 -0.713313,4.066547 -1.526573,9.999349 -1.259914,13.385919 0.266659,3.38657 1.613205,4.226494 3.766477,7.293072 2.153271,3.066577 5.11301,8.359439 6.53963,12.232659 1.42663,3.87322 1.31997,6.326338 0.14023,8.575976 -1.17973,2.249637 -3.43212,4.295273 -5.01626,6.144213 -1.584142,1.84894 -2.499045,3.500024 -3.36379,5.131019 -0.864745,1.630996 -1.679118,3.241509 -3.428413,4.059393 -1.749295,0.817885 -4.433005,0.843044 -6.248072,0.430593 -1.815068,-0.412451 -2.760593,-1.262397 -3.013883,-5.435021 -0.253291,-4.172623 0.185637,-11.669503 -0.341569,-15.871148 -0.527206,-4.201644 -2.020373,-5.108209 -3.386999,-6.20151 -1.366627,-1.093301 -2.606517,-2.373187 -3.699818,-3.059834 -1.093301,-0.686646 -2.039883,-0.779972 -2.933191,-0.625772 -0.893308,0.154199 -1.733232,0.555904 -2.600309,0.756779 -0.867078,0.200875 -1.761223,0.200896 -2.655386,0.200916"
         id="path8"
         inkscape:path-effect="#path-effect9;#path-effect5"
         inkscape:original-d="m 67.359311,30.09456 c 0,0 -1.797017,0 -2.041342,0 -0.765704,0.144127 -4.264981,0.80279 -6.397475,1.204185 1.865656,-0.818491 3.73127,-1.636963 5.596964,-2.455471 -2.880128,-3.18814 -5.760078,-6.376085 -8.640204,-9.564224 -2.07994,-1.1333 -4.159754,-2.266532 -6.239695,-3.399832 -2.399931,-0.799978 -4.799726,-1.599909 -7.199646,-2.399883 -1.946602,0.50665 -3.893104,1.013274 -5.839712,1.519926 0.439986,1.693283 0.879947,3.386466 1.319934,5.07975 0.613316,2.199936 1.226596,4.39974 1.839912,6.599675 0.81331,5.93316 1.626571,11.865962 2.439881,17.799126 -1.346629,0.839976 -2.693175,1.6799 -4.039804,2.519876 -2.959914,5.293179 -5.91965,10.586041 -8.879564,15.87922 0.106664,2.453261 0.213323,4.906379 0.319987,7.359638 2.252805,2.046016 4.505192,4.091652 6.758286,6.137931 0.91519,1.651601 1.830093,3.302685 2.745165,4.954073 0.814418,1.610603 1.628791,3.221116 2.44321,4.831721 2.684171,0.02516 5.367881,0.05032 8.052355,0.07549 0.945661,-0.850069 1.891186,-1.700015 2.836608,-2.549869 -0.438841,-7.495393 -0.877769,-14.992273 -1.316682,-22.488901 1.493326,-0.906661 2.986492,-1.813226 4.479782,-2.719866 1.239963,-1.279962 2.479853,-2.559848 3.719816,-3.83981 0.946639,-0.09333 1.893221,-0.186657 2.839861,-0.279988 0.839976,0.40173 1.6799,0.803436 2.519875,1.205165 0.89418,2.1e-5 2.682488,6.1e-5 2.682488,6.1e-5"
         sodipodi:nodetypes="ccccccccccccccccccccccccc"
         transform="translate(0.37401435,0.067936)"
         inkscape:label="montral1_grey" /><path
         style="fill:#ffffff;fill-opacity:0.992157;fill-rule:evenodd;stroke-width:3.96875;stroke-linejoin:bevel"
         d="m 49.157585,20.625653 c 2.093231,2.253223 3.786446,5.492999 5.433065,9.592879 1.646618,4.09988 3.246508,9.059537 4.699783,12.006068 1.453275,2.946531 2.759826,3.879782 4.142561,4.453097 1.382735,0.573315 2.841518,0.78663 4.300331,0.999949 V 37.352283 C 66.235461,36.652579 64.737628,35.95289 63.647547,34.373834 62.557466,32.794778 61.87524,30.336536 60.974122,28.37754 c -0.901117,-1.958997 -2.021016,-3.418507 -3.03365,-4.558393 -1.012634,-1.139886 -1.91788,-1.960009 -3.350502,-2.943412 -1.432622,-0.983402 -3.392448,-2.129967 -5.565717,-2.996608 -2.173269,-0.866641 -4.55972,-1.453255 -4.506387,-1.113265 0.05333,0.339991 2.546488,1.606567 4.639719,3.859791 z m 37.15147,0 c -2.093231,2.253223 -3.786446,5.492999 -5.433065,9.592879 -1.646618,4.09988 -3.246508,9.059537 -4.699783,12.006068 -1.453275,2.946531 -2.759826,3.879782 -4.142561,4.453097 -1.382735,0.573315 -2.841518,0.78663 -4.300331,0.999949 V 37.352283 c 1.497864,-0.699704 2.995697,-1.399393 4.085778,-2.978449 1.090081,-1.579056 1.772307,-4.037298 2.673425,-5.996294 0.901117,-1.958997 2.021016,-3.418507 3.03365,-4.558393 1.012634,-1.139886 1.91788,-1.960009 3.350502,-2.943412 1.432622,-0.983402 3.392448,-2.129967 5.565717,-2.996608 2.173269,-0.866641 4.55972,-1.453255 4.506387,-1.113265 -0.05333,0.339991 -2.546488,1.606567 -4.639719,3.859791 z"
         id="path26"
         inkscape:path-effect="#path-effect36;#path-effect47"
         inkscape:original-d="m 49.557566,19.639034 c 1.69325,3.239842 3.386465,6.479618 5.079748,9.719523 1.599954,4.959855 3.199844,9.919512 4.799766,14.879268 1.306628,0.933306 2.613179,1.866556 3.919807,2.799863 1.458842,0.213323 4.376438,0.639958 4.376438,0.639958 0,-3.441787 0,-10.325363 0,-10.325363 0,0 -2.995697,-1.399393 -4.493591,-2.099111 -0.682268,-2.458394 -1.364494,-4.916636 -2.046762,-7.375029 -1.119967,-1.4596 -2.239866,-2.91911 -3.359834,-4.37871 -0.9053,-0.820172 -1.810546,-1.640295 -2.715846,-2.460467 -1.959944,-1.146633 -3.91977,-2.293198 -5.879712,-3.43983 -2.386596,-0.58665 -4.773047,-1.173264 -7.159647,-1.759915 2.493265,1.266632 4.986421,2.533208 7.479633,3.799813 z"
         sodipodi:nodetypes="ccccccccccccc" /><path
         style="fill:#ffffff;fill-opacity:0.992157;fill-rule:evenodd;stroke-width:3.96875;stroke-linejoin:bevel;filter:url(#filter47)"
         d="m 45.117783,51.584131 c 1.14661,0.54664 2.429109,2.149764 2.53545,3.128102 0.106341,0.978338 -1.221138,2.83681 -1.184942,3.191534 0.0362,0.354724 1.629979,0.67348 1.829788,2.761483 0.199809,2.088004 -0.303419,8.864813 -0.356353,12.384873 -0.05293,3.52006 0.2392,5.21974 -0.01703,6.352562 -0.256233,1.132823 -1.046978,1.659986 -1.900288,1.486658 -0.853311,-0.173329 -1.760255,-1.053598 -3.172986,-2.532968 -1.412732,-1.47937 -3.388872,-3.620189 -4.722432,-6.118995 -1.33356,-2.498806 -2.22423,-5.802904 -2.19886,-8.365316 0.02537,-2.562411 0.956573,-5.0174 2.01287,-6.997955 1.056296,-1.980556 2.321691,-3.676723 3.574963,-5.35664 1.226607,-0.239989 2.453213,-0.479977 3.599823,0.06666 z m 45.231074,0 c -1.14661,0.54664 -2.429109,2.149764 -2.53545,3.128102 -0.106341,0.978338 1.221138,2.83681 1.184942,3.191534 -0.0362,0.354724 -1.629979,0.67348 -1.829788,2.761483 -0.199809,2.088004 0.303419,8.864813 0.356353,12.384873 0.05293,3.52006 -0.2392,5.21974 0.01703,6.352562 0.256233,1.132823 1.046978,1.659986 1.900288,1.486658 0.853311,-0.173329 1.760255,-1.053598 3.172986,-2.532968 1.412732,-1.47937 3.388872,-3.620189 4.722432,-6.118995 1.33356,-2.498806 2.22423,-5.802904 2.19886,-8.365316 -0.02537,-2.562411 -0.956573,-5.0174 -2.01287,-6.997955 -1.056296,-1.980556 -2.321691,-3.676723 -3.574963,-5.35664 -1.226607,-0.239989 -2.453213,-0.479977 -3.599823,0.06666 z"
         id="path36"
         inkscape:path-effect="#path-effect43;#path-effect59"
         inkscape:original-d="m 45.19778,50.797503 c 1.066613,1.333268 2.349112,2.936392 3.19984,3.999803 -0.638046,0.893265 -2.906001,2.079969 -2.399881,3.359835 0.506748,0.10135 2.100531,0.420106 2.799863,0.559972 -0.299714,4.036141 -0.802943,10.81295 -1.199942,16.159207 0.08316,1.729608 0.583266,3.393543 0.879958,5.119749 -0.809158,0.539439 -1.599903,1.066603 -2.399881,1.599921 -0.906643,-0.879976 -1.813587,-1.760245 -2.719868,-2.639871 -1.976271,-2.026417 -3.895322,-4.219933 -5.759716,-6.239694 -1.53479,-2.780512 -2.637402,-6.027478 -2.479879,-9.199546 0.837224,-2.207226 1.446526,-4.784315 2.639871,-6.95966 1.241148,-1.663666 3.759815,-5.03975 3.759815,-5.03975 0,0 2.453213,-0.479977 3.67982,-0.719966 z"
         sodipodi:nodetypes="caaaaccaaaacc" /><path
         style="mix-blend-mode:normal;fill:#ffffff;fill-opacity:0.992157;fill-rule:evenodd;stroke-width:3.96875;stroke-linejoin:bevel;filter:url(#filter61)"
         d="m 49.104095,19.125694 c 1.480124,1.140018 3.346622,3.086508 4.735106,4.998323 1.388484,1.911816 5.43999,10.265436 7.314776,14.000587 1.874786,3.735151 2.682886,5.179936 3.469521,6.073227 0.786635,0.893291 1.47992,1.106609 1.982673,1.239921 0.502754,0.133311 0.814945,0.186609 0.97105,0.773257 0.156104,0.586649 0.156104,1.706581 -0.373324,2.21325 -0.529427,0.506668 -1.588239,0.400009 -3.304287,-0.453299 -1.716048,-0.853308 -4.089168,-2.453165 -5.835784,-4.719767 -1.746617,-2.266601 -2.866539,-5.19973 -3.853166,-8.086284 -0.986627,-2.886553 -1.839884,-5.7263 -3.333173,-8.626215 -1.49329,-2.899914 -3.626434,-5.859652 -4.639737,-7.406273 -1.013303,-1.546622 -0.907116,-1.679355 -0.304485,-1.578916 0.60263,0.100439 1.690707,0.43217 3.17083,1.572189 z m 37.25845,0 c -1.480124,1.140018 -3.346622,3.086508 -4.735106,4.998323 -1.388484,1.911816 -5.43999,10.265436 -7.314776,14.000587 -1.874786,3.735151 -2.682886,5.179936 -3.469521,6.073227 -0.786635,0.893291 -1.47992,1.106609 -1.982673,1.239921 -0.502754,0.133311 -0.814945,0.186609 -0.97105,0.773257 -0.156104,0.586649 -0.156104,1.706581 0.373324,2.21325 0.529427,0.506668 1.588239,0.400009 3.304287,-0.453299 1.716048,-0.853308 4.089168,-2.453165 5.835784,-4.719767 1.746617,-2.266601 2.866539,-5.19973 3.853166,-8.086284 0.986627,-2.886553 1.839884,-5.7263 3.333173,-8.626215 1.49329,-2.899914 3.626434,-5.859652 4.639737,-7.406273 1.013303,-1.546622 0.907116,-1.679355 0.304485,-1.578916 -0.60263,0.100439 -1.690707,0.43217 -3.17083,1.572189 z"
         id="path59"
         inkscape:path-effect="#path-effect61;#path-effect63"
         inkscape:original-d="m 48.717604,18.3191 c 1.866615,1.946612 3.733113,3.893102 5.599726,5.839712 0.910355,1.877021 4.961861,10.230641 7.759619,15.999214 0.951814,1.701729 1.759914,3.146514 2.63987,4.719768 0.693314,0.213328 1.386599,0.426646 2.079897,0.639969 0.312209,0.0533 0.6244,0.106598 0.936609,0.159898 0,1.119997 0,2.239929 0,3.35993 -1.058855,-0.106664 -2.117667,-0.213323 -3.176497,-0.319984 -2.373266,-1.599955 -4.746386,-3.199812 -7.119651,-4.799767 -1.119968,-2.933248 -2.23989,-5.866377 -3.359835,-8.799566 -0.853309,-2.839918 -1.706566,-5.679665 -2.559874,-8.519581 -2.133271,-2.959913 -4.266415,-5.919651 -6.399686,-8.879564 0.106665,-0.13333 0.212852,-0.266063 0.319987,-0.39998 1.098126,0.334795 2.186203,0.666526 3.279835,0.999951 z"
         sodipodi:nodetypes="cccccccccccccc" /><path
         style="fill:#ffffff;fill-opacity:0.992157;fill-rule:evenodd;stroke-width:3.96875;stroke-linejoin:bevel;filter:url(#filter2)"
         id="path63"
         sodipodi:type="arc"
         sodipodi:cx="67.733322"
         sodipodi:cy="33.518356"
         sodipodi:rx="4.6499648"
         sodipodi:ry="0.57997155"
         sodipodi:start="0"
         sodipodi:end="6.2249755"
         sodipodi:open="true"
         sodipodi:arc-type="arc"
         d="m 72.383287,33.518356 a 4.6499648,0.57997155 0 0 1 -4.582299,0.57991 4.6499648,0.57997155 0 0 1 -4.715661,-0.563032 4.6499648,0.57997155 0 0 1 4.445054,-0.596297 4.6499648,0.57997155 0 0 1 4.84503,0.545678" /></g><g
       id="g3"
       style="display:none"><rect
         style="display:inline;fill:#000000;fill-opacity:1;fill-rule:evenodd;stroke-width:5.88731;stroke-linejoin:bevel"
         id="rect3"
         width="135.46664"
         height="135.46664"
         x="-2.1435546e-06"
         y="-2.1435546e-06" /><path
         id="path1"
         style="display:inline;fill:#00ff00;fill-opacity:1;fill-rule:evenodd;stroke-width:3.96875;stroke-linejoin:bevel"
         d="m 40.236854,14.612901 c -1.330196,0.935195 -1.734278,2.845562 -1.998366,4.450015 -0.394792,2.398538 0.262966,4.867355 0.697631,7.258988 0.435375,2.395544 1.378927,4.674331 1.904277,7.051765 0.517462,2.341734 0.218767,4.912923 1.225764,7.089489 0.457183,0.988175 1.483771,1.605375 2.092896,2.507857 0.833776,1.235324 1.15873,2.79522 2.112015,3.940844 1.089673,1.30953 2.558989,0.667705 3.941153,1.849942 0.903307,0.772646 1.639768,3.879842 2.657927,3.429321 0.63923,-0.28285 0.302673,-1.415095 0.131775,-2.092895 -0.561122,-2.225469 -4.854142,-3.898037 -3.639054,-5.84512 0.622171,-0.996981 2.494401,-0.237308 3.507279,0.358634 1.06996,0.629528 1.346034,2.092541 2.130619,3.054594 0.750119,0.919791 1.381658,2.067835 2.451012,2.582787 0.85831,0.413323 2.508817,1.135919 2.847372,0.245463 0.306501,-0.806151 -1.405668,-1.001755 -2.074292,-1.546516 -0.469393,-0.382438 -1.015433,-0.707253 -1.35754,-1.206804 -0.41684,-0.608677 -0.444234,-1.413393 -0.773079,-2.073775 -0.448459,-0.900589 -0.924235,-1.820425 -1.621606,-2.54558 -1.919049,-1.995508 -4.737807,-2.914105 -6.825423,-4.732527 -1.049834,-0.91446 -2.256705,-1.803957 -2.828292,-3.073475 -0.50577,-1.123337 -0.854736,-2.540931 -0.377158,-3.676539 0.305223,-0.725774 1.077269,-1.309887 1.847911,-1.471189 1.317635,-0.275793 2.745517,0.349993 3.90312,1.037146 1.311266,0.778368 2.360538,2.013224 3.148645,3.31866 0.565961,0.937469 0.514716,2.158848 1.055749,3.110921 0.583749,1.027242 1.389373,1.944417 2.300634,2.696476 1.002892,0.827682 2.195477,1.41877 3.394028,1.923077 0.584805,0.246065 1.202978,0.423044 1.828711,0.527936 0.850337,0.142542 2.271243,0.93595 2.583225,0.132173 0.268158,-0.690871 -1.082532,-1.028795 -1.715577,-1.414106 -0.928576,-0.56519 -2.049797,-0.751606 -2.998426,-1.28245 -0.806467,-0.451292 -1.581039,-0.978116 -2.262554,-1.602288 -0.44394,-0.406587 -0.895892,-0.840141 -1.168921,-1.376659 -0.5572,-1.094933 -0.264823,-2.511427 -0.86713,-3.58221 -1.148311,-2.041469 -3.129085,-3.521416 -4.97799,-4.959387 -1.334899,-1.038207 -2.896733,-1.746079 -4.355289,-2.601908 -0.901058,-0.528709 -2.105769,-0.716499 -2.715596,-1.564762 -0.557642,-0.775675 -0.805777,-1.885079 -0.56534,-2.809647 0.287196,-1.104373 1.126776,-2.290863 2.22467,-2.601908 0.908343,-0.257343 1.893521,0.370357 2.696198,0.867371 0.92581,0.573257 1.667459,1.438734 2.281633,2.337922 0.66162,0.96865 0.766489,2.25369 1.451909,3.205648 0.556087,0.772332 1.142584,1.890644 2.092896,1.942 0.36778,0.01987 0.824314,-0.296836 0.88625,-0.659908 0.179694,-1.053377 -1.281668,-1.71941 -1.791105,-2.658752 -0.598811,-1.104139 -0.808795,-2.401893 -1.471029,-3.469198 -1.052746,-1.696684 -2.304752,-3.347256 -3.902962,-4.544226 -1.148249,-0.859975 -2.508838,-1.524381 -3.921803,-1.7725 -1.049342,-0.184266 -2.315209,-0.367445 -3.186767,0.245303 z m -0.104425,30.075838 c -0.845052,0.360823 -1.400234,1.333417 -1.629875,2.22312 -0.692041,2.681184 -0.26476,5.805895 1.055749,8.239806 1.48632,2.739528 4.221857,4.923939 7.127174,6.052344 1.5888,0.61708 4.483634,1.773858 5.109804,0.188618 0.397718,-1.00688 -1.635175,-1.419209 -2.451329,-2.130461 -1.145076,-0.997897 -2.370341,-1.911302 -3.431196,-2.998307 -1.153344,-1.181773 -2.42194,-2.335398 -3.167924,-3.808591 -0.51783,-1.022628 -0.504872,-2.237911 -0.829566,-3.337224 -0.438576,-1.484881 -0.309953,-3.412898 -1.508436,-4.393132 -0.07141,-0.05841 -0.189554,-0.0724 -0.274401,-0.03617 z m -6.310725,13.44879 c -1.281809,0.144214 -2.625109,0.92696 -3.294889,2.029333 -0.625094,1.028826 -0.793975,2.520911 -0.264067,3.601847 0.770381,1.571466 3.108733,1.694957 4.37441,2.903698 2.061805,1.969056 4.401979,4.125172 5.05292,6.90087 0.302904,1.29162 -0.113026,0.758852 -0.395682,2.055054 -0.173124,0.79391 0.321274,3.004761 1.470749,3.148883 0.669164,0.0839 0.68921,-1.24387 1.282251,-1.564996 0.511464,-0.276953 1.175022,-0.346722 1.7347,-0.188421 0.846235,0.239352 0.866622,1.649386 1.571321,2.573626 1.308992,1.716791 3.177221,3.143484 4.386811,2.045569 0.968328,-0.878926 -2.017344,-2.011018 -2.77192,-3.205051 -0.759233,-1.2014 -0.989845,-2.681272 -1.71558,-3.9032 -0.855716,-1.44078 -2.257345,-2.514719 -3.073396,-3.97833 -0.565686,-1.014573 -2.184422,-2.605803 -1.225963,-3.262092 1.509519,-1.033618 2.481446,4.526176 4.091778,3.657934 0.676769,-0.364893 -0.01719,-1.583393 -0.339355,-2.281515 -1.799347,-3.899159 -4.899874,-7.318284 -8.466149,-9.710517 -0.707021,-0.474265 -1.571922,-0.917872 -2.417939,-0.822688 z M 95.229786,14.612901 c 1.330196,0.935195 1.734278,2.845562 1.998366,4.450015 0.394792,2.398538 -0.262966,4.867355 -0.697631,7.258988 -0.435375,2.395544 -1.378927,4.674331 -1.904277,7.051765 -0.517462,2.341734 -0.218767,4.912923 -1.225764,7.089489 -0.457183,0.988175 -1.483771,1.605375 -2.092896,2.507857 -0.833776,1.235324 -1.15873,2.79522 -2.112015,3.940844 -1.089673,1.30953 -2.558989,0.667705 -3.941153,1.849942 -0.903307,0.772646 -1.639768,3.879842 -2.657927,3.429321 -0.63923,-0.28285 -0.302673,-1.415095 -0.131775,-2.092895 0.561122,-2.225469 4.854142,-3.898037 3.639054,-5.84512 -0.622171,-0.996981 -2.494401,-0.237308 -3.507279,0.358634 -1.06996,0.629528 -1.346034,2.092541 -2.130619,3.054594 -0.750119,0.919791 -1.381658,2.067835 -2.451012,2.582787 -0.85831,0.413323 -2.508817,1.135919 -2.847372,0.245463 -0.306501,-0.806151 1.405668,-1.001755 2.074292,-1.546516 0.469393,-0.382438 1.015433,-0.707253 1.35754,-1.206804 0.41684,-0.608677 0.444234,-1.413393 0.773079,-2.073775 0.448459,-0.900589 0.924235,-1.820425 1.621606,-2.54558 1.919049,-1.995508 4.737807,-2.914105 6.825423,-4.732527 1.049834,-0.91446 2.256705,-1.803957 2.828292,-3.073475 0.50577,-1.123337 0.854736,-2.540931 0.377158,-3.676539 -0.305223,-0.725774 -1.077269,-1.309887 -1.847911,-1.471189 -1.317635,-0.275793 -2.745517,0.349993 -3.90312,1.037146 -1.311266,0.778368 -2.360538,2.013224 -3.148645,3.31866 -0.565961,0.937469 -0.514716,2.158848 -1.055749,3.110921 -0.583749,1.027242 -1.389373,1.944417 -2.300634,2.696476 -1.002892,0.827682 -2.195477,1.41877 -3.394028,1.923077 -0.584805,0.246065 -1.202978,0.423044 -1.828711,0.527936 -0.850337,0.142542 -2.271243,0.93595 -2.583225,0.132173 -0.268158,-0.690871 1.082532,-1.028795 1.715577,-1.414106 0.928576,-0.56519 2.049797,-0.751606 2.998426,-1.28245 0.806467,-0.451292 1.581039,-0.978116 2.262554,-1.602288 0.44394,-0.406587 0.895892,-0.840141 1.168921,-1.376659 0.5572,-1.094933 0.264823,-2.511427 0.86713,-3.58221 1.148311,-2.041469 3.129085,-3.521416 4.97799,-4.959387 1.334899,-1.038207 2.896733,-1.746079 4.355289,-2.601908 0.901058,-0.528709 2.105769,-0.716499 2.715596,-1.564762 0.557642,-0.775675 0.805777,-1.885079 0.56534,-2.809647 -0.287196,-1.104373 -1.126776,-2.290863 -2.22467,-2.601908 -0.908343,-0.257343 -1.893521,0.370357 -2.696198,0.867371 -0.92581,0.573257 -1.667459,1.438734 -2.281633,2.337922 -0.66162,0.96865 -0.766489,2.25369 -1.451909,3.205648 -0.556087,0.772332 -1.142584,1.890644 -2.092896,1.942 -0.36778,0.01987 -0.824314,-0.296836 -0.88625,-0.659908 -0.179694,-1.053377 1.281668,-1.71941 1.791105,-2.658752 0.598811,-1.104139 0.808795,-2.401893 1.471029,-3.469198 1.052746,-1.696684 2.304752,-3.347256 3.902962,-4.544226 1.148249,-0.859975 2.508838,-1.524381 3.921803,-1.7725 1.049342,-0.184266 2.315209,-0.367445 3.186767,0.245303 z m 0.104425,30.075838 c 0.845052,0.360823 1.400234,1.333417 1.629875,2.22312 0.692041,2.681184 0.26476,5.805895 -1.055749,8.239806 -1.48632,2.739528 -4.221857,4.923939 -7.127174,6.052344 -1.5888,0.61708 -4.483634,1.773858 -5.109804,0.188618 -0.397718,-1.00688 1.635175,-1.419209 2.451329,-2.130461 1.145076,-0.997897 2.370341,-1.911302 3.431196,-2.998307 1.153344,-1.181773 2.42194,-2.335398 3.167924,-3.808591 0.51783,-1.022628 0.504872,-2.237911 0.829566,-3.337224 0.438576,-1.484881 0.309953,-3.412898 1.508436,-4.393132 0.07141,-0.05841 0.189554,-0.0724 0.274401,-0.03617 z m 6.310729,13.44879 c 1.28181,0.144214 2.62511,0.92696 3.29489,2.029333 0.62509,1.028826 0.79397,2.520911 0.26406,3.601847 -0.77038,1.571466 -3.10873,1.694957 -4.37441,2.903698 -2.061803,1.969056 -4.401977,4.125172 -5.052918,6.90087 -0.302904,1.29162 0.113026,0.758852 0.395682,2.055054 0.173124,0.79391 -0.321274,3.004761 -1.470749,3.148883 -0.669164,0.0839 -0.68921,-1.24387 -1.282251,-1.564996 -0.511464,-0.276953 -1.175022,-0.346722 -1.7347,-0.188421 -0.846235,0.239352 -0.866622,1.649386 -1.571321,2.573626 -1.308992,1.716791 -3.177221,3.143484 -4.386811,2.045569 -0.968328,-0.878926 2.017344,-2.011018 2.77192,-3.205051 0.759233,-1.2014 0.989845,-2.681272 1.71558,-3.9032 0.855716,-1.44078 2.257345,-2.514719 3.073396,-3.97833 0.565686,-1.014573 2.184422,-2.605803 1.225963,-3.262092 -1.509519,-1.033618 -2.481446,4.526176 -4.091778,3.657934 -0.676769,-0.364893 0.01719,-1.583393 0.339355,-2.281515 1.799347,-3.899159 4.899874,-7.318284 8.466149,-9.710517 0.707021,-0.474265 1.571923,-0.917872 2.417943,-0.822688 z"
         sodipodi:nodetypes="aaaaaasssaaaaaaaaaaaaaaaaaaaaaaaaaaaaaaaaaaaaaaaaaaaaaaaaaaaaaaaaaassaasssaaaaaassa"
         inkscape:path-effect="#path-effect3"
         inkscape:original-d="m 40.236854,14.612901 c -1.330196,0.935195 -1.734278,2.845562 -1.998366,4.450015 -0.394792,2.398538 0.262966,4.867355 0.697631,7.258988 0.435375,2.395544 1.378927,4.674331 1.904277,7.051765 0.517462,2.341734 0.218767,4.912923 1.225764,7.089489 0.457183,0.988175 1.483771,1.605375 2.092896,2.507857 0.833776,1.235324 1.15873,2.79522 2.112015,3.940844 1.089673,1.30953 2.558989,0.667705 3.941153,1.849942 0.903307,0.772646 1.639768,3.879842 2.657927,3.429321 0.63923,-0.28285 0.302673,-1.415095 0.131775,-2.092895 -0.561122,-2.225469 -4.854142,-3.898037 -3.639054,-5.84512 0.622171,-0.996981 2.494401,-0.237308 3.507279,0.358634 1.06996,0.629528 1.346034,2.092541 2.130619,3.054594 0.750119,0.919791 1.381658,2.067835 2.451012,2.582787 0.85831,0.413323 2.508817,1.135919 2.847372,0.245463 0.306501,-0.806151 -1.405668,-1.001755 -2.074292,-1.546516 -0.469393,-0.382438 -1.015433,-0.707253 -1.35754,-1.206804 -0.41684,-0.608677 -0.444234,-1.413393 -0.773079,-2.073775 -0.448459,-0.900589 -0.924235,-1.820425 -1.621606,-2.54558 -1.919049,-1.995508 -4.737807,-2.914105 -6.825423,-4.732527 -1.049834,-0.91446 -2.256705,-1.803957 -2.828292,-3.073475 -0.50577,-1.123337 -0.854736,-2.540931 -0.377158,-3.676539 0.305223,-0.725774 1.077269,-1.309887 1.847911,-1.471189 1.317635,-0.275793 2.745517,0.349993 3.90312,1.037146 1.311266,0.778368 2.360538,2.013224 3.148645,3.31866 0.565961,0.937469 0.514716,2.158848 1.055749,3.110921 0.583749,1.027242 1.389373,1.944417 2.300634,2.696476 1.002892,0.827682 2.195477,1.41877 3.394028,1.923077 0.584805,0.246065 1.202978,0.423044 1.828711,0.527936 0.850337,0.142542 2.271243,0.93595 2.583225,0.132173 0.268158,-0.690871 -1.082532,-1.028795 -1.715577,-1.414106 -0.928576,-0.56519 -2.049797,-0.751606 -2.998426,-1.28245 -0.806467,-0.451292 -1.581039,-0.978116 -2.262554,-1.602288 -0.44394,-0.406587 -0.895892,-0.840141 -1.168921,-1.376659 -0.5572,-1.094933 -0.264823,-2.511427 -0.86713,-3.58221 -1.148311,-2.041469 -3.129085,-3.521416 -4.97799,-4.959387 -1.334899,-1.038207 -2.896733,-1.746079 -4.355289,-2.601908 -0.901058,-0.528709 -2.105769,-0.716499 -2.715596,-1.564762 -0.557642,-0.775675 -0.805777,-1.885079 -0.56534,-2.809647 0.287196,-1.104373 1.126776,-2.290863 2.22467,-2.601908 0.908343,-0.257343 1.893521,0.370357 2.696198,0.867371 0.92581,0.573257 1.667459,1.438734 2.281633,2.337922 0.66162,0.96865 0.766489,2.25369 1.451909,3.205648 0.556087,0.772332 1.142584,1.890644 2.092896,1.942 0.36778,0.01987 0.824314,-0.296836 0.88625,-0.659908 0.179694,-1.053377 -1.281668,-1.71941 -1.791105,-2.658752 -0.598811,-1.104139 -0.808795,-2.401893 -1.471029,-3.469198 -1.052746,-1.696684 -2.304752,-3.347256 -3.902962,-4.544226 -1.148249,-0.859975 -2.508838,-1.524381 -3.921803,-1.7725 -1.049342,-0.184266 -2.315209,-0.367445 -3.186767,0.245303 z m -0.104425,30.075838 c -0.845052,0.360823 -1.400234,1.333417 -1.629875,2.22312 -0.692041,2.681184 -0.26476,5.805895 1.055749,8.239806 1.48632,2.739528 4.221857,4.923939 7.127174,6.052344 1.5888,0.61708 4.483634,1.773858 5.109804,0.188618 0.397718,-1.00688 -1.635175,-1.419209 -2.451329,-2.130461 -1.145076,-0.997897 -2.370341,-1.911302 -3.431196,-2.998307 -1.153344,-1.181773 -2.42194,-2.335398 -3.167924,-3.808591 -0.51783,-1.022628 -0.504872,-2.237911 -0.829566,-3.337224 -0.438576,-1.484881 -0.309953,-3.412898 -1.508436,-4.393132 -0.07141,-0.05841 -0.189554,-0.0724 -0.274401,-0.03617 z m -6.310725,13.44879 c -1.281809,0.144214 -2.625109,0.92696 -3.294889,2.029333 -0.625094,1.028826 -0.793975,2.520911 -0.264067,3.601847 0.770381,1.571466 3.108733,1.694957 4.37441,2.903698 2.061805,1.969056 4.401979,4.125172 5.05292,6.90087 0.302904,1.29162 -0.113026,0.758852 -0.395682,2.055054 -0.173124,0.79391 0.321274,3.004761 1.470749,3.148883 0.669164,0.0839 0.68921,-1.24387 1.282251,-1.564996 0.511464,-0.276953 1.175022,-0.346722 1.7347,-0.188421 0.846235,0.239352 0.866622,1.649386 1.571321,2.573626 1.308992,1.716791 3.177221,3.143484 4.386811,2.045569 0.968328,-0.878926 -2.017344,-2.011018 -2.77192,-3.205051 -0.759233,-1.2014 -0.989845,-2.681272 -1.71558,-3.9032 -0.855716,-1.44078 -2.257345,-2.514719 -3.073396,-3.97833 -0.565686,-1.014573 -2.184422,-2.605803 -1.225963,-3.262092 1.509519,-1.033618 2.481446,4.526176 4.091778,3.657934 0.676769,-0.364893 -0.01719,-1.583393 -0.339355,-2.281515 -1.799347,-3.899159 -4.899874,-7.318284 -8.466149,-9.710517 -0.707021,-0.474265 -1.571922,-0.917872 -2.417939,-0.822688 z" /></g></g></svg>
