<?xml version="1.0" encoding="UTF-8" standalone="no"?>
<!-- Created with Inkscape (http://www.inkscape.org/) -->

<svg
   width="135.46666mm"
   height="135.46666mm"
   viewBox="0 0 135.46666 135.46666"
   version="1.1"
   id="svg1"
   inkscape:version="1.3.2 (091e20e, 2023-11-25, custom)"
   xml:space="preserve"
   sodipodi:docname="Togruta_Lekku_Rear1_east.svg"
   inkscape:export-filename="Output\Togruta_Lekku_Rear1_eastm.png"
   inkscape:export-xdpi="96"
   inkscape:export-ydpi="96"
   xmlns:inkscape="http://www.inkscape.org/namespaces/inkscape"
   xmlns:sodipodi="http://sodipodi.sourceforge.net/DTD/sodipodi-0.dtd"
   xmlns="http://www.w3.org/2000/svg"
   xmlns:svg="http://www.w3.org/2000/svg"><sodipodi:namedview
     id="namedview1"
     pagecolor="#ffffff"
     bordercolor="#000000"
     borderopacity="0.25"
     inkscape:showpageshadow="2"
     inkscape:pageopacity="0.0"
     inkscape:pagecheckerboard="0"
     inkscape:deskcolor="#d1d1d1"
     inkscape:document-units="px"
     inkscape:zoom="4.613594"
     inkscape:cx="29.044602"
     inkscape:cy="253.92351"
     inkscape:window-width="3840"
     inkscape:window-height="2066"
     inkscape:window-x="-11"
     inkscape:window-y="-11"
     inkscape:window-maximized="1"
     inkscape:current-layer="layer1" /><defs
     id="defs1"><inkscape:path-effect
       effect="bspline"
       id="path-effect15"
       is_visible="true"
       lpeversion="1.3"
       weight="33.333333"
       steps="2"
       helper_size="0"
       apply_no_weight="true"
       apply_with_weight="true"
       only_selected="false"
       uniform="false" /><inkscape:path-effect
       effect="bspline"
       id="path-effect14"
       is_visible="true"
       lpeversion="1.3"
       weight="33.333333"
       steps="2"
       helper_size="0"
       apply_no_weight="true"
       apply_with_weight="true"
       only_selected="false"
       uniform="false" /><inkscape:path-effect
       effect="bspline"
       id="path-effect13"
       is_visible="true"
       lpeversion="1.3"
       weight="33.333333"
       steps="2"
       helper_size="0"
       apply_no_weight="true"
       apply_with_weight="true"
       only_selected="false"
       uniform="false" /><inkscape:path-effect
       effect="bspline"
       id="path-effect12"
       is_visible="true"
       lpeversion="1.3"
       weight="33.333333"
       steps="2"
       helper_size="0"
       apply_no_weight="true"
       apply_with_weight="true"
       only_selected="false"
       uniform="false" /><inkscape:path-effect
       effect="bspline"
       id="path-effect11"
       is_visible="true"
       lpeversion="1.3"
       weight="33.333333"
       steps="2"
       helper_size="0"
       apply_no_weight="true"
       apply_with_weight="true"
       only_selected="false"
       uniform="false" /><inkscape:path-effect
       effect="bspline"
       id="path-effect10"
       is_visible="true"
       lpeversion="1.3"
       weight="33.333333"
       steps="2"
       helper_size="0"
       apply_no_weight="true"
       apply_with_weight="true"
       only_selected="false"
       uniform="false" /><inkscape:path-effect
       effect="bspline"
       id="path-effect9"
       is_visible="true"
       lpeversion="1.3"
       weight="33.333333"
       steps="2"
       helper_size="0"
       apply_no_weight="true"
       apply_with_weight="true"
       only_selected="false"
       uniform="false" /><inkscape:path-effect
       effect="bspline"
       id="path-effect8"
       is_visible="true"
       lpeversion="1.3"
       weight="33.333333"
       steps="2"
       helper_size="0"
       apply_no_weight="true"
       apply_with_weight="true"
       only_selected="false"
       uniform="false" /><inkscape:path-effect
       effect="bspline"
       id="path-effect6"
       is_visible="true"
       lpeversion="1.3"
       weight="33.333333"
       steps="2"
       helper_size="0"
       apply_no_weight="true"
       apply_with_weight="true"
       only_selected="false"
       uniform="false" /><inkscape:path-effect
       effect="bspline"
       id="path-effect4"
       is_visible="true"
       lpeversion="1.3"
       weight="33.333333"
       steps="2"
       helper_size="0"
       apply_no_weight="true"
       apply_with_weight="true"
       only_selected="false"
       uniform="false" /><inkscape:path-effect
       effect="bspline"
       id="path-effect3"
       is_visible="true"
       lpeversion="1.3"
       weight="33.333333"
       steps="2"
       helper_size="0"
       apply_no_weight="true"
       apply_with_weight="true"
       only_selected="false"
       uniform="false" /><inkscape:path-effect
       effect="bspline"
       id="path-effect2"
       is_visible="true"
       lpeversion="1.3"
       weight="33.333333"
       steps="2"
       helper_size="0"
       apply_no_weight="true"
       apply_with_weight="true"
       only_selected="false"
       uniform="false" /><inkscape:path-effect
       effect="bspline"
       id="path-effect1"
       is_visible="true"
       lpeversion="1.3"
       weight="33.333333"
       steps="2"
       helper_size="0"
       apply_no_weight="true"
       apply_with_weight="true"
       only_selected="false"
       uniform="false" /></defs><g
     inkscape:label="Layer 1"
     inkscape:groupmode="layer"
     id="layer1"><rect
       style="fill:#000000;fill-opacity:0;fill-rule:evenodd;stroke-width:3.73045;stroke-linejoin:bevel"
       id="rect1"
       width="135.46667"
       height="135.46667"
       x="-6.9255066e-06"
       y="-6.9255066e-06" /><g
       id="g15"><path
         style="fill:#000000;fill-rule:evenodd;stroke-width:3.96875;stroke-linejoin:bevel"
         d="m 41.957403,58.921492 c -1.946478,-2.284408 -3.622613,-2.41958 -5.542077,-1.378733 -1.919464,1.040847 -4.082174,3.257624 -6.23143,6.501796 -2.149257,3.244171 -4.284933,7.515523 -5.812386,11.084093 -1.527453,3.568571 -2.446605,6.434162 -3.392819,7.988642 -0.946214,1.554481 -1.919433,1.797786 -2.217002,2.515676 -0.29757,0.71789 -0.02518,1.576981 -0.390985,2.592305 -0.365811,1.015324 -1.501233,1.772272 -2.352823,2.677936 -0.85159,0.905664 -1.4193,1.959984 -1.716679,3.500966 -0.297378,1.540982 -0.324411,3.568522 -0.310892,5.44743 0.01352,1.878907 0.06759,3.609077 0.324417,5.163567 0.256831,1.55449 0.716407,2.93322 1.135445,3.91998 0.419038,0.98677 0.79751,1.58151 1.284136,1.87889 0.486626,0.29738 1.081371,0.29738 1.946484,0.27034 0.865113,-0.027 2.000534,-0.0811 3.67669,-0.64883 1.676156,-0.56774 3.892931,-1.64909 5.569075,-3.10897 1.676144,-1.45987 2.811569,-3.29818 4.663452,-6.12331 1.851882,-2.825137 4.4201,-6.636911 7.285778,-10.570457 2.865679,-3.933546 6.028642,-7.988626 7.488497,-11.435542 1.459856,-3.446915 1.216551,-6.285474 -0.01354,-9.921646 C 46.120658,65.639453 43.903881,61.2059 41.957403,58.921492 Z"
         id="path1"
         inkscape:path-effect="#path-effect1"
         inkscape:original-d="m 41.687058,56.772256 c -1.676133,-0.135171 -3.352268,-0.270344 -5.028401,-0.405516 -2.162794,2.216867 -4.325504,4.433644 -6.488258,6.650466 -2.135759,4.271521 -4.271436,8.542872 -6.407154,12.814308 -0.919188,2.865705 -1.83834,5.731296 -2.75751,8.596942 -0.973258,0.243314 -1.946477,0.48662 -2.919716,0.72993 1.164591,0.943095 1.040225,1.927988 1.054342,3.325231 -1.135468,0.756978 -2.27089,1.513927 -3.406336,2.27089 -0.567734,1.054364 -1.135445,2.108684 -1.703167,3.163027 -0.02703,2.027621 -0.05407,4.055161 -0.0811,6.082746 0.05407,1.73023 0.108138,3.4604 0.162207,5.1906 0.459594,1.37878 0.91917,2.75751 1.378755,4.13627 0.378489,0.59477 0.756963,1.18951 1.135445,1.78427 0.594769,0 1.189514,0 1.784271,0 1.135468,-0.0541 2.27089,-0.10814 3.406335,-0.16221 2.216866,-1.0814 4.433643,-2.16275 6.650464,-3.24413 1.13547,-1.83837 2.270892,-3.67668 3.406336,-5.51502 2.568321,-3.811926 5.136538,-7.623701 7.704807,-11.435553 3.163088,-4.05524 6.32605,-8.110321 9.489077,-12.165482 -0.243316,-2.838669 -0.486619,-5.677228 -0.72993,-8.515839 C 46.120657,65.639454 43.90388,61.2059 41.687058,56.772256 Z"
         sodipodi:nodetypes="ccccccccccccccccccccc" /><path
         style="fill:#f0f0f0;fill-rule:evenodd;stroke-width:3.96875;stroke-linejoin:bevel;fill-opacity:1"
         d="m 43.674086,60.543558 c -1.716685,-1.50041 -3.311715,-0.608274 -5.217662,1.284163 -1.905948,1.892437 -4.122725,4.785061 -5.974597,7.745359 -1.851872,2.960298 -3.338734,5.988091 -4.866194,9.353911 -1.527459,3.365821 -3.095424,7.06946 -3.919975,9.164632 -0.824551,2.095171 -0.905652,2.581781 -1.351728,3.122475 -0.446076,0.540695 -1.257091,1.13544 -1.878887,1.68965 -0.621795,0.554211 -1.054338,1.067854 -1.527445,1.878897 -0.473107,0.811043 -0.986751,1.919433 -1.270613,2.987302 -0.283862,1.067869 -0.337929,2.095156 -0.0811,3.446893 0.256833,1.35174 0.824544,3.02784 1.257099,3.89294 0.432556,0.8651 0.729923,0.91917 1.148962,0.9462 0.419039,0.027 0.959716,0.027 2.500703,-1.31119 1.540986,-1.33823 4.082172,-4.01459 6.94785,-7.48855 2.865678,-3.473963 6.055675,-7.745315 9.110592,-11.5572 3.054918,-3.811885 5.974575,-7.164084 7.704783,-9.732371 1.730207,-2.568287 2.270884,-4.352521 1.62204,-7.191174 -0.648844,-2.838652 -2.487146,-6.731527 -4.203832,-8.231937 z"
         id="path2"
         inkscape:path-effect="#path-effect2"
         inkscape:original-d="m 43.552431,58.151013 c -1.59503,0.892135 -3.19006,1.78427 -4.78509,2.676406 -2.216864,2.89274 -4.433642,5.785363 -6.650464,8.678045 -1.486924,3.027913 -2.973784,6.055707 -4.460676,9.083561 -1.568029,3.703786 -3.135993,7.407426 -4.703989,11.111141 -0.0811,0.486629 -0.162206,0.973238 -0.243309,1.459857 -0.811049,0.59477 -1.622065,1.189514 -2.433097,1.784273 -0.432559,0.513662 -0.865101,1.027306 -1.297652,1.54096 -0.513663,1.108432 -1.027307,2.216822 -1.540961,3.325233 -0.05407,1.027327 -0.108138,2.054614 -0.162206,3.081921 0.567734,1.67617 1.135445,3.35227 1.703167,5.0284 0.297385,0.0541 0.594757,0.10814 0.892136,0.16221 0.540699,0 1.081376,0 1.622064,0 2.541286,-2.67646 5.082468,-5.35282 7.623704,-8.029223 3.190123,-4.27152 6.38012,-8.542872 9.57018,-12.814308 2.919775,-3.352334 5.839431,-6.704534 8.759148,-10.056799 0.5407,-1.784308 1.081376,-3.568542 1.622065,-5.352815 -1.838378,-3.893032 -3.676679,-7.785907 -5.51502,-11.678862 z" /><path
         id="path5"
         style="fill:#dcdcdc;fill-opacity:1;fill-rule:evenodd;stroke-width:3.96875;stroke-linejoin:bevel"
         d="m 44.664974,61.668071 c -0.116915,0.06876 -1.08953,-0.328325 -1.215763,-0.244848 -1.676133,1.108409 -3.663175,5.104849 -4.877846,7.974308 -1.000309,2.363062 -0.873389,5.111752 -1.918749,7.455233 -2.850118,6.389377 -7.33439,11.949657 -11.629497,17.472279 -1.399976,1.80008 -3.019612,1.81484 -4.586424,5.07609 -0.855569,1.780827 -1.593917,5.708727 -1.593917,5.708727 0.432555,0.8651 0.730245,0.91916 1.149284,0.9462 0.419038,0.027 0.959637,0.0272 2.500622,-1.31103 1.540985,-1.33823 4.082222,-4.01499 6.947897,-7.48895 2.865675,-3.473959 6.05564,-7.745036 9.110555,-11.556917 3.054914,-3.811882 5.97475,-7.164455 7.704956,-9.73274 1.730206,-2.568284 2.27045,-4.352125 1.621606,-7.190775 -0.524294,-2.293756 -1.826875,-5.255619 -3.212724,-7.107577 z"
         sodipodi:nodetypes="csaaascssssssc" /><path
         id="path6"
         style="fill:#b5b5b5;fill-opacity:1;fill-rule:evenodd;stroke-width:3.96875;stroke-linejoin:bevel"
         d="m 46.20374,72.44129 c -1.169874,2.000794 -4.219742,2.099346 -5.870115,3.726629 -4.980013,4.91034 -9.240947,13.105388 -13.560304,19.85715 -0.739223,1.155509 -1.041639,3.042352 -1.832378,4.431551 -1.118455,1.96494 -4.071133,5.20077 -4.066248,5.42891 0.375617,-0.17111 0.880256,-0.49986 1.617989,-1.1405 1.540985,-1.33823 4.082221,-4.01499 6.947897,-7.48895 2.865675,-3.473959 6.055641,-7.745036 9.110555,-11.556917 3.054915,-3.811882 5.97475,-7.164455 7.704956,-9.73274 1.730205,-2.568284 2.27045,-4.352125 1.621606,-7.190775 z"
         sodipodi:nodetypes="cssaccssscc" /></g><g
       id="g16"><rect
         style="fill:#000000;fill-opacity:1;fill-rule:evenodd;stroke-width:3.73045;stroke-linejoin:bevel"
         id="rect1-8"
         width="135.46667"
         height="135.46667"
         x="-6.9255066e-06"
         y="-6.9255066e-06" /><path
         id="path9"
         style="fill:#00ff00;fill-opacity:1;fill-rule:evenodd;stroke-width:3.96875;stroke-linejoin:bevel"
         d="M 38.320142 60.683635 C 38.067136 60.70335 37.789803 60.962841 37.51554 61.210218 C 37.02796 61.649995 36.550458 62.051179 36.667013 63.348589 C 36.783567 64.645998 37.494067 66.839289 38.526331 68.961166 C 39.558595 71.083043 40.912285 73.133312 42.267705 74.378407 C 43.623124 75.623501 44.980377 76.063201 45.795655 76.184498 C 46.610932 76.305795 46.884024 76.108717 47.189885 75.735946 C 47.495746 75.363178 47.834457 74.814872 47.449301 74.425949 C 47.064144 74.037025 45.955317 73.80791 44.531132 72.536658 C 43.106947 71.265406 41.367314 68.952456 40.392367 66.658464 C 39.417421 64.364474 39.2071 62.089579 38.853443 61.191098 C 38.698718 60.798012 38.516925 60.668301 38.320142 60.683635 z M 35.396806 64.894748 C 35.185633 64.89963 34.850133 65.116988 34.390149 65.568608 C 33.338757 66.600883 31.637576 68.856792 30.222962 71.437501 C 28.808346 74.01821 27.68024 76.923576 26.552385 79.829237 C 27.852285 82.218761 29.26765 84.820509 30.704586 86.100689 C 32.141522 87.380867 34.158872 87.838421 35.392672 88.01065 C 36.626473 88.182879 37.238497 88.10685 38.20387 87.275294 C 39.169244 86.443739 40.488008 84.856942 40.736532 84.063604 C 40.985056 83.270264 40.163316 83.270423 38.925273 83.250733 C 37.687229 83.231041 36.168271 83.194902 34.925 82.490056 C 33.68173 81.78521 32.879874 80.479201 32.717383 78.500636 C 32.554892 76.522072 33.052123 73.903558 33.749878 71.533102 C 34.447634 69.162648 35.34569 67.040386 35.59421 65.883835 C 35.734003 65.233275 35.668315 64.88847 35.396806 64.894748 z M 25.381914 82.832154 C 25.263716 82.829245 25.113758 82.921678 24.901323 83.178386 C 24.334828 83.86294 23.321771 85.717273 22.987228 87.122332 C 22.652683 88.52739 22.996722 89.483183 23.914303 90.80221 C 24.831884 92.121237 26.323234 93.803188 27.794686 94.535833 C 29.266138 95.268476 30.717933 95.051796 31.549496 94.92754 C 32.381059 94.803283 32.591901 94.771431 32.936491 94.421111 C 33.281083 94.070791 33.759471 93.401949 33.834111 93.213433 C 33.908751 93.024917 33.579727 93.316566 32.948894 93.49817 C 32.31806 93.679775 31.385242 93.751429 30.545939 93.653199 C 29.706636 93.55497 28.961133 93.287246 28.18691 92.847564 C 27.412688 92.407882 26.609622 91.795816 25.997897 91.145859 C 25.38617 90.495902 24.965922 89.807815 24.965918 89.119626 C 24.965914 88.431435 25.386378 87.743346 25.740031 87.074273 C 26.093686 86.405199 26.380114 85.755354 26.572022 85.253712 C 26.763928 84.752068 26.861138 84.398651 26.701213 84.125099 C 26.541288 83.851545 26.124673 83.657903 25.856303 83.318429 C 25.688573 83.106258 25.57891 82.837003 25.381914 82.832154 z M 20.534664 89.685999 C 20.468299 89.682733 20.459339 89.761137 20.435445 89.97022 C 20.397255 90.304753 20.320476 90.974179 20.387386 91.729286 C 20.454294 92.484392 20.664469 93.325541 21.161499 94.501209 C 21.658531 95.676878 22.171777 96.665385 23.921021 97.752174 C 25.670266 98.838958 26.238944 98.871831 27.591081 98.937631 C 28.943218 99.003431 29.209976 98.993645 29.591992 98.606385 C 29.97401 98.219126 30.471246 97.454212 30.366105 97.215256 C 30.260965 96.976299 29.553507 97.263531 28.291813 97.04369 C 27.030119 96.823849 25.257392 96.114393 24.093103 94.901185 C 22.928814 93.687976 22.488559 92.111292 21.997107 91.141208 C 21.505656 90.171125 20.98962 89.903528 20.731551 89.769715 C 20.634775 89.719535 20.574483 89.687959 20.534664 89.685999 z M 18.580778 94.45315 L 16.458944 97.779562 C 16.248665 98.792721 16.038617 99.805581 16.3158 101.25842 C 16.592983 102.71126 17.357761 104.60384 18.122408 106.49634 L 24.201107 105.80801 C 25.405428 104.1449 26.609757 102.48198 26.705347 101.73643 C 26.800938 100.99089 25.787614 101.1628 24.726656 101.2393 C 23.665697 101.31578 22.557433 101.2966 21.611084 100.87601 C 20.664734 100.45542 19.880895 99.633769 19.40295 98.496315 C 18.925006 97.358859 18.752824 95.905982 18.580778 94.45315 z " /></g></g></svg>
