<?xml version="1.0" encoding="UTF-8" standalone="no"?>
<!-- Created with Inkscape (http://www.inkscape.org/) -->

<svg
   width="135.46666mm"
   height="135.46666mm"
   viewBox="0 0 135.46666 135.46666"
   version="1.1"
   id="svg1"
   inkscape:version="1.3.2 (091e20e, 2023-11-25, custom)"
   xml:space="preserve"
   sodipodi:docname="Togruta_Montral1_east.svg"
   inkscape:export-filename="Output\Togruta_Montral1_eastm.png"
   inkscape:export-xdpi="96"
   inkscape:export-ydpi="96"
   xmlns:inkscape="http://www.inkscape.org/namespaces/inkscape"
   xmlns:sodipodi="http://sodipodi.sourceforge.net/DTD/sodipodi-0.dtd"
   xmlns:xlink="http://www.w3.org/1999/xlink"
   xmlns="http://www.w3.org/2000/svg"
   xmlns:svg="http://www.w3.org/2000/svg"><sodipodi:namedview
     id="namedview1"
     pagecolor="#ffffff"
     bordercolor="#000000"
     borderopacity="0.25"
     inkscape:showpageshadow="2"
     inkscape:pageopacity="0.0"
     inkscape:pagecheckerboard="0"
     inkscape:deskcolor="#d1d1d1"
     inkscape:document-units="px"
     inkscape:zoom="1.4142136"
     inkscape:cx="172.53405"
     inkscape:cy="256.32621"
     inkscape:window-width="3840"
     inkscape:window-height="2066"
     inkscape:window-x="-11"
     inkscape:window-y="-11"
     inkscape:window-maximized="1"
     inkscape:current-layer="layer1" /><defs
     id="defs1"><linearGradient
       id="linearGradient1"
       inkscape:collect="always"><stop
         style="stop-color:#00ff00;stop-opacity:1;"
         offset="0"
         id="stop1" /><stop
         style="stop-color:#000000;stop-opacity:0;"
         offset="1"
         id="stop2" /></linearGradient><inkscape:path-effect
       effect="bspline"
       id="path-effect11"
       is_visible="true"
       lpeversion="1.3"
       weight="33.333333"
       steps="2"
       helper_size="0"
       apply_no_weight="true"
       apply_with_weight="true"
       only_selected="false"
       uniform="false" /><inkscape:path-effect
       effect="bspline"
       id="path-effect10"
       is_visible="true"
       lpeversion="1.3"
       weight="33.333333"
       steps="2"
       helper_size="0"
       apply_no_weight="true"
       apply_with_weight="true"
       only_selected="false"
       uniform="false" /><inkscape:path-effect
       effect="bspline"
       id="path-effect9"
       is_visible="true"
       lpeversion="1.3"
       weight="33.333333"
       steps="2"
       helper_size="0"
       apply_no_weight="true"
       apply_with_weight="true"
       only_selected="false"
       uniform="false" /><inkscape:path-effect
       effect="bspline"
       id="path-effect8"
       is_visible="true"
       lpeversion="1.3"
       weight="33.333333"
       steps="2"
       helper_size="0"
       apply_no_weight="true"
       apply_with_weight="true"
       only_selected="false"
       uniform="false" /><inkscape:path-effect
       effect="bspline"
       id="path-effect7"
       is_visible="true"
       lpeversion="1.3"
       weight="33.333333"
       steps="2"
       helper_size="0"
       apply_no_weight="true"
       apply_with_weight="true"
       only_selected="false"
       uniform="false" /><inkscape:path-effect
       effect="bspline"
       id="path-effect6"
       is_visible="true"
       lpeversion="1.3"
       weight="33.333333"
       steps="2"
       helper_size="0"
       apply_no_weight="true"
       apply_with_weight="true"
       only_selected="false"
       uniform="false" /><inkscape:path-effect
       effect="bspline"
       id="path-effect5"
       is_visible="true"
       lpeversion="1.3"
       weight="33.333333"
       steps="2"
       helper_size="0"
       apply_no_weight="true"
       apply_with_weight="true"
       only_selected="false"
       uniform="false" /><inkscape:path-effect
       effect="bspline"
       id="path-effect4"
       is_visible="true"
       lpeversion="1.3"
       weight="33.333333"
       steps="2"
       helper_size="0"
       apply_no_weight="true"
       apply_with_weight="true"
       only_selected="false"
       uniform="false" /><inkscape:path-effect
       effect="spiro"
       id="path-effect2"
       is_visible="true"
       lpeversion="1" /><inkscape:path-effect
       effect="bspline"
       id="path-effect1"
       is_visible="true"
       lpeversion="1.3"
       weight="33.333333"
       steps="2"
       helper_size="0"
       apply_no_weight="true"
       apply_with_weight="true"
       only_selected="false"
       uniform="false" /><filter
       inkscape:collect="always"
       style="color-interpolation-filters:sRGB"
       id="filter5"
       x="-0.047646718"
       y="-0.029258757"
       width="1.0952934"
       height="1.0585175"><feGaussianBlur
         inkscape:collect="always"
         stdDeviation="0.80822399"
         id="feGaussianBlur5" /></filter><filter
       inkscape:collect="always"
       style="color-interpolation-filters:sRGB"
       id="filter6"
       x="-0.30846127"
       y="-0.2414355"
       width="1.6169225"
       height="1.482871"><feGaussianBlur
         inkscape:collect="always"
         stdDeviation="0.66662804"
         id="feGaussianBlur6" /></filter><filter
       inkscape:collect="always"
       style="color-interpolation-filters:sRGB"
       id="filter7"
       x="-0.20360412"
       y="-0.56122548"
       width="1.4072082"
       height="2.122451"><feGaussianBlur
         inkscape:collect="always"
         stdDeviation="1.1538541"
         id="feGaussianBlur7" /></filter><radialGradient
       inkscape:collect="always"
       xlink:href="#linearGradient1"
       id="radialGradient2"
       cx="66.142601"
       cy="53.383511"
       fx="66.142601"
       fy="53.383511"
       r="22.67613"
       gradientTransform="matrix(2.1201144,0.94723459,-2.5719402,5.7565543,46.894501,-325.14074)"
       gradientUnits="userSpaceOnUse" /></defs><g
     inkscape:label="Layer 1"
     inkscape:groupmode="layer"
     id="layer1"><rect
       style="display:inline;fill:#000000;fill-opacity:0;fill-rule:evenodd;stroke-width:3.73045;stroke-linejoin:bevel"
       id="rect1"
       width="135.46667"
       height="135.46667"
       x="-6.9255066e-06"
       y="-6.9255066e-06" /><g
       id="g7"><path
         style="fill:#000000;fill-opacity:1;fill-rule:evenodd;stroke-width:3.96875;stroke-linejoin:bevel"
         d="m 67.315677,96.999457 c 2.20828,-0.623385 5.677226,-3.892955 5.677226,-3.892955 L 72.830694,69.262153 c 2.355695,-3.907734 4.192583,-5.987344 7.623705,-8.672569 h 14.800144 c 0,0 0.587387,-4.842778 -0.201565,-7.061456 C 90.627829,41.083793 81.572414,29.912606 70.923575,22.099435 c -2.192358,-1.608557 -4.972493,-2.403513 -7.663061,-2.796868 -4.598423,-0.672279 -9.52515,-0.688436 -13.917148,0.830712 -2.217886,0.767144 -5.649957,1.494909 -5.785171,4.012426 -0.101753,1.894524 4.130502,3.916009 4.130502,3.916009 0,0 3.104178,2.803325 3.730747,4.703988 1.423473,4.318025 -0.458789,13.632095 -0.458789,13.632095 -3.202536,4.415275 -6.346972,6.419915 -10.409043,8.103569 -1.208089,0.500731 -3.892955,0.486619 -3.892955,0.486619 0,0 -1.510712,3.420236 -1.404197,5.218436 0.258426,4.362802 1.640274,9.23432 4.877722,12.170261 1.267959,1.149873 4.930004,1.436802 4.930004,1.436802 0.184537,5.145938 1.30582,12.340103 4.743344,17.189107 1.863131,2.628151 7.939967,5.510247 7.939967,5.510247 0,0 6.496137,1.354404 9.57018,0.486619 z"
         id="path2"
         sodipodi:nodetypes="accccaaaaccacacaacaca" /><path
         style="fill:#e9e9e9;fill-opacity:1;fill-rule:evenodd;stroke-width:3.96875;stroke-linejoin:bevel"
         d="m 49.893317,24.659915 c 0,0 3.431711,-1.57831 5.276075,-1.720458 3.32142,-0.255988 6.929571,0.02884 9.863965,1.60576 10.867469,5.840109 20.234793,15.853819 25.118705,27.183257 0.667483,1.548389 0.34409,5.04668 0.34409,5.04668 l -13.07549,0.229393 -8.372901,8.602297 -0.114697,24.201126 c 0,0 -1.783275,2.709447 -3.211524,3.211524 -2.975395,1.04595 -6.635718,0.47673 -9.405175,-1.032275 -2.76844,-1.508451 -4.603383,-4.496738 -5.964258,-7.340627 -1.501866,-3.138526 -2.179249,-10.208057 -2.179249,-10.208057 l 1.949852,-6.652442 -4.58789,3.440917 c 0,0 -2.910606,-1.848654 -3.899708,-3.211523 -1.230192,-1.695064 -2.20216,-3.757148 -2.293945,-5.849561 -0.05938,-1.353659 1.146972,-3.899708 1.146972,-3.899708 l 14.107765,-9.863966 c 0,0 0.972015,-4.024513 1.032276,-6.078956 0.112772,-3.844651 0.120325,-7.880279 -1.261669,-11.469729 -0.915037,-2.376626 -4.473194,-6.193652 -4.473194,-6.193652 z"
         id="path3"
         sodipodi:nodetypes="caaaccccaaacccaaccaac" /><path
         style="mix-blend-mode:multiply;fill:#8d8d8d;fill-opacity:1;fill-rule:evenodd;stroke-width:3.96875;stroke-linejoin:bevel;filter:url(#filter7)"
         d="m 60.67486,89.234483 c 1.52587,0.314217 2.927789,0.602909 4.974028,0.685586 2.046238,0.08268 4.545625,-0.09576 4.717852,0.537591 0.172228,0.633353 -2.00716,2.67653 -4.54965,3.345594 -2.54249,0.669065 -5.792181,0.286748 -9.041938,-0.09558 z"
         id="path4"
         inkscape:path-effect="#path-effect4"
         inkscape:original-d="m 60.67486,89.234483 c 0,0 2.927789,0.60291 4.57761,0.942651 2.442656,-0.174389 4.942043,-0.352828 6.77742,-0.483861 -1.490922,1.39774 -3.67031,3.440917 -5.505468,5.161378 -3.249822,-0.382332 -9.74927,-1.146973 -9.74927,-1.146973 z"
         sodipodi:nodetypes="cccccc" /><path
         style="mix-blend-mode:color-dodge;fill:#ffffff;fill-opacity:1;fill-rule:evenodd;stroke-width:3.96875;stroke-linejoin:bevel;filter:url(#filter5)"
         d="m 62.873225,89.616807 c -1.854273,0.191162 -2.657138,0.649942 -3.460035,-1.510233 -0.802897,-2.160176 -1.605762,-6.939132 -2.179252,-10.685937 -0.573489,-3.746805 -0.917574,-6.461253 -0.03821,-9.13755 0.879367,-2.676297 2.982072,-5.314234 4.173017,-7.177226 1.190946,-1.862991 1.470009,-2.95086 0.189232,-2.721467 -1.280777,0.229392 -4.121374,1.776039 -6.096107,2.128825 -1.974732,0.352786 -3.083425,-0.488291 -3.446641,-1.348539 -0.363216,-0.860248 0.01909,-1.739557 0.70729,-2.141006 0.688198,-0.401448 1.682202,-0.324986 2.657147,-0.286753 0.974946,0.03823 1.930719,0.03823 3.058598,-0.286749 1.127879,-0.324982 2.427757,-0.974921 3.058591,-1.471945 0.630834,-0.497025 0.592602,-0.841109 -0.172061,-1.013156 -0.764663,-0.172047 -2.255699,-0.172047 -2.427733,-0.745545 -0.172034,-0.573497 0.974894,-1.720425 2.96302,-3.154169 1.988125,-1.433744 4.817268,-3.154169 6.537733,-4.664363 1.720465,-1.510194 2.332159,-2.810045 2.657142,-4.530538 0.324982,-1.720493 0.363214,-3.861467 0.229398,-4.721692 -0.133817,-0.860226 -0.43967,-0.439678 -0.821999,0.458798 -0.382329,0.898476 -0.841109,2.274815 -3.211562,0.516074 -2.370453,-1.758741 -6.6524,-6.652394 -7.971403,-8.984569 -1.319002,-2.332175 0.324937,-2.102788 0.609699,-2.36936 0.284763,-0.266573 -0.789697,-1.029093 -0.36914,-1.621696 0.420557,-0.592604 2.336135,-1.015275 5.033518,-0.194332 2.697383,0.820942 6.17652,2.885485 9.961571,5.88677 3.78505,3.001285 7.875838,6.939146 11.087385,11.221224 3.211547,4.282077 5.543679,8.908108 6.499486,11.966718 0.955806,3.05861 0.535258,4.549643 -1.605797,5.352525 -2.141054,0.802882 -6.002452,0.917578 -9.003719,1.701357 -3.001267,0.783779 -5.14224,2.236581 -6.843596,4.339393 -1.701357,2.102811 -2.963002,4.855491 -3.51737,9.118465 -0.554368,4.262973 -0.401441,10.035954 -0.382326,12.960735 0.01911,2.924781 -0.09558,3.001244 -1.605789,3.001243 -1.51021,0 -4.415817,-0.07646 -6.27009,0.114698 z"
         id="path5"
         inkscape:path-effect="#path-effect5"
         inkscape:original-d="m 61.821833,89.349179 c -0.802881,0.45879 -1.605746,0.91757 -2.408643,1.376369 -0.802897,-4.77915 -1.605762,-9.558106 -2.408643,-14.33716 -0.344099,-2.714556 -0.688182,-5.429004 -1.032275,-8.143508 2.102826,-2.63809 4.205531,-5.276027 6.308351,-7.91411 0.279071,-1.0879 0.558134,-2.175769 0.837198,-3.263642 -2.840618,1.546658 -5.681215,3.093306 -8.521915,4.640008 -1.108765,-0.841131 -2.217458,-1.682208 -3.326223,-2.523339 0.382333,-0.879365 0.764641,-1.758674 1.146973,-2.638038 0.994064,0.07647 1.988068,0.152929 2.982131,0.229396 0.955828,0 1.911601,-10e-7 2.86743,-10e-7 1.299929,-0.649964 2.599807,-1.299903 3.899708,-1.949853 -0.03823,-0.344099 -0.07646,-0.688184 -0.114697,-1.032277 -1.491094,0 -2.98213,0 -4.473194,0 1.146996,-1.146995 2.293924,-2.293923 3.44092,-3.440918 2.829255,-1.720493 5.658398,-3.440918 8.487597,-5.161377 0.611731,-1.299929 1.223425,-2.59978 1.835156,-3.899708 0.03823,-2.141058 0.07647,-4.282032 0.114699,-6.423048 -0.305866,0.420565 -0.611719,0.841113 -0.91758,1.261671 -0.458798,1.376394 -0.917578,2.752733 -1.376365,4.1291 -4.28212,-4.893847 -8.564066,-9.787501 -12.846096,-14.681251 1.644026,0.229399 3.287965,0.458786 4.931982,0.688184 -1.074492,-0.762543 -2.148952,-1.525063 -3.223431,-2.287596 1.915593,-0.422674 3.831171,-0.845345 5.74677,-1.26802 3.479167,2.06456 6.958304,4.129104 10.437453,6.193653 4.090953,3.938019 8.18174,7.875881 12.272609,11.813821 2.332225,4.626215 4.664358,9.252246 6.996536,13.878369 -0.420566,1.491097 -0.841114,2.98213 -1.261671,4.473194 -3.861552,0.1147 -7.72295,0.229394 -11.584425,0.344094 -2.141058,1.452861 -4.282032,2.905662 -6.423049,4.358494 -1.261694,2.752792 -2.523339,5.505472 -3.78501,8.258205 0.152935,5.773213 0.305861,11.546194 0.45879,17.319289 -0.114699,0.07647 -0.229394,0.152929 -0.344093,0.229396 -2.905721,-0.07647 -5.811328,-0.152931 -8.716993,-0.229397 z"
         sodipodi:nodetypes="cccccccccccccccccccccccccccccccccc" /><path
         style="mix-blend-mode:color-dodge;fill:#ffffff;fill-opacity:1;fill-rule:evenodd;stroke-width:3.96875;stroke-linejoin:bevel;filter:url(#filter6)"
         d="m 40.201396,57.253059 c 0.783765,-0.439673 1.624878,-0.05735 2.198368,0.401446 0.573489,0.458794 0.879343,0.994037 0.726407,1.988095 -0.152936,0.994057 -0.764643,2.44686 -1.739583,3.26886 -0.974941,0.821999 -2.313047,1.013157 -2.943882,0.458774 -0.630835,-0.554384 -0.554372,-1.854261 -0.152923,-3.13506 0.401448,-1.280799 1.127849,-2.542443 1.911613,-2.982115 z"
         id="path6"
         inkscape:path-effect="#path-effect6"
         inkscape:original-d="m 40.144047,56.431062 c 0.841114,0.382323 1.682227,0.764649 2.52334,1.146972 0.305866,0.535265 0.611719,1.070509 0.91758,1.605761 -0.611733,1.452862 -1.223439,2.905665 -1.835158,4.358498 -1.338162,0.191166 -2.676268,0.382325 -4.014404,0.573487 0.07647,-1.29993 0.152929,-2.599807 0.229394,-3.899707 0.726432,-1.261698 1.452832,-2.523342 2.179248,-3.785011 z" /></g><image
       width="135.46667"
       height="135.46667"
       preserveAspectRatio="none"
       xlink:href="file:///E:/rimworld_modding/rimworld_mods/StarWarsRaces/1.3/Textures/StarWarsRaces/Togruta/Montral/Montral1_eastm.png"
       id="image1"
       x="-6.9255066e-06"
       y="-6.9255066e-06"
       style="display:none" /><g
       id="g11"><rect
         style="fill:#000000;fill-opacity:1;fill-rule:evenodd;stroke-width:15.6519;stroke-linejoin:bevel"
         id="rect11"
         width="135.46667"
         height="135.46667"
         x="-6.9255066e-06"
         y="-6.9255066e-06" /><path
         id="path7"
         style="fill:url(#radialGradient2);fill-opacity:1;fill-rule:evenodd;stroke-width:3.96875;stroke-linejoin:bevel"
         d="M 58.005246 20.643185 C 56.767777 20.643687 55.422432 20.759829 53.81222 21.008537 C 52.034405 21.295286 49.587599 23.436483 49.262627 24.37319 C 48.937654 25.309896 52.454771 28.368551 52.913567 29.630233 C 53.271918 30.615697 54.872753 35.772466 54.901559 35.766293 C 55.70444 35.594235 56.469487 32.191633 56.794467 31.2167 C 57.119446 30.241766 59.413159 30.318526 60.67485 30.165601 C 61.93654 30.012677 64.459995 29.515626 66.218698 30.08912 C 67.977401 30.662613 69.430138 31.847814 70.73005 32.555119 C 72.029963 33.262424 73.520782 35.326611 74.514832 35.728052 C 75.508882 36.129493 75.547417 35.326985 75.967974 35.021119 C 76.388529 34.715252 71.685557 30.662413 69.31515 29.190467 C 66.944741 27.718519 63.466082 27.336043 62.01327 26.036137 C 60.560457 24.736232 66.180129 25.386416 67.059473 24.640873 C 67.938818 23.895331 66.601039 22.557187 66.276059 22.136634 C 62.927861 21.200655 60.727677 20.642079 58.005246 20.643185 z M 65.631137 34.839734 C 64.532926 34.817255 63.138556 35.164446 61.114617 37.238554 C 58.801542 39.608963 55.666478 44.235036 53.754859 46.701026 C 51.843241 49.167014 51.15508 49.473 51.403581 49.721513 C 51.652084 49.970027 52.837344 50.161062 54.099024 49.147905 C 55.360705 48.134749 56.698568 45.917299 57.788205 44.349748 C 58.877841 42.782198 59.719277 41.864341 61.822067 42.896607 C 63.924857 43.928873 67.288797 46.911116 69.296029 48.383094 C 71.303262 49.855072 71.953445 49.817114 72.985727 49.797994 C 74.018008 49.778878 75.432381 49.778607 76.86611 50.944695 C 78.299839 52.110781 79.753015 54.442992 81.033814 56.048776 C 82.314613 57.654559 83.423004 58.533936 84.35971 58.763339 C 85.296415 58.992743 86.060943 58.571998 86.309461 57.902926 C 86.55798 57.233855 86.290558 56.316606 84.875957 54.53879 C 83.461356 52.760976 80.900109 50.122784 79.007581 48.80374 C 77.115052 47.484697 75.891252 47.484917 74.706035 47.293755 C 73.520817 47.102593 72.374128 46.71997 71.074215 45.878854 C 69.774303 45.037738 68.321173 43.738171 67.135954 42.533838 C 65.950737 41.329505 65.033561 40.220649 64.077743 39.45599 C 63.121924 38.691331 62.127485 38.270456 62.146595 37.888127 C 62.165701 37.505799 63.197966 37.162179 64.516993 37.64008 C 65.83602 38.117982 67.442221 39.417399 69.124464 40.258525 C 70.806706 41.09965 72.565365 41.482305 73.979981 41.883749 C 75.394597 42.285193 76.464777 42.705383 77.420598 42.609803 C 78.376419 42.514226 79.217449 41.902733 79.542432 41.233659 C 79.867416 40.564586 79.676563 39.838316 78.606056 39.43687 C 77.535548 39.035423 75.585769 38.95881 74.018222 38.710299 C 72.450674 38.461787 71.265262 38.041496 70.481487 37.506238 C 69.697712 36.970981 69.31554 36.320682 68.703817 35.823654 C 68.092095 35.326626 67.250952 34.982857 66.084856 34.868156 C 65.939094 34.853819 65.788024 34.842946 65.631137 34.839734 z M 61.30737 49.128268 C 60.205209 49.190988 58.796491 49.721301 57.291077 51.155018 C 55.283859 53.06664 53.104983 56.58402 51.690385 58.419174 C 50.275788 60.254329 49.625759 60.407087 48.880221 60.043881 C 48.134683 59.680675 47.29364 58.801424 46.720146 58.036768 C 46.146652 57.272112 45.840938 56.622315 44.923357 56.259099 C 44.005777 55.895884 42.476322 55.819479 41.673426 56.507663 C 40.870531 57.195845 40.794077 58.648741 41.654305 59.298707 C 42.514533 59.948672 44.311234 59.795457 45.534689 60.445407 C 46.758144 61.095355 47.408153 62.548278 48.344853 63.351173 C 49.281552 64.154068 50.504792 64.306818 52.339958 62.586361 C 54.175123 60.865906 56.622162 57.272081 58.113249 55.264844 C 59.604338 53.257607 60.139567 52.837114 60.560128 52.951807 C 60.98069 53.066501 61.286794 53.716775 61.745586 54.48143 C 62.204377 55.246083 62.816118 56.12501 64.307187 57.424919 C 65.798256 58.724829 68.168306 60.445594 70.0226 61.401421 C 71.876894 62.357251 73.214881 62.548095 74.34275 62.433399 C 75.470618 62.318704 76.388138 61.89841 76.598426 61.229338 C 76.808714 60.560268 76.311951 59.642767 75.413485 59.107504 C 74.515019 58.572241 73.214947 58.419094 72.106194 58.036768 C 70.997441 57.654443 70.080222 57.042784 68.837659 55.857573 C 67.595097 54.672362 66.02729 52.913822 64.995 51.613904 C 63.96271 50.313986 63.46565 49.472902 62.299557 49.205266 C 62.008034 49.138357 61.674757 49.107361 61.30737 49.128268 z M 60.825228 60.246969 C 60.315795 60.259664 59.785132 60.475365 59.086317 60.925998 C 57.688685 61.827261 55.61942 63.667964 53.554871 66.153069 C 51.490323 68.638174 49.430227 71.767885 48.189824 73.963445 C 46.949416 76.159005 46.529024 77.420733 46.892229 78.108928 C 47.255432 78.797124 48.402402 78.911922 49.339108 78.644296 C 50.275814 78.37667 51.002078 77.726397 51.116777 77.076433 C 51.231475 76.42647 50.734479 75.776484 51.28886 74.304509 C 51.84324 72.832535 53.448745 70.538974 55.131002 68.531735 C 56.81326 66.524496 58.571968 64.803786 60.368926 64.765556 C 62.165882 64.727323 64.000913 66.371365 64.861158 67.51836 C 65.721403 68.665354 65.606948 69.315353 66.123096 70.366765 C 66.639244 71.418178 67.786208 72.871171 68.608216 73.712297 C 69.430223 74.553424 69.927051 74.782402 70.194683 74.189788 C 70.462314 73.597174 70.500467 72.182907 69.947669 70.401905 C 69.394872 68.620904 68.251344 66.473602 66.817628 64.695793 C 65.383911 62.917985 63.659978 61.509709 62.434949 60.786471 C 61.822435 60.424852 61.334662 60.234274 60.825228 60.246969 z M 58.859457 75.022295 C 58.028311 75.037035 57.360658 75.456267 56.087016 76.88523 C 54.519458 78.643956 52.034277 81.931896 50.753492 84.092026 C 49.472706 86.252155 49.396079 87.284684 49.988681 87.743482 C 50.581282 88.202279 51.843007 88.087562 52.722364 87.686122 C 53.601721 87.284681 54.098617 86.596584 54.633875 85.640768 C 55.169134 84.684952 55.743095 83.461349 56.909188 82.352597 C 58.075282 81.243845 59.833863 80.24986 61.34406 80.096921 C 62.854256 79.943981 64.115728 80.631982 65.396526 81.645147 C 66.677322 82.658312 67.977434 83.996507 68.914141 84.455311 C 69.850848 84.914113 70.424137 84.493909 70.500607 83.671896 C 70.577074 82.849884 70.156734 81.626296 68.990622 80.345484 C 67.82451 79.064673 65.912943 77.726338 64.115984 76.770509 C 62.319025 75.814681 60.6369 75.241369 59.470789 75.06932 C 59.252143 75.037061 59.05126 75.018893 58.859457 75.022295 z " /></g></g></svg>
